<svg width="40" height="40" viewBox="0 0 40 40" fill="none" xmlns="http://www.w3.org/2000/svg">
<g clip-path="url(#clip0_1066_73401)">
<path d="M31.4982 4.47383C28.1554 1.99789 24.1886 0.689686 20.0265 0.689686C16.2313 0.689686 12.4609 1.78211 9.65476 3.65656V0.689686C9.65476 0.308985 9.34579 0 8.96511 0C8.58436 0 8.27539 0.308985 8.27539 0.689686V5.02828C8.27539 5.29586 8.42985 5.5393 8.67196 5.65242C8.91396 5.76623 9.20025 5.72971 9.40579 5.55859C12.0361 3.37375 16.0065 2.06891 20.0265 2.06891C23.8906 2.06891 27.5734 3.28406 30.6775 5.58273C30.8009 5.67375 30.9444 5.71789 31.0872 5.71789C31.2982 5.71789 31.5065 5.62133 31.6416 5.43859C31.8686 5.13242 31.8045 4.7007 31.4982 4.47383Z" fill="#127AFF"/>
<path d="M39.3113 8.27539H34.9726C34.7051 8.27539 34.463 8.43053 34.3492 8.67265C34.2354 8.9147 34.272 9.20093 34.443 9.40648C36.6279 12.0362 37.9328 16.0065 37.9328 20.0272C37.9328 23.8913 36.7176 27.5741 34.4189 30.6775C34.192 30.9837 34.2562 31.4154 34.5624 31.6424C34.6858 31.7334 34.8292 31.7775 34.972 31.7775C35.183 31.7775 35.3913 31.6809 35.5272 31.4982C38.003 28.1555 39.3113 24.1885 39.3113 20.0265C39.3113 16.2313 38.2189 12.4603 36.3445 9.65476H39.3113C39.692 9.65476 40.001 9.34579 40.001 8.9651C40.0009 8.58436 39.692 8.27539 39.3113 8.27539Z" fill="#127AFF"/>
<path d="M31.3268 34.3492C31.0848 34.2361 30.7992 34.2712 30.5929 34.4431C27.9627 36.6279 23.9923 37.9327 19.9723 37.9327C16.1074 37.9327 12.4247 36.7176 9.32123 34.4189C9.01506 34.192 8.58334 34.2562 8.35643 34.5623C8.12952 34.8685 8.19369 35.3003 8.49986 35.5272C11.8426 38.0031 15.8095 39.3114 19.9716 39.3114C23.7667 39.3114 27.5371 38.2189 30.3433 36.3444V39.3114C30.3433 39.6921 30.6523 40.001 31.0329 40.001C31.4137 40.001 31.7227 39.6921 31.7227 39.3114V34.9727C31.7227 34.7051 31.5682 34.4616 31.3268 34.3492Z" fill="#127AFF"/>
<path d="M5.55859 30.5945C3.37375 27.9642 2.06891 23.9945 2.06891 19.9738C2.06891 16.1097 3.28406 12.427 5.58203 9.32354C5.80891 9.01737 5.74474 8.58565 5.43859 8.35868C5.13242 8.13108 4.7007 8.19594 4.47375 8.50211C1.99789 11.8449 0.689686 15.8117 0.689686 19.9738C0.689686 23.769 1.78211 27.5394 3.65656 30.3455H0.689686C0.308985 30.3455 0 30.6545 0 31.0352C0 31.4159 0.308985 31.7249 0.689686 31.7249H5.02828C5.29586 31.7249 5.53859 31.5704 5.65242 31.3283C5.76623 31.0863 5.72971 30.8 5.55859 30.5945Z" fill="#127AFF"/>
<path d="M20.6899 13.1023C20.6892 12.7217 20.3803 12.4141 20.0003 12.4141C20.0003 12.4141 19.9995 12.4141 19.9988 12.4141C19.6174 12.4147 19.3099 12.7244 19.3105 13.1051L19.3271 20.0017C19.3278 20.3823 19.6368 20.6899 20.0168 20.6899C20.0175 20.6899 20.0182 20.6899 20.0182 20.6899C20.3996 20.6892 20.7072 20.3796 20.7065 19.9989L20.6899 13.1023Z" fill="#127AFF"/>
<path d="M20.0179 19.3105H15.8635C15.4828 19.3105 15.1738 19.6195 15.1738 20.0002C15.1738 20.3809 15.4828 20.6899 15.8635 20.6899H20.0179C20.3986 20.6899 20.7077 20.3809 20.7077 20.0002C20.7077 19.6195 20.3986 19.3105 20.0179 19.3105Z" fill="#127AFF"/>
<path d="M19.9984 5.51758C12.0128 5.51758 5.51562 12.0142 5.51562 20.0003C5.51562 27.9865 12.0128 34.483 19.9984 34.483C27.9846 34.483 34.4811 27.9865 34.4811 20.0003C34.4811 12.0142 27.9846 5.51758 19.9984 5.51758ZM19.9984 33.1038C12.7728 33.1038 6.8949 27.2259 6.8949 20.0003C6.8949 12.7748 12.7728 6.89685 19.9984 6.89685C27.2239 6.89685 33.1018 12.7748 33.1018 20.0003C33.1018 27.2259 27.2239 33.1038 19.9984 33.1038Z" fill="#127AFF"/>
<path d="M10.3444 19.3105H8.96511C8.58436 19.3105 8.27539 19.6195 8.27539 20.0002C8.27539 20.3809 8.58436 20.6899 8.96511 20.6899H10.3444C10.7251 20.6899 11.0341 20.3809 11.0341 20.0002C11.0341 19.6195 10.7251 19.3105 10.3444 19.3105Z" fill="#127AFF"/>
<path d="M31.0338 19.3105H29.6546C29.2738 19.3105 28.9648 19.6195 28.9648 20.0002C28.9648 20.3809 29.2738 20.6899 29.6546 20.6899H31.0338C31.4145 20.6899 31.7235 20.3809 31.7235 20.0002C31.7235 19.6195 31.4145 19.3105 31.0338 19.3105Z" fill="#127AFF"/>
<path d="M20.0003 28.9648C19.6195 28.9648 19.3105 29.2738 19.3105 29.6545V31.0338C19.3105 31.4145 19.6195 31.7235 20.0003 31.7235C20.3809 31.7235 20.6899 31.4145 20.6899 31.0338V29.6545C20.6899 29.2737 20.3809 28.9648 20.0003 28.9648Z" fill="#127AFF"/>
<path d="M20.0003 8.27539C19.6195 8.27539 19.3105 8.58436 19.3105 8.9651V10.3444C19.3105 10.7251 19.6195 11.0341 20.0003 11.0341C20.3809 11.0341 20.6899 10.7251 20.6899 10.3444V8.9651C20.6899 8.58436 20.3809 8.27539 20.0003 8.27539Z" fill="#127AFF"/>
<path d="M13.5909 26.4093C13.3219 26.1396 12.8854 26.1396 12.6158 26.4093L11.7096 27.3149C11.4406 27.5838 11.4406 28.0204 11.7096 28.29C11.844 28.4245 12.0206 28.4921 12.1971 28.4921C12.3737 28.4921 12.5503 28.4251 12.6847 28.29L13.5909 27.3845C13.8599 27.1155 13.8599 26.6789 13.5909 26.4093Z" fill="#127AFF"/>
<path d="M28.2881 11.7101C28.0184 11.4404 27.5825 11.4404 27.3129 11.7101L26.4073 12.6156C26.1377 12.8853 26.1377 13.3211 26.4073 13.5907C26.5418 13.7252 26.7184 13.7928 26.8949 13.7928C27.0715 13.7928 27.2481 13.7252 27.3825 13.5907L28.2881 12.6852C28.5577 12.4156 28.5577 11.9798 28.2881 11.7101Z" fill="#127AFF"/>
<path d="M28.2881 27.3149L27.3825 26.4093C27.1128 26.1396 26.677 26.1396 26.4073 26.4093C26.1377 26.679 26.1377 27.1149 26.4073 27.3845L27.3129 28.29C27.4473 28.4245 27.6239 28.4921 27.8005 28.4921C27.977 28.4921 28.1536 28.4251 28.2881 28.29C28.5577 28.0204 28.5577 27.5845 28.2881 27.3149Z" fill="#127AFF"/>
<path d="M13.5914 12.6156L12.6853 11.7101C12.4163 11.4404 11.9797 11.4404 11.7101 11.7101C11.4404 11.9798 11.4404 12.4162 11.7101 12.6852L12.6163 13.5907C12.7507 13.7252 12.9273 13.7928 13.1038 13.7928C13.2804 13.7928 13.457 13.7252 13.5914 13.5907C13.8611 13.3211 13.8611 12.8846 13.5914 12.6156Z" fill="#127AFF"/>
</g>
<defs>
<clipPath id="clip0_1066_73401">
<rect width="40" height="40" fill="white"/>
</clipPath>
</defs>
</svg>
