<svg width="56" height="56" viewBox="0 0 56 56" fill="none" xmlns="http://www.w3.org/2000/svg">
<g clip-path="url(#clip0_250_8254)">
<path d="M15.7033 46.1106H4.45123C4.00946 46.1106 3.65137 45.7525 3.65137 45.3107V42.4942C3.65137 42.0524 4.00946 41.6943 4.45123 41.6943H15.7032C16.1449 41.6943 16.503 42.0524 16.503 42.4942V45.3107C16.503 45.7524 16.1449 46.1106 15.7033 46.1106Z" stroke="#127AFF" stroke-width="1.64062" stroke-miterlimit="10" stroke-linecap="round" stroke-linejoin="round"/>
<path d="M15.7033 50.5266H4.45123C4.00946 50.5266 3.65137 50.1685 3.65137 49.7267V46.9102C3.65137 46.4684 4.00946 46.1104 4.45123 46.1104H15.7032C16.1449 46.1104 16.503 46.4684 16.503 46.9102V49.7267C16.503 50.1685 16.1449 50.5266 15.7033 50.5266Z" stroke="#127AFF" stroke-width="1.64062" stroke-miterlimit="10" stroke-linecap="round" stroke-linejoin="round"/>
<path d="M15.7033 54.9436H4.45123C4.00946 54.9436 3.65137 54.5855 3.65137 54.1437V51.3272C3.65137 50.8854 4.00946 50.5273 4.45123 50.5273H15.7032C16.1449 50.5273 16.503 50.8854 16.503 51.3272V54.1437C16.503 54.5855 16.1449 54.9436 15.7033 54.9436Z" stroke="#127AFF" stroke-width="1.64062" stroke-miterlimit="10" stroke-linecap="round" stroke-linejoin="round"/>
<path d="M24.1661 46.1106H22.3731C21.9313 46.1106 21.5732 45.7525 21.5732 45.3107V42.4942C21.5732 42.0524 21.9313 41.6943 22.3731 41.6943H33.6251C34.0668 41.6943 34.4249 42.0524 34.4249 42.4942V45.3107C34.4249 45.7525 34.0668 46.1106 33.6251 46.1106H27.9991" stroke="#127AFF" stroke-width="1.64062" stroke-miterlimit="10" stroke-linecap="round" stroke-linejoin="round"/>
<path d="M33.6252 46.1105C34.0669 46.1105 34.425 46.4686 34.425 46.9103V49.7268C34.425 50.1686 34.0669 50.5267 33.6252 50.5267H22.3731C21.9313 50.5267 21.5732 50.1686 21.5732 49.7268V46.9102C21.5732 46.4684 21.9313 46.1104 22.3731 46.1104" stroke="#127AFF" stroke-width="1.64062" stroke-miterlimit="10" stroke-linecap="round" stroke-linejoin="round"/>
<path d="M33.6252 54.9436H22.3731C21.9313 54.9436 21.5732 54.5855 21.5732 54.1437V51.3272C21.5732 50.8854 21.9313 50.5273 22.3731 50.5273H33.6251C34.0668 50.5273 34.4249 50.8854 34.4249 51.3272V54.1437C34.4249 54.5855 34.0668 54.9436 33.6252 54.9436Z" stroke="#127AFF" stroke-width="1.64062" stroke-miterlimit="10" stroke-linecap="round" stroke-linejoin="round"/>
<path d="M51.547 46.1106H40.295C39.8532 46.1106 39.4951 45.7525 39.4951 45.3107V42.4942C39.4951 42.0524 39.8532 41.6943 40.295 41.6943H51.5469C51.9887 41.6943 52.3468 42.0524 52.3468 42.4942V45.3107C52.3468 45.7524 51.9887 46.1106 51.547 46.1106Z" stroke="#127AFF" stroke-width="1.64062" stroke-miterlimit="10" stroke-linecap="round" stroke-linejoin="round"/>
<path d="M51.547 50.5266H40.295C39.8532 50.5266 39.4951 50.1685 39.4951 49.7267V46.9102C39.4951 46.4684 39.8532 46.1104 40.295 46.1104H51.5469C51.9887 46.1104 52.3468 46.4684 52.3468 46.9102V49.7267C52.3468 50.1685 51.9887 50.5266 51.547 50.5266Z" stroke="#127AFF" stroke-width="1.64062" stroke-miterlimit="10" stroke-linecap="round" stroke-linejoin="round"/>
<path d="M51.547 54.9436H40.295C39.8532 54.9436 39.4951 54.5855 39.4951 54.1437V51.3272C39.4951 50.8854 39.8532 50.5273 40.295 50.5273H51.5469C51.9887 50.5273 52.3468 50.8854 52.3468 51.3272V54.1437C52.3468 54.5855 51.9887 54.9436 51.547 54.9436Z" stroke="#127AFF" stroke-width="1.64062" stroke-miterlimit="10" stroke-linecap="round" stroke-linejoin="round"/>
<path d="M45.9484 30.3827H48.8237C52.334 30.3827 55.1797 27.537 55.1797 24.0267C55.1797 20.5164 52.334 17.6707 48.8237 17.6707C48.5475 17.6707 48.2762 17.6903 48.0093 17.7244C48.0637 17.3275 48.0942 16.9229 48.0942 16.511C48.0942 11.6208 44.13 7.65666 39.2398 7.65666C37.1364 7.65666 35.2054 8.39155 33.6864 9.61666C31.731 4.60641 26.8579 1.05664 21.1554 1.05664C13.7288 1.05664 7.70831 7.07708 7.70831 14.5037C7.70831 15.619 7.84503 16.7023 8.10097 17.7385C7.79898 17.6945 7.49044 17.6708 7.17631 17.6708C3.66603 17.6708 0.820312 20.5165 0.820312 24.0268C0.820312 27.5371 3.66603 30.3828 7.17631 30.3828H42.1168" stroke="#127AFF" stroke-width="1.64062" stroke-miterlimit="10" stroke-linecap="round" stroke-linejoin="round"/>
<path d="M0.820312 24.0269C0.820312 20.5166 3.66603 17.6709 7.17631 17.6709C9.70834 17.6709 11.8946 19.1515 12.9165 21.2942" stroke="#127AFF" stroke-width="1.64062" stroke-miterlimit="10" stroke-linecap="round" stroke-linejoin="round"/>
<path d="M33.6862 9.61621C33.6862 9.61621 31.8336 11.1117 31.0459 13.8687" stroke="#127AFF" stroke-width="1.64062" stroke-miterlimit="10" stroke-linecap="round" stroke-linejoin="round"/>
<path d="M10.0781 41.6955V35.7793H45.9218V41.6955" stroke="#127AFF" stroke-width="1.64062" stroke-miterlimit="10" stroke-linecap="round" stroke-linejoin="round"/>
<path d="M28 41.6946V24.8965" stroke="#127AFF" stroke-width="1.64062" stroke-miterlimit="10" stroke-linecap="round" stroke-linejoin="round"/>
<path d="M27.9997 24.8968C28.8969 24.8968 29.6243 24.1694 29.6243 23.2721C29.6243 22.3748 28.8969 21.6475 27.9997 21.6475C27.1024 21.6475 26.375 22.3748 26.375 23.2721C26.375 24.1694 27.1024 24.8968 27.9997 24.8968Z" stroke="#127AFF" stroke-width="1.64062" stroke-miterlimit="10" stroke-linecap="round" stroke-linejoin="round"/>
<path d="M23.0768 12.6634C23.9741 12.6634 24.7015 11.936 24.7015 11.0387C24.7015 10.1414 23.9741 9.41406 23.0768 9.41406C22.1795 9.41406 21.4521 10.1414 21.4521 11.0387C21.4521 11.936 22.1795 12.6634 23.0768 12.6634Z" stroke="#127AFF" stroke-width="1.64062" stroke-miterlimit="10" stroke-linecap="round" stroke-linejoin="round"/>
<path d="M23.0771 30.3824V12.6631" stroke="#127AFF" stroke-width="1.64062" stroke-miterlimit="10" stroke-linecap="round" stroke-linejoin="round"/>
</g>
<defs>
<clipPath id="clip0_250_8254">
<rect width="56" height="56" fill="white"/>
</clipPath>
</defs>
</svg>
