<svg width="56" height="56" viewBox="0 0 56 56" fill="none" xmlns="http://www.w3.org/2000/svg">
<g clip-path="url(#clip0_250_1358)">
<mask id="mask0_250_1358" style="mask-type:luminance" maskUnits="userSpaceOnUse" x="-1" y="-1" width="57" height="57">
<path d="M-0.00195312 -0.00194931H55.998V55.998H-0.00195312V-0.00194931Z" fill="white"/>
</mask>
<g mask="url(#mask0_250_1358)">
<path d="M42.6615 37.0957C42.9448 36.2616 42.679 35.297 41.9203 34.739C41.5434 34.462 41.0999 34.328 40.6592 34.3329" stroke="#127AFF" stroke-width="1.5" stroke-miterlimit="10" stroke-linecap="round" stroke-linejoin="round"/>
<path d="M45.0001 40.8057L45.8393 39.9518C46.7037 39.0722 46.6224 37.6393 45.6641 36.863C44.879 36.2271 43.7512 36.244 42.9855 36.9029L39.5674 39.8449" stroke="#127AFF" stroke-width="1.5" stroke-miterlimit="10" stroke-linecap="round" stroke-linejoin="round"/>
<path d="M41.4975 33.2196L36.0995 31.4218C35.6254 31.2639 35.1047 31.4474 34.8342 31.8678L33.6744 33.6701C33.5626 33.8438 33.404 33.9823 33.2168 34.0696L30.0803 35.5324C29.7255 35.6977 29.3092 35.6609 28.9891 35.4358L25.1235 32.7186C24.6981 32.4196 24.5421 31.8622 24.7505 31.3856L25.3268 30.0672C25.4625 29.7569 25.7343 29.5269 26.0627 29.4444L30.2682 28.3889C30.5739 28.3122 30.8316 28.1073 30.9754 27.8268L32.3978 25.0505C32.5716 24.7115 32.5563 24.3063 32.3576 23.9813L30.8273 21.4786C30.6287 21.1536 30.2752 20.9553 29.8943 20.9553H28.6802C28.3078 20.9553 27.961 21.1448 27.7598 21.4582L25.6397 24.7606C25.3754 25.1721 24.87 25.3582 24.4019 25.2163L22.6876 24.6967C22.2982 24.5786 21.8752 24.6866 21.59 24.9772L20.6252 25.9599C20.2583 26.3336 19.678 26.3948 19.2411 26.1058L17.1028 24.6908C16.9195 24.5695 16.7769 24.3957 16.6939 24.1923L15.4397 21.1216C15.3096 20.8034 15.3368 20.4428 15.5129 20.1476L17.4355 16.9243C17.6978 16.4842 18.2306 16.2853 18.7172 16.4458L21.9684 17.5174C22.247 17.6092 22.5508 17.5853 22.8116 17.4509L27.9225 14.8184C28.3105 14.6186 28.5426 14.2072 28.5128 13.7717L28.3581 11.4976C28.3341 11.1468 28.1429 10.8287 27.8442 10.6431L26.733 9.9524C26.2569 9.65643 26.0817 9.04863 26.327 8.54463L28.3725 4.34233" stroke="#127AFF" stroke-width="1.5" stroke-miterlimit="10" stroke-linecap="round" stroke-linejoin="round"/>
<path d="M43.0671 14.8779C42.354 13.3535 41.4385 11.9424 40.3555 10.6794" stroke="#127AFF" stroke-width="1.5" stroke-miterlimit="10" stroke-linecap="round" stroke-linejoin="round"/>
<path d="M32.9326 39.9307C38.6569 37.7413 43.012 32.7838 44.3604 26.6957" stroke="#127AFF" stroke-width="1.5" stroke-miterlimit="10" stroke-linecap="round" stroke-linejoin="round"/>
<path d="M13.1904 35.6345C14.4283 36.8917 15.8451 37.9723 17.3996 38.835" stroke="#127AFF" stroke-width="1.5" stroke-miterlimit="10" stroke-linecap="round" stroke-linejoin="round"/>
<path d="M11.7064 11.4409C9.31046 14.5543 7.88574 18.454 7.88574 22.6864C7.88574 24.5327 8.15688 26.3159 8.66154 27.998" stroke="#127AFF" stroke-width="1.5" stroke-miterlimit="10" stroke-linecap="round" stroke-linejoin="round"/>
<path d="M37.7209 8.15723C34.5856 5.69804 30.6345 4.23154 26.3407 4.23154C24.8109 4.23154 23.3248 4.4178 21.9033 4.76857" stroke="#127AFF" stroke-width="1.5" stroke-miterlimit="10" stroke-linecap="round" stroke-linejoin="round"/>
<path d="M6.71875 48.0957L12.4563 44.3802C13.804 43.5076 14.9019 42.2998 15.6425 40.8752C16.2141 39.7755 17.2108 38.9574 18.4009 38.6111L21.692 37.6531C22.5794 37.3949 23.5244 37.4137 24.4009 37.7072L29.469 39.4038C30.5904 39.7793 31.7652 39.9707 32.9477 39.9707H38.954C40.4917 39.9707 41.7383 41.2172 41.7383 42.755C41.7383 44.2928 40.4917 45.5395 38.954 45.5395H31.7177C30.4757 45.5395 29.2462 45.6869 28.0534 45.9735" stroke="#127AFF" stroke-width="1.5" stroke-miterlimit="10" stroke-linecap="round" stroke-linejoin="round"/>
<path d="M41.7078 42.338L48.807 39.1902C49.7308 38.7806 50.8151 39.0905 51.3829 39.9263C52.0759 40.9464 51.7394 42.3417 50.6574 42.9337L37.8052 49.9678C37.0852 50.3617 36.2676 50.542 35.4485 50.4869L21.1931 49.5286L13.8018 55.1787" stroke="#127AFF" stroke-width="1.5" stroke-miterlimit="10" stroke-linecap="round" stroke-linejoin="round"/>
<path d="M11.6809 27.1637C7.91189 27.2339 6.30484 30.5548 5.91481 32.2417C5.76431 32.8931 5.96917 33.5754 6.44889 34.0411C6.55914 34.1481 6.6824 34.2413 6.81475 34.3196C12.6231 37.7602 14.184 34.5374 15.7778 33.0359C16.6163 32.246 17.5036 32.2502 18.1623 32.4362C18.5974 32.5592 18.9836 32.1224 18.8124 31.7037C18.3482 30.5677 17.3415 28.9138 15.2414 27.936" stroke="#127AFF" stroke-width="1.5" stroke-miterlimit="10" stroke-linecap="round" stroke-linejoin="round"/>
<path d="M4.25391 35.5498C6.9313 31.5983 10.7739 30.5117 13.5661 30.4545" stroke="#127AFF" stroke-width="1.5" stroke-miterlimit="10" stroke-linecap="round" stroke-linejoin="round"/>
<path d="M20.4489 3.05115C21.0697 3.2991 21.5189 3.85188 21.6277 4.51163C21.9368 6.38577 21.641 10.6373 17.1282 11.7746C13.411 12.7113 11.0472 11.0763 9.90655 9.92001C9.58892 9.59801 9.77956 9.04708 10.2289 8.99513C10.9086 8.91638 11.7308 8.58235 12.2054 7.53268C13.1074 5.53746 13.3235 1.96309 20.0045 2.9328C20.1566 2.9549 20.306 2.99427 20.4489 3.05115Z" stroke="#127AFF" stroke-width="1.5" stroke-miterlimit="10" stroke-linecap="round" stroke-linejoin="round"/>
<path d="M21.9039 0.819015C20.9327 5.49239 17.7933 7.96022 15.2334 9.07617" stroke="#127AFF" stroke-width="1.5" stroke-miterlimit="10" stroke-linecap="round" stroke-linejoin="round"/>
<path d="M41.5642 24.3074C42.702 25.8025 44.4518 26.5513 45.5317 26.801C46.1831 26.9515 46.8655 26.7467 47.3312 26.2669C47.4382 26.1566 47.5313 26.0333 47.6096 25.9011C51.0501 20.0926 47.8274 18.5317 46.3259 16.938C45.5359 16.0995 45.5403 15.2122 45.7263 14.5535C45.8492 14.1184 45.4125 13.7322 44.9937 13.9034C43.4901 14.5179 41.0784 16.0811 40.5291 19.8749C40.4808 20.2089 40.4567 20.5282 40.4531 20.8343" stroke="#127AFF" stroke-width="1.5" stroke-miterlimit="10" stroke-linecap="round" stroke-linejoin="round"/>
<path d="M48.8404 28.4629C44.889 25.7854 43.8022 21.9428 43.7451 19.1507" stroke="#127AFF" stroke-width="1.5" stroke-miterlimit="10" stroke-linecap="round" stroke-linejoin="round"/>
</g>
</g>
<defs>
<clipPath id="clip0_250_1358">
<rect width="56" height="56" fill="white"/>
</clipPath>
</defs>
</svg>
