<svg width="56" height="56" viewBox="0 0 56 56" fill="none" xmlns="http://www.w3.org/2000/svg">
<g clip-path="url(#clip0_250_1269)">
<path d="M17.5 44.625C17.5001 46.7515 18.1458 48.8278 19.3517 50.5793C20.5576 52.3307 22.2668 53.6748 24.2533 54.4335C26.2398 55.1923 28.4098 55.3301 30.4763 54.8285C32.5428 54.327 34.4083 53.2099 35.826 51.625L34.5222 50.4586C33.1588 51.9832 31.3044 52.9819 29.2812 53.2814C27.258 53.5809 25.1938 53.1622 23.4472 52.098C21.7006 51.0338 20.382 49.3914 19.7204 47.4561C19.0588 45.5207 19.0961 43.4148 19.8258 41.5041C20.5554 39.5935 21.9313 37.9987 23.7145 36.997C25.4977 35.9953 27.5754 35.6499 29.5868 36.0208C31.5981 36.3917 33.416 37.4555 34.7246 39.0273C36.0332 40.5991 36.7498 42.5797 36.75 44.625C36.75 44.8963 36.7238 45.164 36.6993 45.4326L35.7 44.1L34.3 45.15L36.925 48.65C37.0065 48.7587 37.1122 48.8469 37.2337 48.9076C37.3552 48.9684 37.4892 49 37.625 49C37.7608 49 37.8948 48.9684 38.0163 48.9076C38.1378 48.8469 38.2435 48.7587 38.325 48.65L40.95 45.15L39.55 44.1L38.4405 45.5796C38.4685 45.2629 38.5 44.9452 38.5 44.625C38.5 41.8402 37.3938 39.1695 35.4246 37.2004C33.4555 35.2312 30.7848 34.125 28 34.125C25.2152 34.125 22.5445 35.2312 20.5754 37.2004C18.6062 39.1695 17.5 41.8402 17.5 44.625Z" fill="#127AFF"/>
<path d="M27.1245 44.9592L24.1084 46.4669L24.8906 48.0331L28.3906 46.2831C28.5361 46.2104 28.6584 46.0987 28.7439 45.9603C28.8294 45.822 28.8746 45.6626 28.8745 45.5V38.5H27.1245V44.9592Z" fill="#127AFF"/>
<path d="M42.875 43.75H55.125V45.5H42.875V43.75Z" fill="#127AFF"/>
<path d="M0.875 43.75H15.75V45.5H0.875V43.75Z" fill="#127AFF"/>
<path d="M11.375 42V22.75C11.375 22.5179 11.2828 22.2954 11.1187 22.1313C10.9546 21.9672 10.7321 21.875 10.5 21.875H3.5C3.26794 21.875 3.04538 21.9672 2.88128 22.1313C2.71719 22.2954 2.625 22.5179 2.625 22.75V42H4.375V23.625H9.625V42H11.375Z" fill="#127AFF"/>
<path d="M24.5 13.125H17.5C17.2679 13.125 17.0454 13.2172 16.8813 13.3813C16.7172 13.5454 16.625 13.7679 16.625 14V36.75H18.375V14.875H23.625V32.375H25.375V14C25.375 13.7679 25.2828 13.5454 25.1187 13.3813C24.9546 13.2172 24.7321 13.125 24.5 13.125Z" fill="#127AFF"/>
<path d="M39.375 36.75V22.75C39.375 22.5179 39.2828 22.2954 39.1187 22.1313C38.9546 21.9672 38.7321 21.875 38.5 21.875H31.5C31.2679 21.875 31.0454 21.9672 30.8813 22.1313C30.7172 22.2954 30.625 22.5179 30.625 22.75V32.375H32.375V23.625H37.625V36.75H39.375Z" fill="#127AFF"/>
<path d="M53.375 42V14C53.375 13.7679 53.2828 13.5454 53.1187 13.3813C52.9546 13.2172 52.7321 13.125 52.5 13.125H45.5C45.2679 13.125 45.0454 13.2172 44.8813 13.3813C44.7172 13.5454 44.625 13.7679 44.625 14V42H46.375V14.875H51.625V42H53.375Z" fill="#127AFF"/>
<path d="M48.9997 7.875C49.6919 7.875 50.3686 7.66973 50.9442 7.28515C51.5198 6.90056 51.9684 6.35393 52.2333 5.71439C52.4982 5.07485 52.5675 4.37112 52.4324 3.69219C52.2974 3.01325 51.964 2.38961 51.4746 1.90013C50.9851 1.41064 50.3614 1.0773 49.6825 0.942253C49.0036 0.807205 48.2998 0.876516 47.6603 1.14142C47.0208 1.40633 46.4741 1.85493 46.0895 2.43051C45.705 3.00608 45.4997 3.68277 45.4997 4.375C45.5035 4.73194 45.5625 5.08613 45.6747 5.425L37.4007 10.5875C36.7415 9.95666 35.8609 9.60989 34.9486 9.62183C34.0362 9.63378 33.165 10.0035 32.5226 10.6514L23.4759 5.32875C23.5701 5.0194 23.6201 4.69833 23.6247 4.375C23.6244 3.85799 23.5096 3.34746 23.2885 2.88011C23.0674 2.41276 22.7455 2.0002 22.346 1.67207C21.9464 1.34395 21.4791 1.10842 20.9777 0.982413C20.4763 0.856404 19.9532 0.843047 19.446 0.943301C18.9388 1.04355 18.4601 1.25493 18.0443 1.56223C17.6286 1.86954 17.286 2.26513 17.0414 2.72059C16.7967 3.17605 16.656 3.68005 16.6293 4.19638C16.6027 4.7127 16.6907 5.22852 16.8872 5.70675L8.29644 12.152C7.6825 11.6526 6.91609 11.3784 6.12469 11.375C5.37206 11.374 4.63908 11.6152 4.03401 12.0628C3.42894 12.5103 2.98388 13.1407 2.76455 13.8606C2.54523 14.5806 2.56328 15.352 2.81603 16.0609C3.06879 16.7698 3.54285 17.3787 4.16818 17.7975C4.79352 18.2163 5.53698 18.4229 6.28873 18.3867C7.04049 18.3505 7.76069 18.0735 8.34293 17.5966C8.92518 17.1197 9.33861 16.4682 9.52215 15.7383C9.70569 15.0084 9.64961 14.2388 9.36219 13.5433L17.9564 7.098C18.624 7.64146 19.4702 7.91666 20.3297 7.8699C21.1893 7.82315 22.0006 7.45779 22.6053 6.84513L31.6484 12.1713C31.5543 12.4806 31.5042 12.8017 31.4997 13.125C31.4997 14.0533 31.8684 14.9435 32.5248 15.5999C33.1812 16.2563 34.0714 16.625 34.9997 16.625C35.9279 16.625 36.8182 16.2563 37.4746 15.5999C38.1309 14.9435 38.4997 14.0533 38.4997 13.125C38.4959 12.7681 38.4369 12.4139 38.3247 12.075L46.5987 6.9125C47.2457 7.52985 48.1054 7.87451 48.9997 7.875ZM48.9997 2.625C49.3458 2.625 49.6841 2.72764 49.9719 2.91993C50.2597 3.11222 50.484 3.38553 50.6165 3.70531C50.7489 4.02508 50.7836 4.37694 50.7161 4.71641C50.6485 5.05588 50.4819 5.3677 50.2371 5.61244C49.9924 5.85718 49.6806 6.02385 49.3411 6.09138C49.0016 6.1589 48.6498 6.12424 48.33 5.99179C48.0102 5.85934 47.7369 5.63504 47.5446 5.34725C47.3523 5.05946 47.2497 4.72112 47.2497 4.375C47.2497 3.91087 47.4341 3.46575 47.7622 3.13756C48.0904 2.80938 48.5356 2.625 48.9997 2.625ZM6.12469 16.625C5.77857 16.625 5.44022 16.5224 5.15244 16.3301C4.86465 16.1378 4.64035 15.8645 4.5079 15.5447C4.37544 15.2249 4.34079 14.8731 4.40831 14.5336C4.47584 14.1941 4.64251 13.8823 4.88725 13.6376C5.13199 13.3928 5.44381 13.2262 5.78328 13.1586C6.12274 13.0911 6.47461 13.1258 6.79438 13.2582C7.11415 13.3907 7.38746 13.615 7.57976 13.9028C7.77205 14.1905 7.87469 14.5289 7.87469 14.875C7.87469 15.3391 7.69031 15.7842 7.36212 16.1124C7.03393 16.4406 6.58881 16.625 6.12469 16.625ZM20.1247 6.125C19.7786 6.125 19.4402 6.02237 19.1524 5.83007C18.8647 5.63778 18.6403 5.36447 18.5079 5.0447C18.3754 4.72493 18.3408 4.37306 18.4083 4.03359C18.4758 3.69413 18.6425 3.38231 18.8872 3.13756C19.132 2.89282 19.4438 2.72615 19.7833 2.65863C20.1227 2.5911 20.4746 2.62576 20.7944 2.75821C21.1142 2.89067 21.3875 3.11497 21.5798 3.40275C21.772 3.69054 21.8747 4.02888 21.8747 4.375C21.8747 4.83913 21.6903 5.28425 21.3621 5.61244C21.0339 5.94063 20.5888 6.125 20.1247 6.125ZM34.9997 14.875C34.6536 14.875 34.3152 14.7724 34.0274 14.5801C33.7397 14.3878 33.5153 14.1145 33.3829 13.7947C33.2504 13.4749 33.2158 13.1231 33.2833 12.7836C33.3508 12.4441 33.5175 12.1323 33.7622 11.8876C34.007 11.6428 34.3188 11.4762 34.6583 11.4086C34.9977 11.3411 35.3496 11.3758 35.6694 11.5082C35.9892 11.6407 36.2625 11.865 36.4548 12.1528C36.6471 12.4405 36.7497 12.7789 36.7497 13.125C36.7497 13.5891 36.5653 14.0342 36.2371 14.3624C35.9089 14.6906 35.4638 14.875 34.9997 14.875Z" fill="#127AFF"/>
</g>
<defs>
<clipPath id="clip0_250_1269">
<rect width="56" height="56" fill="white"/>
</clipPath>
</defs>
</svg>
