<svg width="56" height="56" viewBox="0 0 56 56" fill="none" xmlns="http://www.w3.org/2000/svg">
<path d="M36.0674 19.4431L10.8418 34.4365" stroke="#127AFF" stroke-width="1.64" stroke-miterlimit="10" stroke-linecap="round" stroke-linejoin="round"/>
<mask id="mask0_250_1284" style="mask-type:luminance" maskUnits="userSpaceOnUse" x="0" y="0" width="56" height="56">
<path d="M0 3.8147e-06H56V56H0V3.8147e-06Z" fill="white"/>
</mask>
<g mask="url(#mask0_250_1284)">
<path d="M35.707 15.4902L41.3656 15.5747C41.907 15.5829 42.2494 16.1589 41.9979 16.6383L39.3679 21.6494C39.1039 22.1523 38.3908 22.1712 38.1007 21.6829L35.0718 16.5874C34.7817 16.0991 35.1391 15.4817 35.707 15.4902Z" stroke="#127AFF" stroke-width="1.64" stroke-miterlimit="10" stroke-linecap="round" stroke-linejoin="round"/>
<path d="M12.5735 42.3041H8.3592C7.71422 42.3041 7.19141 42.8269 7.19141 43.4719V55.1797H13.7413V43.4719C13.7413 42.8269 13.2184 42.3041 12.5735 42.3041Z" stroke="#127AFF" stroke-width="1.64" stroke-miterlimit="10" stroke-linecap="round" stroke-linejoin="round"/>
<path d="M24.263 36.0601H20.0485C19.4036 36.0601 18.8809 36.5829 18.8809 37.2279V55.1797H25.4308V37.2279C25.4308 36.5829 24.9079 36.0601 24.263 36.0601Z" stroke="#127AFF" stroke-width="1.64" stroke-miterlimit="10" stroke-linecap="round" stroke-linejoin="round"/>
<path d="M35.9525 29.8161H31.7381C31.0931 29.8161 30.5703 30.3389 30.5703 30.9839V55.1797H37.1202V30.9839C37.1202 30.3389 36.5974 29.8161 35.9525 29.8161Z" stroke="#127AFF" stroke-width="1.64" stroke-miterlimit="10" stroke-linecap="round" stroke-linejoin="round"/>
<path d="M5.63184 55.1797H50.3687" stroke="#127AFF" stroke-width="1.64" stroke-miterlimit="10" stroke-linecap="round" stroke-linejoin="round"/>
<path d="M24.3255 11.8319C24.3255 16.0745 20.8862 19.5137 16.6438 19.5137C12.4012 19.5137 8.96191 16.0745 8.96191 11.8319C8.96191 7.58939 12.4012 4.1502 16.6438 4.1502C20.8862 4.1502 24.3255 7.58939 24.3255 11.8319Z" stroke="#127AFF" stroke-width="1.64" stroke-miterlimit="10" stroke-linecap="round" stroke-linejoin="round"/>
<path d="M16.6436 11.832H19.5818" stroke="#127AFF" stroke-width="1.64" stroke-miterlimit="10" stroke-linecap="round" stroke-linejoin="round"/>
<path d="M16.6436 8.061V11.832" stroke="#127AFF" stroke-width="1.64" stroke-miterlimit="10" stroke-linecap="round" stroke-linejoin="round"/>
<path d="M16.6436 5.2832V4.26416" stroke="#127AFF" stroke-width="1.64" stroke-miterlimit="10" stroke-linecap="round" stroke-linejoin="round"/>
<path d="M16.6436 19.4004V18.3813" stroke="#127AFF" stroke-width="1.64" stroke-miterlimit="10" stroke-linecap="round" stroke-linejoin="round"/>
<path d="M10.0951 11.832H9.07617" stroke="#127AFF" stroke-width="1.64" stroke-miterlimit="10" stroke-linecap="round" stroke-linejoin="round"/>
<path d="M24.2124 11.832H23.1934" stroke="#127AFF" stroke-width="1.64" stroke-miterlimit="10" stroke-linecap="round" stroke-linejoin="round"/>
<path d="M18.5581 22.6787C23.7275 21.7726 27.6561 17.2617 27.6561 11.8328C27.6561 5.75096 22.7257 0.820665 16.644 0.820665C10.5622 0.820665 5.63184 5.75096 5.63184 11.8328C5.63184 17.2617 9.56059 21.7726 14.73 22.6787" stroke="#127AFF" stroke-width="1.64" stroke-miterlimit="10" stroke-linecap="round" stroke-linejoin="round"/>
<path d="M48.8087 38.4759V24.7399C48.8087 24.095 48.2859 23.5721 47.6409 23.5721H43.4265C42.7816 23.5721 42.2588 24.095 42.2588 24.7399V55.1797H48.8087V42.3041" stroke="#127AFF" stroke-width="1.64" stroke-miterlimit="10" stroke-linecap="round" stroke-linejoin="round"/>
</g>
</svg>
