<svg width="56" height="56" viewBox="0 0 56 56" fill="none" xmlns="http://www.w3.org/2000/svg">
<g clip-path="url(#clip0_250_1458)">
<path d="M8.91629 2.76839C8.91323 2.81498 8.90918 2.86136 8.90918 2.90861C8.90918 4.06186 9.84412 4.99691 10.9974 4.99691C12.1506 4.99691 13.0856 4.06197 13.0856 2.90861C13.0856 1.75525 12.1506 0.820312 10.9974 0.820312C10.9939 0.820312 10.9906 0.820859 10.9871 0.820859" stroke="#127AFF" stroke-width="1.64" stroke-miterlimit="10" stroke-linecap="round" stroke-linejoin="round"/>
<path d="M19.5286 10.8932C20.6819 10.8932 21.6168 9.95826 21.6168 8.80498C21.6168 7.65171 20.6819 6.7168 19.5286 6.7168C18.3753 6.7168 17.4404 7.65171 17.4404 8.80498C17.4404 9.95826 18.3753 10.8932 19.5286 10.8932Z" stroke="#127AFF" stroke-width="1.64" stroke-miterlimit="10" stroke-linecap="round" stroke-linejoin="round"/>
<path d="M2.9085 21.4996C4.06177 21.4996 4.99669 20.5647 4.99669 19.4114C4.99669 18.2582 4.06177 17.3232 2.9085 17.3232C1.75523 17.3232 0.820312 18.2582 0.820312 19.4114C0.820312 20.5647 1.75523 21.4996 2.9085 21.4996Z" stroke="#127AFF" stroke-width="1.64" stroke-miterlimit="10" stroke-linecap="round" stroke-linejoin="round"/>
<path d="M10.9971 4.99707V22.0421C10.9971 22.3321 11.1124 22.6104 11.3174 22.8155L15.4047 26.9027C15.6097 27.1078 15.725 27.386 15.725 27.6761V29.8232" stroke="#127AFF" stroke-width="1.64" stroke-miterlimit="10" stroke-linecap="round" stroke-linejoin="round"/>
<path d="M19.5283 10.8926V17.7393C19.5283 18.0294 19.6436 18.3077 19.8487 18.5127L24.9092 23.5733C25.1143 23.7784 25.2296 24.0566 25.2296 24.3467V32.8945" stroke="#127AFF" stroke-width="1.64" stroke-miterlimit="10" stroke-linecap="round" stroke-linejoin="round"/>
<path d="M45.0032 4.99669C46.1565 4.99669 47.0914 4.06177 47.0914 2.9085C47.0914 1.75523 46.1565 0.820312 45.0032 0.820312C43.85 0.820312 42.915 1.75523 42.915 2.9085C42.915 4.06177 43.85 4.99669 45.0032 4.99669Z" stroke="#127AFF" stroke-width="1.64" stroke-miterlimit="10" stroke-linecap="round" stroke-linejoin="round"/>
<path d="M36.472 10.8932C37.6253 10.8932 38.5602 9.95826 38.5602 8.80498C38.5602 7.65171 37.6253 6.7168 36.472 6.7168C35.3187 6.7168 34.3838 7.65171 34.3838 8.80498C34.3838 9.95826 35.3187 10.8932 36.472 10.8932Z" stroke="#127AFF" stroke-width="1.64" stroke-miterlimit="10" stroke-linecap="round" stroke-linejoin="round"/>
<path d="M53.0921 21.4996C54.2454 21.4996 55.1803 20.5647 55.1803 19.4114C55.1803 18.2582 54.2454 17.3232 53.0921 17.3232C51.9388 17.3232 51.0039 18.2582 51.0039 19.4114C51.0039 20.5647 51.9388 21.4996 53.0921 21.4996Z" stroke="#127AFF" stroke-width="1.64" stroke-miterlimit="10" stroke-linecap="round" stroke-linejoin="round"/>
<path d="M45.0033 4.99707V22.0421C45.0033 22.3321 44.8881 22.6104 44.683 22.8155L40.5957 26.9027C40.3907 27.1078 40.2754 27.386 40.2754 27.6761V32.9441" stroke="#127AFF" stroke-width="1.64" stroke-miterlimit="10" stroke-linecap="round" stroke-linejoin="round"/>
<path d="M36.4718 10.8926V17.7393C36.4718 18.0294 36.3565 18.3077 36.1514 18.5127L31.0909 23.5733C30.8858 23.7784 30.7705 24.0566 30.7705 24.3467V32.8945" stroke="#127AFF" stroke-width="1.64" stroke-miterlimit="10" stroke-linecap="round" stroke-linejoin="round"/>
<path d="M39.5885 55.1794H41.7708C42.9789 55.1794 43.9583 54.2 43.9583 52.9919V38.3903C43.9583 37.1821 42.9789 36.2028 41.7708 36.2028H22.1298C21.5465 36.2028 20.9873 35.9698 20.5766 35.5557L18.5789 33.5416C18.1682 33.1275 17.6091 32.8945 17.0258 32.8945H14.2285C13.0204 32.8945 12.041 33.8739 12.041 35.082V52.9919C12.041 54.2 13.0204 55.1794 14.2285 55.1794H36.3129" stroke="#127AFF" stroke-width="1.64" stroke-miterlimit="10" stroke-linecap="round" stroke-linejoin="round"/>
<path d="M2.9082 21.5V37.878C2.9082 38.1681 3.02348 38.4463 3.22856 38.6514L8.10636 43.5292" stroke="#127AFF" stroke-width="1.64" stroke-miterlimit="10" stroke-linecap="round" stroke-linejoin="round"/>
<path d="M53.0556 21.5V37.878C53.0556 38.1681 52.9403 38.4463 52.7352 38.6514L47.8574 43.5292" stroke="#127AFF" stroke-width="1.64" stroke-miterlimit="10" stroke-linecap="round" stroke-linejoin="round"/>
<path d="M18.9521 51.5498H31.3473" stroke="#127AFF" stroke-width="1.64" stroke-miterlimit="10" stroke-linecap="round" stroke-linejoin="round"/>
<path d="M34.96 51.5498H37.0483" stroke="#127AFF" stroke-width="1.64" stroke-miterlimit="10" stroke-linecap="round" stroke-linejoin="round"/>
</g>
<defs>
<clipPath id="clip0_250_1458">
<rect width="56" height="56" fill="white"/>
</clipPath>
</defs>
</svg>
