<svg width="40" height="40" viewBox="0 0 40 40" fill="none" xmlns="http://www.w3.org/2000/svg">
<g clip-path="url(#clip0_1066_73400)">
<path d="M30.5813 24.8795C30.5813 24.5116 30.2827 24.2129 29.9147 24.2129H25.9147C25.5467 24.2129 25.248 24.5116 25.248 24.8795C25.248 25.2475 25.5467 25.5461 25.9147 25.5461H29.9147C30.2827 25.5463 30.5813 25.2476 30.5813 24.8795Z" fill="#127AFF"/>
<path d="M27.9153 7.54494V4.21157C27.9153 3.8436 27.6166 3.54492 27.2487 3.54492C26.8807 3.54492 26.582 3.8436 26.582 4.21157V7.54494C26.582 9.38288 28.0773 10.8783 29.9154 10.8783H35.9154V23.5449C35.9154 23.9129 36.214 24.2116 36.5821 24.2116C36.95 24.2116 37.2487 23.9129 37.2487 23.5449V10.2116C37.2487 9.84363 36.95 9.54494 36.5821 9.54494H29.9154C28.8127 9.54494 27.9153 8.64757 27.9153 7.54494Z" fill="#127AFF"/>
<path d="M29.9141 16.2129H24.5807C24.2127 16.2129 23.9141 16.5116 23.9141 16.8795C23.9141 17.2475 24.2127 17.5461 24.5807 17.5461H29.9141C30.2821 17.5461 30.5807 17.2475 30.5807 16.8795C30.5808 16.5116 30.2821 16.2129 29.9141 16.2129Z" fill="#127AFF"/>
<path d="M22.5813 16.8795C22.5813 16.5116 22.2827 16.2129 21.9147 16.2129H17.9147C17.5467 16.2129 17.248 16.5116 17.248 16.8795C17.248 17.2475 17.5467 17.5461 17.9147 17.5461H21.9147C22.2827 17.5463 22.5813 17.2476 22.5813 16.8795Z" fill="#127AFF"/>
<path d="M17.9147 20.2129C17.5467 20.2129 17.248 20.5116 17.248 20.8795C17.248 21.2475 17.5467 21.5461 17.9147 21.5461H19.2481C19.616 21.5461 19.9147 21.2475 19.9147 20.8795C19.9147 20.5116 19.616 20.2129 19.2481 20.2129H17.9147Z" fill="#127AFF"/>
<path d="M17.9147 13.5462H24.5813C24.9493 13.5462 25.248 13.2475 25.248 12.8795C25.248 12.5116 24.9493 12.2129 24.5813 12.2129H17.9147C17.5467 12.2129 17.248 12.5116 17.248 12.8795C17.248 13.2475 17.5467 13.5462 17.9147 13.5462Z" fill="#127AFF"/>
<path d="M21.9147 21.5462H28.5813C28.9493 21.5462 29.248 21.2475 29.248 20.8795C29.248 20.5116 28.9493 20.2129 28.5813 20.2129H21.9147C21.5467 20.2129 21.248 20.5116 21.248 20.8795C21.248 21.2475 21.5467 21.5462 21.9147 21.5462Z" fill="#127AFF"/>
<path d="M25.9147 28.2129C25.5467 28.2129 25.248 28.5116 25.248 28.8795C25.248 29.2475 25.5467 29.5461 25.9147 29.5461H27.2481C27.6161 29.5461 27.9147 29.2475 27.9147 28.8795C27.9147 28.5116 27.6161 28.2129 27.2481 28.2129H25.9147Z" fill="#127AFF"/>
<path d="M23.2481 24.2129H17.9147C17.5467 24.2129 17.248 24.5116 17.248 24.8795C17.248 25.2475 17.5467 25.5461 17.9147 25.5461H23.2481C23.616 25.5461 23.9147 25.2475 23.9147 24.8795C23.9147 24.5116 23.616 24.2129 23.2481 24.2129Z" fill="#127AFF"/>
<path d="M23.2481 28.2129H17.9147C17.5467 28.2129 17.248 28.5116 17.248 28.8795C17.248 29.2475 17.5467 29.5461 17.9147 29.5461H23.2481C23.616 29.5461 23.9147 29.2475 23.9147 28.8795C23.9147 28.5116 23.616 28.2129 23.2481 28.2129Z" fill="#127AFF"/>
<path d="M39.1207 27.6734L37.7874 26.34C36.7627 25.3153 35.2013 25.3174 34.1781 26.34L25.4434 35.0747C25.3187 35.1994 25.248 35.3694 25.248 35.5461V39.5461C25.248 39.914 25.5467 40.2127 25.9147 40.2127H29.9147C30.0913 40.2127 30.2613 40.1421 30.386 40.0174L39.1207 31.2827C40.1828 30.2206 40.1828 28.7361 39.1207 27.6734ZM33.316 29.0874L34.3734 30.1447L28.5813 35.9368L27.524 34.8794L33.316 29.0874ZM26.5814 38.8793V35.822L29.6387 38.8793H26.5814ZM30.5814 37.9367L29.5241 36.8793L35.3161 31.0873L36.3734 32.1446L30.5814 37.9367ZM38.1781 30.34L37.316 31.2021L34.2587 28.1447L35.1207 27.2827C35.6474 26.7567 36.3154 26.754 36.8447 27.2827L38.1781 28.6161C38.7174 29.1561 38.7174 29.8006 38.1781 30.34Z" fill="#127AFF"/>
<path d="M23.2468 38.8795H5.91337C4.81071 38.8795 3.91336 37.9822 3.91336 36.8795V3.54625C3.91336 2.44359 4.81071 1.54625 5.91337 1.54625H26.9708L33.4421 8.01758C33.7027 8.27826 34.1242 8.27826 34.3847 8.01758C34.6455 7.75695 34.6455 7.33552 34.3847 7.07495L27.7181 0.408203C27.5934 0.282891 27.4234 0.212891 27.2468 0.212891H5.91337C4.0754 0.212891 2.58008 1.70821 2.58008 3.54625V36.8796C2.58008 38.7176 4.07539 40.2129 5.91345 40.2129H23.2468C23.6148 40.2129 23.9135 39.9143 23.9135 39.5463C23.9135 39.1784 23.6147 38.8795 23.2468 38.8795Z" fill="#127AFF"/>
<path d="M23.2481 32.2129H17.9147C17.5467 32.2129 17.248 32.5116 17.248 32.8795C17.248 33.2475 17.5467 33.5461 17.9147 33.5461H23.2481C23.616 33.5461 23.9147 33.2475 23.9147 32.8795C23.9147 32.5116 23.616 32.2129 23.2481 32.2129Z" fill="#127AFF"/>
<path d="M14.5794 12.8795C14.5794 12.5116 14.2807 12.2129 13.9127 12.2129H9.91272C9.54478 12.2129 9.24609 12.5116 9.24609 12.8795V16.8795C9.24609 17.2475 9.54478 17.5461 9.91272 17.5461H13.9127C14.2807 17.5461 14.5794 17.2475 14.5794 16.8795V12.8795ZM13.246 16.2129H10.5794V13.5463H13.246V16.2129Z" fill="#127AFF"/>
<path d="M9.91473 33.5462H13.9147C14.2827 33.5462 14.5814 33.2475 14.5814 32.8795V28.8795C14.5814 28.5116 14.2827 28.2129 13.9147 28.2129H9.91473C9.54673 28.2129 9.24805 28.5116 9.24805 28.8795V32.8795C9.24805 33.2475 9.54673 33.5462 9.91473 33.5462ZM10.5814 29.5462H13.2481V32.2128H10.5814V29.5462Z" fill="#127AFF"/>
<path d="M10.775 25.3492C10.9003 25.4745 11.0703 25.5445 11.2463 25.5445C11.2683 25.5445 11.2896 25.5439 11.3123 25.5412C11.511 25.5219 11.6903 25.4138 11.801 25.2478L14.4676 21.2478C14.6716 20.9412 14.589 20.5271 14.2829 20.3232C13.9756 20.1185 13.5629 20.2018 13.3582 20.5078L11.1429 23.8312L10.3843 23.0732C10.1236 22.8125 9.70222 22.8125 9.44159 23.0732C9.18096 23.3339 9.1809 23.7553 9.44159 24.0159L10.775 25.3492Z" fill="#127AFF"/>
</g>
<defs>
<clipPath id="clip0_1066_73400">
<rect width="40" height="40" fill="white"/>
</clipPath>
</defs>
</svg>
