<svg width="56" height="56" viewBox="0 0 56 56" fill="none" xmlns="http://www.w3.org/2000/svg">
<g clip-path="url(#clip0_250_1321)">
<mask id="mask0_250_1321" style="mask-type:luminance" maskUnits="userSpaceOnUse" x="-1" y="-1" width="57" height="57">
<path d="M-0.00195312 -0.00194931H55.998V55.998H-0.00195312V-0.00194931Z" fill="white"/>
</mask>
<g mask="url(#mask0_250_1321)">
<path d="M54.9052 34.4512V47.0293C54.9052 48.2375 53.9258 49.2168 52.7177 49.2168H47.8223" stroke="#127AFF" stroke-width="1.5" stroke-miterlimit="10" stroke-linecap="round" stroke-linejoin="round"/>
<path d="M25.2383 49.2168H3.28027C2.07212 49.2168 1.09277 48.2375 1.09277 47.0293V3.2793C1.09277 2.07114 2.07212 1.0918 3.28027 1.0918H52.7178C53.9258 1.0918 54.9053 2.07114 54.9053 3.2793V24.6074" stroke="#127AFF" stroke-width="1.5" stroke-miterlimit="10" stroke-linecap="round" stroke-linejoin="round"/>
<path d="M49 5.4668H25.375" stroke="#127AFF" stroke-width="1.5" stroke-miterlimit="10" stroke-linecap="round" stroke-linejoin="round"/>
<path d="M1.4209 9.8418H54.5776" stroke="#127AFF" stroke-width="1.5" stroke-miterlimit="10" stroke-linecap="round" stroke-linejoin="round"/>
<path d="M42.5654 41.3428C42.5654 38.0103 39.8638 35.3087 36.5313 35.3087C33.1986 35.3087 30.4971 38.0103 30.4971 41.3428C30.4971 44.6754 33.1986 47.377 36.5313 47.377C39.8638 47.377 42.5654 44.6754 42.5654 41.3428Z" stroke="#127AFF" stroke-width="1.5" stroke-miterlimit="10" stroke-linecap="round" stroke-linejoin="round"/>
<path d="M50.0928 43.748V38.9355H47.7612C47.4655 37.5486 46.9196 36.2543 46.1727 35.1024L47.8219 33.4531L44.4189 30.0501L42.7697 31.6994C41.6177 30.9525 40.3235 30.4066 38.9365 30.1108V27.7793H34.124V30.1108C32.737 30.4066 31.4428 30.9525 30.2909 31.6994L28.6416 30.0501L25.2386 33.4531L26.8879 35.1024C26.141 36.2543 25.5951 37.5486 25.2993 38.9355H22.9678V43.748H25.2993C25.5951 45.135 26.141 46.4293 26.8879 47.5812L25.2386 49.2305L28.6416 52.6335L30.2909 50.9842C31.4428 51.7311 32.737 52.277 34.124 52.5728V54.9043H38.9365V52.5728C40.3235 52.277 41.6177 51.7311 42.7697 50.9842L44.4189 52.6335L47.8219 49.2305L46.1727 47.5812C46.9196 46.4293 47.4655 45.135 47.7612 43.748H50.0928Z" stroke="#127AFF" stroke-width="1.5" stroke-miterlimit="10" stroke-linecap="round" stroke-linejoin="round"/>
<path d="M31.5508 17.5H34.1537" stroke="#127AFF" stroke-width="1.5" stroke-miterlimit="10" stroke-linecap="round" stroke-linejoin="round"/>
<path d="M39.5381 17.501H48.999" stroke="#127AFF" stroke-width="1.5" stroke-miterlimit="10" stroke-linecap="round" stroke-linejoin="round"/>
<path d="M31.5508 22.75H42.6669" stroke="#127AFF" stroke-width="1.5" stroke-miterlimit="10" stroke-linecap="round" stroke-linejoin="round"/>
<path d="M47.1709 22.75H48.9994" stroke="#127AFF" stroke-width="1.5" stroke-miterlimit="10" stroke-linecap="round" stroke-linejoin="round"/>
<path d="M7.00459 38.9355H7" stroke="#127AFF" stroke-width="1.5" stroke-miterlimit="10" stroke-linecap="round" stroke-linejoin="round"/>
<path d="M11.9258 38.9355H17.3134" stroke="#127AFF" stroke-width="1.5" stroke-miterlimit="10" stroke-linecap="round" stroke-linejoin="round"/>
<path d="M7 44.1855H13.5261" stroke="#127AFF" stroke-width="1.5" stroke-miterlimit="10" stroke-linecap="round" stroke-linejoin="round"/>
<path d="M22.2227 23.418C22.2227 22.9199 22.1739 22.4334 22.0817 21.9623L23.863 20.9338L21.4269 16.7146L19.6446 17.7436C18.915 17.1057 18.0613 16.6063 17.1243 16.2863V14.2305H12.2523V16.2863C11.3154 16.6063 10.4617 17.1057 9.73194 17.7436L7.94967 16.7146L5.51367 20.9338L7.29495 21.9623C7.20275 22.4334 7.15386 22.9199 7.15386 23.418C7.15386 23.9161 7.20275 24.4026 7.29495 24.8736L5.51367 25.9021L7.94967 30.1213L9.73194 29.0923C10.4617 29.7302 11.3154 30.2296 12.2523 30.5497V32.6055H17.1243V30.5497C18.0613 30.2296 18.915 29.7302 19.6446 29.0923L21.4269 30.1213L23.863 25.9021L22.0817 24.8736C22.1739 24.4026 22.2227 23.9161 22.2227 23.418Z" stroke="#127AFF" stroke-width="1.5" stroke-miterlimit="10" stroke-linecap="round" stroke-linejoin="round"/>
<path d="M17.3135 23.418C17.3135 21.9682 16.1382 20.793 14.6885 20.793C13.2387 20.793 12.0635 21.9682 12.0635 23.418C12.0635 24.8677 13.2387 26.043 14.6885 26.043C16.1382 26.043 17.3135 24.8677 17.3135 23.418Z" stroke="#127AFF" stroke-width="1.5" stroke-miterlimit="10" stroke-linecap="round" stroke-linejoin="round"/>
</g>
</g>
<defs>
<clipPath id="clip0_250_1321">
<rect width="56" height="56" fill="white"/>
</clipPath>
</defs>
</svg>
