<svg width="40" height="40" viewBox="0 0 40 40" fill="none" xmlns="http://www.w3.org/2000/svg">
<g clip-path="url(#clip0_1066_73433)">
<path d="M39.6745 2.72098C39.5739 2.60153 39.4299 2.52692 39.2743 2.51364L30.569 1.77013L30.4111 0.515593C30.3705 0.192859 30.0753 -0.0358904 29.7533 0.00465641L21.6778 1.01997C21.646 1.01169 21.6134 1.00543 21.5795 1.00255L10.4799 0.054422C10.1602 0.026297 9.87009 0.272078 9.84289 0.591063L9.67741 2.52856L1.07985 3.6095C0.761728 3.6495 0.528992 3.94895 0.568913 4.26731L4.9575 39.1742C4.97743 39.3334 4.94328 39.4863 5.00836 39.6403C5.09961 39.856 5.3168 40 5.55109 40H34.4502C34.7756 40 35.0392 39.7364 35.0392 39.411V38.6439L36.1799 38.7413C36.4995 38.7691 36.7896 38.5238 36.8168 38.2047L39.8108 3.15075C39.8242 2.99505 39.7752 2.84051 39.6745 2.72098ZM4.96211 29.7674L1.81125 4.70473L4.96211 4.30863V29.7674ZM10.9665 1.27825L16.1212 1.71848L10.8726 2.37841L10.9665 1.27825ZM29.3159 1.24692L29.6168 3.64043H10.277L29.3159 1.24692ZM35.6933 37.5175L35.0392 37.4617V20.2495C35.0392 19.9242 34.7756 19.6606 34.4502 19.6606C34.1248 19.6606 33.8612 19.9242 33.8612 20.2495V38.8219H6.14009V4.8184H33.8613V17.501C33.8613 17.8265 34.1249 18.09 34.4503 18.09C34.7757 18.09 35.0393 17.8265 35.0393 17.501V4.22942C35.0393 3.9041 34.7757 3.64043 34.4503 3.64043H30.8041L30.7192 2.9652L38.5871 3.63723L35.6933 37.5175Z" fill="#127AFF"/>
<path d="M31.3069 6.78125H28.1656C27.9686 6.78125 27.7848 6.87959 27.6756 7.04348L26.3425 9.04319C24.9076 8.01531 23.1508 7.40942 21.255 7.40942C20.9297 7.40942 20.666 7.67302 20.666 7.99839V16.1656C20.666 16.4909 20.9296 16.7546 21.255 16.7546H29.4222C29.7476 16.7546 30.0112 16.491 30.0112 16.1656C30.0112 13.658 28.9513 11.3937 27.2565 9.79582L28.4809 7.95919H31.3069C31.6322 7.95919 31.8959 7.69559 31.8959 7.37022C31.8959 7.04485 31.6321 6.78125 31.3069 6.78125ZM28.8105 15.5766H21.844V8.61005C23.2723 8.72039 24.5901 9.22976 25.6882 10.0247L25.1626 10.813C24.9985 11.0591 25.0466 11.4 25.2733 11.5904C25.5388 11.8133 25.9506 11.7545 26.1427 11.4665L26.5925 10.7918C27.8448 12.0357 28.6665 13.7126 28.8105 15.5766Z" fill="#127AFF"/>
<path d="M31.3074 26.2581H25.9797L25.041 24.7562C26.5616 23.1804 27.4987 21.0376 27.4987 18.68C27.4987 18.3546 27.2351 18.091 26.9097 18.091H19.3315V10.5129C19.3315 10.1875 19.0678 9.92383 18.7425 9.92383C13.9144 9.92383 9.98633 13.8519 9.98633 18.68C9.98633 23.5081 13.9144 27.4362 18.7425 27.4362C20.7834 27.4362 22.6632 26.7343 24.1538 25.5594L25.1538 27.1594C25.2614 27.3315 25.4502 27.4362 25.6532 27.4362H31.3074C31.6327 27.4362 31.8964 27.1726 31.8964 26.8472C31.8964 26.5218 31.6327 26.2581 31.3074 26.2581ZM23.0116 21.5091C22.8392 21.233 22.4757 21.1493 22.1999 21.3217C21.9241 21.4941 21.8402 21.8575 22.0126 22.1334L23.5254 24.5538C22.22 25.6187 20.5546 26.2583 18.7426 26.2583C14.564 26.2583 11.1644 22.8587 11.1644 18.6801C11.1644 14.6996 14.2492 11.4261 18.1536 11.1246V18.6801C18.1536 19.0054 18.4173 19.2691 18.7426 19.2691H26.2982C26.1666 20.9723 25.4694 22.5194 24.3948 23.7225L23.0116 21.5091Z" fill="#127AFF"/>
<path d="M13.7184 29.3984H8.69249C8.36729 29.3984 8.10352 29.662 8.10352 29.9874C8.10352 30.3128 8.36717 30.5764 8.69249 30.5764H13.7184C14.0437 30.5764 14.3074 30.3128 14.3074 29.9874C14.3074 29.662 14.0437 29.3984 13.7184 29.3984Z" fill="#127AFF"/>
<path d="M21.2575 29.3984H16.2315C15.9062 29.3984 15.6426 29.662 15.6426 29.9874C15.6426 30.3128 15.9062 30.5764 16.2315 30.5764H21.2575C21.5828 30.5764 21.8465 30.3128 21.8465 29.9874C21.8465 29.662 21.5828 29.3984 21.2575 29.3984Z" fill="#127AFF"/>
<path d="M16.8597 32.5391H8.69249C8.36729 32.5391 8.10352 32.8027 8.10352 33.1281C8.10352 33.4535 8.36717 33.7171 8.69249 33.7171H16.8597C17.185 33.7171 17.4487 33.4535 17.4487 33.1281C17.4487 32.8027 17.1849 32.5391 16.8597 32.5391Z" fill="#127AFF"/>
<path d="M21.255 32.5391H19.3703C19.045 32.5391 18.7812 32.8027 18.7812 33.1281C18.7812 33.4535 19.045 33.7171 19.3703 33.7171H21.255C21.5803 33.7171 21.844 33.4535 21.844 33.1281C21.8439 32.8027 21.5803 32.5391 21.255 32.5391Z" fill="#127AFF"/>
<path d="M11.2055 35.6816H8.69249C8.36729 35.6816 8.10352 35.9452 8.10352 36.2706C8.10352 36.596 8.36717 36.8596 8.69249 36.8596H11.2055C11.5308 36.8596 11.7944 36.596 11.7944 36.2706C11.7944 35.9452 11.5308 35.6816 11.2055 35.6816Z" fill="#127AFF"/>
<path d="M21.2548 35.6816H13.7159C13.3907 35.6816 13.127 35.9452 13.127 36.2706C13.127 36.596 13.3906 36.8596 13.7159 36.8596H21.2548C21.5802 36.8596 21.8438 36.596 21.8438 36.2706C21.8438 35.9452 21.5802 35.6816 21.2548 35.6816Z" fill="#127AFF"/>
</g>
<defs>
<clipPath id="clip0_1066_73433">
<rect width="40" height="40" fill="white"/>
</clipPath>
</defs>
</svg>
