<?xml version="1.0" encoding="UTF-8"?>
<svg xmlns="http://www.w3.org/2000/svg" width="56" height="56" viewBox="0 0 56 56" fill="none">
  <path d="M50.8094 9.17188H31.2939C30.2763 9.17188 29.4514 9.99678 29.4514 11.0144V17.898C29.4514 18.9157 30.2763 19.7406 31.2939 19.7406H35.127V23.3526L39.7424 19.7406H50.8094C51.827 19.7406 52.6519 18.9157 52.6519 17.898V11.0144C52.6519 9.99678 51.827 9.17188 50.8094 9.17188Z" stroke="#127AFF" stroke-width="1.64" stroke-miterlimit="10" stroke-linecap="round" stroke-linejoin="round"></path>
  <path d="M22.0624 2.26074C10.4823 2.26074 1.09375 11.6493 1.09375 23.2292C1.09375 29.0181 3.44148 34.2608 7.23603 38.0555L22.0623 23.2292L22.0624 2.26074Z" stroke="#127AFF" stroke-width="1.64" stroke-miterlimit="10" stroke-linecap="round" stroke-linejoin="round"></path>
  <path d="M22.0994 44.1973C25.8676 44.1907 29.4028 43.1911 32.4565 41.4443C32.5704 40.2026 32.8863 39.0203 33.371 37.929L31.9104 32.5815L37.2238 33.261C38.4439 32.4093 39.8394 31.7924 41.3457 31.4789C42.4301 28.9464 43.031 26.1586 43.031 23.2294C43.031 22.0401 42.9318 20.8748 42.7424 19.7403H39.7425L35.1269 23.3525V19.7403H31.2935C30.2764 19.7403 29.451 18.9159 29.451 17.8976V11.0141C29.451 9.99705 30.2765 9.17149 31.2935 9.17149H37.6205C33.7837 4.92763 28.2343 2.26074 22.0624 2.26074V23.2294L7.23602 38.0556V38.0567C8.75294 39.5735 10.5015 40.8581 12.4234 41.8548" stroke="#127AFF" stroke-width="1.64" stroke-miterlimit="10" stroke-linecap="round" stroke-linejoin="round"></path>
  <path d="M43.6562 31.2402C41.2641 31.2402 39.0469 31.9875 37.2239 33.2605L31.9103 32.5808L33.3708 37.9292C32.7518 39.323 32.4074 40.8658 32.4074 42.4892C32.4074 45.6234 33.6893 48.4592 35.7567 50.4982C37.7877 52.5031 40.5768 53.7393 43.6563 53.7393C46.7528 53.7393 49.5568 52.4882 51.5912 50.4652C53.6393 48.4274 54.9064 45.6063 54.9064 42.4892C54.9063 36.2767 49.8698 31.2402 43.6562 31.2402Z" stroke="#127AFF" stroke-width="1.64" stroke-miterlimit="10" stroke-linecap="round" stroke-linejoin="round"></path>
  <path d="M43.6562 31.2402C41.2641 31.2402 39.0469 31.9875 37.2239 33.2605L31.9103 32.5808L33.3708 37.9292C32.7518 39.323 32.4074 40.8658 32.4074 42.4892C32.4074 45.6234 33.6893 48.4592 35.7567 50.4982C37.7877 52.5031 40.5768 53.7393 43.6563 53.7393C46.7528 53.7393 49.5568 52.4882 51.5912 50.4652C53.6393 48.4274 54.9064 45.6063 54.9064 42.4892C54.9063 36.2767 49.8698 31.2402 43.6562 31.2402Z" stroke="#127AFF" stroke-width="1.64" stroke-miterlimit="10" stroke-linecap="round" stroke-linejoin="round"></path>
  <path d="M43.6736 44.2155C41.7686 44.2155 40.2242 42.6711 40.2242 40.7661V39.4484C40.2242 37.5434 41.7686 35.999 43.6736 35.999C45.5786 35.999 47.123 37.5434 47.123 39.4484V40.7661C47.123 42.6712 45.5786 44.2155 43.6736 44.2155Z" stroke="#127AFF" stroke-width="1.64" stroke-miterlimit="10" stroke-linecap="round" stroke-linejoin="round"></path>
  <path d="M51.5911 48.7641V50.4649C49.5568 52.4879 46.7527 53.739 43.6562 53.739C40.5767 53.739 37.7876 52.5026 35.7566 50.4979V48.7641C35.7566 46.2527 37.7922 44.2148 40.3046 44.2148H47.0419C49.5557 44.2148 51.5911 46.2526 51.5911 48.7641Z" stroke="#127AFF" stroke-width="1.64" stroke-miterlimit="10" stroke-linecap="round" stroke-linejoin="round"></path>
  <path d="M39.7836 49.335V53.049" stroke="#127AFF" stroke-width="1.64" stroke-miterlimit="10" stroke-linecap="round" stroke-linejoin="round"></path>
  <path d="M47.5432 49.335V53.049" stroke="#127AFF" stroke-width="1.64" stroke-miterlimit="10" stroke-linecap="round" stroke-linejoin="round"></path>
  <path d="M7.74683 16.4688H17.0367" stroke="#127AFF" stroke-width="1.64" stroke-miterlimit="10" stroke-linecap="round" stroke-linejoin="round"></path>
  <path d="M7.74683 21.3994H12.3918" stroke="#127AFF" stroke-width="1.64" stroke-miterlimit="10" stroke-linecap="round" stroke-linejoin="round"></path>
  <path d="M34.8173 14.4561H47.305" stroke="#127AFF" stroke-width="1.64" stroke-miterlimit="10" stroke-linecap="round" stroke-linejoin="round"></path>
  <circle cx="17.1118" cy="43.6094" r="1.09375" fill="#127AFF"></circle>
</svg>
