<?xml version="1.0" encoding="UTF-8"?>
<svg xmlns="http://www.w3.org/2000/svg" width="56" height="56" viewBox="0 0 56 56" fill="none">
  <g clip-path="url(#clip0_97_5389)">
    <mask id="mask0_97_5389" style="mask-type:luminance" maskUnits="userSpaceOnUse" x="-1" y="0" width="57" height="57">
      <path d="M-0.00012207 0.00195694H55.9999V56.002H-0.00012207V0.00195694Z" fill="white"></path>
    </mask>
    <g mask="url(#mask0_97_5389)">
      <path d="M41.0892 44.3322C39.5201 45.447 37.8079 46.3722 35.9865 47.0768L38.2884 54.1044C38.499 54.7476 39.0993 55.1826 39.7761 55.1826H42.4832C43.5483 55.1826 44.3024 54.1419 43.9709 53.1299L41.0892 44.3322Z" stroke="#127AFF" stroke-width="1.64062" stroke-miterlimit="10" stroke-linecap="round" stroke-linejoin="round"></path>
      <path d="M14.0615 44.3322L11.1798 53.1299C10.8482 54.1419 11.6024 55.1826 12.6675 55.1826H15.3746C16.0514 55.1826 16.6517 54.7476 16.8623 54.1044L19.1642 47.0768C17.3428 46.3722 15.6305 45.447 14.0615 44.3322Z" stroke="#127AFF" stroke-width="1.64062" stroke-miterlimit="10" stroke-linecap="round" stroke-linejoin="round"></path>
      <path d="M40.883 36C43.26 33.061 44.6863 29.3229 44.6863 25.2573C44.6863 21.125 43.2139 17.3303 40.7662 14.37L29.9953 25.2573C29.3271 25.9255 28.2436 25.9255 27.5754 25.2573C26.9073 24.589 26.9073 23.5057 27.5754 22.8374L38.334 11.9626C35.3927 9.57765 31.6483 8.14637 27.5754 8.14637C18.1404 8.14637 10.4646 15.8223 10.4646 25.2573C10.4646 34.6922 18.1404 42.3682 27.5754 42.3682C31.7659 42.3682 35.6085 40.8531 38.5865 38.3432" stroke="#127AFF" stroke-width="1.64062" stroke-miterlimit="10" stroke-linecap="round" stroke-linejoin="round"></path>
      <path d="M29.9952 25.2569C29.327 25.925 28.2436 25.925 27.5754 25.2569C26.9072 24.5887 26.9072 23.5052 27.5754 22.837L33.8894 16.4547C32.1102 15.1749 29.9294 14.42 27.5754 14.42C21.5999 14.42 16.7385 19.2814 16.7385 25.2569C16.7385 31.2323 21.5999 36.0938 27.5754 36.0938C33.5508 36.0938 38.4123 31.2323 38.4123 25.2569C38.4123 22.8678 37.6346 20.6572 36.3198 18.8638L29.9952 25.2569Z" stroke="#127AFF" stroke-width="1.64062" stroke-miterlimit="10" stroke-linecap="round" stroke-linejoin="round"></path>
      <path d="M29.9952 25.2564C29.327 25.9246 28.2435 25.9246 27.5754 25.2564C26.9072 24.5883 26.9072 23.5048 27.5754 22.8365L29.3437 21.0491C28.7998 20.8202 28.2024 20.6935 27.5754 20.6935C25.0554 20.6935 23.0125 22.7364 23.0125 25.2564C23.0125 27.7764 25.0554 29.8193 27.5754 29.8193C30.0954 29.8193 32.1383 27.7764 32.1383 25.2564C32.1383 24.619 32.0071 24.0123 31.7711 23.4614L29.9952 25.2564Z" stroke="#127AFF" stroke-width="1.64062" stroke-miterlimit="10" stroke-linecap="round" stroke-linejoin="round"></path>
      <path d="M48.5142 4.94388L47.6887 4.11843C47.2485 3.67819 46.5346 3.67819 46.0944 4.11843L27.5753 22.8377C26.907 23.506 26.907 24.5894 27.5753 25.2577C28.2435 25.9258 29.3268 25.9258 29.9951 25.2577L48.5142 6.53824C48.9544 6.09801 48.9544 5.38412 48.5142 4.94388Z" stroke="#127AFF" stroke-width="1.64062" stroke-miterlimit="10" stroke-linecap="round" stroke-linejoin="round"></path>
      <path d="M51.0304 6.72446L48.5143 6.53754L43.1847 11.9248L47.6139 11.7146C47.8506 11.7261 48.0813 11.6371 48.2489 11.4695L51.5622 8.15618C52.0704 7.64791 51.7471 6.77773 51.0304 6.72446Z" stroke="#127AFF" stroke-width="1.64062" stroke-miterlimit="10" stroke-linecap="round" stroke-linejoin="round"></path>
      <path d="M11.0896 8.68877C6.83074 12.9264 4.19043 18.7894 4.19043 25.2578C4.19043 38.1521 14.6808 48.6426 27.5754 48.6426C40.4698 48.6426 50.9602 38.1521 50.9602 25.2578C50.9602 20.234 49.3662 15.5762 46.6595 11.7607L43.1847 11.9256L29.9952 25.2578C29.327 25.9259 28.2435 25.9259 27.5754 25.2578C26.9072 24.5895 26.9072 23.5061 27.5754 22.8378L40.7014 9.56989L40.8693 6.03129C37.0922 3.4111 32.5105 1.87285 27.5754 1.87285C22.3302 1.87285 17.4829 3.60885 13.5775 6.53627" stroke="#127AFF" stroke-width="1.64062" stroke-miterlimit="10" stroke-linecap="round" stroke-linejoin="round"></path>
      <path d="M46.0944 4.11809L45.9076 1.60191C45.8543 0.88518 44.984 0.561977 44.4758 1.07013L41.1624 4.38354C40.9949 4.5511 40.9058 4.78166 40.9174 5.01846L40.7014 9.56934L46.0944 4.11809Z" stroke="#127AFF" stroke-width="1.64062" stroke-miterlimit="10" stroke-linecap="round" stroke-linejoin="round"></path>
    </g>
  </g>
  <defs>
    <clipPath id="clip0_97_5389">
      <rect width="56" height="56" fill="white"></rect>
    </clipPath>
  </defs>
</svg>
