<?xml version="1.0" encoding="UTF-8"?>
<svg xmlns="http://www.w3.org/2000/svg" width="56" height="56" viewBox="0 0 56 56" fill="none">
  <g clip-path="url(#clip0_97_5028)">
    <path d="M11.3761 11.6398L12.0772 11.9078C13.4838 10.6795 15.1277 9.71808 16.9313 9.1012L17.7407 4.04587C17.885 3.14242 18.6638 2.47852 19.5793 2.47852H23.7158C24.6313 2.47852 25.4101 3.14242 25.5544 4.04587L26.3638 9.1012C28.1674 9.71808 29.8113 10.6795 31.2179 11.9078L36.0053 10.079C36.8595 9.75308 37.8242 10.0943 38.2814 10.8873L40.3507 14.4704C40.8068 15.2623 40.622 16.2686 39.9121 16.8461L35.9374 20.0748C36.1135 20.9837 36.2076 21.92 36.2076 22.8792C36.2076 23.8384 36.1135 24.7758 35.9374 25.6836L39.8093 28.8282" stroke="#127AFF" stroke-width="1.64063" stroke-miterlimit="10" stroke-linecap="round" stroke-linejoin="round"></path>
    <path d="M7.83352 10.2866L7.28992 10.0788C6.4357 9.75288 5.47101 10.0941 5.01382 10.8871L2.94553 14.4702C2.48834 15.2621 2.67319 16.2684 3.38303 16.8459L7.35773 20.0746C7.18164 20.9835 7.08758 21.9198 7.08758 22.879C7.08758 23.8382 7.18164 24.7756 7.35773 25.6834L3.38303 28.9122C2.67319 29.4897 2.48834 30.497 2.94553 31.2878L5.01382 34.8709C5.47101 35.6639 6.4357 36.0063 7.28992 35.6792L12.0773 33.8516C13.4839 35.0788 15.1278 36.0402 16.9314 36.657L17.7407 41.7135C17.8851 42.6169 18.6639 43.2808 19.5793 43.2808H23.7159C24.6314 43.2808 25.4101 42.6169 25.5545 41.7135L26.3639 36.657C28.1675 36.0402 29.8114 35.0788 31.218 33.8516L31.5122 33.9631" stroke="#127AFF" stroke-width="1.64063" stroke-miterlimit="10" stroke-linecap="round" stroke-linejoin="round"></path>
    <path d="M21.6478 32.8283C27.1426 32.8283 31.5971 28.3738 31.5971 22.879C31.5971 17.3841 27.1426 12.9297 21.6478 12.9297C16.1529 12.9297 11.6985 17.3841 11.6985 22.879C11.6985 28.3738 16.1529 32.8283 21.6478 32.8283Z" stroke="#127AFF" stroke-width="1.64063" stroke-miterlimit="10" stroke-linecap="round" stroke-linejoin="round"></path>
    <path d="M0.820312 34.1699C4.83131 41.5535 12.6541 46.5658 21.6477 46.5658" stroke="#127AFF" stroke-width="1.64063" stroke-miterlimit="10" stroke-linecap="round" stroke-linejoin="round"></path>
    <path d="M21.6478 12.9297V14.7713" stroke="#127AFF" stroke-width="1.64063" stroke-miterlimit="10" stroke-linecap="round" stroke-linejoin="round"></path>
    <path d="M21.6478 30.9863V32.8281" stroke="#127AFF" stroke-width="1.64063" stroke-miterlimit="10" stroke-linecap="round" stroke-linejoin="round"></path>
    <path d="M31.5971 22.8789H29.7555" stroke="#127AFF" stroke-width="1.64063" stroke-miterlimit="10" stroke-linecap="round" stroke-linejoin="round"></path>
    <path d="M13.5401 22.8789H11.6985" stroke="#127AFF" stroke-width="1.64063" stroke-miterlimit="10" stroke-linecap="round" stroke-linejoin="round"></path>
    <path d="M17.7343 18.9658L21.6478 22.8794L24.4136 20.1135" stroke="#127AFF" stroke-width="1.64063" stroke-miterlimit="10" stroke-linecap="round" stroke-linejoin="round"></path>
    <path d="M54.0363 39.1618L51.2183 38.7822C51.0111 38.0491 50.7192 37.3516 50.3545 36.7003L52.0796 34.438C52.4802 33.9127 52.4306 33.1721 51.9633 32.705L50.6229 31.3646C50.1558 30.8975 49.4152 30.8478 48.8899 31.2485L46.6277 32.9735C45.9764 32.6089 45.2789 32.3169 44.5457 32.1098L44.1661 29.2917C44.0779 28.637 43.5191 28.1484 42.8584 28.1484H40.9627C40.3021 28.1484 39.7433 28.637 39.655 29.2917L39.2754 32.1098C38.5423 32.3169 37.8448 32.6089 37.1934 32.9735L34.9315 31.2485C34.4061 30.8478 33.6655 30.8975 33.1984 31.3646L31.858 32.705C31.3909 33.1721 31.3412 33.9127 31.7419 34.438L33.4669 36.7003C33.1023 37.3516 32.8103 38.0491 32.6032 38.7822L29.7851 39.1618C29.1304 39.25 28.6418 39.8089 28.6418 40.4695V42.3652C28.6418 43.0258 29.1304 43.5846 29.7851 43.6729L32.6032 44.0525C32.8103 44.7858 33.1023 45.4833 33.4669 46.1345L31.7419 48.3967C31.3412 48.922 31.3909 49.6626 31.858 50.1298L33.1984 51.4701C33.6655 51.9373 34.4061 51.9869 34.9315 51.5864L37.1937 49.8613C37.845 50.226 38.5425 50.5179 39.2756 50.7251L39.6553 53.5431C39.7434 54.1978 40.3023 54.6864 40.9629 54.6864H42.8586C43.5193 54.6864 44.078 54.1978 44.1663 53.5431L44.546 50.7251C45.2791 50.5179 45.9767 50.226 46.6279 49.8613L48.8901 51.5864C49.4154 51.9869 50.156 51.9373 50.6232 51.4701L51.9635 50.1298C52.4307 49.6626 52.4803 48.922 52.0798 48.3967L50.3546 46.1344C50.7193 45.4831 51.0112 44.7856 51.2184 44.0524L54.0364 43.6728C54.6911 43.5846 55.1797 43.0258 55.1797 42.3651V40.4694C55.1796 39.8089 54.691 39.2501 54.0363 39.1618Z" stroke="#127AFF" stroke-width="1.64063" stroke-miterlimit="10" stroke-linecap="round" stroke-linejoin="round"></path>
    <path d="M40.3344 46.3189C40.831 46.4786 41.3603 46.565 41.9105 46.565C44.7542 46.565 47.0588 44.2605 47.0588 41.4167C47.0588 38.5741 44.7542 36.2695 41.9105 36.2695C39.0678 36.2695 36.7622 38.5741 36.7622 41.4167C36.7622 42.33 36.9996 43.1875 37.4174 43.9312" stroke="#127AFF" stroke-width="1.64063" stroke-miterlimit="10" stroke-linecap="round" stroke-linejoin="round"></path>
    <path d="M53.6421 19.085L54.5718 17.1644C54.9907 16.2981 54.6287 15.2558 53.7624 14.8369C52.8962 14.4169 51.8538 14.78 51.4349 15.6463L48.3265 22.0655L46.1805 19.1189C45.614 18.3413 44.5235 18.1695 43.7458 18.7361C42.9682 19.3027 42.7965 20.3931 43.363 21.1708L47.2196 26.4667C47.5488 26.9195 48.0738 27.1831 48.6283 27.1831C48.6798 27.1831 48.7312 27.1809 48.7837 27.1766C49.3929 27.1219 49.9299 26.7511 50.1968 26.1998L51.996 22.4833" stroke="#127AFF" stroke-width="1.64063" stroke-miterlimit="10" stroke-linecap="round" stroke-linejoin="round"></path>
    <path d="M44.2691 15.8358C42.2729 9.41765 37.6204 4.16973 31.5975 1.37793" stroke="#127AFF" stroke-width="1.64063" stroke-miterlimit="10" stroke-linecap="round" stroke-linejoin="round"></path>
    <path d="M2.17236 41.8936C5.28999 45.0862 9.18604 47.5152 13.5538 48.8738" stroke="#127AFF" stroke-width="1.64063" stroke-miterlimit="10" stroke-linecap="round" stroke-linejoin="round"></path>
    <path d="M45.1255 9.09944C43.3518 6.08387 41.0137 3.44016 38.2562 1.31348" stroke="#127AFF" stroke-width="1.64063" stroke-miterlimit="10" stroke-linecap="round" stroke-linejoin="round"></path>
  </g>
  <defs>
    <clipPath id="clip0_97_5028">
      <rect width="56" height="56" fill="white"></rect>
    </clipPath>
  </defs>
</svg>
