<?xml version="1.0" encoding="UTF-8"?>
<svg xmlns="http://www.w3.org/2000/svg" width="56" height="56" viewBox="0 0 56 56" fill="none">
  <path d="M40.9062 16.9975H37.6986C36.0852 16.9975 34.7773 18.3054 34.7773 19.9188V21.7265H48.1733V23.4783C48.1733 23.7723 48.5134 23.9357 48.7428 23.7521L53.8873 19.6358C54.0627 19.4954 54.0627 19.2287 53.8873 19.0883L48.7428 14.972C48.5134 14.7884 48.1733 14.9518 48.1733 15.2458V16.9975H44.7343" stroke="#127AFF" stroke-width="1.64062" stroke-miterlimit="10" stroke-linecap="round" stroke-linejoin="round"></path>
  <path d="M39.5062 31.3208V21.7266H34.7773V27.424C36.6152 28.3804 38.2256 29.7133 39.5062 31.3208Z" stroke="#127AFF" stroke-width="1.64062" stroke-miterlimit="10" stroke-linecap="round" stroke-linejoin="round"></path>
  <path d="M16.4937 21.7266V31.3208C17.7745 29.7133 19.3847 28.3804 21.2227 27.424V21.7266H16.4937Z" stroke="#127AFF" stroke-width="1.64062" stroke-miterlimit="10" stroke-linecap="round" stroke-linejoin="round"></path>
  <path d="M2.11256 19.0883L7.25701 14.972C7.48659 14.7884 7.82653 14.9518 7.82653 15.2458V16.9975H18.3013C19.9147 16.9975 21.2226 18.3054 21.2226 19.9188V21.7265H7.82664V23.4783C7.82664 23.7723 7.48659 23.9357 7.25712 23.7521L2.11267 19.6358C1.93723 19.4954 1.93723 19.2287 2.11256 19.0883Z" stroke="#127AFF" stroke-width="1.64062" stroke-miterlimit="10" stroke-linecap="round" stroke-linejoin="round"></path>
  <path d="M21.8389 8.85938C22.5693 11.5785 25.0502 13.5808 28 13.5808C31.5237 13.5808 34.3802 10.7242 34.3802 7.20048C34.3802 3.67686 31.5237 0.820312 28 0.820312C25.238 0.820312 22.8865 2.57556 21.9986 5.03125" stroke="#127AFF" stroke-width="1.64062" stroke-miterlimit="10" stroke-linecap="round" stroke-linejoin="round"></path>
  <path d="M24.8853 6.88823L27.3453 9.3483L31.1585 5.53516" stroke="#127AFF" stroke-width="1.64062" stroke-miterlimit="10" stroke-linecap="round" stroke-linejoin="round"></path>
  <path d="M22.3408 48.1472V45.5592C22.3408 45.2484 22.0889 44.9966 21.7782 44.9966H20.7366C20.4979 44.9966 20.2875 44.8451 20.2068 44.6204C20.1371 44.4266 20.0588 44.2369 19.9719 44.0521C19.8706 43.8362 19.9122 43.5807 20.0809 43.4119L20.817 42.6758C21.0367 42.4561 21.0367 42.0999 20.817 41.8801L18.9869 40.0502C18.7672 39.8304 18.4109 39.8304 18.1912 40.0502L17.4552 40.7863C17.2866 40.9549 17.0311 40.9966 16.8151 40.8952C16.6302 40.8084 16.4406 40.7301 16.2467 40.6604C16.0221 40.5797 15.8706 40.3692 15.8706 40.1306V39.089C15.8706 38.7783 15.6187 38.5264 15.308 38.5264H12.7199C12.4092 38.5264 12.1573 38.7783 12.1573 39.089V40.1306C12.1573 40.3692 12.0058 40.5797 11.7812 40.6604C11.5874 40.7301 11.3977 40.8084 11.2129 40.8952C10.997 40.9966 10.7415 40.9549 10.5727 40.7863L9.83671 40.0502C9.61698 39.8304 9.26074 39.8304 9.04101 40.0502L7.21095 41.8801C6.99121 42.0999 6.99121 42.4561 7.21095 42.6758L7.94704 43.4119C8.1157 43.5806 8.15737 43.8361 8.05598 44.0521C7.96913 44.2369 7.89082 44.4266 7.82115 44.6204C7.74043 44.8451 7.52999 44.9966 7.29134 44.9966H6.24976C5.93902 44.9966 5.68713 45.2484 5.68713 45.5592V48.1472C5.68713 48.4579 5.93902 48.7098 6.24976 48.7098H7.29134C7.52999 48.7098 7.74043 48.8613 7.82115 49.086C7.89082 49.2798 7.96913 49.4694 8.05598 49.6543C8.15737 49.8702 8.1157 50.1257 7.94704 50.2945L7.21095 51.0306C6.99121 51.2503 6.99121 51.6065 7.21095 51.8263L9.04101 53.6562C9.26074 53.8759 9.61698 53.8759 9.83671 53.6562L10.5727 52.9202C10.7414 52.7516 10.9969 52.7099 11.2129 52.8113C11.3977 52.8981 11.5874 52.9764 11.7812 53.0461C12.0058 53.1268 12.1573 53.3373 12.1573 53.5759V54.6175C12.1573 54.9282 12.4092 55.1801 12.7199 55.1801H15.308C15.6187 55.1801 15.8706 54.9282 15.8706 54.6175V53.5759C15.8706 53.3373 16.0221 53.1268 16.2467 53.0461C16.4406 52.9764 16.6302 52.8981 16.8151 52.8113C17.031 52.7099 17.2865 52.7516 17.4552 52.9202L18.1912 53.6562C18.4109 53.8759 18.7672 53.8759 18.9869 53.6562L20.817 51.8263C21.0367 51.6065 21.0367 51.2503 20.817 51.0306L20.0809 50.2945C19.9122 50.1258 19.8706 49.8703 19.9719 49.6543C20.0588 49.4694 20.1371 49.2798 20.2068 49.086C20.2875 48.8613 20.4979 48.7098 20.7366 48.7098H21.7782C22.0889 48.7098 22.3408 48.4579 22.3408 48.1472Z" stroke="#127AFF" stroke-width="1.64062" stroke-miterlimit="10" stroke-linecap="round" stroke-linejoin="round"></path>
  <path d="M14.9081 44.1328H13.1202C12.971 44.1328 12.8278 44.1921 12.7224 44.2976L11.4581 45.5619C11.3526 45.6675 11.2933 45.8105 11.2933 45.9597V47.7477C11.2933 47.8968 11.3526 48.04 11.4581 48.1455L12.7224 49.4097C12.8279 49.5153 12.971 49.5745 13.1202 49.5745H14.9081C15.0573 49.5745 15.2005 49.5153 15.3059 49.4097L16.5702 48.1455C16.6757 48.0399 16.735 47.8968 16.735 47.7477V45.9597C16.735 45.8105 16.6757 45.6673 16.5702 45.5619L15.3059 44.2976C15.2005 44.1921 15.0573 44.1328 14.9081 44.1328Z" stroke="#127AFF" stroke-width="1.64062" stroke-miterlimit="10" stroke-linecap="round" stroke-linejoin="round"></path>
  <path d="M28 13.5801V14.7486" stroke="#127AFF" stroke-width="1.64062" stroke-miterlimit="10" stroke-linecap="round" stroke-linejoin="round"></path>
  <path d="M28 17.7871V18.9556" stroke="#127AFF" stroke-width="1.64062" stroke-miterlimit="10" stroke-linecap="round" stroke-linejoin="round"></path>
  <path d="M28 21.9932V23.1616" stroke="#127AFF" stroke-width="1.64062" stroke-miterlimit="10" stroke-linecap="round" stroke-linejoin="round"></path>
  <path d="M19.8967 52.7459C22.2202 54.2833 25.0053 55.1794 28 55.1794C36.121 55.1794 42.7045 48.596 42.7045 40.4749C42.7045 32.3538 36.121 25.7705 28 25.7705C22.6463 25.7705 17.9615 28.6318 15.3901 32.9084" stroke="#127AFF" stroke-width="1.64062" stroke-miterlimit="10" stroke-linecap="round" stroke-linejoin="round"></path>
  <path d="M13.8635 36.4209C13.6679 37.1039 13.5197 37.8069 13.4243 38.5267" stroke="#127AFF" stroke-width="1.64062" stroke-miterlimit="10" stroke-linecap="round" stroke-linejoin="round"></path>
  <path d="M28 40.4756L38.3976 50.8732" stroke="#127AFF" stroke-width="1.64062" stroke-miterlimit="10" stroke-linecap="round" stroke-linejoin="round"></path>
  <path d="M28 25.7705V40.4749H42.7045" stroke="#127AFF" stroke-width="1.64062" stroke-miterlimit="10" stroke-linecap="round" stroke-linejoin="round"></path>
</svg>
