<?xml version="1.0" encoding="UTF-8"?>
<svg xmlns="http://www.w3.org/2000/svg" width="56" height="56" viewBox="0 0 56 56" fill="none">
  <g clip-path="url(#clip0_97_5201)">
    <mask id="mask0_97_5201" style="mask-type:luminance" maskUnits="userSpaceOnUse" x="-1" y="0" width="57" height="57">
      <path d="M-0.00012207 0.00195694H55.9999V56.002H-0.00012207V0.00195694Z" fill="white"></path>
    </mask>
    <g mask="url(#mask0_97_5201)">
      <path d="M14.0887 14.9802C14.0887 7.19149 20.4029 0.877494 28.1916 0.877494C35.9803 0.877494 42.2944 7.19149 42.2944 14.9802C42.2944 22.7689 35.9803 29.083 28.1916 29.083C20.4029 29.083 14.0887 22.7689 14.0887 14.9802Z" stroke="#127AFF" stroke-width="1.64062" stroke-miterlimit="10" stroke-linecap="round" stroke-linejoin="round"></path>
      <path d="M21.4936 7.59193C23.2637 5.9862 25.6134 5.00784 28.1915 5.00784C33.699 5.00784 38.1638 9.47252 38.1638 14.98C38.1638 20.4875 33.699 24.9521 28.1915 24.9521C22.684 24.9521 18.2194 20.4875 18.2194 14.98C18.2194 13.259 18.6553 11.6397 19.4229 10.2267" stroke="#127AFF" stroke-width="1.64062" stroke-miterlimit="10" stroke-linecap="round" stroke-linejoin="round"></path>
      <path d="M25.3728 18.0037C25.3728 18.0037 25.7778 19.5388 27.8297 19.6638C30.0168 19.797 30.6153 18.2457 30.6153 17.3052C30.6153 16.5087 30.2619 15.2363 27.9999 14.9867C26.1208 14.7794 25.7629 13.5549 25.7629 12.9134C25.7629 12.2719 26.1456 10.6835 27.9929 10.6835C29.5293 10.6835 30.0713 11.8616 30.0713 11.8616" stroke="#127AFF" stroke-width="1.64062" stroke-miterlimit="10" stroke-linecap="round" stroke-linejoin="round"></path>
      <path d="M27.9928 10.6836V8.85823" stroke="#127AFF" stroke-width="1.64062" stroke-miterlimit="10" stroke-linecap="round" stroke-linejoin="round"></path>
      <path d="M27.9928 21.4971V19.6717" stroke="#127AFF" stroke-width="1.64062" stroke-miterlimit="10" stroke-linecap="round" stroke-linejoin="round"></path>
      <path d="M10.5325 51.6116V55.1279H16.8154V44.5311H19.2462L13.674 38.6072L8.10168 44.5311H10.5325V48.3304" stroke="#127AFF" stroke-width="1.64062" stroke-miterlimit="10" stroke-linecap="round" stroke-linejoin="round"></path>
      <path d="M33.7639 38.8876L28.1916 32.9635L22.6193 38.8876H25.0502V55.1279H31.3329V38.8876H33.7639Z" stroke="#127AFF" stroke-width="1.64062" stroke-miterlimit="10" stroke-linecap="round" stroke-linejoin="round"></path>
      <path d="M39.5677 42.7734V55.1279H45.8505V33.6658H48.2814L42.7092 27.7417L37.1367 33.6658H39.5677V39.4921" stroke="#127AFF" stroke-width="1.64062" stroke-miterlimit="10" stroke-linecap="round" stroke-linejoin="round"></path>
      <path d="M9.36501 15.2734H4.55371" stroke="#127AFF" stroke-width="1.64062" stroke-miterlimit="10" stroke-linecap="round" stroke-linejoin="round"></path>
      <path d="M10.7255 22.4751L9.01428 23.1455" stroke="#127AFF" stroke-width="1.64062" stroke-miterlimit="10" stroke-linecap="round" stroke-linejoin="round"></path>
      <path d="M10.7255 8.07227L9.01428 7.40191" stroke="#127AFF" stroke-width="1.64062" stroke-miterlimit="10" stroke-linecap="round" stroke-linejoin="round"></path>
      <path d="M46.6348 15.2734H51.4461" stroke="#127AFF" stroke-width="1.64062" stroke-miterlimit="10" stroke-linecap="round" stroke-linejoin="round"></path>
      <path d="M45.2744 22.4751L46.9856 23.1455" stroke="#127AFF" stroke-width="1.64062" stroke-miterlimit="10" stroke-linecap="round" stroke-linejoin="round"></path>
      <path d="M45.2744 8.07227L46.9856 7.40191" stroke="#127AFF" stroke-width="1.64062" stroke-miterlimit="10" stroke-linecap="round" stroke-linejoin="round"></path>
    </g>
  </g>
  <defs>
    <clipPath id="clip0_97_5201">
      <rect width="56" height="56" fill="white"></rect>
    </clipPath>
  </defs>
</svg>
