<?xml version="1.0" encoding="UTF-8"?>
<svg xmlns="http://www.w3.org/2000/svg" width="56" height="56" viewBox="0 0 56 56" fill="none">
  <path d="M44.101 36.2363C47.8592 32.4822 50.184 27.2935 50.184 21.5618C50.184 18.9665 49.7059 16.4832 48.8354 14.1934" stroke="#127AFF" stroke-width="1.64062" stroke-miterlimit="10" stroke-linecap="round" stroke-linejoin="round"></path>
  <path d="M45.4262 8.34291C41.6217 3.74784 35.8742 0.820312 29.4426 0.820312C21.7256 0.820312 14.9931 5.03464 11.4207 11.2873" stroke="#127AFF" stroke-width="1.64062" stroke-miterlimit="10" stroke-linecap="round" stroke-linejoin="round"></path>
  <path d="M14.4976 18.2182C14.3543 18.0473 14.1407 17.9375 13.9002 17.9375H11.7561C11.3244 17.9375 10.9745 18.2875 10.9745 18.7191V20.0099C10.9745 20.3514 10.7517 20.65 10.4269 20.7554C10.0403 20.8809 9.66685 21.0357 9.30953 21.2175C9.00503 21.3725 8.63632 21.3194 8.39471 21.0778L7.48253 20.1656C7.17726 19.8603 6.68234 19.8603 6.37718 20.1656L4.86113 21.6816C4.55587 21.9869 4.55587 22.4818 4.86113 22.787L5.77332 23.6992C6.01493 23.9408 6.06809 24.3095 5.9131 24.614C5.73121 24.9713 5.57645 25.3447 5.45099 25.7313C5.34556 26.0562 5.04696 26.279 4.70549 26.279H3.41465C2.98295 26.279 2.63306 26.6289 2.63306 27.0606V29.2047C2.63306 29.6364 2.98306 29.9862 3.41465 29.9862H4.70549C5.04696 29.9862 5.34556 30.209 5.45099 30.5339C5.57645 30.9205 5.73121 31.2939 5.9131 31.6513C6.06809 31.9558 6.01493 32.3245 5.77332 32.5661L4.86113 33.4783C4.55587 33.7835 4.55587 34.2785 4.86113 34.5836L6.37718 36.0997C6.68245 36.4049 7.17737 36.4049 7.48253 36.0997L8.39471 35.1875C8.63632 34.9459 9.00503 34.8927 9.30953 35.0477C9.66685 35.2296 10.0403 35.3843 10.4269 35.5098C10.7517 35.6152 10.9745 35.9138 10.9745 36.2553V37.5461C10.9745 37.9778 11.3245 38.3277 11.7561 38.3277H13.9002C14.3319 38.3277 14.6818 37.9777 14.6818 37.5461V36.2553C14.6818 35.9138 14.9046 35.6152 15.2294 35.5098C15.6161 35.3843 15.9895 35.2296 16.3468 35.0477C16.6513 34.8927 17.02 34.9459 17.2616 35.1875L18.1738 36.0997C18.4791 36.4049 18.974 36.4049 19.2792 36.0997L20.7952 34.5836C20.8371 34.5417 20.8722 34.496 20.9023 34.4479" stroke="#127AFF" stroke-width="1.64062" stroke-miterlimit="10" stroke-linejoin="round"></path>
  <path d="M23.5817 49.0605L25.6134 54.1476C25.8624 54.7709 26.4659 55.1796 27.137 55.1796H31.7481C32.4193 55.1796 33.0228 54.7708 33.2717 54.1476L35.3035 49.0605H23.5817Z" stroke="#127AFF" stroke-width="1.64062" stroke-miterlimit="10" stroke-linecap="round" stroke-linejoin="round"></path>
  <path d="M43.255 28.1785C44.2164 26.1757 44.7564 23.9321 44.7564 21.5618C44.7564 13.1676 38.0025 6.35079 29.6323 6.24918C26.0245 6.20543 22.6818 7.42846 20.0305 9.50298" stroke="#127AFF" stroke-width="1.64062" stroke-miterlimit="10" stroke-linecap="round" stroke-linejoin="round"></path>
  <path d="M17.3292 12.2158C15.3769 14.7357 14.19 17.8779 14.1311 21.2919C14.0445 26.3239 16.3857 30.8124 20.0604 33.6648C21.6827 34.924 22.6065 36.8827 22.6065 38.9364V40.1409H36.2783V38.9346C36.2783 36.8496 37.2566 34.8971 38.896 33.609C39.732 32.9522 40.4967 32.2095 41.1794 31.3955" stroke="#127AFF" stroke-width="1.64062" stroke-miterlimit="10" stroke-linecap="round" stroke-linejoin="round"></path>
  <path d="M38.4542 19.7872H37.2185C36.8916 19.7872 36.6058 19.5739 36.5048 19.263C36.3847 18.8929 36.2365 18.5354 36.0624 18.1933C35.9141 17.9018 35.9649 17.5489 36.1963 17.3175L37.0695 16.4443C37.3618 16.152 37.3618 15.6783 37.0695 15.3861L35.6181 13.9347C35.3259 13.6424 34.8522 13.6424 34.5599 13.9347L33.6867 14.8079C33.4553 15.0393 33.1024 15.0901 32.8109 14.9418C32.4688 14.7677 32.1113 14.6195 31.7412 14.4994C31.4302 14.3984 31.217 14.1126 31.217 13.7857V12.55C31.217 12.1368 30.8819 11.8018 30.4687 11.8018H28.4162C28.003 11.8018 27.668 12.1368 27.668 12.55V13.7857C27.668 14.1126 27.4547 14.3984 27.1437 14.4994C26.7736 14.6195 26.4162 14.7677 26.074 14.9418C25.7826 15.0901 25.4296 15.0393 25.1983 14.8079L24.325 13.9347C24.0328 13.6424 23.5591 13.6424 23.2668 13.9347L21.8154 15.3861C21.5232 15.6783 21.5232 16.152 21.8154 16.4443L22.6887 17.3175C22.92 17.5489 22.9709 17.9018 22.8225 18.1933C22.6484 18.5354 22.5002 18.8929 22.3801 19.263C22.2792 19.5739 21.9934 19.7872 21.6664 19.7872H20.4307C20.0175 19.7872 19.6825 20.1222 19.6825 20.5355V22.588C19.6825 23.0012 20.0175 23.3362 20.4307 23.3362H21.6664C21.9934 23.3362 22.2792 23.5495 22.3801 23.8605C22.5002 24.2306 22.6484 24.588 22.8225 24.9301C22.9709 25.2216 22.92 25.5746 22.6887 25.8059L21.8154 26.6792C21.5232 26.9714 21.5232 27.4451 21.8154 27.7374L23.2668 29.1888C23.5591 29.481 24.0328 29.481 24.325 29.1888L25.1983 28.3155C25.4296 28.0842 25.7826 28.0333 26.074 28.1816C26.4162 28.3558 26.7736 28.504 27.1437 28.6241C27.4547 28.725 27.668 29.0108 27.668 29.3377V30.5735C27.668 30.9867 28.003 31.3217 28.4162 31.3217H30.4687C30.8819 31.3217 31.217 30.9867 31.217 30.5735V29.3376C31.217 29.0107 31.4302 28.7249 31.7412 28.624C32.1113 28.5039 32.4688 28.3557 32.8109 28.1815C33.1024 28.0332 33.4553 28.0841 33.6867 28.3154L34.5599 29.1887C34.8522 29.4809 35.3259 29.4809 35.6181 29.1887L37.0695 27.7373C37.3618 27.445 37.3618 26.9713 37.0695 26.6791L36.1963 25.8058C35.9649 25.5745 35.9141 25.2215 36.0624 24.93C36.2365 24.5879 36.3847 24.2305 36.5048 23.8604C36.6058 23.5494 36.8916 23.3361 37.2185 23.3361H38.4542C38.8674 23.3361 39.2024 23.0011 39.2024 22.5879V20.5354C39.2024 20.1222 38.8674 19.7872 38.4542 19.7872Z" stroke="#127AFF" stroke-width="1.64062" stroke-miterlimit="10" stroke-linecap="round" stroke-linejoin="round"></path>
  <path d="M50.6071 6.23438H47.275C46.8842 6.23438 46.5231 6.44284 46.3278 6.78125L44.6618 9.66689C44.4664 10.0053 44.4664 10.4222 44.6618 10.7606L46.3278 13.6463C46.5231 13.9847 46.8843 14.1932 47.275 14.1932H50.6071C50.9979 14.1932 51.3589 13.9847 51.5543 13.6463L53.2203 10.7606C53.4156 10.4222 53.4156 10.0053 53.2203 9.66689L51.5543 6.78125C51.3589 6.44284 50.9979 6.23438 50.6071 6.23438Z" stroke="#127AFF" stroke-width="1.64062" stroke-miterlimit="10" stroke-linecap="round" stroke-linejoin="round"></path>
  <path d="M29.4427 24.6099C31.1264 24.6099 32.4913 23.245 32.4913 21.5613C32.4913 19.8776 31.1264 18.5127 29.4427 18.5127C27.759 18.5127 26.394 19.8776 26.394 21.5613C26.394 23.245 27.759 24.6099 29.4427 24.6099Z" stroke="#127AFF" stroke-width="1.64062" stroke-miterlimit="10" stroke-linecap="round" stroke-linejoin="round"></path>
  <path d="M36.7516 44.6006C37.9832 44.6006 38.9815 43.6022 38.9815 42.3707C38.9815 41.1391 37.9832 40.1406 36.7516 40.1406H22.1336C20.9021 40.1406 19.9037 41.139 19.9037 42.3706C19.9037 43.6021 20.9021 44.6005 22.1336 44.6005C20.9021 44.6005 19.9037 45.5989 19.9037 46.8304C19.9037 48.062 20.9021 49.0604 22.1336 49.0604H36.7516C37.9832 49.0604 38.9815 48.062 38.9815 46.8304C38.9815 45.5989 37.9832 44.6006 36.7516 44.6006Z" stroke="#127AFF" stroke-width="1.64062" stroke-miterlimit="10" stroke-linecap="round" stroke-linejoin="round"></path>
  <path d="M36.7516 44.6006H34.6719" stroke="#127AFF" stroke-width="1.64062" stroke-miterlimit="10" stroke-linecap="round" stroke-linejoin="round"></path>
  <path d="M30.8437 44.6006H22.1337" stroke="#127AFF" stroke-width="1.64062" stroke-miterlimit="10" stroke-linecap="round" stroke-linejoin="round"></path>
  <path d="M14.6477 25.5228C14.1317 25.1622 13.5056 24.9482 12.8282 24.9482C11.0695 24.9482 9.64368 26.3741 9.64368 28.1328C9.64368 29.8916 11.0695 31.3174 12.8282 31.3174C14.3599 31.3174 15.6384 30.2358 15.9431 28.7947" stroke="#127AFF" stroke-width="1.64062" stroke-miterlimit="10" stroke-linejoin="round"></path>
</svg>
