<svg width="56" height="56" viewBox="0 0 56 56" fill="none" xmlns="http://www.w3.org/2000/svg">
<path d="M23.2228 51.7984C23.6725 51.7984 24.0458 51.4336 24.0458 50.9754C24.0458 50.5172 23.681 50.1523 23.2228 50.1523H16.2058C15.7561 50.1523 15.3828 50.5172 15.3828 50.9754C15.3828 51.4336 15.7477 51.7984 16.2058 51.7984H23.2228Z" fill="#127AFF"/>
<path d="M36.451 27.6003C36.0013 27.6003 35.628 27.9651 35.628 28.4233V50.7894C35.628 52.0282 34.6183 53.0378 33.3795 53.0378H6.04982C4.81103 53.0378 3.80133 52.0282 3.80133 50.7894V18.8269C3.80133 18.3772 3.43649 18.0039 2.9783 18.0039C2.52012 18.0039 2.15527 18.3688 2.15527 18.8269V50.7894C2.15527 52.936 3.90315 54.6839 6.04982 54.6839H33.388C35.5347 54.6839 37.2825 52.936 37.2825 50.7894V28.4233C37.2741 27.9736 36.9092 27.6003 36.451 27.6003Z" fill="#127AFF"/>
<path d="M11.115 25.0601H15.612C16.0617 25.0601 16.435 24.6953 16.435 24.2371C16.435 23.7874 16.0702 23.4141 15.612 23.4141H11.115C10.6653 23.4141 10.292 23.7789 10.292 24.2371C10.292 24.6953 10.6653 25.0601 11.115 25.0601Z" fill="#127AFF"/>
<path d="M18.2852 28.2683C18.2852 28.718 18.65 29.0914 19.1082 29.0914H29.6803C30.13 29.0914 30.5033 28.7265 30.5033 28.2683C30.5033 27.8186 30.1385 27.4453 29.6803 27.4453H19.1082C18.6585 27.4453 18.2852 27.8102 18.2852 28.2683Z" fill="#127AFF"/>
<path d="M11.115 29.0836H15.0944C15.5441 29.0836 15.9174 28.7187 15.9174 28.2605C15.9174 27.8108 15.5526 27.4375 15.0944 27.4375H11.115C10.6653 27.4375 10.292 27.8023 10.292 28.2605C10.292 28.7187 10.6653 29.0836 11.115 29.0836Z" fill="#127AFF"/>
<path d="M11.115 33.1148H15.612C16.0617 33.1148 16.435 32.75 16.435 32.2918C16.435 31.8421 16.0702 31.4688 15.612 31.4688H11.115C10.6653 31.4688 10.292 31.8336 10.292 32.2918C10.292 32.7415 10.6653 33.1148 11.115 33.1148Z" fill="#127AFF"/>
<path d="M23.8171 33.1148C24.2668 33.1148 24.6401 32.75 24.6401 32.2918C24.6401 31.8421 24.2753 31.4688 23.8171 31.4688H19.3201C18.8704 31.4688 18.4971 31.8336 18.4971 32.2918C18.4971 32.7415 18.8619 33.1148 19.3201 33.1148H23.8171Z" fill="#127AFF"/>
<path d="M11.115 35.4883C10.6653 35.4883 10.292 35.8531 10.292 36.3113C10.292 36.7695 10.6568 37.1343 11.115 37.1343H18.4035C18.8532 37.1343 19.2265 36.7695 19.2265 36.3113C19.2265 35.8531 18.8617 35.4883 18.4035 35.4883H11.115Z" fill="#127AFF"/>
<path d="M29.6798 35.4883H22.4168C21.9671 35.4883 21.5938 35.8531 21.5938 36.3113C21.5938 36.7695 21.9586 37.1343 22.4168 37.1343H29.6798C30.1295 37.1343 30.5028 36.7695 30.5028 36.3113C30.5028 35.8531 30.1295 35.4883 29.6798 35.4883Z" fill="#127AFF"/>
<path d="M11.115 39.5195C10.6653 39.5195 10.292 39.8844 10.292 40.3426C10.292 40.8007 10.6568 41.1656 11.115 41.1656H15.612C16.0617 41.1656 16.435 40.8007 16.435 40.3426C16.435 39.8844 16.0702 39.5195 15.612 39.5195H11.115Z" fill="#127AFF"/>
<path d="M20.0496 43.543H11.115C10.6653 43.543 10.292 43.9078 10.292 44.366C10.292 44.8242 10.6568 45.189 11.115 45.189H20.0411C20.4908 45.189 20.8641 44.8242 20.8641 44.366C20.8641 43.9078 20.4993 43.543 20.0496 43.543Z" fill="#127AFF"/>
<path d="M29.6799 43.543H24.0545C23.6048 43.543 23.2314 43.9078 23.2314 44.366C23.2314 44.8242 23.5963 45.189 24.0545 45.189H29.6799C30.1296 45.189 30.503 44.8242 30.503 44.366C30.503 43.9078 30.1296 43.543 29.6799 43.543Z" fill="#127AFF"/>
<path d="M13.8728 19.6467C14.1528 19.6467 14.4243 19.5024 14.577 19.2479C14.8146 18.8576 14.6873 18.357 14.297 18.1194L11.3443 16.3376L14.297 14.5558C14.6873 14.3182 14.8061 13.8176 14.577 13.4273C14.3394 13.037 13.8388 12.9182 13.4485 13.1473L9.33336 15.6333C9.0873 15.7861 8.93457 16.0491 8.93457 16.3376C8.93457 16.6261 9.0873 16.8891 9.33336 17.0418L13.457 19.5279C13.5843 19.6043 13.7285 19.6467 13.8728 19.6467Z" fill="#127AFF"/>
<path d="M19.3454 19.2478C19.4981 19.5023 19.7696 19.6465 20.0496 19.6465C20.1939 19.6465 20.3381 19.6126 20.4739 19.5278L24.5975 17.0417C24.8436 16.889 24.9963 16.6259 24.9963 16.3375C24.9963 16.049 24.8436 15.7859 24.5975 15.6332L20.4739 13.1471C20.0836 12.9096 19.583 13.0368 19.3454 13.4271C19.1078 13.8174 19.2351 14.3181 19.6254 14.5556L22.5781 16.3375L19.6254 18.1193C19.2351 18.3568 19.1078 18.8575 19.3454 19.2478Z" fill="#127AFF"/>
<path d="M16.0785 21.5987C16.1209 21.6071 16.1718 21.6071 16.2143 21.6071C16.6046 21.6071 16.9524 21.3271 17.0203 20.9199L18.5137 12.0278C18.59 11.5781 18.2846 11.1538 17.8433 11.0859C17.3937 11.0096 16.9694 11.315 16.9015 11.7562L15.4082 20.6484C15.3318 21.0981 15.6373 21.5223 16.0785 21.5987Z" fill="#127AFF"/>
<path d="M53.1407 12.1986L51.1977 11.9101C50.9771 11.104 50.6547 10.3319 50.2389 9.6022L51.4098 8.02402C51.6559 7.70159 51.6219 7.24341 51.3335 6.95492L48.9832 4.60462C48.6947 4.31614 48.2365 4.2822 47.9141 4.52826L46.3274 5.69068C45.5977 5.27492 44.8256 4.96098 44.0195 4.73189L43.731 2.78886C43.6716 2.39008 43.3238 2.09311 42.9165 2.09311H39.5904C39.1832 2.09311 38.8353 2.39008 38.7759 2.78886L38.4874 4.73189C38.0716 4.85068 37.6644 4.98644 37.2656 5.15614C37.2401 3.03492 35.5092 1.3125 33.3795 1.3125H6.04982C3.90315 1.3125 2.15527 3.06038 2.15527 5.20705V13.2761C2.15527 13.7258 2.52012 14.0992 2.9783 14.0992C3.43649 14.0992 3.80133 13.7343 3.80133 13.2761V5.20705C3.80133 3.96826 4.81103 2.95856 6.04982 2.95856H13.805L14.2886 4.40947C14.5007 5.04583 15.0862 5.47008 15.7565 5.47008H23.6898C24.3516 5.47008 24.9371 5.04583 25.1492 4.40947L25.6244 2.95856H33.388C34.6268 2.95856 35.6365 3.96826 35.6365 5.20705C35.6365 5.24099 35.6535 5.26644 35.6535 5.29189L34.6013 4.51129C34.2789 4.27371 33.8207 4.29917 33.5322 4.58765L31.1819 6.95492C31.0632 7.07371 30.9953 7.23492 30.9613 7.38765H6.32982C5.88012 7.38765 5.50679 7.7525 5.50679 8.21068V48.0471C5.50679 48.4967 5.87164 48.8701 6.32982 48.8701H33.0995C33.5492 48.8701 33.9225 48.5052 33.9225 48.0471V24.9598C33.9904 24.9767 34.0498 24.9937 34.1177 24.9937C34.2874 24.9937 34.4571 24.9428 34.6098 24.8325L36.1965 23.6616C36.9262 24.0689 37.6983 24.3998 38.4959 24.6204L38.7844 26.5634C38.8438 26.9622 39.1916 27.2592 39.5989 27.2592H42.925C43.3322 27.2592 43.6801 26.9622 43.7395 26.5634L44.028 24.6204C44.8341 24.3998 45.6062 24.0774 46.3359 23.6616L46.6838 23.9161C47.0486 24.1877 47.5662 24.1113 47.8292 23.7464C48.1007 23.3816 48.0244 22.864 47.6595 22.601L46.8704 22.024C46.5989 21.8204 46.2256 21.8119 45.9371 21.9901C45.0716 22.5416 44.1213 22.9404 43.1201 23.1525C42.7892 23.2289 42.5347 23.4919 42.4838 23.8313L42.2207 25.6216H40.3032L40.0401 23.8313C39.9892 23.4919 39.7347 23.2204 39.4038 23.1525C38.5298 22.9658 37.6898 22.6349 36.9177 22.1852C36.8074 22.1174 36.6971 22.058 36.5868 21.9816C36.2983 21.7949 35.925 21.8119 35.6535 22.0155L34.2025 23.0931L33.6935 22.584L32.8535 21.744L33.931 20.2931C34.1347 20.0216 34.1432 19.6483 33.965 19.3598C33.405 18.4858 33.0147 17.544 32.8025 16.5428C32.7262 16.2119 32.4547 15.9574 32.1238 15.9064L30.3335 15.6434V13.7343L32.1238 13.4713C32.4632 13.4204 32.7347 13.1658 32.8025 12.8349C33.0232 11.8337 33.4135 10.8834 33.9735 10.018C34.1601 9.72947 34.1432 9.36462 33.9395 9.08462L32.8619 7.63371L34.211 6.28462L35.6619 7.3622C35.9335 7.56583 36.3068 7.57432 36.5953 7.39614C37.4607 6.83614 38.411 6.44583 39.4122 6.23371C39.7432 6.15735 39.9977 5.89432 40.0486 5.55492L40.3032 3.73068H42.2122L42.4753 5.52099C42.5262 5.86038 42.7807 6.13189 43.1116 6.19977C44.1129 6.42038 45.0632 6.81068 45.9286 7.3622C46.2171 7.54886 46.5819 7.53189 46.8619 7.32826L48.3128 6.25068L49.6619 7.59977L48.5844 9.05068C48.3807 9.3222 48.3722 9.69553 48.5504 9.98402C49.1019 10.8495 49.5007 11.7998 49.7213 12.801C49.7977 13.1319 50.0692 13.3864 50.4001 13.4373L52.1904 13.7004V15.6095L50.4001 15.8725C50.0607 15.9234 49.7892 16.178 49.7213 16.5089C49.5007 17.5101 49.1104 18.4604 48.5504 19.3258C48.3638 19.6143 48.3807 19.9792 48.5844 20.2592L49.6619 21.7101L48.7795 22.5925C48.4571 22.9149 48.4571 23.4325 48.7795 23.7549C49.1019 24.0774 49.6195 24.0774 49.9419 23.7549L51.325 22.3719C51.6135 22.0834 51.6474 21.6337 51.4013 21.3028L50.2304 19.7246C50.6462 18.9949 50.9601 18.2228 51.1892 17.4167L53.1322 17.1283C53.531 17.0689 53.828 16.721 53.828 16.3137V12.9877C53.845 12.6058 53.548 12.258 53.1407 12.1986ZM23.605 3.8325H15.8244L15.5359 2.95856H23.8935L23.605 3.8325ZM31.3177 11.9101L29.3747 12.1986C28.9759 12.258 28.6789 12.6058 28.6789 13.0131V16.3392C28.6789 16.7464 28.9759 17.0943 29.3747 17.1537L31.3177 17.4422C31.5383 18.2483 31.8607 19.0204 32.2765 19.7501L31.1056 21.3283C30.8595 21.6507 30.8935 22.1089 31.1819 22.3974L32.285 23.5004V47.224H7.14436V9.03371H31.8438L32.268 9.61068C31.8607 10.3319 31.5383 11.104 31.3177 11.9101Z" fill="#127AFF"/>
<path d="M41.2535 8.89062C38.0632 8.89062 35.4668 11.487 35.4668 14.6773C35.4668 17.8676 38.0632 20.464 41.2535 20.464C44.4438 20.464 47.0401 17.8676 47.0401 14.6773C47.0486 11.487 44.4438 8.89062 41.2535 8.89062ZM41.2535 18.8264C38.9626 18.8264 37.1044 16.9682 37.1044 14.6773C37.1044 12.3864 38.9626 10.5282 41.2535 10.5282C43.5444 10.5282 45.4026 12.3864 45.4026 14.6773C45.4026 16.9682 43.5444 18.8264 41.2535 18.8264Z" fill="#127AFF"/>
</svg>
