<svg width="56" height="56" viewBox="0 0 56 56" fill="none" xmlns="http://www.w3.org/2000/svg">
<path fill-rule="evenodd" clip-rule="evenodd" d="M46.8017 39.2363C44.2267 41.6756 40.3405 45.018 37.155 47.084C34.7942 48.6147 32.2885 50.0573 29.961 50.2464C28.0375 50.4031 25.9358 49.6539 23.933 49.364C20.8502 48.92 17.5984 48.959 14.4535 48.9961H14.3879V41.776C15.549 41.5031 16.7133 41.241 17.8775 40.9233C18.7824 40.6764 19.5688 40.2829 20.3296 39.9017C21.7041 39.212 22.8911 38.6166 24.4413 39.083L30.6926 40.9678C31.3203 41.1582 31.6772 41.8222 31.488 42.4504C31.2825 43.1327 30.5563 43.359 29.9458 43.2307C28.6725 42.9618 27.0176 42.5248 25.8341 42.4121C25.3098 42.3623 24.785 42.3769 24.2298 42.4566C23.8363 42.5132 23.5633 42.8781 23.6204 43.2715C23.6769 43.6656 24.0418 43.9393 24.436 43.8827C24.8757 43.8194 25.2886 43.8079 25.6979 43.8462C26.7852 43.9487 28.4402 44.3896 29.6497 44.6405C30.8611 44.8917 32.0906 44.3998 32.6667 43.3421C33.4506 43.2655 34.2084 43.1079 34.9236 42.8676C37.6553 41.9525 41.9031 39.5379 45.5141 37.5012C45.9544 37.2536 46.486 37.3522 46.8077 37.7432L46.888 37.8411C47.2292 38.2554 47.1909 38.8671 46.8017 39.2363ZM12.9477 49.9825C12.9477 50.1698 12.789 50.3286 12.6016 50.3286H11.1427C10.9554 50.3286 10.7966 50.1699 10.7966 49.9825V40.9823C10.7966 40.7938 10.9553 40.6363 11.1427 40.6363H12.6017C12.789 40.6363 12.9478 40.7937 12.9478 40.9823L12.9477 49.9825ZM25.1857 22.9899C25.4643 23.2709 25.9225 23.2717 26.2038 22.9899C26.4853 22.7083 26.4853 22.2521 26.2038 21.9718L24.9869 20.7548C26.2002 20.2527 27.5606 21.147 27.5606 22.4807C27.5606 23.5091 26.7232 24.3465 25.6948 24.3465C24.3673 24.3465 23.4662 22.9956 23.9688 21.7728L25.1857 22.9899ZM22.9045 20.7087L20.6336 18.439C19.7463 19.5477 19.2135 20.9525 19.2135 22.4808C19.2135 26.0544 22.1206 28.9621 25.6947 28.9621C29.2683 28.9621 32.1759 26.0544 32.1759 22.4808C32.1759 18.9067 29.2683 15.9996 25.6947 15.9996C24.1664 15.9996 22.7616 16.5324 21.6529 17.4203L23.9226 19.6906C26.1119 18.2978 29.0013 19.873 29.0013 22.4808C29.0013 24.3035 27.5174 25.7874 25.6947 25.7874C23.0839 25.7874 21.5126 22.8936 22.9045 20.7087ZM13.7158 22.4808C13.7158 28.0073 17.5496 32.8458 22.8862 34.1284C23.2377 33.8571 23.6926 33.6924 24.1907 33.6924H28.6182V31.8028C28.6182 30.811 29.5231 30.0039 30.6355 30.0039H35.063V27.4436C35.063 26.518 35.9484 25.7923 37.0802 25.7923H37.2098C39.3949 18.1684 33.6709 10.5019 25.6948 10.5019C22.651 10.5019 19.8686 11.6439 17.7535 13.5207L20.6283 16.3961C22.0028 15.2491 23.7689 14.5589 25.695 14.5589C30.0627 14.5589 33.6168 18.1124 33.6168 22.4807C33.6168 26.8492 30.0627 30.4027 25.695 30.4027C21.3265 30.4027 17.773 26.8492 17.773 22.4807C17.773 20.5547 18.4645 18.7885 19.6102 17.4141L16.7348 14.5393C14.8579 16.6546 13.7158 19.4369 13.7158 22.4808ZM9.72991 9.39745L11.7508 9.17367C12.0859 9.13593 12.3499 8.87206 12.3876 8.53695L12.6113 6.51603L14.895 8.79971L14.6074 11.393L12.0142 11.6812L9.72991 9.39745ZM28.6182 38.8386V35.133H24.1907C23.8611 35.133 23.6141 35.3355 23.6141 35.5167V37.4811C24.0076 37.503 24.4212 37.5724 24.8572 37.7037L28.6182 38.8386ZM31.1087 39.5884C32.1596 39.9052 32.8675 40.8254 32.9672 41.8562C33.7509 41.7414 34.3416 41.563 35.063 41.2863V31.4444H30.6355C30.3107 31.4444 30.0589 31.6366 30.0589 31.8026V39.2721L31.1087 39.5884ZM41.5076 27.4513C41.4778 27.385 41.2734 27.2329 40.9304 27.2329H37.0801C36.7371 27.2329 36.5327 27.385 36.5035 27.4513V40.6758C38.0074 39.988 39.7498 39.0641 41.5074 38.0941V27.4513H41.5076ZM48.0004 36.9253L47.9196 36.8274C47.1593 35.9029 45.85 35.6591 44.807 36.246L42.9484 37.2921V27.4434C42.9484 26.5179 42.0617 25.7922 40.9305 25.7922H38.7016C40.8444 17.3166 34.4414 9.06111 25.6948 9.06111C22.2532 9.06111 19.1108 10.3638 16.7335 12.5009L16.0135 11.7808L16.3649 8.61468C16.3887 8.39639 16.3126 8.18046 16.1582 8.02534L12.57 4.43719C12.1444 4.01159 11.4108 4.26919 11.3452 4.86772L11.0186 7.80459L8.08172 8.13118C7.48387 8.1967 7.22459 8.92951 7.65175 9.35601L11.2399 12.9442C11.3982 13.1029 11.6075 13.173 11.8286 13.1509L14.9953 12.7994L15.7141 13.5195C11.3054 18.4251 11.0919 25.8593 15.3291 31.0048C17.1013 33.1565 19.5102 34.7091 22.1783 35.4335C22.1765 35.4615 22.1735 35.4895 22.1735 35.5169V37.6083C20.4838 37.9938 19.1202 39.0918 17.4991 39.5337C16.4387 39.8229 15.3542 40.0653 14.2612 40.3261C13.9991 39.6644 13.3545 39.1956 12.6016 39.1956H11.1427C10.1581 39.1956 9.35651 39.9965 9.35651 40.9823V49.9825C9.35651 50.9684 10.1581 51.7693 11.1427 51.7693H12.6017C13.4288 51.7693 14.1251 51.2031 14.3265 50.4381C17.5051 50.4111 20.6545 50.3462 23.7281 50.7902C25.8477 51.0963 27.8541 51.8615 30.0785 51.6829C32.7234 51.4677 35.4195 49.926 37.939 48.293C42.0514 45.6269 46.5215 41.4871 47.7931 40.2817C48.7295 39.3956 48.8202 37.9208 48.0004 36.9253Z" fill="#127AFF"/>
</svg>
