<svg width="56" height="56" viewBox="0 0 56 56" fill="none" xmlns="http://www.w3.org/2000/svg">
<g clip-path="url(#clip0_3426_2477)">
<path d="M54.2223 35.4979V31.2319C54.2223 30.809 53.8795 30.4661 53.4565 30.4661H48.4181C48.542 29.5482 48.6046 28.6174 48.6046 27.6884C48.6046 26.7593 48.542 25.8285 48.4181 24.9106H53.2488C53.6717 24.9106 54.0146 24.5677 54.0146 24.1447V19.8792C54.9859 19.5577 55.6887 18.6425 55.6887 17.566C55.6887 16.2223 54.5942 15.1292 53.2488 15.1292C51.905 15.1292 50.8119 16.2224 50.8119 17.566C50.8119 18.6422 51.5135 19.557 52.4831 19.8789V23.3789H47.5227H45.1728H44.183C43.8048 21.9499 43.2373 20.581 42.4899 19.2951L44.8525 16.9325C45.1144 16.6705 45.1512 16.2586 44.9401 15.9543C43.6553 14.1034 42.0927 12.4904 40.2899 11.1496V7.73839H43.7389C44.0081 8.79233 44.9646 9.5737 46.0998 9.5737C47.4452 9.5737 48.5399 8.47919 48.5399 7.13366C48.5399 5.78998 47.4454 4.69689 46.0998 4.69689C45.0843 4.69689 44.2122 5.32164 43.8467 6.2067H39.5242C39.1012 6.2067 38.7584 6.54959 38.7584 6.97255V10.8348C38.7577 10.8355 38.7569 10.8359 38.7563 10.8365L36.3937 13.1992C36.3155 13.1538 36.2361 13.1111 36.1573 13.067V3.20578H39.6542C39.9761 4.17528 40.891 4.87681 41.9671 4.87681C43.3109 4.87681 44.404 3.78361 44.404 2.44005C44.4039 1.09452 43.3107 0 41.9669 0C40.8904 0 39.9753 0.702844 39.6537 1.6742H35.3914C34.9684 1.6742 34.6255 2.01709 34.6255 2.44005V12.3098C33.8743 11.9855 33.1016 11.7156 32.3096 11.5059V8.16298C32.3096 7.79188 32.0434 7.47403 31.678 7.40906C30.4543 7.19141 29.2169 7.08094 28.0003 7.08094C26.7837 7.08094 25.5463 7.19141 24.3226 7.40906C23.9572 7.47414 23.691 7.79188 23.691 8.16298V11.5058C22.9722 11.6961 22.2685 11.9346 21.5829 12.2195V2.44005C21.5829 2.01709 21.24 1.6742 20.817 1.6742H16.5515C16.2301 0.702844 15.3149 0 14.2383 0C12.8947 0 11.8016 1.09452 11.8016 2.44005C11.8016 3.78372 12.8948 4.87681 14.2383 4.87681C15.3145 4.87681 16.2294 4.17528 16.5512 3.20578H20.0512V12.9507C19.9021 13.0314 19.7539 13.1136 19.607 13.199L17.4501 11.0422V6.97255C17.4501 6.54959 17.1072 6.2067 16.6843 6.2067H12.3587C11.9932 5.32164 11.1212 4.69689 10.1055 4.69689C8.76183 4.69689 7.66873 5.79009 7.66873 7.13366C7.66873 8.47908 8.76194 9.5737 10.1055 9.5737C11.2408 9.5737 12.1973 8.79222 12.4666 7.73839H15.9185V10.9961C14.0278 12.3665 12.3948 14.0326 11.0607 15.9545C10.8495 16.2588 10.8863 16.6707 11.1483 16.9327L13.5109 19.2953C12.7635 20.5811 12.196 21.9501 11.8177 23.3791H9.00202H8.47494H3.30992V19.8791C4.27953 19.5572 4.98106 18.6424 4.98106 17.5662C4.98106 16.2225 3.88786 15.1294 2.54419 15.1294C1.20052 15.1294 0.107422 16.2226 0.107422 17.5662C0.107422 18.6424 0.808953 19.5572 1.77845 19.8791V24.145C1.77845 24.5679 2.12134 24.9108 2.5443 24.9108H7.58134C7.45852 25.8322 7.39617 26.7631 7.39617 27.6886C7.39617 28.6141 7.45841 29.5449 7.58134 30.4663H2.74883C2.32587 30.4663 1.98298 30.8092 1.98298 31.2321V35.4981C1.01338 35.82 0.311844 36.7348 0.311844 37.8109C0.311844 39.1546 1.40505 40.2477 2.74872 40.2477C4.09403 40.2477 5.18866 39.1545 5.18866 37.8109C5.18866 36.7345 4.48581 35.8193 3.51456 35.4978V31.998H8.47483H9.20655H11.8177C12.196 33.427 12.7635 34.796 13.5109 36.0818L11.1483 38.4444C10.8864 38.7064 10.8496 39.1183 11.0607 39.4226C12.3949 41.3446 14.0278 43.0108 15.9185 44.3811V48.265H12.4671C12.1986 47.2113 11.2417 46.4297 10.1055 46.4297C8.76183 46.4297 7.66873 47.5229 7.66873 48.8666C7.66873 50.2102 8.76194 51.3033 10.1055 51.3033C11.12 51.3033 11.9912 50.6801 12.3575 49.7966H16.6843C17.1072 49.7966 17.4501 49.4537 17.4501 49.0307V44.3348L19.607 42.1778C19.7539 42.2633 19.9022 42.3456 20.0512 42.4262V52.7974H16.5515C16.23 51.8261 15.3148 51.1233 14.2382 51.1233C12.8946 51.1233 11.8015 52.2178 11.8015 53.5632C11.8015 54.907 12.8947 56.0001 14.2382 56.0001C15.3145 56.0001 16.2293 55.2986 16.5512 54.329H20.817C21.24 54.329 21.5829 53.9861 21.5829 53.5631V43.1574C22.2684 43.4423 22.972 43.6807 23.691 43.871V47.2107C23.691 47.5812 23.9562 47.8985 24.3207 47.9642C25.5275 48.1822 26.7655 48.2928 28.0005 48.2928C29.2353 48.2928 30.4733 48.1822 31.68 47.9642C32.0446 47.8984 32.3098 47.5811 32.3098 47.2107V43.8702C33.1031 43.6593 33.8759 43.3894 34.6257 43.066V53.5631C34.6257 53.9861 34.9686 54.329 35.3916 54.329H39.6542C39.9761 55.2986 40.891 56.0001 41.9671 56.0001C43.3109 56.0001 44.404 54.9069 44.404 53.5632C44.404 52.2179 43.3108 51.1233 41.9671 51.1233C40.8906 51.1233 39.9755 51.8261 39.6539 52.7974H36.1573V42.3099C36.2361 42.2658 36.3156 42.2231 36.3937 42.1777L38.7563 44.5406C38.7569 44.5412 38.7577 44.5417 38.7584 44.5423V49.0307C38.7584 49.4537 39.1012 49.7966 39.5242 49.7966H43.8479C44.2142 50.6801 45.0855 51.3033 46.0998 51.3033C47.4452 51.3033 48.5399 50.2101 48.5399 48.8666C48.5399 47.5228 47.4454 46.4297 46.0998 46.4297C44.9637 46.4297 44.0068 47.2113 43.7383 48.265H40.2897V44.2274C42.0923 42.8867 43.655 41.2736 44.9399 39.4226C45.1511 39.1183 45.1143 38.7064 44.8523 38.4444L42.4897 36.0818C43.237 34.7959 43.8046 33.4269 44.1829 31.998H46.6855H47.5226H52.6908V35.4981C51.7212 35.82 51.0196 36.7348 51.0196 37.8109C51.0196 39.1546 52.1128 40.2477 53.4565 40.2477C54.8002 40.2477 55.8933 39.1545 55.8933 37.8109C55.8934 36.7346 55.1918 35.8198 54.2223 35.4979ZM53.2488 16.6609C53.7496 16.6609 54.157 17.067 54.157 17.5661C54.157 18.0653 53.7496 18.4714 53.2488 18.4714C52.7496 18.4714 52.3435 18.0653 52.3435 17.5661C52.3435 17.067 52.7496 16.6609 53.2488 16.6609ZM46.0996 6.22858C46.6005 6.22858 47.008 6.63469 47.008 7.13377C47.008 7.6347 46.6005 8.04212 46.0996 8.04212C45.6005 8.04212 45.1944 7.6347 45.1944 7.13377C45.1944 6.63458 45.6004 6.22858 46.0996 6.22858ZM41.9669 1.53158C42.4661 1.53158 42.8722 1.939 42.8722 2.43994C42.8722 2.93902 42.4661 3.34512 41.9669 3.34512C41.4678 3.34512 41.0617 2.93902 41.0617 2.43994C41.0617 1.93911 41.4678 1.53158 41.9669 1.53158ZM14.2383 3.34523C13.7393 3.34523 13.3332 2.93913 13.3332 2.44005C13.3332 1.93911 13.7393 1.53169 14.2383 1.53169C14.7375 1.53169 15.1436 1.93911 15.1436 2.44005C15.1436 2.93913 14.7375 3.34523 14.2383 3.34523ZM10.1056 8.04212C9.60653 8.04212 9.20042 7.6347 9.20042 7.13377C9.20042 6.63469 9.60653 6.22858 10.1056 6.22858C10.6048 6.22858 11.0109 6.63469 11.0109 7.13377C11.0109 7.63459 10.6049 8.04212 10.1056 8.04212ZM2.54419 16.6609C3.04337 16.6609 3.44948 17.067 3.44948 17.5661C3.44948 18.0653 3.04337 18.4714 2.54419 18.4714C2.04511 18.4714 1.639 18.0653 1.639 17.5661C1.639 17.067 2.045 16.6609 2.54419 16.6609ZM2.74883 38.7159C2.24964 38.7159 1.84353 38.3098 1.84353 37.8107C1.84353 37.3116 2.24964 36.9055 2.74883 36.9055C3.24966 36.9055 3.65708 37.3116 3.65708 37.8107C3.65708 38.3098 3.24966 38.7159 2.74883 38.7159ZM10.1056 49.7714C9.60653 49.7714 9.20042 49.3653 9.20042 48.8662C9.20042 48.367 9.60653 47.9609 10.1056 47.9609C10.6048 47.9609 11.0109 48.367 11.0109 48.8662C11.0109 49.3654 10.6049 49.7714 10.1056 49.7714ZM14.2383 54.4684C13.7393 54.4684 13.3332 54.0623 13.3332 53.5631C13.3332 53.0623 13.7393 52.6549 14.2383 52.6549C14.7375 52.6549 15.1436 53.0623 15.1436 53.5631C15.1436 54.0623 14.7375 54.4684 14.2383 54.4684ZM41.9669 52.6548C42.4661 52.6548 42.8722 53.0622 42.8722 53.563C42.8722 54.0622 42.4661 54.4683 41.9669 54.4683C41.4678 54.4683 41.0617 54.0622 41.0617 53.563C41.0617 53.0623 41.4678 52.6548 41.9669 52.6548ZM46.0996 47.9609C46.6005 47.9609 47.008 48.367 47.008 48.8662C47.008 49.3653 46.6005 49.7714 46.0996 49.7714C45.6005 49.7714 45.1944 49.3653 45.1944 48.8662C45.1944 48.367 45.6004 47.9609 46.0996 47.9609ZM46.6855 30.4662H43.5821C43.224 30.4662 42.9137 30.7144 42.8351 31.0637C42.4582 32.7368 41.7991 34.327 40.876 35.79C40.6851 36.0927 40.7292 36.4872 40.9822 36.7402L43.3092 39.0672C42.1949 40.5648 40.8766 41.8831 39.3791 42.9974L37.052 40.6702C36.7989 40.4171 36.4043 40.3729 36.1019 40.5641C34.6461 41.4827 33.0555 42.1419 31.3743 42.5235C31.0257 42.6027 30.778 42.9126 30.778 43.2703V46.56C28.9457 46.8273 27.0549 46.8273 25.2224 46.56V43.2703C25.2224 42.9122 24.9743 42.602 24.6249 42.5232C22.9517 42.1462 21.3615 41.4871 19.8986 40.5641C19.5961 40.3729 19.2015 40.4171 18.9485 40.6702L16.6214 42.9974C15.1238 41.8831 13.8058 40.565 12.6913 39.0672L15.0184 36.7402C15.2713 36.4872 15.3155 36.0927 15.1246 35.79C14.2016 34.3271 13.5424 32.7369 13.1654 31.0637C13.0866 30.7145 12.7764 30.4662 12.4183 30.4662H9.20666H9.12714C8.99458 29.5459 8.92764 28.6142 8.92764 27.6885C8.92764 26.7626 8.99458 25.8309 9.12714 24.9107H12.4183C12.7763 24.9107 13.0866 24.6626 13.1654 24.3132C13.5424 22.64 14.2016 21.0498 15.1246 19.5869C15.3155 19.2842 15.2714 18.8897 15.0184 18.6367L12.6913 16.3097C13.8057 14.8122 15.124 13.4939 16.6214 12.3796L18.9485 14.7067C19.2015 14.9597 19.5961 15.0035 19.8986 14.8129C21.3615 13.8899 22.9517 13.2307 24.6249 12.8536C24.9742 12.7749 25.2224 12.4647 25.2224 12.1066V8.81497C26.1503 8.68055 27.0818 8.61263 28.0002 8.61263C28.9185 8.61263 29.8502 8.68055 30.7779 8.81497V12.1065C30.7779 12.4645 31.0261 12.7748 31.3754 12.8535C33.0487 13.2305 34.6389 13.8897 36.1018 14.8128C36.4043 15.0034 36.7988 14.9594 37.0519 14.7066L39.379 12.3795C40.8767 13.4939 42.1948 14.812 43.3091 16.3096L40.9821 18.6366C40.7292 18.8896 40.685 19.2841 40.8759 19.5868C41.7989 21.0497 42.4581 22.6399 42.835 24.3131C42.9136 24.6623 43.2238 24.9106 43.582 24.9106H45.1724H46.8716C47.0052 25.8268 47.0728 26.7584 47.0728 27.6884C47.0728 28.6184 47.0052 29.55 46.8716 30.4661H46.6855V30.4662ZM53.4565 38.7159C52.9573 38.7159 52.5512 38.3098 52.5512 37.8107C52.5512 37.3116 52.9573 36.9055 53.4565 36.9055C53.9556 36.9055 54.3617 37.3116 54.3617 37.8107C54.3617 38.3098 53.9557 38.7159 53.4565 38.7159ZM28.0003 15.309C21.1745 15.309 15.6211 20.8624 15.6211 27.6884C15.6211 34.5143 21.1745 40.0677 28.0003 40.0677C34.8262 40.0677 40.3796 34.5143 40.3796 27.6884C40.3796 20.8624 34.8262 15.309 28.0003 15.309ZM28.0003 38.5362C22.0188 38.5362 17.1526 33.67 17.1526 27.6885C17.1526 21.707 22.0188 16.8407 28.0003 16.8407C33.9818 16.8407 38.848 21.707 38.848 27.6885C38.848 33.67 33.9818 38.5362 28.0003 38.5362ZM28.0003 18.3597C22.8565 18.3597 18.6716 22.5446 18.6716 27.6884C18.6716 32.8322 22.8565 37.0171 28.0003 37.0171C33.1441 37.0171 37.329 32.8322 37.329 27.6884C37.329 22.5446 33.1441 18.3597 28.0003 18.3597ZM35.2563 24.8399C34.3931 24.3382 33.2931 23.9357 32.0232 23.662C31.7495 22.393 31.3474 21.294 30.8463 20.4315C32.8585 21.2233 34.4635 22.828 35.2563 24.8399ZM32.2942 30.0634C32.3814 29.3101 32.4274 28.5152 32.4274 27.6885C32.4274 26.8609 32.3813 26.065 32.2939 25.3109C34.4373 25.8762 35.7974 26.815 35.7974 27.6885C35.7975 28.5609 34.4375 29.4987 32.2942 30.0634ZM28.0003 35.4855C27.3689 35.4855 26.6642 34.7197 26.1152 33.4368C25.9251 32.9926 25.7606 32.5038 25.6218 31.9819C26.3761 32.0693 27.1723 32.1156 28.0002 32.1156C28.8269 32.1156 29.6218 32.0694 30.3751 31.9823C29.8105 34.1257 28.8727 35.4855 28.0003 35.4855ZM28.0003 30.584C27.0389 30.584 26.1302 30.5127 25.2956 30.3877C25.1683 29.533 25.1016 28.6237 25.1016 27.6884C25.1016 26.7521 25.1684 25.8417 25.296 24.9861C26.1306 24.8609 27.039 24.7896 28.0003 24.7896C28.9598 24.7896 29.8666 24.8607 30.6998 24.9854C30.8247 25.8196 30.8958 26.7276 30.8958 27.6884C30.8958 28.648 30.8248 29.555 30.7003 30.3883C29.8669 30.5129 28.96 30.584 28.0003 30.584ZM20.2032 27.6885C20.2032 26.8155 21.5619 25.8771 23.7035 25.3118C23.6162 26.0656 23.57 26.8612 23.57 27.6885C23.57 28.5148 23.6162 29.3094 23.7033 30.0625C21.5619 29.4977 20.2032 28.5604 20.2032 27.6885ZM28.0003 19.8914C28.8723 19.8914 29.8096 21.2499 30.3744 23.3914C29.6214 23.3042 28.8268 23.2582 28.0003 23.2582C27.1727 23.2582 26.3768 23.3044 25.6227 23.3918C25.7614 22.8711 25.9255 22.3833 26.1153 21.94C26.6642 20.6571 27.3689 19.8914 28.0003 19.8914ZM25.1518 20.4326C24.6504 21.2951 24.2482 22.394 23.9745 23.6626C22.7058 23.9363 21.6069 24.3386 20.7444 24.8399C21.5367 22.8289 23.1408 21.2249 25.1518 20.4326ZM20.7433 30.5343C21.6058 31.0356 22.705 31.4377 23.9738 31.7112C24.2476 32.9812 24.65 34.0811 25.1518 34.9443C23.1399 34.1517 21.5353 32.5466 20.7433 30.5343ZM30.8462 34.9454C31.3478 34.0822 31.75 32.982 32.0237 31.7119C33.2939 31.4382 34.3941 31.0359 35.2573 30.5343C34.4651 32.5475 32.8593 34.1531 30.8462 34.9454Z" fill="#127AFF"/>
</g>
<defs>
<clipPath id="clip0_3426_2477">
<rect width="56" height="56" fill="white"/>
</clipPath>
</defs>
</svg>
