<svg width="56" height="56" viewBox="0 0 56 56" fill="none" xmlns="http://www.w3.org/2000/svg">
<g clip-path="url(#clip0_3288_2753)">
<path d="M47.2192 19.8249C46.9043 17.75 46.014 15.805 44.6494 14.2106C43.2848 12.6161 41.5005 11.4362 39.4991 10.8046C37.4978 10.1731 35.3594 10.1152 33.3268 10.6376C31.2942 11.1601 29.4488 12.2418 28 13.7601V10.2667C27.998 8.74393 27.465 7.26955 26.493 6.09747C25.5209 4.92538 24.1705 4.12895 22.6744 3.84533C22.9883 3.52916 23.2016 3.12711 23.2873 2.68987C23.3731 2.25264 23.3274 1.79982 23.1561 1.38851C22.9848 0.977207 22.6955 0.625843 22.3247 0.378734C21.954 0.131625 21.5184 -0.000159773 21.0728 1.4537e-07H12.1333C9.41143 0.00321125 6.80193 1.08591 4.87725 3.01058C2.95257 4.93526 1.86988 7.54476 1.86667 10.2667V17.7333C1.86789 18.5666 2.14721 19.3756 2.66034 20.0321C3.17347 20.6886 3.89105 21.155 4.69933 21.3575C4.85668 23.2761 5.54937 25.112 6.69859 26.6564C7.84781 28.2008 9.40743 29.3917 11.2 30.0935V31.7333C9.72899 31.7326 8.27226 32.0218 6.91308 32.5844C5.5539 33.147 4.31893 33.9719 3.27876 35.0121C2.2386 36.0523 1.41364 37.2872 0.851051 38.6464C0.288459 40.0056 -0.000734657 41.4623 1.40153e-06 42.9333V52.2667C1.40153e-06 53.2568 0.393334 54.2064 1.09347 54.9065C1.79361 55.6067 2.74319 56 3.73333 56H26.1333C27.1235 56 28.0731 55.6067 28.7732 54.9065C29.4733 54.2064 29.8667 53.2568 29.8667 52.2667V42.9333C29.8645 41.6611 29.6454 40.3986 29.2189 39.2H46.3773C48.2879 39.179 50.15 38.5959 51.7315 37.5236C53.3129 36.4513 54.5436 34.9372 55.2702 33.17C55.9968 31.4028 56.187 29.4609 55.8172 27.5863C55.4474 25.7117 54.5339 23.9875 53.1907 22.6287C51.5975 21.0129 49.48 20.0187 47.2192 19.8249ZM3.73333 10.2667C3.73581 8.03961 4.6216 5.90447 6.19637 4.3297C7.77114 2.75493 9.90627 1.86914 12.1333 1.86667H21.0728C21.1491 1.86825 21.2232 1.8919 21.2863 1.93474C21.3495 1.97758 21.3988 2.03779 21.4284 2.10809C21.458 2.17838 21.4667 2.25575 21.4532 2.33083C21.4398 2.40592 21.4049 2.47552 21.3528 2.5312L20.1469 3.73333H17.7333C17.4858 3.73333 17.2484 3.83167 17.0734 4.0067C16.8983 4.18173 16.8 4.41913 16.8 4.66667C16.8 4.9142 16.8983 5.1516 17.0734 5.32663C17.2484 5.50167 17.4858 5.6 17.7333 5.6H21.4667C22.7039 5.60148 23.89 6.09362 24.7649 6.96847C25.6397 7.84332 26.1319 9.02944 26.1333 10.2667V12.3051C25.7071 12.1464 25.2481 12.0966 24.7978 12.1601C24.3475 12.2237 23.9201 12.3986 23.5545 12.6691C23.2449 12.2211 22.8459 11.8421 22.3827 11.5559C21.9194 11.2696 21.4019 11.0824 20.8628 11.0059C19.1646 10.8887 17.532 10.3029 16.1467 9.31373C15.8127 9.01353 15.3796 8.84745 14.9305 8.84745C14.4815 8.84745 14.0483 9.01353 13.7144 9.31373C12.33 10.3028 10.6984 10.8885 9.00107 11.0059C8.46181 11.082 7.94419 11.2691 7.48089 11.5554C7.01759 11.8416 6.61868 12.2208 6.30933 12.6691C5.94404 12.3991 5.5172 12.2244 5.06743 12.1609C4.61766 12.0973 4.15914 12.1469 3.73333 12.3051V10.2667ZM6.53333 20.5333C6.53333 20.2858 6.435 20.0484 6.25997 19.8734C6.08493 19.6983 5.84754 19.6 5.6 19.6C5.10493 19.6 4.63014 19.4033 4.28007 19.0533C3.93 18.7032 3.73333 18.2284 3.73333 17.7333V14.9333C3.73333 14.6858 3.83167 14.4484 4.0067 14.2734C4.18174 14.0983 4.41913 14 4.66667 14C4.9142 14 5.1516 14.0983 5.32663 14.2734C5.50167 14.4484 5.6 14.6858 5.6 14.9333C5.6 15.1809 5.69833 15.4183 5.87337 15.5933C6.0484 15.7683 6.2858 15.8667 6.53333 15.8667C6.78087 15.8667 7.01827 15.7683 7.1933 15.5933C7.36833 15.4183 7.46667 15.1809 7.46667 14.9333C7.46672 14.4294 7.64808 13.9423 7.97761 13.561C8.30714 13.1797 8.76284 12.9297 9.26147 12.8567C11.3156 12.7029 13.2832 11.9663 14.9333 10.7333C16.5831 11.9671 18.5509 12.7041 20.6052 12.8576C21.1036 12.9308 21.5591 13.1807 21.8885 13.5618C22.218 13.9428 22.3995 14.4296 22.4 14.9333C22.4 15.1809 22.4983 15.4183 22.6734 15.5933C22.8484 15.7683 23.0858 15.8667 23.3333 15.8667C23.5809 15.8667 23.8183 15.7683 23.9933 15.5933C24.1683 15.4183 24.2667 15.1809 24.2667 14.9333C24.2667 14.6858 24.365 14.4484 24.54 14.2734C24.7151 14.0983 24.9525 14 25.2 14C25.4475 14 25.6849 14.0983 25.86 14.2734C26.035 14.4484 26.1333 14.6858 26.1333 14.9333V17.7333C26.1333 18.2284 25.9367 18.7032 25.5866 19.0533C25.2365 19.4033 24.7617 19.6 24.2667 19.6C24.0191 19.6 23.7817 19.6983 23.6067 19.8734C23.4317 20.0484 23.3333 20.2858 23.3333 20.5333C23.3333 22.7612 22.4483 24.8977 20.873 26.473C19.2977 28.0483 17.1612 28.9333 14.9333 28.9333C12.7055 28.9333 10.5689 28.0483 8.99364 26.473C7.41833 24.8977 6.53333 22.7612 6.53333 20.5333ZM16.8 30.6255V32.6667C16.8 33.1617 16.6033 33.6365 16.2533 33.9866C15.9032 34.3367 15.4284 34.5333 14.9333 34.5333C14.4383 34.5333 13.9635 34.3367 13.6134 33.9866C13.2633 33.6365 13.0667 33.1617 13.0667 32.6667V30.6255C14.3002 30.8582 15.5664 30.8582 16.8 30.6255ZM28 52.2667C28 52.7617 27.8033 53.2365 27.4533 53.5866C27.1032 53.9367 26.6284 54.1333 26.1333 54.1333H24.2667V44.8C24.2667 44.5525 24.1683 44.3151 23.9933 44.14C23.8183 43.965 23.5809 43.8667 23.3333 43.8667C23.0858 43.8667 22.8484 43.965 22.6734 44.14C22.4983 44.3151 22.4 44.5525 22.4 44.8V54.1333H7.46667V44.8C7.46667 44.5525 7.36833 44.3151 7.1933 44.14C7.01827 43.965 6.78087 43.8667 6.53333 43.8667C6.2858 43.8667 6.0484 43.965 5.87337 44.14C5.69833 44.3151 5.6 44.5525 5.6 44.8V54.1333H3.73333C3.23826 54.1333 2.76347 53.9367 2.4134 53.5866C2.06333 53.2365 1.86667 52.7617 1.86667 52.2667V42.9333C1.86581 41.7074 2.10664 40.4934 2.57538 39.3606C3.04412 38.2278 3.73157 37.1986 4.59842 36.3318C5.46527 35.4649 6.49451 34.7774 7.62727 34.3087C8.76003 33.84 9.97409 33.5991 11.2 33.6H11.3325C11.5363 34.4004 12.0009 35.1101 12.6529 35.617C13.305 36.1239 14.1074 36.3991 14.9333 36.3991C15.7593 36.3991 16.5617 36.1239 17.2137 35.617C17.8658 35.1101 18.3304 34.4004 18.5341 33.6H18.6667C19.8926 33.5991 21.1066 33.84 22.2394 34.3087C23.3722 34.7774 24.4014 35.4649 25.2682 36.3318C26.1351 37.1986 26.8226 38.2278 27.2913 39.3606C27.76 40.4934 28.0009 41.7074 28 42.9333V52.2667ZM46.3773 37.3333H28.364C27.386 35.6268 25.9735 34.2097 24.2702 33.2261C22.5669 32.2425 20.6336 31.7274 18.6667 31.7333V30.0935C20.4592 29.3917 22.0189 28.2008 23.1681 26.6564C24.3173 25.112 25.01 23.2761 25.1673 21.3575C25.9756 21.155 26.6932 20.6886 27.2063 20.0321C27.7195 19.3756 27.9988 18.5666 28 17.7333V17.0249C28.7785 15.5216 29.9641 14.2674 31.4213 13.4057C32.8786 12.5441 34.5489 12.1096 36.2413 12.152C38.5353 12.1527 40.7467 13.0082 42.444 14.5515C44.1412 16.0949 45.2025 18.2152 45.4207 20.4988C45.4557 20.8093 45.6005 21.0971 45.829 21.3103C46.0574 21.5235 46.3545 21.6481 46.6667 21.6617C48.6282 21.7286 50.4894 22.545 51.8672 23.9428C52.9508 25.0402 53.6878 26.432 53.9866 27.945C54.2854 29.458 54.1328 31.0255 53.5478 32.4524C52.9627 33.8794 51.9711 35.1029 50.6962 35.9707C49.4213 36.8385 47.9194 37.3124 46.3773 37.3333Z" fill="#127AFF"/>
<path d="M19.4133 23.8918C19.4868 23.7937 19.5403 23.6821 19.5707 23.5634C19.6012 23.4447 19.6079 23.3211 19.5906 23.1998C19.5732 23.0784 19.5322 22.9617 19.4697 22.8562C19.4073 22.7508 19.3247 22.6586 19.2266 22.5851C19.1285 22.5116 19.017 22.4581 18.8982 22.4276C18.7795 22.3972 18.6559 22.3905 18.5346 22.4078C18.4133 22.4252 18.2965 22.4662 18.1911 22.5287C18.0856 22.5911 17.9935 22.6737 17.9199 22.7718C17.5722 23.2354 17.1213 23.6118 16.6029 23.871C16.0845 24.1302 15.5128 24.2651 14.9333 24.2651C14.3537 24.2651 13.7821 24.1302 13.2637 23.871C12.7453 23.6118 12.2944 23.2354 11.9466 22.7718C11.8731 22.6737 11.7809 22.5911 11.6755 22.5287C11.57 22.4662 11.4533 22.4252 11.3319 22.4078C11.2106 22.3905 11.087 22.3972 10.9683 22.4276C10.8496 22.4581 10.738 22.5116 10.6399 22.5851C10.5419 22.6586 10.4593 22.7508 10.3968 22.8562C10.3344 22.9617 10.2933 23.0784 10.276 23.1998C10.2586 23.3211 10.2654 23.4447 10.2958 23.5634C10.3262 23.6821 10.3797 23.7937 10.4533 23.8918C10.9749 24.5873 11.6513 25.1518 12.4289 25.5406C13.2065 25.9294 14.0639 26.1318 14.9333 26.1318C15.8026 26.1318 16.6601 25.9294 17.4377 25.5406C18.2153 25.1518 18.8916 24.5873 19.4133 23.8918Z" fill="#127AFF"/>
<path d="M31.4594 24.5389C31.2844 24.3639 31.047 24.2656 30.7995 24.2656C30.5521 24.2656 30.3147 24.3639 30.1397 24.5389L27.3397 27.3389C27.1647 27.5139 27.0664 27.7513 27.0664 27.9988C27.0664 28.2462 27.1647 28.4836 27.3397 28.6586L30.1397 31.4586C30.3157 31.6286 30.5515 31.7227 30.7962 31.7206C31.0409 31.7185 31.275 31.6203 31.448 31.4473C31.6211 31.2742 31.7192 31.0401 31.7214 30.7954C31.7235 30.5507 31.6294 30.3149 31.4594 30.1389L29.3193 27.9988L31.4594 25.8586C31.6344 25.6836 31.7327 25.4462 31.7327 25.1988C31.7327 24.9513 31.6344 24.7139 31.4594 24.5389Z" fill="#127AFF"/>
<path d="M40.7931 24.5393C40.6171 24.3693 40.3814 24.2753 40.1366 24.2774C39.8919 24.2795 39.6578 24.3777 39.4848 24.5507C39.3117 24.7238 39.2136 24.9579 39.2114 25.2026C39.2093 25.4473 39.3034 25.683 39.4734 25.8591L41.6135 27.9992L39.4734 30.1393C39.3843 30.2254 39.3132 30.3284 39.2642 30.4423C39.2153 30.5562 39.1896 30.6786 39.1885 30.8026C39.1874 30.9265 39.211 31.0494 39.258 31.1641C39.3049 31.2788 39.3742 31.383 39.4618 31.4706C39.5495 31.5583 39.6537 31.6276 39.7684 31.6745C39.8831 31.7214 40.006 31.7451 40.1299 31.744C40.2538 31.7429 40.3763 31.7172 40.4902 31.6682C40.6041 31.6193 40.707 31.5482 40.7931 31.4591L43.5931 28.6591C43.7681 28.4841 43.8664 28.2467 43.8664 27.9992C43.8664 27.7517 43.7681 27.5144 43.5931 27.3393L40.7931 24.5393Z" fill="#127AFF"/>
<path d="M36.6948 24.3133C36.4601 24.2353 36.204 24.2536 35.9828 24.3642C35.7616 24.4748 35.5934 24.6686 35.515 24.9032L33.6483 30.5032C33.6096 30.6196 33.5942 30.7425 33.603 30.8649C33.6118 30.9873 33.6446 31.1068 33.6995 31.2165C33.7544 31.3263 33.8305 31.4241 33.9232 31.5044C34.016 31.5848 34.1236 31.646 34.2401 31.6848C34.3565 31.7235 34.4795 31.7389 34.6018 31.7302C34.7242 31.7214 34.8437 31.6886 34.9534 31.6336C35.0632 31.5787 35.161 31.5027 35.2413 31.4099C35.3217 31.3172 35.383 31.2095 35.4217 31.093L37.2884 25.493C37.3269 25.3766 37.3421 25.2537 37.3332 25.1314C37.3242 25.0091 37.2912 24.8897 37.2361 24.7801C37.1809 24.6706 37.1048 24.573 37.0119 24.4928C36.919 24.4127 36.8112 24.3517 36.6948 24.3133Z" fill="#127AFF"/>
</g>
<defs>
<clipPath id="clip0_3288_2753">
<rect width="56" height="56" fill="white"/>
</clipPath>
</defs>
</svg>
