<svg width="56" height="56" viewBox="0 0 56 56" fill="none" xmlns="http://www.w3.org/2000/svg">
<path d="M25.8649 27.478L19.2674 29.683C18.109 30.0675 17.1011 30.8068 16.3865 31.7963C15.6719 32.7857 15.2869 33.975 15.2861 35.1955V40.533C15.2868 40.7648 15.3792 40.987 15.5431 41.151C15.7071 41.3149 15.9293 41.4073 16.1611 41.408H39.8736C40.1055 41.4073 40.3277 41.3149 40.4916 41.151C40.6556 40.987 40.748 40.7648 40.7486 40.533V35.1955C40.7478 33.975 40.3628 32.7857 39.6483 31.7963C38.9337 30.8068 37.9257 30.0675 36.7674 29.683L30.1699 27.478C28.771 27.023 27.2638 27.023 25.8649 27.478ZM38.9986 35.1955V39.658H35.8049V35.5892C35.8004 35.3601 35.7063 35.1419 35.5426 34.9815C35.379 34.821 35.159 34.7311 34.9299 34.7311C34.7007 34.7312 34.4807 34.821 34.3171 34.9815C34.1535 35.1419 34.0593 35.3602 34.0549 35.5893V39.658H21.9799V35.5892C21.9799 35.3572 21.8877 35.1346 21.7236 34.9705C21.5595 34.8064 21.3369 34.7142 21.1049 34.7142C20.8728 34.7142 20.6503 34.8064 20.4862 34.9705C20.3221 35.1346 20.2299 35.3572 20.2299 35.5892V39.658H17.0361V35.1955C17.036 34.3426 17.3049 33.5115 17.8044 32.8203C18.304 32.129 19.0088 31.613 19.8186 31.3455L26.4161 29.1405C27.4564 28.7992 28.5784 28.7992 29.6186 29.1405L36.2161 31.3455C37.0259 31.613 37.7308 32.129 38.2303 32.8203C38.7299 33.5115 38.9987 34.3426 38.9986 35.1955Z" fill="#127AFF"/>
<path d="M33.0821 16.3304L31.0707 16.1573L29.4386 13.7097C29.2726 13.4658 29.0495 13.2662 28.7888 13.1282C28.528 12.9902 28.2375 12.918 27.9425 12.918C27.6475 12.9179 27.3569 12.99 27.0961 13.1279C26.8353 13.2658 26.6122 13.4654 26.4461 13.7092L24.7782 16.1787L22.8026 16.3304C22.469 16.3603 22.1503 16.4821 21.8818 16.6824C21.6134 16.8827 21.4058 17.1536 21.2821 17.4649C21.1585 17.7762 21.1236 18.1157 21.1815 18.4456C21.2393 18.7755 21.3876 19.0828 21.6097 19.3335L23.3247 21.2518L22.6771 23.6807C22.6082 23.9467 22.6007 24.225 22.6552 24.4944C22.7097 24.7637 22.8247 25.0172 22.9915 25.2356C23.1584 25.454 23.3727 25.6316 23.6183 25.7549C23.8638 25.8783 24.1343 25.9442 24.4091 25.9477C25.058 26.0351 27.3744 24.5524 27.9655 24.3131L30.6246 25.7315C30.9338 25.8965 31.2844 25.9676 31.6334 25.9361C31.9824 25.9045 32.3146 25.7717 32.5891 25.5538C32.8636 25.336 33.0685 25.0427 33.1786 24.71C33.2886 24.3773 33.2991 24.0197 33.2086 23.6811L32.572 21.207L34.2749 19.3335C34.4971 19.0829 34.6454 18.7755 34.7032 18.4456C34.7611 18.1157 34.7262 17.7762 34.6026 17.4649C34.479 17.1536 34.2714 16.8828 34.0029 16.6825C33.7345 16.4822 33.4157 16.3603 33.0821 16.3304ZM31.2766 20.0299C31.0738 20.2522 30.9303 20.522 30.8594 20.8145C30.7884 21.1069 30.7923 21.4125 30.8707 21.703L31.5184 24.1323C31.5184 24.1323 28.6023 22.4692 27.9424 22.5566C27.2707 22.4734 25.0527 23.9299 24.4364 24.1874L25.0157 21.7013C25.0932 21.4108 25.0965 21.1055 25.0253 20.8134C24.9541 20.5213 24.8106 20.2517 24.6081 20.0295L22.9367 18.0753C23.9035 17.9407 25.7071 18.1638 26.2701 17.1281L27.9022 14.6799L29.6146 17.1281C29.7653 17.3556 29.9661 17.5456 30.2016 17.6835C30.4371 17.8214 30.7011 17.9035 30.9732 17.9236L32.9796 18.156L31.2766 20.0299Z" fill="#127AFF"/>
<path d="M49.5428 24.5439C49.3943 23.5782 49.175 22.6248 48.8865 21.6914C47.8498 18.2466 45.9758 15.1122 43.432 12.5684C40.8882 10.0246 37.7539 8.15063 34.309 7.11388C34.0868 7.04842 33.8477 7.07351 33.6439 7.18366C33.4401 7.29382 33.2881 7.4801 33.2211 7.70188C33.1541 7.92366 33.1775 8.16294 33.2863 8.36751C33.395 8.57208 33.5802 8.72535 33.8015 8.79388C36.9719 9.74502 39.8564 11.4686 42.1961 13.8098C44.5358 16.1511 46.2575 19.0367 47.2065 22.2076C47.4612 23.0185 47.66 23.8458 47.8015 24.6839C46.982 24.9634 46.2928 25.5326 45.8634 26.2845C45.434 27.0364 45.2941 27.9193 45.4699 28.7672C45.6457 29.615 46.1251 30.3695 46.818 30.8887C47.511 31.4079 48.3697 31.6562 49.2328 31.5868C50.0959 31.5174 50.9039 31.1351 51.505 30.5119C52.1061 29.8886 52.4588 29.0672 52.4969 28.2022C52.535 27.3371 52.2558 26.488 51.7118 25.8143C51.1678 25.1406 50.3965 24.6888 49.5428 24.5439ZM48.9565 29.8464C48.5997 29.8481 48.2503 29.7439 47.9528 29.5469C47.6552 29.3499 47.4228 29.069 47.285 28.7398C47.1473 28.4105 47.1103 28.0479 47.1789 27.6976C47.2474 27.3474 47.4184 27.0254 47.6701 26.7724C47.9219 26.5195 48.243 26.3469 48.5929 26.2767C48.9428 26.2064 49.3057 26.2416 49.6355 26.3778C49.9654 26.5139 50.2474 26.745 50.4459 27.0416C50.6443 27.3382 50.7503 27.687 50.7503 28.0439C50.751 28.5206 50.5625 28.9782 50.2262 29.3161C49.8899 29.654 49.4333 29.8447 48.9565 29.8464Z" fill="#127AFF"/>
<path d="M22.0938 47.2953C18.9293 46.3449 16.0499 44.6245 13.7135 42.2881C11.3771 39.9517 9.65668 37.0723 8.70631 33.9078C8.4584 33.0963 8.26547 32.269 8.12881 31.4315C8.9507 31.1675 9.64802 30.6127 10.0899 29.8711C10.5318 29.1296 10.6879 28.2522 10.529 27.4038C10.37 26.5553 9.9069 25.794 9.22652 25.2626C8.54614 24.7313 7.69527 24.4666 6.83355 24.518C5.97184 24.5695 5.15851 24.9336 4.54618 25.5421C3.93384 26.1505 3.56459 26.9616 3.50771 27.8229C3.45082 28.6843 3.71022 29.5368 4.23721 30.2206C4.76421 30.9043 5.52259 31.3722 6.37006 31.5365C7.00693 35.5811 8.77298 39.3637 11.4649 42.4488C14.1569 45.534 17.6653 47.7962 21.5863 48.9753C21.6686 48.9998 21.7542 49.0116 21.8401 49.0103C22.0505 49.0107 22.2541 48.9354 22.4136 48.7981C22.5731 48.6608 22.6778 48.4707 22.7086 48.2625C22.7394 48.0543 22.6942 47.842 22.5813 47.6644C22.4684 47.4868 22.2954 47.3557 22.0938 47.2953ZM5.25006 28.0453C5.24905 27.6934 5.35105 27.3489 5.54349 27.0543C5.73593 26.7597 6.01039 26.5279 6.33301 26.3874C6.65563 26.247 7.01231 26.204 7.35906 26.2639C7.70581 26.3237 8.02746 26.4837 8.28435 26.7242C8.54124 26.9646 8.72213 27.275 8.80471 27.6171C8.88729 27.9591 8.86795 28.3179 8.74907 28.6491C8.63019 28.9802 8.41698 29.2694 8.13573 29.4808C7.85447 29.6923 7.51748 29.8168 7.16631 29.839C6.92123 29.8533 6.67582 29.8175 6.44497 29.734C6.21413 29.6505 6.00267 29.5209 5.82345 29.3531C5.64423 29.1854 5.50098 28.9829 5.40241 28.7581C5.30384 28.5333 5.25201 28.2907 5.25006 28.0453Z" fill="#127AFF"/>
<path d="M7.61295 22.7675C7.69527 22.792 7.78083 22.8038 7.8667 22.8025C8.05474 22.8024 8.23778 22.742 8.38897 22.6302C8.54015 22.5184 8.65151 22.361 8.7067 22.1813C9.65974 19.0139 11.3842 16.1326 13.7254 13.796C16.0666 11.4594 18.9512 9.74061 22.1205 8.79377C22.9304 8.53593 23.758 8.33708 24.5967 8.19877C24.8757 9.01964 25.445 9.71027 26.1976 10.1407C26.9502 10.5711 27.8341 10.7117 28.6831 10.536C29.5321 10.3602 30.2876 9.88028 30.8074 9.18645C31.3273 8.49261 31.5757 7.63272 31.5058 6.76855C31.436 5.90439 31.0528 5.09553 30.4283 4.49417C29.8038 3.89281 28.981 3.54041 28.1148 3.50327C27.2486 3.46612 26.3987 3.7468 25.725 4.29249C25.0513 4.83818 24.6003 5.61126 24.4567 6.46627C23.4913 6.61189 22.5379 6.82831 21.6042 7.11377C18.1611 8.14829 15.0277 10.0194 12.484 12.5601C9.94026 15.1008 8.06535 18.2319 7.0267 21.6738C6.95946 21.8966 6.98344 22.1369 7.09337 22.342C7.20331 22.5471 7.3902 22.7002 7.61295 22.7675ZM27.9567 5.25002C28.3123 5.25089 28.6597 5.35719 28.9549 5.55549C29.2502 5.75379 29.4799 6.03518 29.6152 6.36408C29.7505 6.69297 29.7853 7.0546 29.715 7.40323C29.6448 7.75186 29.4728 8.07184 29.2207 8.3227C28.9686 8.57356 28.6478 8.74403 28.2988 8.81257C27.9499 8.8811 27.5884 8.84461 27.2602 8.70772C26.9319 8.57082 26.6517 8.33967 26.4548 8.04349C26.258 7.74731 26.1533 7.39941 26.1542 7.04377C26.1568 6.56734 26.3479 6.11129 26.6856 5.77521C27.0233 5.43914 27.4803 5.25033 27.9567 5.25002Z" fill="#127AFF"/>
<path d="M48.3002 33.3014C48.0774 33.2361 47.8379 33.2609 47.6333 33.3706C47.4287 33.4802 47.2754 33.6659 47.2064 33.8876C46.258 37.0551 44.5384 39.9377 42.202 42.2772C39.8655 44.6167 36.9851 46.34 33.8189 47.2926C33.0074 47.5405 32.1801 47.7334 31.3427 47.8701C31.0787 47.0482 30.5239 46.3509 29.7823 45.909C29.0407 45.4671 28.1634 45.311 27.3149 45.4699C26.4664 45.6289 25.7051 46.092 25.1738 46.7724C24.6425 47.4528 24.3777 48.3036 24.4292 49.1654C24.4806 50.0271 24.8447 50.8404 25.4532 51.4528C26.0617 52.0651 26.8727 52.4343 27.7341 52.4912C28.5955 52.5481 29.448 52.2887 30.1317 51.7617C30.8154 51.2347 31.2834 50.4763 31.4477 49.6289C35.4949 48.9917 39.2795 47.2235 42.365 44.5281C45.4506 41.8327 47.7113 38.32 48.8864 34.3951C48.9537 34.1723 48.9297 33.932 48.8198 33.7269C48.7098 33.5218 48.5229 33.3687 48.3002 33.3014ZM27.9564 50.7489C27.5988 50.7488 27.2493 50.6424 26.9523 50.4432C26.6554 50.2439 26.4244 49.9608 26.2888 49.6299C26.1532 49.2991 26.119 48.9353 26.1907 48.5849C26.2624 48.2346 26.4367 47.9135 26.6914 47.6625C26.9462 47.4115 27.2698 47.2419 27.6211 47.1754C27.9725 47.1088 28.3357 47.1483 28.6646 47.2887C28.9935 47.4292 29.2731 47.6643 29.468 47.9641C29.6629 48.264 29.7641 48.615 29.7589 48.9726C29.7498 49.4454 29.5561 49.8958 29.2193 50.2277C28.8825 50.5596 28.4293 50.7467 27.9564 50.7489Z" fill="#127AFF"/>
</svg>
