<svg width="56" height="56" viewBox="0 0 56 56" fill="none" xmlns="http://www.w3.org/2000/svg">
<g clip-path="url(#clip0_3400_2745)">
<path d="M12.0152 54.2723L10.3685 51.9529C10.019 51.4603 9.33613 51.3445 8.84351 51.6942C8.35099 52.0438 8.23506 52.7265 8.58484 53.2192L10.2315 55.5387C10.4448 55.8391 10.7818 55.9994 11.1243 55.9994C11.3433 55.9994 11.5643 55.9337 11.7565 55.7973C12.249 55.4477 12.3649 54.765 12.0152 54.2723Z" fill="#127AFF"/>
<path d="M24.6317 54.6868L22.8397 46.146C21.9683 41.9928 19.549 38.4016 16.0275 36.0337L12.2015 33.461C10.6673 32.4296 8.60515 32.6514 7.32285 33.959V20.7798C7.32285 19.0499 6.14346 17.5802 4.45472 17.2053C3.3648 16.9632 2.24065 17.2255 1.36992 17.924C0.499295 18.6226 0 19.6635 0 20.7798V37.7386C0 39.9603 0.679872 42.0923 1.96601 43.9041L3.91648 46.6517C4.12977 46.9522 4.46686 47.1124 4.80931 47.1124C5.02828 47.1124 5.24932 47.0468 5.44149 46.9104C5.93401 46.5607 6.04995 45.878 5.70017 45.3854L3.74969 42.6378C2.72769 41.1981 2.18749 39.504 2.18749 37.7384V20.7798C2.18749 20.3305 2.38852 19.9115 2.73896 19.6302C3.08928 19.349 3.54177 19.2434 3.9808 19.3409C4.66056 19.4917 5.13536 20.0834 5.13536 20.7798V34.2346C5.13536 36.1393 5.83513 37.9539 7.10639 39.3657C7.16086 39.431 7.21686 39.4957 7.27603 39.5583C8.00239 40.328 8.85639 41.2349 9.66073 42.0898L10.7867 43.2882C10.7903 43.292 10.7943 43.2953 10.798 43.299C11.7613 44.3236 12.4717 45.0801 12.4865 45.0959C12.8999 45.5361 13.5922 45.558 14.0325 45.1444C14.4729 44.7309 14.4946 44.0387 14.081 43.5984C14.0611 43.5772 12.7807 42.2138 11.3186 40.6597L8.81078 37.9907C8.80443 37.9839 8.79864 37.9768 8.79229 37.97C8.2043 37.2667 8.21162 36.247 8.82795 35.5512C9.37318 34.9358 10.2989 34.8177 10.9811 35.2763L14.8069 37.849C17.8528 39.8971 19.9452 43.0031 20.6988 46.5952L22.4909 55.1361C22.5991 55.6516 23.0538 56.0054 23.5603 56.0054C23.6346 56.0054 23.7102 55.9978 23.7859 55.9819C24.3771 55.8579 24.7557 55.278 24.6317 54.6868Z" fill="#127AFF"/>
<path d="M8.10835 48.7731L8.10135 48.7633C7.75025 48.2715 7.06732 48.1573 6.57568 48.5082C6.08404 48.8591 5.96985 49.5421 6.32062 50.0338L6.32762 50.0436C6.54112 50.3427 6.87744 50.5022 7.21891 50.5022C7.43875 50.5022 7.66068 50.4361 7.85328 50.2987C8.34481 49.9478 8.45911 49.2647 8.10835 48.7731Z" fill="#127AFF"/>
<path d="M54.6369 17.9239C53.7663 17.2253 52.6416 16.9634 51.5522 17.2052C49.8634 17.5799 48.6839 19.0498 48.6839 20.7796V33.9588C47.4017 32.6513 45.3394 32.4294 43.8053 33.4608L39.9793 36.0334C36.4577 38.4012 34.0385 41.9925 33.1671 46.1457L31.3751 54.6866C31.2511 55.2778 31.6297 55.8576 32.2209 55.9816C32.2966 55.9975 32.3723 56.0051 32.4465 56.0051C32.9531 56.0051 33.4077 55.6512 33.5159 55.1357L35.3079 46.5948C36.0616 43.0028 38.1539 39.8967 41.1998 37.8487L45.0258 35.2761C45.7078 34.8174 46.6335 34.9355 47.1789 35.5509C47.7945 36.2458 47.8027 37.2639 47.2169 37.9672C47.2099 37.9748 47.2032 37.9827 47.1962 37.9904C47.1962 37.9904 41.9457 43.5771 41.9259 43.5981C41.5124 44.0385 41.5341 44.7306 41.9744 45.1441C42.4147 45.5577 43.1068 45.5359 43.5204 45.0956C43.5352 45.0798 48.0045 40.3278 48.7309 39.5581C48.79 39.4955 48.846 39.4308 48.9005 39.3655C50.1717 37.9537 50.8715 36.1391 50.8715 34.2344V20.7795C50.8715 20.0831 51.3463 19.4914 52.0262 19.3406C52.4651 19.2432 52.9175 19.3488 53.268 19.6299C53.6185 19.9111 53.8195 20.3301 53.8195 20.7795V37.7383C53.8195 39.5038 53.2793 41.1979 52.2573 42.6376L43.994 54.278C43.6443 54.7705 43.7601 55.4533 44.2526 55.803C44.4449 55.9394 44.6658 56.005 44.8848 56.005C45.2272 56.005 45.5644 55.8447 45.7776 55.5443L54.041 43.9039C55.3271 42.0921 56.007 39.9601 56.007 37.7384V20.7795C56.0067 19.6632 55.5075 18.6224 54.6369 17.9239Z" fill="#127AFF"/>
<path d="M41.8495 20.9628L39.9036 20.4979V20.149C41.1683 19.2631 41.9976 17.796 41.9976 16.1381V13.6084C41.9976 10.9092 39.8017 8.71324 37.1024 8.71324C35.8911 8.71324 34.782 9.15642 33.9264 9.88792C32.9738 7.55496 30.6815 5.90625 28.0101 5.90625C25.3355 5.90625 23.0408 7.55923 22.0903 9.89667C21.2334 9.15992 20.1203 8.71302 18.904 8.71302C16.2048 8.71302 14.0089 10.9089 14.0089 13.6082V13.7763V16.1379C14.0089 17.7958 14.8381 19.2629 16.1028 20.1488V20.4977L14.157 20.9625C11.8336 21.5176 10.2109 23.5735 10.2109 25.9623V28.0049C10.2109 28.609 10.7007 29.0987 11.3047 29.0987H16.3307C16.3229 29.2314 16.3175 29.3647 16.3175 29.4991V33.432C16.3175 34.0361 16.8073 34.5257 17.4113 34.5257H23.9858C24.5898 34.5257 25.0795 34.0361 25.0795 33.432C25.0795 32.8279 24.5898 32.3383 23.9858 32.3383H22.8557V30.078C22.8557 29.474 22.366 28.9843 21.762 28.9843C21.158 28.9843 20.6682 29.474 20.6682 30.078V32.3385H18.5051V29.4993C18.5051 27.3898 19.9379 25.5732 21.9892 25.0817L24.9906 24.3624L26.9993 28.9323C27.1738 29.3295 27.5667 29.586 28.0004 29.586H28.0005C28.4343 29.586 28.8271 29.3296 29.0017 28.9324L31.0083 24.3693L34.0002 25.0841C36.0534 25.5746 37.4874 27.3915 37.4874 29.5025V32.3385H35.3243V30.078C35.3243 29.474 34.8345 28.9843 34.2306 28.9843C33.6266 28.9843 33.1368 29.474 33.1368 30.078V32.3385H31.8973C31.2933 32.3385 30.8035 32.8281 30.8035 33.4322C30.8035 34.0363 31.2933 34.526 31.8973 34.526H38.5813C39.1852 34.526 39.675 34.0363 39.675 33.4322V29.5025C39.675 29.367 39.6696 29.2327 39.6617 29.0989H44.7019C45.3058 29.0989 45.7956 28.6092 45.7956 28.0052V25.9625C45.7956 23.5737 44.1729 21.5177 41.8495 20.9628ZM37.1024 10.9005C38.5355 10.9005 39.7119 12.0195 39.8042 13.4296H38.2836C37.0052 13.4296 35.7472 13.1218 34.6163 12.5358C35.0323 11.5746 35.9902 10.9005 37.1024 10.9005ZM34.3947 15.9782C34.3961 15.925 34.3988 15.8719 34.3988 15.8183V14.8442C35.6261 15.3522 36.9459 15.6171 38.2836 15.6171H39.8101V16.138C39.8101 17.631 38.5955 18.8457 37.1024 18.8457C35.6094 18.8457 34.3947 17.631 34.3947 16.1379V15.9782ZM23.809 12.2948C23.809 9.97837 25.6936 8.09374 28.0101 8.09374C30.0995 8.09374 31.8374 9.62695 32.1583 11.6272L30.3169 10.5454C29.8564 10.2748 29.2677 10.3764 28.9246 10.786C28.0248 11.8598 26.7052 12.4757 25.3041 12.4757H23.809V12.2948ZM18.9041 10.9005C20.0164 10.9005 20.9742 11.5747 21.3902 12.5357C20.2593 13.1217 19.0014 13.4295 17.723 13.4295H16.2024C16.2947 12.0195 17.4712 10.9005 18.9041 10.9005ZM16.1965 15.617H17.723C19.0621 15.617 20.3833 15.3515 21.6118 14.8425V16.1378C21.6118 17.6308 20.3972 18.8455 18.9041 18.8455C17.4111 18.8455 16.1965 17.631 16.1965 16.1379V15.617ZM21.4795 22.9544C19.3276 23.4699 17.6365 24.9702 16.8316 26.9113H12.3984V25.9624C12.3984 24.5902 13.3305 23.409 14.6652 23.0902L17.4508 22.4248C17.9431 22.3072 18.2904 21.8672 18.2904 21.361V20.9933C18.4917 21.0185 18.6962 21.0331 18.9041 21.0331C19.1105 21.0331 19.3136 21.0188 19.5134 20.9938V21.3059C19.5126 21.3222 19.5123 21.3385 19.5122 21.3548C19.5119 21.7136 19.6884 22.0651 20.0123 22.2747C20.1344 22.3538 20.2663 22.4052 20.4009 22.4309L22.0325 22.8218L21.4795 22.9544ZM24.5304 21.2564C24.2494 21.1325 23.9565 21.0334 23.6546 20.9611L21.7007 20.4929V20.1521C22.0534 19.9056 22.3722 19.6144 22.6487 19.286C23.1372 20.0385 23.779 20.682 24.5304 21.1721V21.2564ZM29.2807 22.8635L28.0008 25.7745L26.718 22.856V22.0755C27.1354 22.1616 27.5676 22.207 28.0101 22.207C28.4451 22.207 28.8699 22.1629 29.2807 22.0797V22.8635ZM28.0101 20.0194C25.6936 20.0195 23.809 18.1349 23.809 15.8183V14.6631H25.3041C27.0385 14.6631 28.6877 14.0181 29.9516 12.8677L32.2071 14.1929V15.9783C32.1227 18.2208 30.2731 20.0194 28.0101 20.0194ZM31.4682 21.2599V21.1859C32.2257 20.6961 32.8732 20.051 33.3655 19.2952C33.6402 19.6199 33.9563 19.9079 34.3055 20.1521V20.4929L32.3515 20.9611C32.047 21.0342 31.7516 21.1345 31.4682 21.2599ZM43.608 26.9113H39.1598C38.3541 24.9702 36.6618 23.4708 34.5086 22.9564L33.9594 22.8253L35.5997 22.4322C35.7362 22.4068 35.8703 22.3548 35.994 22.2747C36.3174 22.0655 36.4933 21.7139 36.4933 21.3551C36.4933 21.3465 36.4932 21.3379 36.493 21.3294V20.9938C36.6928 21.0188 36.8958 21.0331 37.1022 21.0331C37.3101 21.0331 37.5147 21.0185 37.7159 20.9933V21.361C37.7159 21.8672 38.0633 22.3072 38.5556 22.4248L41.3411 23.0902C42.6758 23.4091 43.608 24.5902 43.608 25.9624V26.9113Z" fill="#127AFF"/>
<path d="M28.7732 32.6553C28.5687 32.4519 28.2877 32.3359 28 32.3359C27.7111 32.3359 27.4302 32.4519 27.2267 32.6553C27.0222 32.8598 26.9062 33.1409 26.9062 33.4297C26.9062 33.7173 27.0222 33.9984 27.2267 34.203C27.4302 34.4064 27.7112 34.5234 28 34.5234C28.2877 34.5234 28.5687 34.4064 28.7732 34.203C28.9766 33.9984 29.0937 33.7173 29.0937 33.4297C29.0937 33.1409 28.9767 32.8598 28.7732 32.6553Z" fill="#127AFF"/>
<path d="M28 0C27.396 0 26.9062 0.48967 26.9062 1.09375V2.73032C26.9062 3.33439 27.396 3.82406 28 3.82406C28.604 3.82406 29.0937 3.33439 29.0937 2.73032V1.09375C29.0937 0.48967 28.6041 0 28 0Z" fill="#127AFF"/>
<path d="M23.9672 3.56785L22.8199 2.42161C22.3926 1.99461 21.7001 1.99494 21.2731 2.42226C20.8461 2.84959 20.8466 3.54215 21.2739 3.96904L22.4213 5.11528C22.6348 5.32867 22.9146 5.43531 23.1943 5.43531C23.4744 5.43531 23.7544 5.32835 23.968 5.11463C24.3948 4.6873 24.3946 3.99474 23.9672 3.56785Z" fill="#127AFF"/>
<path d="M34.6927 2.44499C34.2654 2.0181 33.5727 2.01832 33.1459 2.44575L32.0074 3.58533C31.5806 4.01265 31.5809 4.70521 32.0082 5.1321C32.2218 5.34549 32.5015 5.45213 32.7813 5.45213C33.0614 5.45213 33.3415 5.34517 33.555 5.13134L34.6935 3.99176C35.1204 3.56444 35.12 2.87188 34.6927 2.44499Z" fill="#127AFF"/>
</g>
<defs>
<clipPath id="clip0_3400_2745">
<rect width="56" height="56" fill="white"/>
</clipPath>
</defs>
</svg>
