<?xml version="1.0" encoding="UTF-8"?>
<svg xmlns="http://www.w3.org/2000/svg" width="56" height="56" viewBox="0 0 56 56" fill="none">
  <g clip-path="url(#clip0_150_6274)">
    <path d="M11.3762 11.6378L12.0773 11.9058C13.4838 10.6775 15.1277 9.71612 16.9313 9.09924L17.7407 4.04391C17.8851 3.14047 18.6638 2.47656 19.5793 2.47656H23.7159C24.6314 2.47656 25.4101 3.14047 25.5545 4.04391L26.3639 9.09924C28.1675 9.71612 29.8114 10.6775 31.218 11.9058L36.0053 10.0771C36.8595 9.75112 37.8242 10.0924 38.2814 10.8853L40.3508 14.4685C40.8069 15.2604 40.6221 16.2666 39.9122 16.8441L35.9375 20.0729C36.1136 20.9818 36.2077 21.918 36.2077 22.8773C36.2077 23.8365 36.1136 24.7738 35.9375 25.6817L39.8094 28.8262" stroke="#127AFF" stroke-width="1.64063" stroke-miterlimit="10" stroke-linecap="round" stroke-linejoin="round"></path>
    <path d="M7.83346 10.2857L7.28986 10.0778C6.43564 9.7519 5.47095 10.0932 5.01376 10.8861L2.94547 14.4693C2.48828 15.2611 2.67312 16.2674 3.38297 16.8449L7.35767 20.0737C7.18158 20.9826 7.08752 21.9188 7.08752 22.878C7.08752 23.8373 7.18158 24.7746 7.35767 25.6824L3.38297 28.9112C2.67312 29.4887 2.48828 30.496 2.94547 31.2868L5.01376 34.87C5.47095 35.6629 6.43564 36.0053 7.28986 35.6783L12.0772 33.8506C13.4838 35.0778 15.1277 36.0392 16.9313 36.6561L17.7407 41.7125C17.8851 42.6159 18.6638 43.2799 19.5793 43.2799H23.7159C24.6313 43.2799 25.4101 42.6159 25.5545 41.7125L26.3638 36.6561C28.1674 36.0392 29.8114 35.0778 31.2179 33.8506L31.5121 33.9622" stroke="#127AFF" stroke-width="1.64063" stroke-miterlimit="10" stroke-linecap="round" stroke-linejoin="round"></path>
    <path d="M21.6478 32.8283C27.1426 32.8283 31.5971 28.3738 31.5971 22.879C31.5971 17.3841 27.1426 12.9297 21.6478 12.9297C16.1529 12.9297 11.6985 17.3841 11.6985 22.879C11.6985 28.3738 16.1529 32.8283 21.6478 32.8283Z" stroke="#127AFF" stroke-width="1.64063" stroke-miterlimit="10" stroke-linecap="round" stroke-linejoin="round"></path>
    <path d="M0.820312 34.168C4.83131 41.5515 12.6541 46.5639 21.6477 46.5639" stroke="#127AFF" stroke-width="1.64063" stroke-miterlimit="10" stroke-linecap="round" stroke-linejoin="round"></path>
    <path d="M21.6478 12.9297V14.7713" stroke="#127AFF" stroke-width="1.64063" stroke-miterlimit="10" stroke-linecap="round" stroke-linejoin="round"></path>
    <path d="M21.6478 30.9863V32.8281" stroke="#127AFF" stroke-width="1.64063" stroke-miterlimit="10" stroke-linecap="round" stroke-linejoin="round"></path>
    <path d="M31.5971 22.8789H29.7555" stroke="#127AFF" stroke-width="1.64063" stroke-miterlimit="10" stroke-linecap="round" stroke-linejoin="round"></path>
    <path d="M13.5401 22.8789H11.6985" stroke="#127AFF" stroke-width="1.64063" stroke-miterlimit="10" stroke-linecap="round" stroke-linejoin="round"></path>
    <path d="M17.7343 18.9648L21.6478 22.8784L24.4136 20.1125" stroke="#127AFF" stroke-width="1.64063" stroke-miterlimit="10" stroke-linecap="round" stroke-linejoin="round"></path>
    <path d="M54.0363 39.1618L51.2183 38.7822C51.0111 38.0491 50.7192 37.3516 50.3545 36.7003L52.0796 34.438C52.4802 33.9127 52.4306 33.1721 51.9633 32.705L50.6229 31.3646C50.1558 30.8975 49.4152 30.8478 48.8899 31.2485L46.6277 32.9735C45.9764 32.6089 45.2789 32.3169 44.5457 32.1098L44.1661 29.2917C44.0779 28.637 43.5191 28.1484 42.8584 28.1484H40.9627C40.3021 28.1484 39.7433 28.637 39.655 29.2917L39.2754 32.1098C38.5423 32.3169 37.8448 32.6089 37.1934 32.9735L34.9315 31.2485C34.4061 30.8478 33.6655 30.8975 33.1984 31.3646L31.858 32.705C31.3909 33.1721 31.3412 33.9127 31.7419 34.438L33.4669 36.7003C33.1023 37.3516 32.8103 38.0491 32.6032 38.7822L29.7851 39.1618C29.1304 39.25 28.6418 39.8089 28.6418 40.4695V42.3652C28.6418 43.0258 29.1304 43.5846 29.7851 43.6729L32.6032 44.0525C32.8103 44.7858 33.1023 45.4833 33.4669 46.1345L31.7419 48.3967C31.3412 48.922 31.3909 49.6626 31.858 50.1298L33.1984 51.4701C33.6655 51.9373 34.4061 51.9869 34.9315 51.5864L37.1937 49.8613C37.845 50.226 38.5425 50.5179 39.2756 50.7251L39.6553 53.5431C39.7434 54.1978 40.3023 54.6864 40.9629 54.6864H42.8586C43.5193 54.6864 44.078 54.1978 44.1663 53.5431L44.546 50.7251C45.2791 50.5179 45.9767 50.226 46.6279 49.8613L48.8901 51.5864C49.4154 51.9869 50.156 51.9373 50.6232 51.4701L51.9635 50.1298C52.4307 49.6626 52.4803 48.922 52.0798 48.3967L50.3546 46.1344C50.7193 45.4831 51.0112 44.7856 51.2184 44.0524L54.0364 43.6728C54.6911 43.5846 55.1797 43.0258 55.1797 42.3651V40.4694C55.1796 39.8089 54.691 39.2501 54.0363 39.1618Z" stroke="#127AFF" stroke-width="1.64063" stroke-miterlimit="10" stroke-linecap="round" stroke-linejoin="round"></path>
    <path d="M40.3344 46.3189C40.831 46.4786 41.3603 46.565 41.9105 46.565C44.7542 46.565 47.0588 44.2605 47.0588 41.4167C47.0588 38.5741 44.7542 36.2695 41.9105 36.2695C39.0678 36.2695 36.7622 38.5741 36.7622 41.4167C36.7622 42.33 36.9996 43.1875 37.4174 43.9312" stroke="#127AFF" stroke-width="1.64063" stroke-miterlimit="10" stroke-linecap="round" stroke-linejoin="round"></path>
    <path d="M53.642 19.083L54.5717 17.1624C54.9906 16.2962 54.6286 15.2538 53.7623 14.8349C52.8961 14.4149 51.8538 14.778 51.4348 15.6443L48.3264 22.0635L46.1805 19.117C45.6139 18.3393 44.5234 18.1676 43.7458 18.7341C42.9681 19.3007 42.7964 20.3912 43.363 21.1688L47.2195 26.4648C47.5488 26.9176 48.0738 27.1812 48.6283 27.1812C48.6797 27.1812 48.7311 27.179 48.7836 27.1746C49.3928 27.1199 49.9298 26.7491 50.1967 26.1979L51.9959 22.4813" stroke="#127AFF" stroke-width="1.64063" stroke-miterlimit="10" stroke-linecap="round" stroke-linejoin="round"></path>
    <path d="M44.2691 15.8348C42.2729 9.41667 37.6204 4.16875 31.5976 1.37695" stroke="#127AFF" stroke-width="1.64063" stroke-miterlimit="10" stroke-linecap="round" stroke-linejoin="round"></path>
    <path d="M2.1723 41.8926C5.28993 45.0852 9.18597 47.5142 13.5538 48.8728" stroke="#127AFF" stroke-width="1.64063" stroke-miterlimit="10" stroke-linecap="round" stroke-linejoin="round"></path>
    <path d="M45.1255 9.09847C43.3518 6.08289 41.0137 3.43919 38.2562 1.3125" stroke="#127AFF" stroke-width="1.64063" stroke-miterlimit="10" stroke-linecap="round" stroke-linejoin="round"></path>
  </g>
  <defs>
    <clipPath id="clip0_150_6274">
      <rect width="56" height="56" fill="white"></rect>
    </clipPath>
  </defs>
</svg>
