<svg width="56" height="56" viewBox="0 0 56 56" fill="none" xmlns="http://www.w3.org/2000/svg">
<g clip-path="url(#clip0_3304_1237)">
<path d="M48.9841 18.4035L49.6724 17.0279L46.1968 13.5523L44.8221 14.2405C44.7119 14.1918 44.6017 14.1466 44.4915 14.1032L44.0056 12.6445H39.0911L38.6052 14.1023C38.495 14.1457 38.3848 14.1918 38.2746 14.2396L36.8999 13.5514L33.4243 17.027L34.1125 18.4026C34.0638 18.5119 34.0177 18.6221 33.9743 18.7323L32.5156 19.2191V24.1336L33.9734 24.6195C34.0168 24.7297 34.0628 24.8399 34.1116 24.9492L33.4234 26.3239L36.899 29.8004L38.2737 29.1121C38.3839 29.1609 38.4941 29.2061 38.6043 29.2494L39.0902 30.709H44.0047L44.4906 29.2512C44.6008 29.2079 44.711 29.1618 44.8212 29.114L46.1959 29.8022L49.6715 26.3257L48.9832 24.951C49.032 24.8417 49.0781 24.7315 49.1214 24.6213L50.5801 24.1345V19.22L49.1223 18.7341C49.079 18.623 49.0338 18.5128 48.9841 18.4035ZM48.7737 22.832L47.7016 23.1897L47.5607 23.6241C47.4622 23.9294 47.3321 24.241 47.175 24.5481L46.9672 24.9555L47.4749 25.9689L45.8409 27.6038L44.8266 27.0952L44.4192 27.3039C44.1158 27.4601 43.8041 27.5893 43.4952 27.6905L43.0617 27.8314L42.7031 28.9026H40.3918L40.035 27.8314L39.6014 27.6905C39.2925 27.5902 38.9809 27.4601 38.6774 27.3039L38.2701 27.0952L37.2558 27.6038L35.6218 25.9689L36.1285 24.9555L35.9208 24.549C35.7636 24.241 35.6336 23.9294 35.5351 23.625L35.3942 23.1906L34.3221 22.832V20.5207L35.3942 20.163L35.5351 19.7285C35.6336 19.4232 35.7636 19.1116 35.9208 18.8045L36.1285 18.3981L35.6209 17.3838L37.2549 15.7498L38.2692 16.2583L38.6765 16.0497C38.98 15.8934 39.2916 15.7643 39.6005 15.6631L40.0341 15.5222L40.3927 14.451H42.704L43.0608 15.5222L43.4943 15.6631C43.8032 15.7634 44.1149 15.8934 44.4183 16.0497L44.8257 16.2583L45.84 15.7498L47.4739 17.3838L46.9672 18.3981L47.175 18.8045C47.3321 19.1125 47.4622 19.4241 47.5607 19.7285L47.7016 20.163L48.7737 20.5216V22.832Z" fill="#127AFF"/>
<path d="M41.5484 17.1602C39.0582 17.1602 37.0322 19.1861 37.0322 21.6763C37.0322 24.1665 39.0582 26.1924 41.5484 26.1924C44.0385 26.1924 46.0645 24.1665 46.0645 21.6763C46.0645 19.1861 44.0385 17.1602 41.5484 17.1602ZM41.5484 24.386C40.0544 24.386 38.8387 23.1702 38.8387 21.6763C38.8387 20.1823 40.0544 18.9666 41.5484 18.9666C43.0423 18.9666 44.258 20.1823 44.258 21.6763C44.258 23.1702 43.0423 24.386 41.5484 24.386Z" fill="#127AFF"/>
<path d="M53.2903 0H29.8065C28.3125 0 27.0968 1.21574 27.0968 2.70968V9.03226H19.777C19.376 7.06684 17.6969 5.56026 15.6475 5.42929C14.6124 3.23716 12.395 1.80645 9.93548 1.80645C7.476 1.80645 5.25858 3.23716 4.22348 5.42929C1.86877 5.58013 0 7.54374 0 9.93548C0 12.4257 2.02594 14.4516 4.51613 14.4516H9.03226V18.0645H4.51613C2.02594 18.0645 0 20.0905 0 22.5806V46.0645C0 48.5547 2.02594 50.5806 4.51613 50.5806H14.4516V54.1935H10.8387V56H37.9355V54.1935H34.3226V50.5806H44.2581C46.7483 50.5806 48.7742 48.5547 48.7742 46.0645V36.129H53.2903C54.7843 36.129 56 34.9133 56 33.4194V2.70968C56 1.21574 54.7843 0 53.2903 0ZM29.8065 1.80645H53.2903C53.788 1.80645 54.1935 2.2111 54.1935 2.70968V7.22581H28.9032V2.70968C28.9032 2.2111 29.3088 1.80645 29.8065 1.80645ZM1.80645 9.93548C1.80645 8.44697 3.01316 7.23484 4.56671 7.23484H4.58387L5.44284 7.31432L5.67316 6.65045C6.30361 4.83406 8.01703 3.6129 9.93548 3.6129C11.8539 3.6129 13.5674 4.83406 14.1978 6.64955L14.4281 7.31342L15.3548 7.22581C16.8488 7.22581 18.0645 8.44155 18.0645 9.93548C18.0645 11.4294 16.8488 12.6452 15.3548 12.6452H4.51613C3.02219 12.6452 1.80645 11.4294 1.80645 9.93548ZM10.8387 14.4516H15.3548C17.5352 14.4516 19.3597 12.8972 19.7797 10.8387H27.0968V18.0645H10.8387V14.4516ZM32.5161 54.1935H16.2581V50.5806H32.5161V54.1935ZM44.2581 48.7742H4.51613C3.02219 48.7742 1.80645 47.5585 1.80645 46.0645V43.3548H46.9677V46.0645C46.9677 47.5585 45.752 48.7742 44.2581 48.7742ZM46.9677 41.5484H1.80645V22.5806C1.80645 21.0867 3.02219 19.871 4.51613 19.871H27.0968V33.4194C27.0968 34.9133 28.3125 36.129 29.8065 36.129H46.9677V41.5484ZM53.2903 34.3226H29.8065C29.3088 34.3226 28.9032 33.9179 28.9032 33.4194V9.03226H54.1935V33.4194C54.1935 33.9179 53.788 34.3226 53.2903 34.3226Z" fill="#127AFF"/>
<path d="M37.9355 3.61328H39.742V5.41973H37.9355V3.61328Z" fill="#127AFF"/>
<path d="M30.71 3.61328H32.5164V5.41973H30.71V3.61328Z" fill="#127AFF"/>
<path d="M34.3223 3.61328H36.1287V5.41973H34.3223V3.61328Z" fill="#127AFF"/>
<path d="M37.0321 46.9666C37.531 46.9666 37.9354 46.5622 37.9354 46.0634C37.9354 45.5645 37.531 45.1602 37.0321 45.1602C36.5333 45.1602 36.1289 45.5645 36.1289 46.0634C36.1289 46.5622 36.5333 46.9666 37.0321 46.9666Z" fill="#127AFF"/>
<path d="M40.6454 46.9666C41.1443 46.9666 41.5486 46.5622 41.5486 46.0634C41.5486 45.5645 41.1443 45.1602 40.6454 45.1602C40.1466 45.1602 39.7422 45.5645 39.7422 46.0634C39.7422 46.5622 40.1466 46.9666 40.6454 46.9666Z" fill="#127AFF"/>
<path d="M44.2577 46.9666C44.7566 46.9666 45.1609 46.5622 45.1609 46.0634C45.1609 45.5645 44.7566 45.1602 44.2577 45.1602C43.7589 45.1602 43.3545 45.5645 43.3545 46.0634C43.3545 46.5622 43.7589 46.9666 44.2577 46.9666Z" fill="#127AFF"/>
<path d="M9.03264 21.6758H3.61328V28.9016H9.03264V21.6758ZM7.22618 27.0951H5.41973V23.4822H7.22618V27.0951Z" fill="#127AFF"/>
<path d="M16.2582 21.6758H10.8389V28.9016H16.2582V21.6758ZM14.4518 27.0951H12.6453V23.4822H14.4518V27.0951Z" fill="#127AFF"/>
<path d="M23.4838 21.6758H18.0645V28.9016H23.4838V21.6758ZM21.6774 27.0951H19.8709V23.4822H21.6774V27.0951Z" fill="#127AFF"/>
<path d="M3.61328 30.7109H7.22618V32.5174H3.61328V30.7109Z" fill="#127AFF"/>
<path d="M9.03223 30.7109H25.2903V32.5174H9.03223V30.7109Z" fill="#127AFF"/>
<path d="M3.61328 34.3242H25.2907V36.1307H3.61328V34.3242Z" fill="#127AFF"/>
<path d="M3.61328 37.9375H10.8391V39.744H3.61328V37.9375Z" fill="#127AFF"/>
<path d="M12.6455 37.9375H14.452V39.744H12.6455V37.9375Z" fill="#127AFF"/>
<path d="M16.2578 37.9375H25.2901V39.744H16.2578V37.9375Z" fill="#127AFF"/>
<path d="M43.3545 37.9375H45.1609V39.744H43.3545V37.9375Z" fill="#127AFF"/>
<path d="M32.5156 37.9375H34.3221V39.744H32.5156V37.9375Z" fill="#127AFF"/>
<path d="M39.7422 37.9375H41.5486V39.744H39.7422V37.9375Z" fill="#127AFF"/>
<path d="M36.1289 37.9375H37.9354V39.744H36.1289V37.9375Z" fill="#127AFF"/>
</g>
<defs>
<clipPath id="clip0_3304_1237">
<rect width="56" height="56" fill="white"/>
</clipPath>
</defs>
</svg>
