<svg width="56" height="56" viewBox="0 0 56 56" fill="none" xmlns="http://www.w3.org/2000/svg">
<g clip-path="url(#clip0_3426_2425)">
<path d="M21.9096 9.28284C21.9703 9.47764 21.6751 9.04167 27.1671 16.5158C27.3609 16.7796 27.6721 16.9371 27.9995 16.9371C28.3268 16.9371 28.638 16.7797 28.8319 16.5158C34.2751 9.10806 34.0472 9.46441 34.1039 9.23373C34.1701 8.96325 34.0938 8.6757 33.907 8.47784L31.166 5.55009C30.9248 5.29241 30.5841 5.14453 30.2312 5.14453H25.8722C25.453 5.14453 25.0482 5.31997 24.7617 5.626L22.0919 8.47773C21.8962 8.68806 21.8194 8.9953 21.9096 9.28284ZM25.9242 6.78527H30.0749L31.4164 8.21819H24.5827L25.9242 6.78527ZM31.6875 9.85881L27.9996 14.8778L24.3117 9.85881H31.6875Z" fill="#127AFF"/>
<path d="M20.0373 13.1621C20.459 12.9964 20.6666 12.5203 20.5009 12.0986C20.3352 11.6768 19.8594 11.4697 19.4373 11.635L16.2716 12.8789C15.8499 13.0446 15.6423 13.5207 15.808 13.9424C15.935 14.2656 16.2443 14.463 16.5717 14.463C16.6714 14.463 16.7729 14.4447 16.8714 14.4061L20.0373 13.1621Z" fill="#127AFF"/>
<path d="M16.1293 7.60826C19.6457 8.69403 19.4322 8.64284 19.6034 8.64284C20.5353 8.64284 20.7427 7.31547 19.8452 7.03842L16.6134 6.04059C16.18 5.90705 15.7212 6.14953 15.5874 6.58233C15.454 7.01545 15.6965 7.47472 16.1293 7.60826Z" fill="#127AFF"/>
<path d="M21.1119 4.27593C21.3793 4.64244 21.8926 4.72196 22.2581 4.4553C22.6242 4.18832 22.7044 3.67502 22.4375 3.30905L20.2693 0.337005C20.0022 -0.0290731 19.489 -0.109354 19.1231 0.15763C18.757 0.424614 18.6768 0.937911 18.9437 1.30388L21.1119 4.27593Z" fill="#127AFF"/>
<path d="M39.7269 12.8788L36.561 11.635C36.1395 11.4696 35.6633 11.677 35.4975 12.0986C35.3318 12.5201 35.5394 12.9963 35.961 13.1621L39.1269 14.4059C39.2253 14.4446 39.3268 14.4629 39.4266 14.4629C39.7539 14.4629 40.0632 14.2655 40.1902 13.9423C40.3561 13.5206 40.1485 13.0445 39.7269 12.8788Z" fill="#127AFF"/>
<path d="M36.637 8.60606L39.8688 7.60835C40.3016 7.47469 40.5442 7.01542 40.4106 6.58241C40.2769 6.14961 39.8181 5.90691 39.3846 6.04067L36.1528 7.0385C35.1286 7.3546 35.5869 8.93014 36.637 8.60606Z" fill="#127AFF"/>
<path d="M33.7403 4.45529C33.8863 4.56171 34.0553 4.6129 34.2231 4.6129C34.4761 4.6129 34.7259 4.49608 34.8865 4.27591L37.0545 1.30386C37.3214 0.937895 37.2412 0.424598 36.8751 0.157614C36.5092 -0.109261 35.9961 -0.0291984 35.7289 0.336989L33.5609 3.30904C33.294 3.675 33.3743 4.18819 33.7403 4.45529Z" fill="#127AFF"/>
<path d="M36.6529 16.9531C35.1572 16.9531 33.9405 18.17 33.9405 19.6656V22.4112H22.0577V19.6656C22.0577 18.1699 20.8408 16.9532 19.3452 16.9532C17.8495 16.9532 16.6328 18.17 16.6328 19.6656V53.2873C16.6328 54.783 17.8496 55.9998 19.3452 55.9998C20.8409 55.9998 22.0577 54.7829 22.0577 53.2873V50.5418H33.9405V53.2873C33.9405 54.783 35.1573 55.9998 36.6529 55.9998C38.1486 55.9998 39.3654 54.7829 39.3654 53.2873V38.3906C39.3654 37.9375 38.9982 37.5703 38.5451 37.5703C38.092 37.5703 37.7248 37.9375 37.7248 38.3906V53.2872C37.7248 53.8781 37.244 54.359 36.6529 54.359C36.0621 54.359 35.5812 53.8782 35.5812 53.2872C35.5812 51.9641 35.5812 20.7911 35.5812 19.6656C35.5812 19.0747 36.062 18.5938 36.6529 18.5938C37.2439 18.5938 37.7248 19.0746 37.7248 19.6656V34.5622C37.7248 35.0153 38.092 35.3825 38.5451 35.3825C38.9982 35.3825 39.3654 35.0153 39.3654 34.5622V19.6657C39.3655 18.17 38.1486 16.9531 36.6529 16.9531ZM20.417 53.2873C20.417 53.8782 19.9362 54.3592 19.3451 54.3592C18.7543 54.3592 18.2733 53.8783 18.2733 53.2873V19.6657C18.2733 19.0749 18.7541 18.594 19.3451 18.594C19.936 18.594 20.417 19.0748 20.417 19.6657C20.417 20.4283 20.417 52.7684 20.417 53.2873ZM33.9406 48.901H22.0577V46.7574H33.9405V48.901H33.9406ZM33.9406 45.1167H22.0577V42.9732H33.9405V45.1167H33.9406ZM33.9406 41.3325H22.0577V39.189H33.9405V41.3325H33.9406ZM33.9406 37.5482H22.0577V35.4047H33.9405V37.5482H33.9406ZM33.9406 33.7641H22.0577V31.6204H33.9405V33.7641H33.9406ZM33.9406 26.1954H29.9133C29.4602 26.1954 29.093 26.5626 29.093 27.0157C29.093 27.4689 29.4602 27.836 29.9133 27.836H33.9405V29.9796H22.0577V27.836H26.0849C26.538 27.836 26.9052 27.4689 26.9052 27.0157C26.9052 26.5626 26.538 26.1954 26.0849 26.1954H22.0577V24.0519H33.9405V26.1954H33.9406Z" fill="#127AFF"/>
</g>
<defs>
<clipPath id="clip0_3426_2425">
<rect width="56" height="56" fill="white"/>
</clipPath>
</defs>
</svg>
