<svg width="56" height="56" viewBox="0 0 56 56" fill="none" xmlns="http://www.w3.org/2000/svg">
<path fill-rule="evenodd" clip-rule="evenodd" d="M51.3242 39.3683H50.0082V43.7083C50.8762 43.7083 51.8842 43.5123 51.8842 44.2683V50.2883C51.8842 50.5963 51.6322 50.8483 51.3242 50.8483H4.67621C4.36821 50.8483 4.11621 50.5963 4.11621 50.2883V44.2683C4.11621 43.5123 5.12421 43.7083 5.99221 43.7083V16.3243C5.99221 16.0163 6.24421 15.7643 6.55221 15.7643H13.8322C13.8322 15.5963 13.8322 15.4563 13.8322 15.3163C11.3682 14.5043 11.8162 13.5523 12.3762 13.4403C13.3002 13.2163 14.4202 12.0123 15.2602 10.8083C14.3922 10.6963 14.0842 11.1723 13.6922 10.7243C13.5522 10.5563 13.5242 10.3043 13.6362 10.0803C15.3722 7.08434 20.3282 5.34834 24.3322 5.18034C28.3082 4.98434 31.3602 6.69234 32.9282 9.94034C33.6562 11.4243 34.1042 13.6923 33.8802 15.7643H36.6802L36.7642 15.6523C36.5962 14.7843 36.5962 13.8603 36.7642 12.9923L35.1682 11.1163C35.0282 10.9203 35.0002 10.6683 35.1122 10.4723L35.9522 9.01634C36.0642 8.82034 36.3162 8.70834 36.5402 8.73634L38.9762 9.18434C39.6482 8.59634 40.4322 8.14834 41.2722 7.86834L42.1122 5.54434C42.1962 5.32034 42.3922 5.15234 42.6162 5.15234H44.2962C44.5482 5.15234 44.7442 5.32034 44.8282 5.54434L45.6682 7.86834C46.5082 8.14834 47.2922 8.59634 47.9642 9.18434L50.4002 8.73634C50.6242 8.70834 50.8482 8.82034 50.9882 9.01634L51.8282 10.4723C51.9402 10.6683 51.9122 10.9203 51.7722 11.1163L50.1762 12.9923C50.3442 13.8603 50.3442 14.7843 50.1762 15.6523L51.7722 17.5283C51.9122 17.7243 51.9402 17.9763 51.8282 18.1723C50.7922 19.9643 50.9602 19.9923 50.0082 19.8243V28.0003C50.8762 28.0003 51.8842 27.8043 51.8842 28.5603V38.8083C51.8842 39.1163 51.6322 39.3683 51.3242 39.3683ZM49.4482 44.8283H35.3642V47.2643C35.3642 47.5723 35.1122 47.8243 34.8042 47.8243H21.1962C20.8882 47.8243 20.6362 47.5723 20.6362 47.2643V44.8283H5.23621V49.7283H50.7642V44.8283H49.4482ZM48.8882 39.3683H38.5002V43.7083H48.8882V39.3683ZM8.84821 43.7083V37.4083C8.84821 33.2923 12.1802 29.9603 16.2682 29.9603H18.3682L18.9282 28.0003C16.3802 26.2643 15.1482 23.1283 15.2042 19.6283C14.3922 19.2363 14.0562 18.0323 13.9162 16.8843H7.11221V43.7083H8.84821ZM33.6842 16.8843C33.4322 17.8923 32.9842 18.7883 32.2842 19.4603C32.3962 23.1003 31.1362 26.3763 28.4202 28.1123L28.9522 29.9603C30.5482 29.9603 32.0322 29.8483 33.5722 30.4083V28.5603C33.5722 28.2523 33.8242 28.0003 34.1322 28.0003H48.8882V19.6283L47.9642 19.4603C47.2922 20.0483 46.5082 20.4963 45.6682 20.7763L44.8282 23.1283C44.7442 23.3523 44.5482 23.4923 44.2962 23.4923H42.6162C42.3922 23.4923 42.1682 23.3523 42.1122 23.1283L41.2722 20.7763C40.4322 20.4963 39.6482 20.0483 38.9762 19.4603L36.5402 19.9083C36.3162 19.9363 36.0642 19.8243 35.9522 19.6283C34.8042 17.6123 34.7482 18.0323 35.7282 16.8843H33.6842ZM14.9802 16.2123L15.0082 16.3523C15.0922 17.3043 15.2882 18.0883 15.5122 18.4523C15.8482 17.7243 16.2962 16.5763 16.4362 15.8203C15.8762 15.7643 15.4002 15.7083 14.9522 15.6243C14.9802 15.8203 14.9802 16.0163 14.9802 16.2123ZM49.4482 29.1203H34.6922V38.2483H50.7642V29.1203H49.4482ZM49.4762 18.5923L50.2042 18.7323L50.6522 17.9763C48.2442 15.1203 49.1682 16.5483 49.1682 14.3363C49.1682 12.0963 48.2442 13.5523 50.6522 10.6963L50.2042 9.94034L47.8802 10.3323C47.2362 10.4723 47.0962 9.46434 45.0802 8.87634C44.9122 8.82034 44.7722 8.68034 44.7162 8.51234L43.9042 6.30034H43.0082L42.2242 8.51234C42.0002 9.10034 41.0202 8.76434 39.5362 10.1923C39.3962 10.3043 39.2282 10.3603 39.0322 10.3323L36.7082 9.91234L36.2882 10.6963C38.6962 13.5523 37.7442 12.0963 37.7442 14.3363C37.7442 16.5483 38.6962 15.0923 36.2882 17.9483L36.7082 18.7323L39.0322 18.3123C39.6762 18.2003 39.8162 19.2083 41.8602 19.7963C42.0282 19.8523 42.1682 19.9643 42.2242 20.1323L43.0082 22.3723H43.9042L44.7162 20.1603C44.9402 19.5443 45.9202 19.9083 47.4042 18.4523C47.5162 18.3403 47.7122 18.2843 47.8802 18.3123L49.4762 18.5923ZM34.2442 44.8283H21.7562V46.7043H34.2442V44.8283ZM19.8242 27.2443C19.8522 27.2723 19.9082 27.3003 19.9362 27.3283C21.0002 27.9443 22.2882 28.2803 23.7722 28.3083C28.6722 28.3083 31.2762 24.4443 31.1642 19.5163C29.7922 18.4803 29.3722 15.9323 29.4282 14.1403C26.1522 15.4283 20.6362 15.9323 17.5562 15.8763C17.3882 17.1363 16.5762 18.9003 16.3522 19.3483C16.2402 22.1483 16.9962 24.5563 18.4802 26.1523C18.8722 26.5723 19.3202 26.9643 19.8242 27.2443ZM19.9362 28.5883L19.4602 30.2963L23.6602 33.0403L27.8602 30.2963L27.4122 28.6443C25.0602 29.7083 22.2322 29.6803 19.9362 28.5883ZM30.1002 12.6843C30.4642 12.6843 30.7162 13.0203 30.6602 13.3563C30.3802 14.6443 30.6042 17.4163 31.6682 18.4803C34.0202 15.8203 33.2922 5.90834 24.3882 6.30034C21.2522 6.44034 17.3042 7.64434 15.3442 9.68834C16.2122 9.80034 16.8282 10.4163 16.4922 10.9203C16.2402 11.3403 15.0922 13.1603 13.6642 14.0563C14.3922 14.3923 15.7362 14.7563 18.0042 14.7563C21.9242 14.7563 27.2442 14.0563 29.8482 12.7403C29.9322 12.7123 30.0162 12.6843 30.1002 12.6843ZM37.3802 39.3683H34.1322C33.8242 39.3683 33.5722 39.1163 33.5722 38.8083V31.6123C32.1442 30.9683 30.9682 31.0803 29.4562 31.0803C29.8762 31.8923 30.4362 32.5643 30.0162 32.9843L26.2922 36.6523C26.0122 36.9323 25.6762 36.8483 25.3962 36.5403L25.1442 37.1563L26.3202 43.7083H32.1162V40.6563C32.1162 39.9283 33.2362 39.9283 33.2362 40.6563V43.7083H37.3802V39.3683ZM28.3082 31.3323L24.5002 33.8243L25.9282 35.4483L28.9242 32.4803L28.3082 31.3323ZM22.8202 33.8243L19.0122 31.3323L18.3962 32.4803L21.3922 35.4203L22.8202 33.8243ZM17.8642 31.0803H16.2682C12.7962 31.0803 9.96821 33.9083 9.96821 37.4083V43.7083H14.0842V40.6563C14.0842 39.9283 15.2042 39.9283 15.2042 40.6563V43.7083H21.0002L22.1762 37.1563L21.9242 36.5403C21.7842 36.6803 21.6722 36.7923 21.4482 36.7923C21.4482 36.8203 21.1962 36.8203 21.0282 36.6523L17.3042 32.9843C16.8842 32.5643 17.4162 31.8923 17.8642 31.0803ZM22.1482 43.7083H25.1722L24.0802 37.6603H23.2402L22.1482 43.7083ZM23.6602 34.5523L22.7362 35.6163L23.1282 36.5403H24.1922L24.5842 35.6163L23.6602 34.5523ZM43.4562 18.2843C41.2722 18.2843 39.4802 16.5203 39.4802 14.3363C39.4802 12.1243 41.2722 10.3603 43.4562 10.3603C45.6402 10.3603 47.4322 12.1243 47.4322 14.3363C47.4322 16.5203 45.6402 18.2843 43.4562 18.2843ZM43.4562 11.4803C41.8882 11.4803 40.6002 12.7683 40.6002 14.3363C40.6002 15.9043 41.8882 17.1643 43.4562 17.1643C45.0242 17.1643 46.3122 15.9043 46.3122 14.3363C46.3122 12.7683 45.0242 11.4803 43.4562 11.4803ZM39.3402 36.4843C39.2002 36.4843 39.0882 36.4563 38.9762 36.3723L36.2322 34.1043C35.9802 33.9083 35.9522 33.4883 36.2322 33.2643L38.9762 31.0243C39.5642 30.5483 40.2642 31.4163 39.7042 31.8643L37.4922 33.6843L39.7042 35.5043C40.0962 35.8403 39.8722 36.4843 39.3402 36.4843ZM46.1442 36.4843C45.6122 36.4843 45.3602 35.8403 45.7802 35.5043L47.9922 33.6843L45.7802 31.8643C45.1922 31.4163 45.9202 30.5483 46.4802 30.9963L49.2242 33.2363C49.5042 33.4603 49.5042 33.8803 49.2242 34.1043L46.4802 36.3443C46.3962 36.4563 46.2562 36.4843 46.1442 36.4843ZM42.0282 36.8483C41.6642 36.8483 41.4122 36.5123 41.4962 36.1483L42.8962 30.9403C43.0922 30.2123 44.1562 30.5203 43.9882 31.2203L42.5882 36.4563C42.5042 36.7083 42.2802 36.8483 42.0282 36.8483Z" fill="#127AFF"/>
</svg>
