<svg width="56" height="56" viewBox="0 0 56 56" fill="none" xmlns="http://www.w3.org/2000/svg">
<path d="M52.4793 8.75267C52.4792 8.54469 52.4051 8.34354 52.2701 8.18533C52.1351 8.02712 51.9481 7.92221 51.7427 7.88944C51.2706 7.81362 48.7571 7.43037 47.9859 7.28403C42.7851 6.29602 37.6483 4.11622 32.2838 0.620489C31.5348 0.130223 30.3091 -0.291462 29.4841 0.262028C22.9293 4.65688 16.4116 7.1281 9.55987 7.81616C9.34408 7.83779 9.14403 7.93883 8.99853 8.09965C8.85303 8.26047 8.77246 8.4696 8.77246 8.68648C8.77246 10.6887 8.84552 30.5098 8.87628 30.896C9.52909 30.4885 10.1005 29.9633 10.5613 29.347C10.5506 28.672 10.5212 11.2079 10.522 9.46982C17.3524 8.65056 23.8585 6.12596 30.383 1.76572C30.7181 1.79721 31.0413 1.9065 31.3268 2.08488C36.8874 5.70854 42.2297 7.97125 47.6595 9.00263C48.4623 9.15496 50.5233 9.46918 50.7263 9.50015C50.7263 9.50015 50.6964 24.0921 50.7464 27.3161C50.8681 35.0362 48.1265 41.4496 42.3647 46.9222C39.2506 49.9095 35.6142 52.299 31.6365 53.972C31.2225 54.1442 30.5633 54.3903 30.1185 54.1938C27.2662 52.9618 24.5514 51.4329 22.0192 49.6325C21.5452 50.076 20.9731 50.4011 20.3495 50.5814C23.1586 52.6628 26.1994 54.4118 29.411 55.7933C30.3159 56.1933 31.434 55.951 32.309 55.5868C36.4842 53.8318 40.3013 51.3246 43.5704 48.1901C49.6214 42.443 52.6246 35.4105 52.4964 27.2886C52.4464 24.0763 52.4793 8.75267 52.4793 8.75267Z" fill="#127AFF"/>
<path d="M21.5836 46.6274V46.257C21.5839 45.9365 21.5188 45.6194 21.3922 45.325C21.7592 45.1197 22.0648 44.8204 22.2778 44.4578C22.4907 44.0952 22.6033 43.6825 22.6039 43.262V42.8916C22.6041 42.5712 22.5391 42.2542 22.4129 41.9598C22.7799 41.7546 23.0857 41.4553 23.2987 41.0928C23.5118 40.7302 23.6244 40.3175 23.625 39.897V39.5262C23.6246 39.105 23.5121 38.6916 23.2991 38.3283C23.0861 37.965 22.7802 37.6649 22.4129 37.4589C22.5389 37.166 22.6038 36.8505 22.6039 36.5316V36.1607C22.6032 35.5318 22.3531 34.9288 21.9084 34.484C21.4637 34.0393 20.8607 33.7891 20.2318 33.7883H17.2641C17.0415 33.2783 17.1629 32.3008 17.4128 31.5777C17.6936 30.7634 17.8099 29.9015 17.7551 29.042C17.6307 27.2046 16.6271 25.8494 15.1352 25.505C14.0863 25.2628 13.2997 25.3595 12.793 25.7913C12.2222 26.2777 12.2594 26.9933 12.3179 27.6711C12.4012 28.6453 12.4803 29.5653 12.0398 30.2938C11.4386 31.2865 8.10656 33.5631 7.86515 33.7883H5.4337C4.92641 33.7835 4.43792 33.9801 4.07541 34.335C3.7129 34.6899 3.50597 35.1741 3.5 35.6814V44.7595C3.5 45.7682 4.32713 46.8966 5.4337 46.8966H8.42742C9.25758 47.8814 10.6491 48.7365 12.8178 48.7365C13.1991 48.7356 13.5799 48.7112 13.9581 48.6633H14.869C15.2349 48.8833 15.6537 48.9997 16.0807 48.9999H19.2111C19.8401 48.9992 20.4432 48.749 20.888 48.3043C21.3327 47.8595 21.5829 47.2564 21.5836 46.6274ZM20.2318 35.5383C20.3968 35.5385 20.5549 35.6041 20.6716 35.7208C20.7882 35.8376 20.8538 35.9958 20.8539 36.1607V36.5316C20.8537 36.6965 20.7881 36.8547 20.6715 36.9713C20.5548 37.0879 20.3967 37.1535 20.2318 37.1537H15.0596C14.8946 37.1535 14.7365 37.0879 14.6199 36.9713C14.5033 36.8547 14.4377 36.6965 14.4375 36.5316V36.1607C14.4376 35.9958 14.5032 35.8376 14.6198 35.7209C14.7364 35.6042 14.8946 35.5385 15.0596 35.5383H20.2318ZM13.7295 46.9259C10.095 47.371 9.31354 45.169 9.1875 44.6862V43.7499C9.1875 43.5179 9.09531 43.2953 8.93122 43.1312C8.76712 42.9671 8.54456 42.8749 8.3125 42.8749C8.08044 42.8749 7.85788 42.9671 7.69378 43.1312C7.52969 43.2953 7.4375 43.5179 7.4375 43.7499L7.43067 45.1489L5.47088 45.1522C5.40882 45.1056 5.35712 45.0467 5.31909 44.9791C5.28106 44.9115 5.25753 44.8367 5.25 44.7595V35.6814C5.25658 35.6386 5.27926 35.5999 5.31342 35.5733C5.34757 35.5467 5.3906 35.5342 5.4337 35.5383H7.4375V36.2787C7.4375 36.5107 7.52969 36.7333 7.69378 36.8974C7.85788 37.0615 8.08044 37.1537 8.3125 37.1537C8.54456 37.1537 8.76712 37.0615 8.93122 36.8974C9.09531 36.7333 9.1875 36.5107 9.1875 36.2787V34.9506C9.33615 34.8288 12.734 32.5257 13.5373 31.1998C14.2726 29.9832 14.1602 28.6754 14.0615 27.5214C14.0504 27.3936 14.0393 27.2663 14.0295 27.1264C14.2694 27.1219 14.5089 27.1501 14.7412 27.2102C15.8119 27.4573 15.9824 28.7651 16.0093 29.1597C16.0486 29.7858 15.9634 30.4135 15.7585 31.0065C15.4484 31.8989 15.3454 32.8502 15.4573 33.7883H15.0596C14.4306 33.7891 13.8277 34.0393 13.383 34.484C12.9383 34.9288 12.6882 35.5318 12.6875 36.1607V36.5316C12.6877 36.8505 12.7527 37.1659 12.8785 37.4589C12.5112 37.665 12.2053 37.965 11.9923 38.3283C11.7793 38.6916 11.6668 39.105 11.6664 39.5262V39.897C11.667 40.3175 11.7796 40.7302 11.9926 41.0928C12.2056 41.4553 12.5114 41.7546 12.8785 41.9598C12.7523 42.2542 12.6873 42.5712 12.6875 42.8916V43.262C12.6881 43.6826 12.8007 44.0954 13.0138 44.458C13.2268 44.8206 13.5325 45.1199 13.8996 45.3252C13.7734 45.6196 13.7084 45.9367 13.7086 46.257V46.6274C13.7093 46.7272 13.7163 46.8269 13.7295 46.9259ZM13.4164 39.897V39.5262C13.4166 39.3611 13.4822 39.2029 13.5989 39.0862C13.7156 38.9695 13.8738 38.9039 14.0389 38.9037H21.2529C21.4179 38.9039 21.5761 38.9695 21.6927 39.0863C21.8093 39.203 21.8749 39.3612 21.875 39.5262V39.897C21.8748 40.0619 21.8092 40.2201 21.6926 40.3367C21.576 40.4533 21.4178 40.5189 21.2529 40.5191H14.0389C13.8739 40.5189 13.7157 40.4534 13.599 40.3367C13.4823 40.2201 13.4166 40.062 13.4164 39.897ZM19.8336 46.6274C19.8334 46.7924 19.7678 46.9507 19.6511 47.0674C19.5344 47.1841 19.3761 47.2497 19.2111 47.2499H16.0807C15.9157 47.2497 15.7575 47.184 15.6409 47.0673C15.5243 46.9506 15.4587 46.7924 15.4586 46.6274V46.257C15.4587 46.092 15.5243 45.9338 15.6409 45.8171C15.7575 45.7004 15.9157 45.6347 16.0807 45.6345H19.2111C19.3761 45.6347 19.5344 45.7004 19.6511 45.8171C19.7678 45.9338 19.8334 46.092 19.8336 46.257V46.6274ZM20.8539 43.262C20.8538 43.427 20.7882 43.5852 20.6716 43.7019C20.5549 43.8186 20.3968 43.8843 20.2318 43.8845H15.0596C14.8946 43.8843 14.7364 43.8186 14.6198 43.7019C14.5032 43.5852 14.4376 43.427 14.4375 43.262V42.8916C14.4376 42.7266 14.5032 42.5684 14.6198 42.4517C14.7364 42.335 14.8946 42.2693 15.0596 42.2691H20.2318C20.3968 42.2693 20.5549 42.335 20.6716 42.4517C20.7882 42.5684 20.8538 42.7266 20.8539 42.8916V43.262Z" fill="#127AFF"/>
<path d="M30.625 37.1875C32.4421 37.1875 34.2184 36.6487 35.7293 35.6391C37.2402 34.6296 38.4178 33.1947 39.1131 31.5159C39.8085 29.8371 39.9905 27.9898 39.636 26.2076C39.2815 24.4254 38.4064 22.7884 37.1215 21.5035C35.8366 20.2186 34.1996 19.3435 32.4174 18.989C30.6352 18.6345 28.7879 18.8165 27.1091 19.5119C25.4303 20.2072 23.9954 21.3848 22.9859 22.8957C21.9763 24.4066 21.4375 26.1829 21.4375 28C21.4375 29.2065 21.6751 30.4012 22.1368 31.5159C22.5985 32.6306 23.2753 33.6434 24.1284 34.4966C24.9816 35.3497 25.9944 36.0265 27.1091 36.4882C28.2238 36.9499 29.4185 37.1875 30.625 37.1875ZM30.625 20.5625C32.096 20.5625 33.534 20.9987 34.7571 21.8159C35.9801 22.6332 36.9334 23.7948 37.4964 25.1538C38.0593 26.5128 38.2066 28.0083 37.9196 29.451C37.6326 30.8937 36.9243 32.219 35.8841 33.2591C34.844 34.2993 33.5187 35.0076 32.076 35.2946C30.6333 35.5816 29.1378 35.4343 27.7788 34.8714C26.4198 34.3084 25.2582 33.3552 24.4409 32.1321C23.6237 30.909 23.1875 29.471 23.1875 28C23.1897 26.0281 23.974 24.1377 25.3683 22.7433C26.7626 21.349 28.6531 20.5647 30.625 20.5625Z" fill="#127AFF"/>
<path d="M28.1891 30.4445C28.3166 30.6369 28.5142 30.7718 28.7398 30.8205C28.9654 30.8691 29.2011 30.8276 29.3965 30.7049L34.1604 27.6424C34.2571 27.5803 34.3407 27.4998 34.4063 27.4054C34.4719 27.311 34.5182 27.2046 34.5427 27.0923C34.5672 26.98 34.5693 26.864 34.5489 26.7509C34.5285 26.6378 34.486 26.5298 34.4239 26.4331C34.3617 26.3364 34.2811 26.2529 34.1867 26.1874C34.0923 26.1218 33.9859 26.0755 33.8735 26.0512C33.7612 26.0268 33.6452 26.0248 33.5321 26.0452C33.419 26.0657 33.311 26.1083 33.2144 26.1705L29.1842 28.7613L28.2968 27.3911C28.2345 27.2945 28.1537 27.211 28.059 27.1456C27.9644 27.0802 27.8578 27.034 27.7454 27.0099C27.6329 26.9857 27.5168 26.9839 27.4036 27.0047C27.2905 27.0254 27.1825 27.0683 27.0859 27.1308C26.9894 27.1933 26.9061 27.2743 26.8408 27.369C26.7756 27.4638 26.7297 27.5705 26.7057 27.683C26.6818 27.7955 26.6802 27.9116 26.7012 28.0248C26.7222 28.1379 26.7652 28.2457 26.8279 28.3422L28.1891 30.4445Z" fill="#127AFF"/>
<path d="M30.6572 6.58203C31.1405 6.58203 31.5322 6.19028 31.5322 5.70703C31.5322 5.22378 31.1405 4.83203 30.6572 4.83203C30.174 4.83203 29.7822 5.22378 29.7822 5.70703C29.7822 6.19028 30.174 6.58203 30.6572 6.58203Z" fill="#127AFF"/>
<path d="M33.7373 8.28516C34.2206 8.28516 34.6123 7.8934 34.6123 7.41016C34.6123 6.92691 34.2206 6.53516 33.7373 6.53516C33.2541 6.53516 32.8623 6.92691 32.8623 7.41016C32.8623 7.8934 33.2541 8.28516 33.7373 8.28516Z" fill="#127AFF"/>
<path d="M36.9033 10.0469C37.3866 10.0469 37.7783 9.65512 37.7783 9.17188C37.7783 8.68863 37.3866 8.29688 36.9033 8.29688C36.4201 8.29688 36.0283 8.68863 36.0283 9.17188C36.0283 9.65512 36.4201 10.0469 36.9033 10.0469Z" fill="#127AFF"/>
<path d="M40.2266 11.4297C40.7098 11.4297 41.1016 11.0379 41.1016 10.5547C41.1016 10.0714 40.7098 9.67969 40.2266 9.67969C39.7433 9.67969 39.3516 10.0714 39.3516 10.5547C39.3516 11.0379 39.7433 11.4297 40.2266 11.4297Z" fill="#127AFF"/>
<path d="M43.6855 12.418C44.1688 12.418 44.5605 12.0262 44.5605 11.543C44.5605 11.0597 44.1688 10.668 43.6855 10.668C43.2023 10.668 42.8105 11.0597 42.8105 11.543C42.8105 12.0262 43.2023 12.418 43.6855 12.418Z" fill="#127AFF"/>
<path d="M47.2129 13.0391C47.6961 13.0391 48.0879 12.6473 48.0879 12.1641C48.0879 11.6808 47.6961 11.2891 47.2129 11.2891C46.7296 11.2891 46.3379 11.6808 46.3379 12.1641C46.3379 12.6473 46.7296 13.0391 47.2129 13.0391Z" fill="#127AFF"/>
<path d="M47.2324 16.5625C47.7157 16.5625 48.1074 16.1707 48.1074 15.6875C48.1074 15.2043 47.7157 14.8125 47.2324 14.8125C46.7492 14.8125 46.3574 15.2043 46.3574 15.6875C46.3574 16.1707 46.7492 16.5625 47.2324 16.5625Z" fill="#127AFF"/>
<path d="M47.2324 20.0703C47.7157 20.0703 48.1074 19.6786 48.1074 19.1953C48.1074 18.7121 47.7157 18.3203 47.2324 18.3203C46.7492 18.3203 46.3574 18.7121 46.3574 19.1953C46.3574 19.6786 46.7492 20.0703 47.2324 20.0703Z" fill="#127AFF"/>
<path d="M47.2324 23.5781C47.7157 23.5781 48.1074 23.1864 48.1074 22.7031C48.1074 22.2199 47.7157 21.8281 47.2324 21.8281C46.7492 21.8281 46.3574 22.2199 46.3574 22.7031C46.3574 23.1864 46.7492 23.5781 47.2324 23.5781Z" fill="#127AFF"/>
<path d="M47.2129 27.082C47.6961 27.082 48.0879 26.6903 48.0879 26.207C48.0879 25.7238 47.6961 25.332 47.2129 25.332C46.7296 25.332 46.3379 25.7238 46.3379 26.207C46.3379 26.6903 46.7296 27.082 47.2129 27.082Z" fill="#127AFF"/>
<path d="M47.2129 30.5859C47.6961 30.5859 48.0879 30.1942 48.0879 29.7109C48.0879 29.2277 47.6961 28.8359 47.2129 28.8359C46.7296 28.8359 46.3379 29.2277 46.3379 29.7109C46.3379 30.1942 46.7296 30.5859 47.2129 30.5859Z" fill="#127AFF"/>
<path d="M46.6592 34.0469C47.1424 34.0469 47.5342 33.6551 47.5342 33.1719C47.5342 32.6886 47.1424 32.2969 46.6592 32.2969C46.1759 32.2969 45.7842 32.6886 45.7842 33.1719C45.7842 33.6551 46.1759 34.0469 46.6592 34.0469Z" fill="#127AFF"/>
<path d="M45.5957 37.3828C46.079 37.3828 46.4707 36.9911 46.4707 36.5078C46.4707 36.0246 46.079 35.6328 45.5957 35.6328C45.1125 35.6328 44.7207 36.0246 44.7207 36.5078C44.7207 36.9911 45.1125 37.3828 45.5957 37.3828Z" fill="#127AFF"/>
<path d="M43.9971 40.4961C44.4803 40.4961 44.8721 40.1043 44.8721 39.6211C44.8721 39.1378 44.4803 38.7461 43.9971 38.7461C43.5138 38.7461 43.1221 39.1378 43.1221 39.6211C43.1221 40.1043 43.5138 40.4961 43.9971 40.4961Z" fill="#127AFF"/>
<path d="M41.9277 43.3203C42.411 43.3203 42.8027 42.9286 42.8027 42.4453C42.8027 41.9621 42.411 41.5703 41.9277 41.5703C41.4445 41.5703 41.0527 41.9621 41.0527 42.4453C41.0527 42.9286 41.4445 43.3203 41.9277 43.3203Z" fill="#127AFF"/>
<path d="M39.4844 45.8281C39.9676 45.8281 40.3594 45.4364 40.3594 44.9531C40.3594 44.4699 39.9676 44.0781 39.4844 44.0781C39.0011 44.0781 38.6094 44.4699 38.6094 44.9531C38.6094 45.4364 39.0011 45.8281 39.4844 45.8281Z" fill="#127AFF"/>
<path d="M36.7637 48.0312C37.2469 48.0312 37.6387 47.6395 37.6387 47.1562C37.6387 46.673 37.2469 46.2812 36.7637 46.2812C36.2804 46.2812 35.8887 46.673 35.8887 47.1562C35.8887 47.6395 36.2804 48.0312 36.7637 48.0312Z" fill="#127AFF"/>
<path d="M33.792 49.8906C34.2752 49.8906 34.667 49.4989 34.667 49.0156C34.667 48.5324 34.2752 48.1406 33.792 48.1406C33.3087 48.1406 32.917 48.5324 32.917 49.0156C32.917 49.4989 33.3087 49.8906 33.792 49.8906Z" fill="#127AFF"/>
<path d="M30.5605 51.1875C31.0438 51.1875 31.4355 50.7957 31.4355 50.3125C31.4355 49.8293 31.0438 49.4375 30.5605 49.4375C30.0773 49.4375 29.6855 49.8293 29.6855 50.3125C29.6855 50.7957 30.0773 51.1875 30.5605 51.1875Z" fill="#127AFF"/>
<path d="M27.375 49.8008C27.8582 49.8008 28.25 49.409 28.25 48.9258C28.25 48.4425 27.8582 48.0508 27.375 48.0508C26.8918 48.0508 26.5 48.4425 26.5 48.9258C26.5 49.409 26.8918 49.8008 27.375 49.8008Z" fill="#127AFF"/>
<path d="M24.3896 47.9727C24.8729 47.9727 25.2646 47.5809 25.2646 47.0977C25.2646 46.6144 24.8729 46.2227 24.3896 46.2227C23.9064 46.2227 23.5146 46.6144 23.5146 47.0977C23.5146 47.5809 23.9064 47.9727 24.3896 47.9727Z" fill="#127AFF"/>
<path d="M27.5215 8.28516C28.0047 8.28516 28.3965 7.8934 28.3965 7.41016C28.3965 6.92691 28.0047 6.53516 27.5215 6.53516C27.0382 6.53516 26.6465 6.92691 26.6465 7.41016C26.6465 7.8934 27.0382 8.28516 27.5215 8.28516Z" fill="#127AFF"/>
<path d="M24.3594 10.0195C24.8426 10.0195 25.2344 9.62778 25.2344 9.14453C25.2344 8.66128 24.8426 8.26953 24.3594 8.26953C23.8761 8.26953 23.4844 8.66128 23.4844 9.14453C23.4844 9.62778 23.8761 10.0195 24.3594 10.0195Z" fill="#127AFF"/>
<path d="M21.0342 11.3945C21.5174 11.3945 21.9092 11.0028 21.9092 10.5195C21.9092 10.0363 21.5174 9.64453 21.0342 9.64453C20.5509 9.64453 20.1592 10.0363 20.1592 10.5195C20.1592 11.0028 20.5509 11.3945 21.0342 11.3945Z" fill="#127AFF"/>
<path d="M17.5781 12.3906C18.0614 12.3906 18.4531 11.9989 18.4531 11.5156C18.4531 11.0324 18.0614 10.6406 17.5781 10.6406C17.0949 10.6406 16.7031 11.0324 16.7031 11.5156C16.7031 11.9989 17.0949 12.3906 17.5781 12.3906Z" fill="#127AFF"/>
<path d="M14.0176 12.9844C14.5008 12.9844 14.8926 12.5926 14.8926 12.1094C14.8926 11.6261 14.5008 11.2344 14.0176 11.2344C13.5343 11.2344 13.1426 11.6261 13.1426 12.1094C13.1426 12.5926 13.5343 12.9844 14.0176 12.9844Z" fill="#127AFF"/>
<path d="M14.0176 16.4844C14.5008 16.4844 14.8926 16.0926 14.8926 15.6094C14.8926 15.1261 14.5008 14.7344 14.0176 14.7344C13.5343 14.7344 13.1426 15.1261 13.1426 15.6094C13.1426 16.0926 13.5343 16.4844 14.0176 16.4844Z" fill="#127AFF"/>
<path d="M14.0176 19.9883C14.5008 19.9883 14.8926 19.5965 14.8926 19.1133C14.8926 18.63 14.5008 18.2383 14.0176 18.2383C13.5343 18.2383 13.1426 18.63 13.1426 19.1133C13.1426 19.5965 13.5343 19.9883 14.0176 19.9883Z" fill="#127AFF"/>
<path d="M14.0176 23.4922C14.5008 23.4922 14.8926 23.1004 14.8926 22.6172C14.8926 22.1339 14.5008 21.7422 14.0176 21.7422C13.5343 21.7422 13.1426 22.1339 13.1426 22.6172C13.1426 23.1004 13.5343 23.4922 14.0176 23.4922Z" fill="#127AFF"/>
</svg>
