<svg width="56" height="56" viewBox="0 0 56 56" fill="none" xmlns="http://www.w3.org/2000/svg">
<path d="M49.875 8.75065H48.9729C49.714 8.20369 50.2636 7.43675 50.5434 6.55913C50.8231 5.68151 50.8187 4.73799 50.5308 3.86302C50.2429 2.98805 49.6862 2.22627 48.94 1.68623C48.1937 1.1462 47.2961 0.855469 46.375 0.855469C45.4539 0.855469 44.5563 1.1462 43.81 1.68623C43.0638 2.22627 42.5071 2.98805 42.2192 3.86302C41.9313 4.73799 41.9269 5.68151 42.2066 6.55913C42.4864 7.43675 43.036 8.20369 43.7771 8.75065H42.875C41.9467 8.75065 41.0565 9.1194 40.4001 9.77577C39.7437 10.4322 39.375 11.3224 39.375 12.2506V21.0006C39.375 21.2327 39.4672 21.4553 39.6313 21.6194C39.7954 21.7835 40.0179 21.8756 40.25 21.8756H52.5C52.7321 21.8756 52.9546 21.7835 53.1187 21.6194C53.2828 21.4553 53.375 21.2327 53.375 21.0006V12.2506C53.375 11.3224 53.0063 10.4322 52.3499 9.77577C51.6935 9.1194 50.8033 8.75065 49.875 8.75065ZM43.75 5.25065C43.75 4.73147 43.904 4.22396 44.1924 3.79228C44.4808 3.3606 44.8908 3.02415 45.3705 2.82547C45.8501 2.62679 46.3779 2.5748 46.8871 2.67609C47.3963 2.77737 47.864 3.02738 48.2312 3.39449C48.5983 3.76161 48.8483 4.22934 48.9496 4.73854C49.0508 5.24774 48.9989 5.77554 48.8002 6.25519C48.6015 6.73485 48.2651 7.14482 47.8334 7.43326C47.4017 7.72169 46.8942 7.87565 46.375 7.87565C45.6788 7.87565 45.0111 7.59909 44.5188 7.1068C44.0266 6.61452 43.75 5.94684 43.75 5.25065ZM51.625 20.1256H41.125V12.2506C41.125 11.7865 41.3094 11.3414 41.6376 11.0132C41.9658 10.685 42.4109 10.5006 42.875 10.5006H49.875C50.3391 10.5006 50.7842 10.685 51.1124 11.0132C51.4406 11.3414 51.625 11.7865 51.625 12.2506V20.1256Z" fill="#127AFF"/>
<path d="M13.125 42.0006H12.2229C12.964 41.4537 13.5136 40.6868 13.7934 39.8091C14.0731 38.9315 14.0687 37.988 13.7808 37.113C13.4929 36.238 12.9362 35.4763 12.19 34.9362C11.4437 34.3962 10.5461 34.1055 9.625 34.1055C8.70388 34.1055 7.80625 34.3962 7.06004 34.9362C6.31383 35.4763 5.7571 36.238 5.4692 37.113C5.18129 37.988 5.17689 38.9315 5.45663 39.8091C5.73637 40.6868 6.28598 41.4537 7.02713 42.0006H6.125C5.19674 42.0006 4.3065 42.3694 3.65013 43.0258C2.99375 43.6822 2.625 44.5724 2.625 45.5006V54.2506C2.625 54.4827 2.71719 54.7053 2.88128 54.8694C3.04538 55.0335 3.26794 55.1256 3.5 55.1256H15.75C15.9821 55.1256 16.2046 55.0335 16.3687 54.8694C16.5328 54.7053 16.625 54.4827 16.625 54.2506V45.5006C16.625 44.5724 16.2563 43.6822 15.5999 43.0258C14.9435 42.3694 14.0533 42.0006 13.125 42.0006ZM7 38.5006C7 37.9815 7.15395 37.474 7.44239 37.0423C7.73083 36.6106 8.1408 36.2741 8.62046 36.0755C9.10011 35.8768 9.62791 35.8248 10.1371 35.9261C10.6463 36.0274 11.114 36.2774 11.4812 36.6445C11.8483 37.0116 12.0983 37.4793 12.1996 37.9885C12.3008 38.4977 12.2489 39.0255 12.0502 39.5052C11.8515 39.9848 11.5151 40.3948 11.0834 40.6833C10.6517 40.9717 10.1442 41.1256 9.625 41.1256C8.92881 41.1256 8.26113 40.8491 7.76884 40.3568C7.27656 39.8645 7 39.1968 7 38.5006ZM14.875 53.3756H4.375V45.5006C4.375 45.0365 4.55937 44.5914 4.88756 44.2632C5.21575 43.935 5.66087 43.7506 6.125 43.7506H13.125C13.5891 43.7506 14.0342 43.935 14.3624 44.2632C14.6906 44.5914 14.875 45.0365 14.875 45.5006V53.3756Z" fill="#127AFF"/>
<path d="M48.0556 26.3232C48.102 26.8788 48.1247 27.4432 48.1247 28.0014C48.1187 33.3371 45.9965 38.4524 42.2236 42.2253C38.4507 45.9982 33.3354 48.1204 27.9997 48.1264C27.704 48.1264 27.4152 48.1011 27.1247 48.0871V46.3764C27.1247 46.2216 27.0836 46.0695 27.0055 45.9357C26.9275 45.8019 26.8153 45.6913 26.6805 45.615C26.5457 45.5388 26.3931 45.4996 26.2383 45.5017C26.0834 45.5037 25.9319 45.5468 25.7991 45.6266L21.4241 48.2516C21.2947 48.3294 21.1877 48.4393 21.1134 48.5707C21.0391 48.7021 21 48.8505 21 49.0014C21 49.1524 21.0391 49.3008 21.1134 49.4322C21.1877 49.5636 21.2947 49.6735 21.4241 49.7513L25.7991 52.3763C25.9319 52.4561 26.0834 52.4992 26.2383 52.5012C26.3931 52.5032 26.5457 52.4641 26.6805 52.3879C26.8153 52.3116 26.9275 52.2009 27.0055 52.0672C27.0836 51.9334 27.1247 51.7813 27.1247 51.6264V49.8371C27.4152 49.8493 27.704 49.8764 27.9997 49.8764C33.7993 49.87 39.3596 47.5632 43.4605 43.4622C47.5615 39.3613 49.8682 33.8011 49.8747 28.0014C49.8747 27.3959 49.8493 26.7826 49.8003 26.1797L48.0556 26.3232ZM25.3747 50.0803L23.5757 49.0014L25.3747 47.9226V50.0803Z" fill="#127AFF"/>
<path d="M29.3186 10.3861C29.4535 10.4625 29.6062 10.5017 29.7612 10.4997C29.9161 10.4977 30.0678 10.4545 30.2006 10.3747L34.5756 7.74971C34.705 7.67192 34.812 7.56198 34.8864 7.43058C34.9607 7.29918 34.9997 7.15079 34.9997 6.99983C34.9997 6.84888 34.9607 6.70049 34.8864 6.56909C34.812 6.43769 34.705 6.32775 34.5756 6.24996L30.2006 3.62496C30.0679 3.5452 29.9163 3.5021 29.7615 3.50008C29.6066 3.49805 29.454 3.53715 29.3192 3.61341C29.1844 3.68966 29.0722 3.80032 28.9942 3.9341C28.9162 4.06787 28.875 4.21996 28.875 4.37483V6.16421C28.5828 6.15196 28.2914 6.12483 28 6.12483C22.2004 6.13132 16.6402 8.43808 12.5392 12.539C8.43825 16.64 6.13148 22.2002 6.125 27.9998C6.125 28.573 6.1495 29.1846 6.19763 29.8163L7.94237 29.6833C7.89775 29.0953 7.875 28.5248 7.875 27.9998C7.88102 22.6642 10.0033 17.5488 13.7761 13.776C17.549 10.0031 22.6644 7.88085 28 7.87483C28.2914 7.87483 28.5828 7.90021 28.875 7.91421V9.62483C28.875 9.77962 28.9161 9.93164 28.994 10.0654C29.0719 10.1991 29.184 10.3098 29.3186 10.3861ZM30.625 5.92096L32.424 6.99983L30.625 8.07871V5.92096Z" fill="#127AFF"/>
<path d="M23.0026 34.0315L23.4279 33.7882C23.9339 34.1592 24.4838 34.4663 25.065 34.7026V35.1191C25.0701 35.5562 25.2484 35.9734 25.5607 36.2792C25.873 36.5849 26.2939 36.7543 26.731 36.7501H29.2685C29.705 36.7534 30.125 36.5836 30.4366 36.2779C30.7481 35.9722 30.9259 35.5556 30.931 35.1191V34.7017C31.5087 34.4748 32.0491 34.1625 32.534 33.7751L32.9969 34.0306C33.377 34.2375 33.8218 34.2915 34.2403 34.1816C34.6589 34.0717 35.0198 33.8061 35.2491 33.4391L36.5179 31.3391C36.6297 31.1547 36.7029 30.9494 36.733 30.7358C36.7631 30.5222 36.7494 30.3048 36.6929 30.0966C36.636 29.8834 36.5362 29.684 36.3998 29.5106C36.2634 29.3371 36.0931 29.1933 35.8993 29.0877L35.5125 28.8751C35.5875 28.2942 35.5875 27.706 35.5125 27.1251L35.9028 26.9099C36.0964 26.8044 36.2666 26.6607 36.4028 26.4874C36.5391 26.3141 36.6387 26.1149 36.6955 25.9019C36.7521 25.6937 36.7657 25.4762 36.7356 25.2626C36.7055 25.049 36.6324 24.8438 36.5205 24.6594L35.2518 22.5594C35.0222 22.1925 34.6614 21.9271 34.2428 21.8173C33.8242 21.7076 33.3795 21.7617 32.9995 21.9687L32.5743 22.212C32.0683 21.841 31.5184 21.5339 30.9371 21.2976V20.8811C30.9321 20.4436 30.7534 20.026 30.4405 19.7201C30.1276 19.4143 29.706 19.2452 29.2685 19.2501H26.731C26.2945 19.2468 25.8745 19.4166 25.563 19.7223C25.2514 20.028 25.0736 20.4446 25.0685 20.8811V21.2985C24.4908 21.5254 23.9505 21.8377 23.4655 22.2251L23.0026 21.9696C22.6227 21.762 22.1777 21.7077 21.7589 21.8176C21.3402 21.9276 20.9793 22.1936 20.7504 22.5611L19.4816 24.6611C19.3698 24.8455 19.2966 25.0508 19.2665 25.2644C19.2364 25.478 19.2501 25.6954 19.3066 25.9036C19.3636 26.1168 19.4633 26.3162 19.5997 26.4896C19.7362 26.6631 19.9065 26.8069 20.1003 26.9125L20.4896 27.1269C20.4147 27.7078 20.4147 28.2959 20.4896 28.8769L20.0994 29.0921C19.9057 29.1975 19.7356 29.3412 19.5993 29.5145C19.463 29.6878 19.3634 29.8871 19.3066 30.1001C19.2501 30.3083 19.2364 30.5257 19.2665 30.7393C19.2966 30.9529 19.3698 31.1582 19.4816 31.3426L20.7504 33.4426C20.98 33.8093 21.3411 34.0745 21.7597 34.1839C22.1783 34.2934 22.6229 34.2389 23.0026 34.0315ZM22.181 28.0001C22.1815 27.7521 22.1993 27.5045 22.2344 27.259C22.2762 26.9354 22.2189 26.6068 22.0702 26.3164C21.9215 26.0261 21.6883 25.7876 21.4014 25.6324L21.0514 25.4407L22.2064 23.5306L22.6168 23.7564C22.9046 23.9131 23.2313 23.984 23.5582 23.9608C23.8851 23.9375 24.1985 23.821 24.4613 23.6251C24.8593 23.3339 25.2923 23.0937 25.7501 22.9102C26.0597 22.7928 26.3268 22.585 26.5167 22.3138C26.7066 22.0426 26.8106 21.7205 26.815 21.3895V21.0001H29.1845V21.3877C29.1891 21.719 29.2932 22.0412 29.4832 22.3125C29.6733 22.5839 29.9405 22.7918 30.2503 22.9094C30.7073 23.092 31.1394 23.3316 31.5365 23.6225C31.7982 23.8174 32.1101 23.9337 32.4356 23.9576C32.7611 23.9814 33.0867 23.9119 33.374 23.7572L33.7861 23.5306L34.9403 25.4407L34.5903 25.6324C34.3035 25.7875 34.0704 26.0259 33.9217 26.3161C33.773 26.6063 33.7157 26.9347 33.7573 27.2581C33.8289 27.7514 33.8289 28.2524 33.7573 28.7456C33.7155 29.0692 33.7727 29.3978 33.9214 29.6881C34.0701 29.9785 34.3033 30.217 34.5903 30.3722L34.9403 30.5639L33.7861 32.474L33.3758 32.2482C33.089 32.0929 32.7639 32.0224 32.4386 32.0449C32.1132 32.0673 31.801 32.1819 31.5383 32.3751C31.1402 32.6663 30.7072 32.9065 30.2494 33.09C29.9398 33.2074 29.6727 33.4152 29.4828 33.6864C29.2929 33.9576 29.189 34.2797 29.1845 34.6107V35.0001H26.815V34.6125C26.8104 34.2812 26.7063 33.959 26.5163 33.6877C26.3262 33.4163 26.059 33.2084 25.7493 33.0909C25.2921 32.9073 24.8599 32.6669 24.463 32.3751C24.201 32.1807 23.8892 32.0648 23.5638 32.041C23.2385 32.0171 22.9131 32.0863 22.6255 32.2404L22.2134 32.467L21.0584 30.5569L21.4084 30.3652C21.6952 30.2101 21.9283 29.9717 22.077 29.6815C22.2256 29.3913 22.283 29.0629 22.2414 28.7395C22.2041 28.4947 22.184 28.2477 22.181 28.0001Z" fill="#127AFF"/>
<path d="M28 31.5C28.6922 31.5 29.3689 31.2947 29.9445 30.9101C30.5201 30.5256 30.9687 29.9789 31.2336 29.3394C31.4985 28.6999 31.5678 27.9961 31.4327 27.3172C31.2977 26.6383 30.9644 26.0146 30.4749 25.5251C29.9854 25.0356 29.3617 24.7023 28.6828 24.5673C28.0039 24.4322 27.3001 24.5015 26.6606 24.7664C26.0211 25.0313 25.4744 25.4799 25.0899 26.0555C24.7053 26.6311 24.5 27.3078 24.5 28C24.5 28.9283 24.8687 29.8185 25.5251 30.4749C26.1815 31.1313 27.0717 31.5 28 31.5ZM28 26.25C28.3461 26.25 28.6845 26.3526 28.9722 26.5449C29.26 26.7372 29.4843 27.0105 29.6168 27.3303C29.7492 27.6501 29.7839 28.0019 29.7164 28.3414C29.6489 28.6809 29.4822 28.9927 29.2374 29.2374C28.9927 29.4822 28.6809 29.6489 28.3414 29.7164C28.0019 29.7839 27.6501 29.7492 27.3303 29.6168C27.0105 29.4843 26.7372 29.26 26.5449 28.9723C26.3526 28.6845 26.25 28.3461 26.25 28C26.25 27.5359 26.4344 27.0908 26.7626 26.7626C27.0908 26.4344 27.5359 26.25 28 26.25Z" fill="#127AFF"/>
</svg>
