<svg width="56" height="56" viewBox="0 0 56 56" fill="none" xmlns="http://www.w3.org/2000/svg">
<path d="M22.0961 33.0079C16.1919 33.0079 11.3887 28.2047 11.3887 22.3005C11.3887 16.4035 16.1919 11.6055 22.0961 11.6055C28.0003 11.6055 32.8035 16.4035 32.8035 22.3005C32.8035 28.2047 28.0003 33.0079 22.0961 33.0079ZM22.0961 13.1904C17.0659 13.1904 12.9736 17.2775 12.9736 22.3005C12.9736 27.3307 17.0659 31.423 22.0961 31.423C27.1263 31.423 31.2186 27.3307 31.2186 22.3005C31.2186 17.2775 27.1263 13.1904 22.0961 13.1904Z" fill="#127AFF"/>
<path d="M23.8892 42.2923H20.3149C19.3006 42.2923 18.4762 41.4668 18.4762 40.4525V37.4705C16.8665 37.0898 15.3456 36.4593 13.9413 35.5895L11.8332 37.6975C11.1181 38.4157 9.94907 38.4157 9.23194 37.6975L6.70806 35.1736C5.99093 34.4565 5.99093 33.2895 6.70806 32.5724L8.80373 30.4757C7.93492 29.0724 7.30447 27.5483 6.92269 25.9294H3.95305C2.93875 25.9294 2.11328 25.105 2.11328 24.0907V20.5164C2.11328 19.5021 2.93875 18.6776 3.95305 18.6776H6.92269C7.30447 17.0566 7.93492 15.5357 8.8027 14.1417L6.70703 12.046C5.99093 11.3299 5.9899 10.1639 6.70497 9.44782L9.22988 6.91465C9.57658 6.56589 10.0388 6.37397 10.531 6.37397C11.0232 6.37397 11.4875 6.56589 11.8353 6.91465L13.9371 9.02373C15.36 8.14873 16.882 7.51518 18.4762 7.13753V4.16686C18.4762 3.15256 19.3006 2.32812 20.3149 2.32812H23.8892C24.9035 2.32812 25.728 3.15256 25.728 4.16686V7.13753C27.3253 7.51621 28.8431 8.14873 30.2557 9.0227L32.3575 6.91362C32.7053 6.56486 33.1675 6.37294 33.6587 6.37294H33.6607C34.1519 6.37294 34.6131 6.56383 34.9609 6.91156L37.494 9.44472C37.8418 9.79245 38.0337 10.2547 38.0327 10.7469C38.0327 11.2381 37.8407 11.7003 37.492 12.0481L35.387 14.1458C36.2476 15.5439 36.8894 17.0896 37.2681 18.6776H40.2387C41.253 18.6776 42.0775 19.5021 42.0775 20.5164V24.0907C42.0775 25.105 41.253 25.9294 40.2387 25.9294H37.2691C36.8894 27.5287 36.2589 29.0528 35.386 30.4726L37.4909 32.5703C37.8397 32.918 38.0316 33.3813 38.0316 33.8746C38.0316 34.3667 37.8397 34.829 37.4909 35.1757L34.9578 37.7006C34.2417 38.4147 33.0757 38.4147 32.3596 37.6986L30.2515 35.5905C28.8575 36.4593 27.3407 37.0898 25.728 37.4705V40.4525C25.728 41.4668 24.9035 42.2923 23.8892 42.2923ZM13.835 33.7827C13.9898 33.7827 14.1445 33.8281 14.2807 33.92C15.8367 34.9776 17.5661 35.6947 19.4183 36.0517C19.7918 36.1229 20.0611 36.45 20.0611 36.8297V40.4525C20.0611 40.5929 20.1746 40.7074 20.3149 40.7074H23.8892C24.0296 40.7074 24.1431 40.5929 24.1431 40.4525V36.8297C24.1431 36.45 24.4124 36.1229 24.7859 36.0517C26.6432 35.6937 28.3674 34.9776 29.909 33.921C30.2237 33.7064 30.6478 33.7445 30.9171 34.0149L33.4802 36.578C33.5792 36.677 33.7402 36.677 33.8393 36.578L36.3724 34.0531C36.4343 33.9922 36.4467 33.922 36.4467 33.8735C36.4467 33.8343 36.4374 33.758 36.3724 33.693L33.8145 31.1443C33.5462 30.8771 33.5039 30.4561 33.7154 30.1414C34.7782 28.5585 35.4964 26.824 35.8503 24.9873C35.9215 24.6138 36.2486 24.3445 36.6283 24.3445H40.2387C40.3791 24.3445 40.4926 24.231 40.4926 24.0907V20.5164C40.4926 20.376 40.3791 20.2625 40.2387 20.2625H36.6283C36.2486 20.2625 35.9215 19.9932 35.8503 19.6197C35.5005 17.8037 34.7628 16.0258 33.7175 14.4801C33.5039 14.1654 33.5452 13.7434 33.8145 13.4751L36.3735 10.9254C36.4385 10.8604 36.4477 10.7851 36.4477 10.7459C36.4477 10.6974 36.4354 10.6272 36.3735 10.5653L33.8403 8.03213C33.7784 7.97022 33.7082 7.95784 33.6607 7.95784C33.6525 7.97538 33.5472 7.9661 33.4802 8.03213L30.9305 10.5911C30.6715 10.8532 30.2196 10.8955 29.9131 10.6881C28.3416 9.62529 26.6164 8.90817 24.7859 8.55528C24.4124 8.48408 24.1431 8.15699 24.1431 7.77727V4.16686C24.1431 4.02653 24.0296 3.91303 23.8892 3.91303H20.3149C20.1746 3.91303 20.0611 4.02653 20.0611 4.16686V7.77727C20.0611 8.15699 19.7918 8.48408 19.4183 8.55528C17.5929 8.90713 15.8625 9.62426 14.2766 10.6902C13.9712 10.8965 13.5213 10.8532 13.2613 10.5911L10.7126 8.03317C10.6476 7.96816 10.5723 7.95887 10.5321 7.95887C10.4836 7.95887 10.4134 7.97126 10.3525 8.03317L7.82761 10.5663C7.72855 10.6654 7.72855 10.8264 7.82761 10.9254L10.3783 13.4761C10.6476 13.7454 10.6879 14.1695 10.4722 14.4842C9.41767 16.0227 8.70158 17.751 8.34147 19.6197C8.27027 19.9932 7.94318 20.2625 7.56346 20.2625H3.95305C3.81272 20.2625 3.69819 20.376 3.69819 20.5164V24.0907C3.69819 24.231 3.81272 24.3445 3.95305 24.3445H7.56346C7.94318 24.3445 8.27027 24.6138 8.34147 24.9873C8.70055 26.8508 9.41767 28.5843 10.4732 30.1372C10.6868 30.4519 10.6476 30.874 10.3783 31.1433L7.82864 33.693C7.72958 33.792 7.72958 33.954 7.82864 34.0531L10.3525 36.5769C10.4516 36.677 10.6136 36.675 10.7126 36.5769L13.2747 34.0149C13.4274 33.8611 13.6307 33.7827 13.835 33.7827Z" fill="#127AFF"/>
<path d="M46.3893 53.6687H36.8664C36.3515 53.6687 35.8697 53.4417 35.5436 53.0465L33.4469 50.501C33.029 49.9933 32.9444 49.3102 33.224 48.7179C33.5068 48.1174 34.099 47.7449 34.7687 47.7449H37.8611C38.6804 47.7449 39.347 47.0969 39.347 46.3014C39.347 45.5058 38.6804 44.8589 37.8611 44.8589H34.7666C34.098 44.8589 33.5057 44.4864 33.222 43.8858C32.9413 43.2936 33.0269 42.6115 33.4428 42.1038L35.5436 39.548C35.8697 39.1528 36.3515 38.9258 36.8664 38.9258H46.3893C50.5228 38.9258 53.8866 42.2328 53.8866 46.2972C53.8866 50.3617 50.5228 53.6687 46.3893 53.6687ZM34.7687 49.3298C34.7491 49.3298 34.6872 49.3298 34.6573 49.3948L36.7674 52.0394C36.7901 52.0673 36.8272 52.0838 36.8664 52.0838H46.3893C49.6499 52.0838 52.3017 49.4877 52.3017 46.2972C52.3017 43.1068 49.6499 40.5107 46.3893 40.5107H36.8664C36.8272 40.5107 36.7901 40.5272 36.7674 40.5551L34.6676 43.1099C34.6851 43.274 34.747 43.274 34.7666 43.274H37.8611C39.5544 43.274 40.9319 44.6319 40.9319 46.3014C40.9319 47.9709 39.5544 49.3298 37.8611 49.3298H34.7687Z" fill="#127AFF"/>
<path d="M36.1997 49.3293C35.7622 49.3293 35.4072 48.9744 35.4072 48.5369V44.0659C35.4072 43.6284 35.7622 43.2734 36.1997 43.2734C36.6372 43.2734 36.9921 43.6284 36.9921 44.0659V48.5369C36.9921 48.9744 36.6372 49.3293 36.1997 49.3293Z" fill="#127AFF"/>
<path d="M36.1984 47.0929H24.5045C22.7391 47.0929 21.3027 45.6565 21.3027 43.8911V41.5034C21.3027 41.0659 21.6577 40.7109 22.0952 40.7109C22.5327 40.7109 22.8876 41.0659 22.8876 41.5034V43.8911C22.8876 44.7826 23.613 45.508 24.5045 45.508H36.1984C36.6359 45.508 36.9908 45.8629 36.9908 46.3004C36.9908 46.7379 36.6359 47.0929 36.1984 47.0929Z" fill="#127AFF"/>
<path d="M21.3819 25.9279C20.9444 25.9279 20.5894 25.573 20.5894 25.1355V20.745C20.5894 20.4272 20.4677 20.1321 20.2458 19.9144C20.0168 19.6853 19.7175 19.5615 19.3987 19.5615C18.7424 19.5615 18.208 20.0929 18.208 20.745V25.1355C18.208 25.573 17.853 25.9279 17.4155 25.9279C16.978 25.9279 16.623 25.573 16.623 25.1355V20.745C16.623 19.2189 17.8685 17.9766 19.3987 17.9766C20.1406 17.9766 20.8381 18.2644 21.3613 18.7886C21.8834 19.3025 22.1743 19.999 22.1743 20.745V25.1355C22.1743 25.573 21.8194 25.9279 21.3819 25.9279Z" fill="#127AFF"/>
<path d="M25.979 25.7043C25.5415 25.7043 25.1865 25.3494 25.1865 24.9119V19.1831C25.1865 18.7456 25.5415 18.3906 25.979 18.3906C26.4165 18.3906 26.7714 18.7456 26.7714 19.1831V24.9119C26.7714 25.3494 26.4165 25.7043 25.979 25.7043Z" fill="#127AFF"/>
<path d="M27.1657 19.9755H24.7915C24.354 19.9755 23.999 19.6206 23.999 19.1831C23.999 18.7456 24.354 18.3906 24.7915 18.3906H27.1657C27.6032 18.3906 27.9582 18.7456 27.9582 19.1831C27.9582 19.6206 27.6032 19.9755 27.1657 19.9755Z" fill="#127AFF"/>
<path d="M27.1657 25.7021H24.7915C24.354 25.7021 23.999 25.3471 23.999 24.9096C23.999 24.4721 24.354 24.1172 24.7915 24.1172H27.1657C27.6032 24.1172 27.9582 24.4721 27.9582 24.9096C27.9582 25.3471 27.6032 25.7021 27.1657 25.7021Z" fill="#127AFF"/>
<path d="M21.3819 23.1122H17.4155C16.978 23.1122 16.623 22.7573 16.623 22.3198C16.623 21.8823 16.978 21.5273 17.4155 21.5273H21.3819C21.8194 21.5273 22.1743 21.8823 22.1743 22.3198C22.1743 22.7573 21.8194 23.1122 21.3819 23.1122Z" fill="#127AFF"/>
</svg>
