<svg width="56" height="56" viewBox="0 0 56 56" fill="none" xmlns="http://www.w3.org/2000/svg">
<path d="M11.376 18.8343H6.45425C6.11079 18.8343 5.83203 18.5555 5.83203 18.2121C5.83203 17.8686 6.11079 17.5898 6.45425 17.5898H11.376C11.7195 17.5898 11.9983 17.8686 11.9983 18.2121C11.9983 18.5555 11.7195 18.8343 11.376 18.8343Z" fill="#127AFF"/>
<path d="M34.9884 28.3616H24.4044C24.061 28.3616 23.7822 28.0829 23.7822 27.7394C23.7822 27.3959 24.061 27.1172 24.4044 27.1172H34.9884C35.3319 27.1172 35.6107 27.3959 35.6107 27.7394C35.6107 28.0829 35.3319 28.3616 34.9884 28.3616Z" fill="#127AFF"/>
<path d="M38.0615 33.1312H24.4025C24.059 33.1312 23.7803 32.8524 23.7803 32.5089C23.7803 32.1655 24.059 31.8867 24.4025 31.8867H38.0615C38.405 31.8867 38.6837 32.1655 38.6837 32.5089C38.6837 32.8524 38.405 33.1312 38.0615 33.1312Z" fill="#127AFF"/>
<path d="M42.3527 42.6624H6.45425C6.11079 42.6624 5.83203 42.3837 5.83203 42.0402C5.83203 41.6967 6.11079 41.418 6.45425 41.418H42.354C42.6975 41.418 42.9762 41.6967 42.9762 42.0402C42.9762 42.3837 42.6975 42.6624 42.3527 42.6624Z" fill="#127AFF"/>
<path d="M43.8961 48.6295H4.91012C2.56061 48.6295 0.650391 46.7181 0.650391 44.3698V6.68552C0.650391 4.336 2.56186 2.42578 4.91012 2.42578H43.8961C46.2456 2.42578 48.1558 4.33725 48.1558 6.68552V15.1589C48.1558 15.5024 47.8771 15.7812 47.5336 15.7812C47.1901 15.7812 46.9114 15.5024 46.9114 15.1589V6.68552C46.9114 5.02294 45.5587 3.67023 43.8961 3.67023H4.91012C3.24755 3.67023 1.89484 5.02294 1.89484 6.68552V44.3685C1.89484 46.0311 3.24755 47.3838 4.91012 47.3838H43.8961C45.5587 47.3838 46.9114 46.0311 46.9114 44.3685V43.536C46.9114 43.1925 47.1901 42.9138 47.5336 42.9138C47.8771 42.9138 48.1558 43.1925 48.1558 43.536V44.3685C48.1571 46.718 46.2456 48.6295 43.8961 48.6295Z" fill="#127AFF"/>
<path d="M47.5348 12.8655H1.27261C0.929146 12.8655 0.650391 12.5868 0.650391 12.2433C0.650391 11.8998 0.929146 11.6211 1.27261 11.6211H47.5348C47.8783 11.6211 48.1571 11.8998 48.1571 12.2433C48.1571 12.5868 47.8783 12.8655 47.5348 12.8655Z" fill="#127AFF"/>
<path d="M9.63651 9.70878H6.57144C6.22797 9.70878 5.94922 9.43003 5.94922 9.08656V6.20816C5.94922 5.86469 6.22797 5.58594 6.57144 5.58594H9.63651C9.97997 5.58594 10.2587 5.86469 10.2587 6.20816V9.08532C10.2587 9.43003 9.98122 9.70878 9.63651 9.70878ZM7.19366 8.46434H9.01429V6.83038H7.19366V8.46434Z" fill="#127AFF"/>
<path d="M15.5799 9.70878H12.5148C12.1713 9.70878 11.8926 9.43003 11.8926 9.08656V6.20816C11.8926 5.86469 12.1713 5.58594 12.5148 5.58594H15.5799C15.9233 5.58594 16.2021 5.86469 16.2021 6.20816V9.08532C16.2021 9.43003 15.9233 9.70878 15.5799 9.70878ZM13.137 8.46434H14.9576V6.83038H13.137V8.46434Z" fill="#127AFF"/>
<path d="M21.5232 9.70878H18.4582C18.1147 9.70878 17.8359 9.43003 17.8359 9.08656V6.20816C17.8359 5.86469 18.1147 5.58594 18.4582 5.58594H21.5232C21.8667 5.58594 22.1454 5.86469 22.1454 6.20816V9.08532C22.1454 9.43003 21.8667 9.70878 21.5232 9.70878ZM19.0791 8.46434H20.8998V6.83038H19.0791V8.46434Z" fill="#127AFF"/>
<path d="M33.6612 18.8343H21.9572C21.6137 18.8343 21.335 18.5555 21.335 18.2121C21.335 17.8686 21.6137 17.5898 21.9572 17.5898H33.6612C34.0046 17.5898 34.2834 17.8686 34.2834 18.2121C34.2834 18.5555 34.0046 18.8343 33.6612 18.8343Z" fill="#127AFF"/>
<path d="M18.4297 18.8343H15.6584C15.3149 18.8343 15.0361 18.5555 15.0361 18.2121C15.0361 17.8686 15.3149 17.5898 15.6584 17.5898H18.4297C18.7732 17.5898 19.052 17.8686 19.052 18.2121C19.052 18.5555 18.7732 18.8343 18.4297 18.8343Z" fill="#127AFF"/>
<path d="M10.663 23.5999H6.45425C6.11079 23.5999 5.83203 23.3212 5.83203 22.9777C5.83203 22.6342 6.11079 22.3555 6.45425 22.3555H10.663C11.0064 22.3555 11.2852 22.6342 11.2852 22.9777C11.2852 23.3212 11.0064 23.5999 10.663 23.5999Z" fill="#127AFF"/>
<path d="M32.4557 23.5999H13.8761C13.5327 23.5999 13.2539 23.3212 13.2539 22.9777C13.2539 22.6342 13.5327 22.3555 13.8761 22.3555H32.4557C32.7991 22.3555 33.0779 22.6342 33.0779 22.9777C33.0779 23.3212 32.7991 23.5999 32.4557 23.5999Z" fill="#127AFF"/>
<path d="M42.3524 37.8968H38.1437C37.8002 37.8968 37.5215 37.618 37.5215 37.2746C37.5215 36.9311 37.8002 36.6523 38.1437 36.6523H42.3524C42.6959 36.6523 42.9746 36.9311 42.9746 37.2746C42.9746 37.618 42.6971 37.8968 42.3524 37.8968Z" fill="#127AFF"/>
<path d="M34.9322 37.8968H16.3527C16.0092 37.8968 15.7305 37.618 15.7305 37.2746C15.7305 36.9311 16.0092 36.6523 16.3527 36.6523H34.9322C35.2757 36.6523 35.5545 36.9311 35.5545 37.2746C35.5545 37.618 35.2757 37.8968 34.9322 37.8968Z" fill="#127AFF"/>
<path d="M11.9425 37.8968H6.45328C6.10981 37.8968 5.83105 37.618 5.83105 37.2746C5.83105 36.9311 6.10981 36.6523 6.45328 36.6523H11.9425C12.286 36.6523 12.5647 36.9311 12.5647 37.2746C12.5647 37.618 12.2872 37.8968 11.9425 37.8968Z" fill="#127AFF"/>
<path d="M15.4755 33.1279C15.2602 33.1279 15.0512 33.0159 14.9354 32.8168L12.184 28.0505C12.0122 27.7531 12.1143 27.3723 12.4117 27.2006C12.7091 27.0288 13.0899 27.1309 13.2617 27.4283L16.0131 32.1933C16.1849 32.4907 16.0828 32.8715 15.7854 33.0432C15.6883 33.1005 15.5813 33.1279 15.4755 33.1279Z" fill="#127AFF"/>
<path d="M10.0833 33.1314C9.96634 33.1314 9.84812 33.0979 9.74234 33.0294L6.1123 30.6463C5.93683 30.5318 5.83105 30.3364 5.83105 30.1261C5.83105 29.9158 5.93683 29.7204 6.1123 29.6059L9.74234 27.2228C10.0298 27.0349 10.4156 27.1146 10.6035 27.402C10.7927 27.6895 10.7118 28.0753 10.4243 28.2632L7.58697 30.1261L10.4243 31.989C10.7118 32.1782 10.7914 32.5627 10.6035 32.8502C10.484 33.0331 10.2862 33.1314 10.0833 33.1314Z" fill="#127AFF"/>
<path d="M18.1146 33.1314C17.9118 33.1314 17.7127 33.0331 17.5945 32.8502C17.4053 32.5627 17.4862 32.177 17.7737 31.989L20.611 30.1261L17.7737 28.2632C17.4862 28.0753 17.4066 27.6882 17.5945 27.402C17.7824 27.1146 18.1682 27.0349 18.4556 27.2228L22.0857 29.6059C22.2611 29.7204 22.3669 29.9158 22.3669 30.1261C22.3669 30.3364 22.2611 30.5318 22.0857 30.6463L18.4556 33.0294C18.3498 33.0991 18.2316 33.1314 18.1146 33.1314Z" fill="#127AFF"/>
<path d="M44.6641 35.6018C42.8671 35.6018 41.0913 35.1464 39.476 34.2516C36.9684 32.8616 35.1515 30.578 34.3613 27.8228C32.7299 22.1332 36.0314 16.1773 41.721 14.5458C44.4774 13.7556 47.3757 14.0854 49.8833 15.4754C52.3908 16.8655 54.2077 19.149 54.9979 21.9055C56.6294 27.5951 53.3279 33.551 47.6383 35.1824C46.6577 35.4624 45.6571 35.6018 44.6641 35.6018ZM42.0644 15.7417C37.0344 17.184 34.1162 22.4493 35.5585 27.4793C36.2566 29.916 37.8632 31.9344 40.0796 33.1627C42.2959 34.391 44.8595 34.6834 47.2961 33.9853C52.3261 32.543 55.2443 27.2777 53.802 22.2477C53.1039 19.8111 51.4973 17.7926 49.281 16.5631C47.0634 15.3348 44.5011 15.0424 42.0644 15.7417Z" fill="#127AFF"/>
<path d="M51.7014 53.7554C50.7942 53.7554 49.9455 53.1767 49.6618 52.2857L44.2161 35.1596C44.1115 34.8323 44.2932 34.4826 44.6205 34.3781C44.9478 34.2736 45.2975 34.4553 45.402 34.7825L50.849 51.9086C50.9908 52.3541 51.4836 52.6092 51.9466 52.4773L53.1549 52.1313C53.6179 51.9982 53.9003 51.5216 53.7846 51.0686L49.3283 33.6588C49.2436 33.3253 49.444 32.9868 49.7763 32.9022C50.1085 32.8176 50.4483 33.0179 50.5329 33.3502L54.9892 50.76C55.2705 51.8588 54.6022 53.0112 53.4971 53.3285L52.2888 53.6745C52.0934 53.7292 51.8968 53.7554 51.7014 53.7554Z" fill="#127AFF"/>
<path d="M44.6686 32.4703C43.3956 32.4703 42.1362 32.1467 40.9925 31.5133C39.2155 30.5277 37.9287 28.9099 37.3687 26.9574C36.2126 22.9254 38.5522 18.7055 42.5842 17.5494C46.6162 16.3933 50.8374 18.7329 51.9922 22.7649C53.1483 26.7969 50.8087 31.0168 46.7767 32.1729C46.0811 32.372 45.373 32.4703 44.6686 32.4703ZM42.9252 18.7453C39.5527 19.7122 37.5965 23.2427 38.5634 26.6152C39.5303 29.9876 43.0608 31.9451 46.432 30.9769C49.8045 30.01 51.7607 26.4795 50.7938 23.1083C49.8281 19.7346 46.2989 17.7771 42.9252 18.7453Z" fill="#127AFF"/>
</svg>
