<svg width="56" height="56" viewBox="0 0 56 56" fill="none" xmlns="http://www.w3.org/2000/svg">
<g clip-path="url(#clip0_3426_1891)">
<path d="M33.715 52.954H33.7139C33.2781 53.073 33.0213 53.5241 33.1405 53.9609C33.2518 54.3637 33.7468 54.6436 34.1474 54.5343C35.1829 54.2117 34.7697 52.7021 33.715 52.954Z" fill="#127AFF"/>
<path d="M29.5622 53.7226C29.1123 53.7674 28.7824 54.1682 28.8273 54.6182C28.8697 55.0696 29.28 55.4005 29.7228 55.3532C30.1727 55.3084 30.5016 54.9076 30.4578 54.4577C30.413 54.0077 30.0122 53.679 29.5622 53.7226Z" fill="#127AFF"/>
<path d="M21.1614 53.1367C20.7212 53.0297 20.2778 53.2994 20.1719 53.7396C20.0648 54.1786 20.3345 54.622 20.7747 54.7291C21.1775 54.8244 21.6646 54.533 21.7631 54.1262C21.8702 53.6861 21.6004 53.2437 21.1614 53.1367Z" fill="#127AFF"/>
<path d="M25.3367 53.7833C24.8844 53.7516 24.4934 54.0924 24.463 54.5445C24.4313 54.9956 24.7719 55.3866 25.2231 55.4171C25.6682 55.4508 26.0674 55.1085 26.0968 54.657C26.1285 54.2049 25.7877 53.8139 25.3367 53.7833Z" fill="#127AFF"/>
<path d="M37.678 51.4969C37.2684 51.6892 37.0915 52.1763 37.2837 52.5858C37.5923 53.0278 37.9552 53.1593 38.3726 52.9801C39.339 52.4872 38.6745 51.0705 37.678 51.4969Z" fill="#127AFF"/>
<path d="M41.3377 49.3892C40.9653 49.647 40.8736 50.157 41.1324 50.5283C41.4841 50.9156 41.8641 50.9841 42.2725 50.7337C42.6438 50.4759 42.7356 49.9659 42.4778 49.5946C42.219 49.2221 41.7089 49.1304 41.3377 49.3892Z" fill="#127AFF"/>
<path d="M50.6283 39.5024C50.2231 39.3025 49.7317 39.4696 49.5319 39.8759C49.3321 40.2811 49.498 40.7726 49.9042 40.9724C50.3211 41.1608 50.6865 41.0366 51.0007 40.6C51.2007 40.1937 51.0347 39.7033 50.6283 39.5024Z" fill="#127AFF"/>
<path d="M52.8302 31.0879C52.3814 31.0343 51.9739 31.3554 51.9204 31.8043C51.8681 32.245 52.291 32.7206 52.7352 32.7206C53.1447 32.7206 53.4975 32.4137 53.5477 31.9976C53.5477 31.9965 53.5477 31.9965 53.5477 31.9965C53.6002 31.5476 53.2791 31.1403 52.8302 31.0879Z" fill="#127AFF"/>
<path d="M52.088 35.3891C51.6544 35.2613 51.198 35.5092 51.0703 35.9428C50.9413 36.3764 51.1893 36.8318 51.6229 36.9607C52.0223 37.079 52.5224 36.8105 52.6408 36.4069C52.7696 35.9734 52.5217 35.5179 52.088 35.3891Z" fill="#127AFF"/>
<path d="M44.5918 46.695C44.2685 47.0117 44.263 47.5305 44.5797 47.8537C44.9646 48.1777 45.3509 48.1814 45.7385 47.8647C46.0618 47.5479 46.0661 47.0292 45.7494 46.707C45.4327 46.3837 44.915 46.3783 44.5918 46.695Z" fill="#127AFF"/>
<path d="M48.4947 43.3082C48.1277 43.0428 47.6154 43.1247 47.3501 43.4906C47.0847 43.8575 47.1666 44.3697 47.5336 44.6351C47.94 44.8912 48.3212 44.8301 48.6772 44.4516C48.9424 44.0858 48.8605 43.5736 48.4947 43.3082Z" fill="#127AFF"/>
<path d="M13.0489 7.96697C13.2018 7.96697 13.3569 7.92438 13.4945 7.83482C13.8735 7.588 13.9816 7.08124 13.7358 6.70118C13.4901 6.32221 12.9824 6.21408 12.6033 6.45982C12.2233 6.70664 12.1151 7.21339 12.3619 7.59346C12.5182 7.83482 12.7814 7.96697 13.0489 7.96697Z" fill="#127AFF"/>
<path d="M16.8958 5.91207C17.4288 5.91207 17.8646 5.27448 17.6483 4.7686C17.4692 4.35359 16.9876 4.16137 16.5725 4.34048C16.5713 4.34048 16.5713 4.34048 16.5713 4.34048C16.1563 4.5185 15.9641 5.00014 16.1432 5.41624C16.2766 5.72641 16.578 5.91207 16.8958 5.91207Z" fill="#127AFF"/>
<path d="M25.346 3.88108C25.3646 3.88108 25.3832 3.87999 25.4006 3.87889C25.8528 3.84941 26.1946 3.45842 26.1639 3.00737C26.1345 2.55631 25.7435 2.21447 25.2925 2.24396C24.8404 2.27454 24.4996 2.66443 24.5291 3.11549C24.5586 3.54907 24.919 3.88108 25.346 3.88108Z" fill="#127AFF"/>
<path d="M21.0349 4.53379C21.5123 4.53379 21.9448 3.99482 21.8311 3.52247C21.7263 3.08343 21.284 2.81149 20.8438 2.91742C20.4037 3.02336 20.1328 3.46568 20.2388 3.90472C20.3283 4.28041 20.6647 4.53379 21.0349 4.53379Z" fill="#127AFF"/>
<path d="M9.60188 10.6378C9.79956 10.6378 9.99833 10.5668 10.1556 10.4216C10.4887 10.1158 10.5105 9.59703 10.2035 9.26392C9.89774 8.93191 9.38007 8.91007 9.04697 9.21587C8.71386 9.52276 8.69202 10.0404 8.99891 10.3735C9.16066 10.5494 9.38018 10.6378 9.60188 10.6378Z" fill="#127AFF"/>
<path d="M1.551 32.8386C1.1065 32.9216 0.814897 33.3508 0.8979 33.7942C0.974131 34.1992 1.4491 34.5264 1.85461 34.4484C2.29911 34.3643 2.59181 33.9362 2.50771 33.4917C2.42351 33.0472 1.99539 32.7545 1.551 32.8386Z" fill="#127AFF"/>
<path d="M1.42395 25.7579C1.83066 25.8217 2.2946 25.4743 2.35543 25.0698C2.42314 24.6231 2.11527 24.206 1.66738 24.1382C1.2207 24.0705 0.803502 24.3785 0.735898 24.8263C0.668186 25.273 0.97606 25.6913 1.42395 25.7579Z" fill="#127AFF"/>
<path d="M1.25954 30.1188H1.27483C1.72698 30.1112 2.08727 29.7376 2.07974 29.2855H2.07865C2.071 28.8333 1.69858 28.4729 1.24523 28.4806C0.793089 28.4893 0.433775 28.8617 0.441529 29.3139C0.449065 29.7617 0.813949 30.1188 1.25954 30.1188Z" fill="#127AFF"/>
<path d="M2.30186 21.4836C2.69874 21.6141 3.20451 21.3654 3.3371 20.9637C3.47908 20.5345 3.24645 20.0704 2.81724 19.9284C2.38803 19.7864 1.92387 20.019 1.78189 20.4482C1.63992 20.8785 1.87254 21.3416 2.30186 21.4836Z" fill="#127AFF"/>
<path d="M3.8933 17.4176C4.3094 17.6178 4.67898 17.5053 5.00182 17.0802C5.21479 16.6804 5.06407 16.1846 4.66435 15.9716C4.26572 15.7587 3.76879 15.9094 3.55582 16.3091C3.34406 16.7077 3.49477 17.2047 3.8933 17.4176Z" fill="#127AFF"/>
<path d="M6.14875 13.6811C6.55197 13.9511 6.93487 13.9023 7.29768 13.5348C7.57508 13.1776 7.50956 12.6632 7.15133 12.3858C6.7942 12.1095 6.27991 12.175 6.0024 12.5322C5.72609 12.8904 5.79042 13.4048 6.14875 13.6811Z" fill="#127AFF"/>
<path d="M55.5043 13.6653L52.4626 12.3585C52.2442 11.6516 51.9698 10.9615 51.6433 10.2984L52.862 7.24482C52.983 6.94153 52.9123 6.59521 52.6821 6.36368L49.6739 3.33856C49.4417 3.10506 49.0922 3.03342 48.7865 3.1565L45.9427 4.30412C45.1941 3.89184 44.4084 3.5524 43.5984 3.2916L42.4118 0.49878C42.2834 0.196367 41.9865 0 41.658 0H37.4038C37.0752 0 36.7783 0.196367 36.6499 0.49878L35.4633 3.29171C34.6534 3.55251 33.8677 3.89184 33.119 4.30423L30.2752 3.1565C29.9695 3.0332 29.62 3.10495 29.3878 3.33856L26.3796 6.36368C26.1494 6.59532 26.0786 6.94153 26.1998 7.24482L27.4184 10.2984C27.1534 10.8366 26.9221 11.3941 26.7281 11.9617C23.1434 11.9676 19.7064 13.0591 16.7869 15.1193C15.9216 15.73 16.8662 17.0685 17.7314 16.4578C27.9161 9.13433 42.5375 16.7151 42.4298 29.2696C42.4299 33.6384 40.5839 37.8423 37.3651 40.8032C37.1965 40.9583 37.1005 41.1769 37.1005 41.4061V44.5183L34.3061 43.3377C34.0881 43.2456 33.8407 43.2523 33.6277 43.3563C29.6829 45.3128 24.8466 45.4601 20.7917 43.7649L21.6185 42.9154C21.8462 42.6814 21.9131 42.3344 21.7889 42.0324L20.7127 39.4172C20.5877 39.1133 20.2931 38.9136 19.9645 38.9099L18.0671 38.8884C17.7508 38.5036 17.4038 38.1457 17.0306 37.8187L17.0105 35.9333C17.007 35.6058 16.8088 35.3119 16.5066 35.1859L13.9063 34.1022C13.602 33.9753 13.2518 34.0432 13.0169 34.2741L12.1968 35.0802C10.0216 29.7692 11.1066 23.3187 14.9108 19.01C15.6046 18.2099 14.3668 17.1363 13.6731 17.9368C9.49833 22.6665 8.28496 29.7315 10.6318 35.5775C10.4869 35.5843 10.3421 35.5945 10.1976 35.6081L8.84097 34.273C8.60627 34.042 8.25591 33.9741 7.95164 34.1005L5.35082 35.1832C5.04852 35.309 4.85018 35.6027 4.84647 35.9301L4.82321 37.9843C4.51293 38.2641 4.22078 38.5648 3.94982 38.8831L1.89027 38.9055C1.56164 38.9091 1.26709 39.1085 1.14182 39.4124L0.0637729 42.0272C-0.060731 42.3291 0.00610796 42.6761 0.23371 42.9104L1.67621 44.3942C1.64344 44.8133 1.6382 45.235 1.66059 45.6547L0.232181 47.1224C0.00436053 47.3565 -0.0625876 47.7035 0.0615886 48.0054L1.13778 50.6207C1.26283 50.9246 1.55738 51.1243 1.88601 51.1281L3.78338 51.1496C4.09977 51.5342 4.44664 51.8922 4.81993 52.2192L4.84003 54.1047C4.84352 54.4321 5.04175 54.726 5.34394 54.8521L7.94421 55.9358C8.24827 56.0626 8.59863 55.9948 8.83365 55.7639L10.1719 54.4484C10.6642 54.4825 11.1599 54.4763 11.653 54.4297L13.0096 55.7647C13.2887 56.0026 13.5851 56.0601 13.8989 55.9371L16.4997 54.8546C16.802 54.7288 17.0003 54.4351 17.0039 54.1077L17.0273 52.0534C17.3375 51.7736 17.6296 51.4731 17.9006 51.1546L19.9604 51.1321C20.2889 51.1285 20.5834 50.9291 20.7087 50.6253L21.7869 48.0105C21.9114 47.7085 21.8445 47.3615 21.6169 47.1272L20.1743 45.6435C20.1835 45.5261 20.1905 45.4085 20.1953 45.2909C24.5495 47.103 29.7314 46.995 34.0069 44.9897L37.6007 46.508C38.25 46.6636 38.6293 46.4121 38.7386 45.7534V41.7603C42.0354 38.5965 43.9586 34.2262 44.0635 29.6628C44.7087 29.4282 45.3385 29.1423 45.9426 28.8097L48.7864 29.9573C49.1005 30.0769 49.3963 30.0163 49.6738 29.7752L52.682 26.7501C52.9122 26.5185 52.983 26.1723 52.8618 25.869L51.6432 22.8153C51.9697 22.1523 52.2441 21.462 52.4624 20.7552L55.5042 19.4485C55.8049 19.3192 55.9999 19.0232 55.9999 18.6959V14.4178C56 14.0906 55.805 13.7946 55.5043 13.6653ZM19.4008 49.4999L17.4996 49.5207C17.2506 49.5234 17.0162 49.6393 16.863 49.8356C16.5163 50.2795 16.1214 50.6866 15.6892 51.0456C15.5044 51.1992 15.3962 51.4261 15.3935 51.6665L15.3722 53.5496L13.7713 54.2159L12.5225 52.9868C12.3412 52.8077 12.084 52.7239 11.834 52.7594C11.2118 52.8468 10.5816 52.8552 9.96107 52.7844C9.7149 52.7567 9.47026 52.8409 9.2941 53.0141L8.07287 54.2146L6.47267 53.5476L6.45432 51.8252C6.4517 51.5797 6.3391 51.3484 6.14754 51.1949C5.65859 50.8029 5.21878 50.3484 4.84025 49.8436C4.68756 49.6399 4.44882 49.5189 4.19424 49.516L2.4466 49.4961L1.78138 47.8795L3.0914 46.5334C3.25894 46.3613 3.34249 46.1244 3.31999 45.8854C3.26724 45.3237 3.27455 44.7546 3.34205 44.194C3.37165 43.9484 3.28864 43.7025 3.11619 43.525L1.78346 42.1542L2.44999 40.5377L4.35108 40.5171C4.60019 40.5143 4.83468 40.3985 4.9879 40.2021C5.33422 39.7585 5.72914 39.3512 6.16152 38.992C6.34631 38.8384 6.45454 38.6115 6.45716 38.3712L6.47856 36.4882L8.07942 35.8219L9.32839 37.0509C9.51002 37.2296 9.76328 37.3137 10.0169 37.2783C10.5426 37.2045 11.0741 37.187 11.6009 37.2261C11.9184 37.3593 12.3135 37.2627 12.5568 37.0236L13.7779 35.8233L15.3782 36.4902L15.3965 38.2127C15.3992 38.4582 15.5118 38.6895 15.7033 38.8429C16.1921 39.2347 16.6319 39.6893 17.0106 40.1943C17.1633 40.3979 17.4021 40.519 17.6566 40.5219L19.4043 40.5418L20.0695 42.1582L18.9269 43.3323C18.6731 43.4981 18.5026 43.8504 18.531 44.1524C18.5837 44.7136 18.5763 45.2828 18.5089 45.844C18.4793 46.0896 18.5624 46.3353 18.7348 46.5127L20.0675 47.8836L19.4008 49.4999ZM34.1934 13.6412C35.2496 11.6852 37.2938 10.4465 39.5309 10.4465C45.8321 10.5239 47.8882 18.8549 42.4315 21.9258C40.7274 18.3044 37.8039 15.3653 34.1934 13.6412ZM54.3618 18.1564L51.4618 19.4023C51.2338 19.5003 51.0625 19.6964 50.996 19.9355C50.7596 20.786 50.4313 21.6127 50.0203 22.3926C49.9085 22.6048 49.8953 22.8553 49.9842 23.078L51.141 25.9767L48.8954 28.2348L46.1878 27.1421C45.9514 27.0466 45.6839 27.0668 45.4643 27.1966C44.9988 27.4719 44.5139 27.715 44.0162 27.9231C43.8957 26.3653 43.5682 24.8647 43.061 23.4488C45.6246 22.13 47.2408 19.5051 47.2408 16.5569C47.1494 8.45349 36.4451 5.85289 32.6772 13.0041C31.3345 12.5141 29.9146 12.1858 28.4412 12.0428C28.6154 11.5908 28.8162 11.1483 29.0412 10.7213C29.153 10.5091 29.1663 10.2586 29.0773 10.0358L27.9205 7.13713L30.1661 4.87892L32.8737 5.9716C33.1101 6.06705 33.3776 6.04696 33.5972 5.91699C34.4462 5.41494 35.3541 5.0222 36.2954 4.74993C36.5321 4.68146 36.7254 4.5101 36.8217 4.28337L37.9456 1.63821H41.116L42.2399 4.28359C42.3362 4.51032 42.5294 4.68167 42.7661 4.75015C43.7074 5.02242 44.6153 5.41516 45.4643 5.91721C45.6839 6.04707 45.9514 6.06716 46.1878 5.97182L48.8954 4.87913L51.141 7.13724L49.9842 10.0359C49.8954 10.2587 49.9085 10.5091 50.0203 10.7213C50.4313 11.5011 50.7595 12.3277 50.996 13.1784C51.0624 13.4175 51.2338 13.6136 51.4618 13.7116L54.3618 14.9575V18.1564Z" fill="#127AFF"/>
<path d="M19.5049 34.4874H20.0985C21.0236 34.4874 21.7761 33.7348 21.7761 32.8098V27.8415C21.7761 26.9165 21.0235 26.1639 20.0985 26.1639C19.7463 26.1563 19.3697 26.1513 19.0213 26.1918C20.9178 17.8572 32.5762 17.8163 34.4938 26.1918C34.1454 26.1513 33.7689 26.1563 33.4168 26.1639C32.4917 26.1639 31.7392 26.9165 31.7392 27.8415V32.8098C31.7392 33.7348 32.4918 34.4874 33.4168 34.4874C33.7793 34.4835 34.4062 34.4819 34.6578 34.4835C34.6578 35.9776 33.5644 37.2211 32.1357 37.4558C31.7898 36.5601 30.9196 35.9229 29.9033 35.9229H28.3305C25.1576 36.0542 25.1578 40.5757 28.3305 40.7068H29.9033C30.9453 40.7068 31.8337 40.0371 32.161 39.1055C34.4836 38.8483 36.2961 36.8736 36.2961 34.4835V33.8021C38.8066 32.1812 38.7771 28.3996 36.2459 26.8165C36.0075 24.4957 34.9279 22.3502 33.1994 20.7667C27.4966 15.4765 18.0158 19.108 17.2696 26.8165C13.8053 29.0446 15.3313 34.45 19.5049 34.4874ZM29.9033 39.0686H28.3305C27.3327 39.0331 27.3334 37.5963 28.3305 37.5611H29.9033C30.9011 37.5966 30.9003 39.0335 29.9033 39.0686ZM34.0103 32.8492C34.0128 32.8489 33.3773 32.8868 33.3773 32.8098V27.8415C33.3773 27.7645 34.0128 27.8023 34.0103 27.8021C37.3591 27.9411 37.3565 32.7115 34.0103 32.8492ZM19.5049 27.8021C19.5024 27.8024 20.1379 27.7645 20.1379 27.8415V32.8098C20.1379 32.8868 19.5024 32.849 19.5049 32.8492C16.1561 32.7102 16.1587 27.9399 19.5049 27.8021Z" fill="#127AFF"/>
<path d="M12.9868 40.0285C11.6623 39.4766 10.203 39.4748 8.87719 40.0235C7.54511 40.5748 6.50779 41.615 5.95637 42.9523C4.22762 47.1356 8.15583 51.5129 12.4856 50.1911C12.9183 50.0591 13.162 49.6013 13.0298 49.1685C12.8978 48.7358 12.4398 48.4925 12.0074 48.6242C11.1836 48.8757 10.291 48.8313 9.49414 48.4992C7.58705 47.7043 6.67948 45.4961 7.47084 43.5767C7.85506 42.645 8.57696 41.9207 9.50364 41.5371C12.4167 40.3102 15.4375 43.1545 14.4928 46.1477C14.3574 46.5793 14.5976 47.039 15.0293 47.1743C15.4606 47.3097 15.9205 47.0695 16.0558 46.6377C16.4581 45.3548 16.3692 43.9739 15.8055 42.7494C15.2379 41.5159 14.2369 40.5496 12.9868 40.0285Z" fill="#127AFF"/>
</g>
<defs>
<clipPath id="clip0_3426_1891">
<rect width="56" height="56" fill="white"/>
</clipPath>
</defs>
</svg>
