<svg width="56" height="56" viewBox="0 0 56 56" fill="none" xmlns="http://www.w3.org/2000/svg">
<path d="M53.5545 31.6944H51.8185V4.87838C51.8185 3.18158 50.4377 1.80078 48.7401 1.80078H7.2593C5.5625 1.80078 4.1817 3.18158 4.1817 4.87838V31.6944H2.4457C2.1145 31.6944 1.8457 31.9632 1.8457 32.2944V35.9336C1.8457 37.9152 3.4577 39.5264 5.4385 39.5264H19.3377V41.2432C19.3377 42.1904 18.5673 42.96 17.6209 42.96H13.8873C12.2785 42.96 10.9705 44.2688 10.9705 45.8768C10.9705 47.4848 12.2793 48.7936 13.8873 48.7936H26.0177C26.3377 52.0248 29.0369 54.1968 31.9785 54.1968H36.1857C39.4961 54.1968 42.1889 51.504 42.1889 48.1936C42.1889 44.884 39.4961 42.1912 36.1857 42.1912H31.9785C28.8665 42.1912 26.3033 44.5672 26.0057 47.5936H13.8865C12.9393 47.5936 12.1697 46.8232 12.1697 45.8768C12.1697 44.9296 12.9401 44.16 13.8865 44.16H17.6201C19.2289 44.16 20.5369 42.8512 20.5369 41.2432V39.5264H50.5617C52.5425 39.5264 54.1537 37.9144 54.1537 35.9336V32.2944C54.1545 31.9632 53.8857 31.6944 53.5545 31.6944ZM31.9777 43.392H36.1849C38.8337 43.392 40.9881 45.5464 40.9881 48.1944C40.9881 50.8432 38.8337 52.9976 36.1849 52.9976H31.9777C31.6257 52.9976 31.2809 52.9576 30.9441 52.884C32.4825 51.6576 33.2305 49.9744 33.2305 48.1952C33.2305 46.3296 32.3753 44.6304 30.9529 43.5056C31.2873 43.4312 31.6289 43.392 31.9777 43.392ZM29.6169 44.0296C31.1137 44.8888 32.0305 46.4568 32.0305 48.1944C32.0305 50.0176 31.0217 51.5528 29.6129 52.3624C28.0401 51.4688 27.1745 49.868 27.1745 48.1944C27.1753 46.5504 27.9969 44.9536 29.6169 44.0296ZM5.3825 4.87838C5.3825 3.84318 6.2249 3.00078 7.2601 3.00078H48.7417C49.7777 3.00078 50.6201 3.84318 50.6201 4.87838V31.6944H5.3825V4.87838ZM32.3473 32.8968V33.9816C32.3473 34.216 32.1569 34.4064 31.9225 34.4064H24.0793C23.8441 34.4064 23.6537 34.216 23.6537 33.9816V32.8968H32.3473ZM52.9545 35.9328C52.9545 37.252 51.8809 38.3256 50.5625 38.3256H5.4385C4.1193 38.3256 3.0457 37.252 3.0457 35.9328V32.8936C29.6425 32.8968 20.4689 32.896 22.4537 32.896V33.9808C22.4537 34.8768 23.1833 35.6056 24.0793 35.6056H31.9225C32.8185 35.6056 33.5473 34.8768 33.5473 33.9808V32.896C35.5321 32.896 26.3585 32.8968 52.9553 32.8936L52.9545 35.9328Z" fill="#127AFF"/>
<path d="M46.1603 6.08594H34.7147C33.8947 6.08594 33.2275 6.75394 33.2275 7.57394V15.9363C33.2275 16.7563 33.8947 17.4243 34.7147 17.4243H46.1603C46.9803 17.4243 47.6475 16.7563 47.6475 15.9363V7.57394C47.6483 6.75394 46.9811 6.08594 46.1603 6.08594ZM46.4483 15.9363C46.4483 16.0947 46.3195 16.2243 46.1611 16.2243H34.7147C34.5563 16.2243 34.4275 16.0947 34.4275 15.9363V7.57394C34.4275 7.41554 34.5563 7.28594 34.7147 7.28594H46.1603C46.3187 7.28594 46.4475 7.41554 46.4475 7.57394V15.9363H46.4483Z" fill="#127AFF"/>
<path d="M8.90469 8.18828H11.1767C11.5079 8.18828 11.7767 7.91948 11.7767 7.58828C11.7767 7.25708 11.5079 6.98828 11.1767 6.98828H8.90469C8.57349 6.98828 8.30469 7.25708 8.30469 7.58828C8.30469 7.91948 8.57349 8.18828 8.90469 8.18828Z" fill="#127AFF"/>
<path d="M8.90469 12.0906H11.1767C11.5079 12.0906 11.7767 11.8218 11.7767 11.4906C11.7767 11.1594 11.5079 10.8906 11.1767 10.8906H8.90469C8.57349 10.8906 8.30469 11.1594 8.30469 11.4906C8.30469 11.8218 8.57349 12.0906 8.90469 12.0906Z" fill="#127AFF"/>
<path d="M14.683 8.18828H23.803C24.1342 8.18828 24.403 7.91948 24.403 7.58828C24.403 7.25708 24.1342 6.98828 23.803 6.98828H14.683C14.3518 6.98828 14.083 7.25708 14.083 7.58828C14.083 7.91948 14.351 8.18828 14.683 8.18828Z" fill="#127AFF"/>
<path d="M26.6156 8.18828H29.4292C29.7604 8.18828 30.0292 7.91948 30.0292 7.58828C30.0292 7.25708 29.7604 6.98828 29.4292 6.98828H26.6156C26.2844 6.98828 26.0156 7.25708 26.0156 7.58828C26.0156 7.91948 26.2836 8.18828 26.6156 8.18828Z" fill="#127AFF"/>
<path d="M14.683 12.0906H16.7222C17.0534 12.0906 17.3222 11.8218 17.3222 11.4906C17.3222 11.1594 17.0534 10.8906 16.7222 10.8906H14.683C14.3518 10.8906 14.083 11.1594 14.083 11.4906C14.083 11.8218 14.351 12.0906 14.683 12.0906Z" fill="#127AFF"/>
<path d="M30.0285 11.4906C30.0285 11.1594 29.7597 10.8906 29.4285 10.8906H19.4613C19.1301 10.8906 18.8613 11.1594 18.8613 11.4906C18.8613 11.8218 19.1301 12.0906 19.4613 12.0906H29.4285C29.7597 12.0906 30.0285 11.8218 30.0285 11.4906Z" fill="#127AFF"/>
<path d="M12.3124 15.3984H10.0404C9.70923 15.3984 9.44043 15.6672 9.44043 15.9984C9.44043 16.3296 9.70923 16.5984 10.0404 16.5984H12.3124C12.6436 16.5984 12.9124 16.3296 12.9124 15.9984C12.9124 15.6672 12.6436 15.3984 12.3124 15.3984Z" fill="#127AFF"/>
<path d="M12.3124 19.3008H10.0404C9.70923 19.3008 9.44043 19.5696 9.44043 19.9008C9.44043 20.232 9.70923 20.5008 10.0404 20.5008H12.3124C12.6436 20.5008 12.9124 20.232 12.9124 19.9008C12.9124 19.5696 12.6436 19.3008 12.3124 19.3008Z" fill="#127AFF"/>
<path d="M24.2453 15.9984C24.2453 15.6672 23.9765 15.3984 23.6453 15.3984H15.8197C15.4885 15.3984 15.2197 15.6672 15.2197 15.9984C15.2197 16.3296 15.4885 16.5984 15.8197 16.5984H23.6453C23.9765 16.5984 24.2453 16.3296 24.2453 15.9984Z" fill="#127AFF"/>
<path d="M30.5654 15.3984H27.4262C27.095 15.3984 26.8262 15.6672 26.8262 15.9984C26.8262 16.3296 27.095 16.5984 27.4262 16.5984H30.5654C30.8966 16.5984 31.1654 16.3296 31.1654 15.9984C31.1654 15.6672 30.8966 15.3984 30.5654 15.3984Z" fill="#127AFF"/>
<path d="M15.8188 19.3008C15.4876 19.3008 15.2188 19.5696 15.2188 19.9008C15.2188 20.232 15.4876 20.5008 15.8188 20.5008H18.1188C18.45 20.5008 18.7188 20.232 18.7188 19.9008C18.7188 19.5696 18.45 19.3008 18.1188 19.3008H15.8188Z" fill="#127AFF"/>
<path d="M30.5644 19.3008H21.35C21.0188 19.3008 20.75 19.5696 20.75 19.9008C20.75 20.232 21.0188 20.5008 21.35 20.5008H30.5652C30.8964 20.5008 31.1652 20.232 31.1652 19.9008C31.1652 19.5696 30.8956 19.3008 30.5644 19.3008Z" fill="#127AFF"/>
<path d="M10.915 23.4531H8.64297C8.31177 23.4531 8.04297 23.7219 8.04297 24.0531C8.04297 24.3843 8.31177 24.6531 8.64297 24.6531H10.915C11.2462 24.6531 11.515 24.3843 11.515 24.0531C11.515 23.7219 11.2462 23.4531 10.915 23.4531Z" fill="#127AFF"/>
<path d="M10.915 27.3594H8.64297C8.31177 27.3594 8.04297 27.6282 8.04297 27.9594C8.04297 28.2906 8.31177 28.5594 8.64297 28.5594H10.915C11.2462 28.5594 11.515 28.2906 11.515 27.9594C11.515 27.6282 11.2462 27.3594 10.915 27.3594Z" fill="#127AFF"/>
<path d="M14.4203 24.6531H15.8187C16.1499 24.6531 16.4187 24.3843 16.4187 24.0531C16.4187 23.7219 16.1499 23.4531 15.8187 23.4531H14.4203C14.0891 23.4531 13.8203 23.7219 13.8203 24.0531C13.8203 24.3843 14.0891 24.6531 14.4203 24.6531Z" fill="#127AFF"/>
<path d="M29.1665 23.4531H19.6049C19.2737 23.4531 19.0049 23.7219 19.0049 24.0531C19.0049 24.3843 19.2737 24.6531 19.6049 24.6531H29.1665C29.4977 24.6531 29.7665 24.3843 29.7665 24.0531C29.7665 23.7219 29.4977 23.4531 29.1665 23.4531Z" fill="#127AFF"/>
<path d="M29.1667 27.3594H14.4203C14.0891 27.3594 13.8203 27.6282 13.8203 27.9594C13.8203 28.2906 14.0891 28.5594 14.4203 28.5594H29.1667C29.4979 28.5594 29.7667 28.2906 29.7667 27.9594C29.7667 27.6282 29.4979 27.3594 29.1667 27.3594Z" fill="#127AFF"/>
<path d="M41.7311 23.4531H34.5951C34.2639 23.4531 33.9951 23.7219 33.9951 24.0531C33.9951 24.3843 34.2639 24.6531 34.5951 24.6531H41.7311C42.0623 24.6531 42.3311 24.3843 42.3311 24.0531C42.3311 23.7219 42.0623 23.4531 41.7311 23.4531Z" fill="#127AFF"/>
<path d="M38.3719 27.3594H34.5951C34.2639 27.3594 33.9951 27.6282 33.9951 27.9594C33.9951 28.2906 34.2639 28.5594 34.5951 28.5594H38.3719C38.7031 28.5594 38.9719 28.2906 38.9719 27.9594C38.9719 27.6282 38.7031 27.3594 38.3719 27.3594Z" fill="#127AFF"/>
<path d="M42.6538 8.61332C42.3834 8.41892 42.009 8.48132 41.8162 8.74932L37.9882 14.0573C37.7946 14.3261 37.8554 14.7013 38.1242 14.8949C38.3946 15.0893 38.769 15.0261 38.9618 14.7589L42.7898 9.45092C42.9834 9.18212 42.9226 8.80692 42.6538 8.61332Z" fill="#127AFF"/>
<path d="M43.7229 11.3789C43.4885 11.1445 43.1085 11.1445 42.8741 11.3789C42.6397 11.6133 42.6397 11.9933 42.8741 12.2277L43.6933 13.0469L42.8741 13.8645C42.6397 14.0989 42.6397 14.4789 42.8733 14.7141C43.1077 14.9485 43.4877 14.9485 43.7229 14.7149L44.9677 13.4725C45.0805 13.3597 45.1437 13.2069 45.1437 13.0477C45.1437 12.8893 45.0805 12.7357 44.9677 12.6237L43.7229 11.3789Z" fill="#127AFF"/>
<path d="M37.9991 11.1614L37.1799 10.3438L37.9991 9.5246C38.2335 9.2902 38.2335 8.9102 37.9991 8.6758C37.7647 8.4414 37.3847 8.4414 37.1503 8.6758L35.9055 9.9206C35.7927 10.0334 35.7295 10.1862 35.7295 10.3446C35.7295 10.5038 35.7927 10.6574 35.9055 10.7694L37.1503 12.0118C37.3855 12.2454 37.7655 12.2454 37.9999 12.011C38.2335 11.775 38.2335 11.3958 37.9991 11.1614Z" fill="#127AFF"/>
<path d="M28.9604 48.7938H30.2452C30.5764 48.7938 30.8452 48.525 30.8452 48.1938C30.8452 47.8626 30.5764 47.5938 30.2452 47.5938H28.9604C28.6292 47.5938 28.3604 47.8626 28.3604 48.1938C28.3604 48.525 28.6292 48.7938 28.9604 48.7938Z" fill="#127AFF"/>
</svg>
