<svg width="57" height="56" viewBox="0 0 57 56" fill="none" xmlns="http://www.w3.org/2000/svg">
<path d="M54.1018 45.6582H51.4531V20.9375H49.6874V45.6582H7.30902V27.1177H5.54325V45.6582H2.8946C2.40703 45.6582 2.01172 46.0535 2.01172 46.5411V50.0726C2.01172 51.5354 3.19766 52.7213 4.66037 52.7213H52.336C53.7988 52.7213 54.9847 51.5354 54.9847 50.0726V46.5411C54.9847 46.0535 54.5894 45.6582 54.1018 45.6582ZM24.9666 47.424H32.0298V48.3069H24.9666V47.424ZM53.219 50.0726C53.219 50.5602 52.8236 50.9555 52.336 50.9555H4.66037C4.1728 50.9555 3.77748 50.5602 3.77748 50.0726V47.424H23.2009V48.3069C23.2009 49.282 23.9916 50.0726 24.9666 50.0726H32.0298C33.0048 50.0726 33.7955 49.282 33.7955 48.3069V47.424H53.219V50.0726Z" fill="#127AFF"/>
<path d="M23.207 12.1094H29.3872V13.8751H23.207V12.1094Z" fill="#127AFF"/>
<path d="M22.87 34.3644C20.9775 34.9118 19.673 36.6427 19.6687 38.6128V42.1267H10.8398V43.8924H46.1552V42.1267H37.3263V38.6128C37.322 36.6427 36.018 34.9118 34.1259 34.3644L31.1461 33.5134V32.3921C32.2536 31.5653 32.908 30.2655 32.9119 28.8834V28.0005C33.3995 28.0005 33.7948 27.6053 33.7948 27.1177V26.2348C33.7948 23.3094 31.4229 20.9375 28.4975 20.9375C25.5721 20.9375 23.2002 23.3094 23.2002 26.2348V27.1177C23.2002 27.6053 23.5955 28.0005 24.0831 28.0005V28.8834C24.0869 30.2655 24.7414 31.5653 25.8488 32.3921V33.5134L22.87 34.3644ZM35.5606 38.6128V42.1267H33.7948V38.5951H32.029V42.1267H24.966V38.5951H23.2002V42.1267H21.4344V38.6128C21.4366 37.4303 22.219 36.3914 23.3546 36.062L25.2751 35.515L27.9677 37.5355C28.2815 37.7713 28.7135 37.7713 29.0274 37.5355L31.72 35.515L33.6405 36.0629C34.776 36.3918 35.558 37.4308 35.5606 38.6128ZM28.4975 22.7032C30.4383 22.7032 32.0153 24.2694 32.029 26.2102C31.776 26.149 31.5626 25.9787 31.4462 25.7455L31.0535 24.9583C30.9405 24.7311 30.7353 24.5639 30.4905 24.4988C30.2451 24.4333 29.9844 24.4768 29.7731 24.6173L28.4596 25.4933C27.7344 25.9774 26.8822 26.2356 26.0105 26.2348H24.966C24.966 24.2846 26.5472 22.7032 28.4975 22.7032ZM26.0105 28.0005C27.231 28.0018 28.4238 27.6402 29.4386 26.9625L29.9223 26.64C30.2003 27.1306 30.6297 27.5177 31.1461 27.7436V28.8834C31.1461 30.3462 29.9602 31.5321 28.4975 31.5321C27.0348 31.5321 25.8488 30.3462 25.8488 28.8834V28.0005H26.0105ZM28.4975 33.2978C28.7941 33.2983 29.0899 33.2685 29.3804 33.2095V34.1807C29.3834 34.4321 29.4942 34.6701 29.6852 34.8343L28.4975 35.7258L27.3098 34.8343C27.5008 34.6701 27.6116 34.4321 27.6146 34.1807V33.2095C27.9052 33.2685 28.2009 33.2983 28.4975 33.2978Z" fill="#127AFF"/>
<path d="M33.801 19.1712H36.4496V22.7027C36.4496 23.0778 36.6863 23.4119 37.0402 23.536C37.1342 23.5684 37.233 23.5852 37.3325 23.5856C37.6007 23.5856 37.8546 23.464 38.0219 23.2545L41.2878 19.1712H51.4586C52.9214 19.1712 54.1073 17.9852 54.1073 16.5226V5.92794C54.1073 4.46524 52.9214 3.2793 51.4586 3.2793H33.801C32.3383 3.2793 31.1523 4.46524 31.1523 5.92794V16.5226C31.1523 17.9852 32.3383 19.1712 33.801 19.1712ZM32.9181 5.92794C32.9181 5.44037 33.3134 5.04507 33.801 5.04507H51.4586C51.9462 5.04507 52.3415 5.44037 52.3415 5.92794V16.5226C52.3415 17.0101 51.9462 17.4054 51.4586 17.4054H40.864C40.5959 17.4054 40.342 17.527 40.1747 17.7365L38.2154 20.1856V18.2883C38.2154 17.8007 37.8201 17.4054 37.3325 17.4054H33.801C33.3134 17.4054 32.9181 17.0101 32.9181 16.5226V5.92794Z" fill="#127AFF"/>
<path d="M36.4492 6.81055H48.8096V8.57631H36.4492V6.81055Z" fill="#127AFF"/>
<path d="M36.4492 10.3418H48.8096V12.1075H36.4492V10.3418Z" fill="#127AFF"/>
<path d="M36.4492 13.875H48.8096V15.6407H36.4492V13.875Z" fill="#127AFF"/>
<path d="M11.7234 26.234C17.0871 26.234 21.4352 21.886 21.4352 16.5222C21.4352 11.1586 17.0871 6.81055 11.7234 6.81055C6.35975 6.81055 2.01172 11.1586 2.01172 16.5222C2.01819 21.8833 6.36233 26.2275 11.7234 26.234ZM19.6172 15.6394H16.997C16.9565 14.7492 16.8461 13.8637 16.6668 12.9908H18.8305C19.2469 13.8202 19.5133 14.7168 19.6172 15.6394ZM10.8406 21.8195V24.1733C10.0594 23.5685 9.46966 22.7512 9.14203 21.8195H10.8406ZM8.5829 20.0538C8.38201 19.1834 8.25872 18.2971 8.21475 17.4051H10.8406V20.0538H8.5829ZM12.6063 24.1733V21.8195H14.3049C13.9772 22.7512 13.3874 23.5685 12.6063 24.1733ZM12.6063 20.0538V17.4051H15.2321C15.1881 18.2971 15.0649 19.1834 14.8639 20.0538H12.6063ZM16.997 17.4051H19.6172C19.5133 18.3277 19.2469 19.2244 18.8305 20.0538H16.6677C16.847 19.1808 16.9569 18.2954 16.997 17.4051ZM15.2313 15.6394H12.6063V12.9908H14.8639C15.0649 13.8611 15.1881 14.7474 15.2321 15.6394H15.2313ZM12.6063 11.2249V8.87118C13.3874 9.47601 13.9772 10.2934 14.3049 11.2249H12.6063ZM10.8406 8.87118V11.2249H9.14203C9.46966 10.2934 10.0594 9.47601 10.8406 8.87118ZM10.8406 12.9908V15.6394H8.21475C8.25872 14.7474 8.38201 13.8611 8.5829 12.9908H10.8406ZM6.44985 15.6394H3.82965C3.93354 14.7168 4.19996 13.8202 4.61639 12.9908H6.7792C6.59987 13.8637 6.48993 14.7492 6.44985 15.6394ZM6.44985 17.4051C6.48993 18.2954 6.59987 19.1808 6.7792 20.0538H4.61639C4.19996 19.2244 3.93354 18.3277 3.82965 17.4051H6.44985ZM5.81786 21.8195H7.26419C7.47067 22.4214 7.73192 23.0033 8.0436 23.5582C7.20426 23.1154 6.4507 22.5266 5.81786 21.8195ZM15.4033 23.5582C15.7149 23.0033 15.9762 22.4214 16.1827 21.8195H17.629C16.9962 22.5266 16.2426 23.1154 15.4033 23.5582ZM17.629 11.2249H16.1827C15.9762 10.6232 15.7149 10.0412 15.4033 9.48636C16.2426 9.92909 16.9962 10.518 17.629 11.2249ZM8.0436 9.48636C7.73192 10.0412 7.47067 10.6232 7.26419 11.2249H5.81786C6.4507 10.518 7.20426 9.92909 8.0436 9.48636Z" fill="#127AFF"/>
<path d="M44.3952 29.7658V27.1172H42.6294V28.8829H36.4492V30.6487H43.5123C43.9998 30.6487 44.3952 30.2533 44.3952 29.7658Z" fill="#127AFF"/>
<path d="M42.6289 23.5859H44.3946V25.3517H42.6289V23.5859Z" fill="#127AFF"/>
<path d="M10.8398 28H12.6056V29.7657H10.8398V28Z" fill="#127AFF"/>
<path d="M10.8398 34.1799C10.8398 34.6675 11.2352 35.0628 11.7228 35.0628H17.02V33.297H12.6056V31.5312H10.8398V34.1799Z" fill="#127AFF"/>
<path d="M39.0977 38.5938H40.8634V40.3595H39.0977V38.5938Z" fill="#127AFF"/>
<path d="M39.0977 35.0625H40.8634V36.8282H39.0977V35.0625Z" fill="#127AFF"/>
</svg>
