<svg width="56" height="56" viewBox="0 0 56 56" fill="none" xmlns="http://www.w3.org/2000/svg">
<path d="M47.8282 49.6141H11.2235C10.7349 49.6141 10.3389 49.2181 10.3389 48.7295V38.7984C10.3389 38.3098 10.7349 37.9139 11.2235 37.9139C11.7121 37.9139 12.1081 38.3098 12.1081 38.7984V47.8449H46.9437V4.56989H32.2487C31.7601 4.56989 31.3641 4.17394 31.3641 3.68529C31.3641 3.19673 31.7601 2.80078 32.2487 2.80078H47.8282C48.3169 2.80078 48.7129 3.19674 48.7129 3.68529V48.7295C48.7129 49.2181 48.3169 49.6141 47.8282 49.6141Z" fill="#127AFF"/>
<path d="M51.9953 53.2H15.3904C14.9018 53.2 14.5059 52.804 14.5059 52.3154V48.7288C14.5059 48.2402 14.9018 47.8442 15.3904 47.8442H46.9438V7.27131C46.9438 6.78267 47.3398 6.38672 47.8283 6.38672H51.9952C52.4838 6.38672 52.8797 6.78267 52.8797 7.27131V52.3154C52.8798 52.804 52.4838 53.2 51.9953 53.2ZM16.275 51.4309H51.1106V8.15581H48.713V48.7288C48.713 49.2173 48.317 49.6134 47.8283 49.6134H16.275V51.4309Z" fill="#127AFF"/>
<path d="M23.3532 36.0168C16.9148 36.0168 11.6768 30.7788 11.6768 24.3404C11.6768 17.902 16.9148 12.6641 23.3532 12.6641C29.7916 12.6641 35.0296 17.902 35.0296 24.3404C35.0296 30.7788 29.7916 36.0168 23.3532 36.0168ZM23.3532 14.4332C17.8902 14.4332 13.446 18.8775 13.446 24.3404C13.446 29.8033 17.8902 34.2477 23.3532 34.2477C28.8161 34.2477 33.2604 29.8033 33.2604 24.3404C33.2604 18.8775 28.8161 14.4332 23.3532 14.4332Z" fill="#127AFF"/>
<path d="M23.3528 40.0568C14.6871 40.0568 7.63672 33.0068 7.63672 24.3411C7.63672 15.6754 14.6871 8.625 23.3528 8.625C32.0184 8.625 39.0685 15.6754 39.0685 24.3411C39.0685 33.0068 32.0184 40.0568 23.3528 40.0568ZM23.3528 10.3942C15.6625 10.3942 9.40583 16.6508 9.40583 24.3411C9.40583 32.0313 15.6625 38.2876 23.3528 38.2876C31.043 38.2876 37.2993 32.0313 37.2993 24.3411C37.2993 16.6508 31.043 10.3942 23.3528 10.3942Z" fill="#127AFF"/>
<path d="M23.3534 44.097C12.46 44.097 3.59766 35.2347 3.59766 24.3416C3.59766 13.4482 12.46 4.58594 23.3534 4.58594C34.2464 4.58594 43.1087 13.4482 43.1087 24.3416C43.1087 35.2347 34.2464 44.097 23.3534 44.097ZM23.3534 6.35503C13.4354 6.35503 5.36677 14.4237 5.36677 24.3416C5.36677 34.2592 13.4354 42.3279 23.3534 42.3279C33.271 42.3279 41.3396 34.2592 41.3396 24.3416C41.3396 14.4237 33.271 6.35503 23.3534 6.35503Z" fill="#127AFF"/>
<path d="M23.3534 19.0274C22.8647 19.0274 22.4688 18.6315 22.4688 18.1428V13.5486C22.4688 13.06 22.8647 12.6641 23.3534 12.6641C23.8419 12.6641 24.2379 13.06 24.2379 13.5486V18.1428C24.2379 18.6315 23.8419 19.0274 23.3534 19.0274Z" fill="#127AFF"/>
<path d="M17.1556 25.2261H12.5614C12.0728 25.2261 11.6768 24.8302 11.6768 24.3416C11.6768 23.853 12.0728 23.457 12.5614 23.457H17.1556C17.6443 23.457 18.0402 23.853 18.0402 24.3416C18.0402 24.8302 17.6443 25.2261 17.1556 25.2261Z" fill="#127AFF"/>
<path d="M23.3534 36.0158C22.8647 36.0158 22.4688 35.6199 22.4688 35.1312V30.5369C22.4688 30.0484 22.8647 29.6523 23.3534 29.6523C23.8419 29.6523 24.2379 30.0484 24.2379 30.5369V35.1312C24.2379 35.6199 23.8419 36.0158 23.3534 36.0158Z" fill="#127AFF"/>
<path d="M34.1451 25.2261H29.5505C29.062 25.2261 28.666 24.8302 28.666 24.3416C28.666 23.853 29.062 23.457 29.5505 23.457H34.1451C34.6338 23.457 35.0297 23.853 35.0297 24.3416C35.0297 24.8302 34.6338 25.2261 34.1451 25.2261Z" fill="#127AFF"/>
<path d="M23.3526 25.2264C23.1262 25.2264 22.9 25.14 22.7272 24.9673L5.56678 7.80687C5.22123 7.46132 5.22123 6.90158 5.56678 6.55604C5.91233 6.21049 6.47206 6.21049 6.81762 6.55604L23.978 23.7165C24.3236 24.062 24.3236 24.6217 23.978 24.9673C23.8052 25.14 23.5789 25.2264 23.3526 25.2264Z" fill="#127AFF"/>
<path d="M8.40757 10.2805C8.36498 10.2805 8.3225 10.2774 8.28003 10.2712L3.87724 9.63024C3.3938 9.56009 3.05897 9.11094 3.1295 8.6275C3.19927 8.14408 3.64778 7.80449 4.13223 7.87976L7.43241 8.36002L7.16465 5.19353C7.12347 4.70675 7.48495 4.27856 7.97147 4.23747C8.46693 4.19704 8.88644 4.55776 8.92753 5.04427L9.28901 9.32139C9.31183 9.59055 9.21057 9.85486 9.01398 10.0401C8.84879 10.1956 8.63144 10.2805 8.40757 10.2805Z" fill="#127AFF"/>
</svg>
