<svg width="56" height="56" viewBox="0 0 56 56" fill="none" xmlns="http://www.w3.org/2000/svg">
<path d="M7.51172 12.8789V36.1951" stroke="#127AFF" stroke-width="1.64062" stroke-miterlimit="10" stroke-linecap="round" stroke-linejoin="round"/>
<path d="M48.488 36.1933V17.3381L32.3803 0.820312H10.3598C8.78703 0.820312 7.51172 2.09562 7.51172 3.66953V9.07944" stroke="#127AFF" stroke-width="1.64062" stroke-miterlimit="10" stroke-linecap="round" stroke-linejoin="round"/>
<path d="M48.4883 17.3386H35.2288C33.6554 17.3386 32.3799 16.063 32.3799 14.4897V0.820312L48.4883 17.3386Z" stroke="#127AFF" stroke-width="1.64062" stroke-miterlimit="10" stroke-linecap="round" stroke-linejoin="round"/>
<path d="M43.5572 55.1813H50.6467C51.9505 55.1813 53.0074 54.1243 53.0074 52.8205V38.5561C53.0074 37.2522 51.9504 36.1953 50.6467 36.1953H5.35294C4.04908 36.1953 2.99219 37.2523 2.99219 38.5561V52.8205C2.99219 54.1244 4.04919 55.1813 5.35294 55.1813H39.5717" stroke="#127AFF" stroke-width="1.64062" stroke-miterlimit="10" stroke-linecap="round" stroke-linejoin="round"/>
<path d="M29.6314 22.6641L26.3672 30.871" stroke="#127AFF" stroke-width="1.64062" stroke-miterlimit="10" stroke-linecap="round" stroke-linejoin="round"/>
<path d="M35.1045 23.0547L37.2965 26.6904L35.1045 30.4746" stroke="#127AFF" stroke-width="1.64062" stroke-miterlimit="10" stroke-linecap="round" stroke-linejoin="round"/>
<path d="M20.8951 23.0547L18.7031 26.6904L20.8951 30.4746" stroke="#127AFF" stroke-width="1.64062" stroke-miterlimit="10" stroke-linecap="round" stroke-linejoin="round"/>
<path d="M12.6875 50.1846L14.2931 41.2889C14.3333 41.0805 14.6238 41.0611 14.6914 41.2622L17.3032 50.1152C17.3666 50.3038 17.6338 50.3024 17.6951 50.1133L20.2179 41.2637C20.2834 41.0621 20.574 41.0785 20.6163 41.2863L22.3169 50.1847" stroke="#127AFF" stroke-width="1.64062" stroke-miterlimit="10" stroke-linecap="round" stroke-linejoin="round"/>
<path d="M26.3906 41.1172L29.5138 50.1149C29.5792 50.2991 29.8404 50.2974 29.9033 50.1123L32.886 41.134" stroke="#127AFF" stroke-width="1.64062" stroke-miterlimit="10" stroke-linecap="round" stroke-linejoin="round"/>
<path d="M38.1406 41.1172V50.2521" stroke="#127AFF" stroke-width="1.64062" stroke-miterlimit="10" stroke-linecap="round" stroke-linejoin="round"/>
<path d="M43.3125 43.695C43.3125 45.1188 42.1079 46.2729 40.6841 46.2729C39.978 46.2729 38.1583 46.2843 38.1583 46.2843C38.1583 46.2843 38.147 44.4127 38.147 43.695C38.147 43.1056 38.1406 41.1172 38.1406 41.1172C38.1406 41.1172 39.8498 41.1172 40.6841 41.1172C42.1079 41.1172 43.3125 42.2714 43.3125 43.695Z" stroke="#127AFF" stroke-width="1.64062" stroke-miterlimit="10" stroke-linecap="round" stroke-linejoin="round"/>
</svg>
