<svg width="56" height="56" viewBox="0 0 56 56" fill="none" xmlns="http://www.w3.org/2000/svg">
<path d="M25.1999 7.46823H30.7999C31.3154 7.46823 31.7333 7.05036 31.7333 6.5349C31.7333 6.01943 31.3154 5.60156 30.7999 5.60156H25.1999C24.6845 5.60156 24.2666 6.01943 24.2666 6.5349C24.2666 7.05036 24.6845 7.46823 25.1999 7.46823Z" fill="#127AFF"/>
<path d="M41.0671 7.46823H51.3338C51.8493 7.46823 52.2671 7.05036 52.2671 6.5349C52.2671 6.01943 51.8493 5.60156 51.3338 5.60156H41.0671C40.5517 5.60156 40.1338 6.01943 40.1338 6.5349C40.1338 7.05036 40.5517 7.46823 41.0671 7.46823Z" fill="#127AFF"/>
<path d="M51.3333 1.86719H4.66667C2.09062 1.87027 0.00308571 3.9578 0 6.53385V42.0005C0.00308571 44.5766 2.09062 46.6641 4.66667 46.6672H13.0741C16.5908 51.3669 22.1172 54.1339 27.9869 54.1339C33.8567 54.1339 39.3831 51.3669 42.8997 46.6672H51.3333C53.9094 46.6641 55.9969 44.5766 56 42.0005V6.53385C55.9969 3.9578 53.9094 1.87027 51.3333 1.86719ZM4.66667 3.73385H51.3333C52.8797 3.73385 54.1333 4.98746 54.1333 6.53385V9.33385H1.86667V6.53385C1.86667 4.98746 3.12027 3.73385 4.66667 3.73385ZM28 52.2672C22.6266 52.254 17.5803 49.6839 14.4097 45.3456C14.1723 45.0274 14.1622 44.5937 14.3845 44.2648C14.406 44.2424 14.4284 44.2181 14.448 44.1948C14.6183 43.9817 14.877 43.8585 15.1499 43.8607H15.1741C15.4832 43.8709 15.7699 44.0244 15.9497 44.276C16.5092 45.0381 17.1402 45.7451 17.8341 46.3872L17.8509 46.4021C23.5635 51.7313 32.4251 51.7338 38.1407 46.4077C38.1519 46.3975 38.1631 46.3872 38.1733 46.376C40.1955 44.5032 41.6574 42.1052 42.3957 39.4497C42.4736 39.1687 42.4156 38.8674 42.2391 38.6354C42.0625 38.4033 41.7876 38.2671 41.496 38.2672H40.1688L40.1548 38.1207L42.6748 35.05C42.694 35.0268 42.7117 35.0025 42.728 34.9772L43.8825 33.6117L47.5785 38.1197L48.3 37.528L47.5701 38.2653H45.3301C44.8902 38.2657 44.5102 38.5733 44.4183 39.0036C42.7305 46.7263 35.905 52.2403 28 52.2672ZM21.3323 46.6672H34.7088C30.5973 49.1561 25.4438 49.1561 21.3323 46.6672ZM51.3333 44.8005H44.1467C45.001 43.341 45.6498 41.7707 46.0749 40.1339H47.5683C48.3023 40.1339 48.9693 39.7072 49.2772 39.0409C49.6122 38.3514 49.5145 37.5298 49.0271 36.9381L45.3311 32.4301C44.9743 31.9927 44.4396 31.739 43.8751 31.7395C43.3111 31.7387 42.7764 31.9908 42.4181 32.4264L41.2412 33.8563C41.2197 33.8833 41.1992 33.9104 41.1805 33.9393L38.7184 36.9409C38.2335 37.5331 38.1366 38.353 38.4701 39.0419C38.7772 39.7049 39.44 40.1305 40.1707 40.1339H40.208C39.5312 41.894 38.4804 43.4863 37.128 44.8005H18.8991C18.3727 44.2995 17.8891 43.7553 17.4533 43.1737C16.9345 42.4547 16.11 42.0188 15.2236 41.9949C14.3977 41.9659 13.6036 42.315 13.0667 42.9432C13.0452 42.9647 13.0228 42.9889 13.0032 43.0123C12.5903 43.5164 12.3662 44.1488 12.3695 44.8005H4.66667C3.12027 44.8005 1.86667 43.5469 1.86667 42.0005V11.2005H54.1333V42.0005C54.1333 43.5469 52.8797 44.8005 51.3333 44.8005Z" fill="#127AFF"/>
<path d="M4.66673 7.46823C5.1822 7.46823 5.60007 7.05036 5.60007 6.5349C5.60007 6.01943 5.1822 5.60156 4.66673 5.60156C4.15127 5.60156 3.7334 6.01943 3.7334 6.5349C3.7334 7.05036 4.15127 7.46823 4.66673 7.46823Z" fill="#127AFF"/>
<path d="M8.40013 7.46823C8.9156 7.46823 9.33346 7.05036 9.33346 6.5349C9.33346 6.01943 8.9156 5.60156 8.40013 5.60156C7.88466 5.60156 7.4668 6.01943 7.4668 6.5349C7.4668 7.05036 7.88466 7.46823 8.40013 7.46823Z" fill="#127AFF"/>
<path d="M12.1335 7.46823C12.649 7.46823 13.0669 7.05036 13.0669 6.5349C13.0669 6.01943 12.649 5.60156 12.1335 5.60156C11.6181 5.60156 11.2002 6.01943 11.2002 6.5349C11.2002 7.05036 11.6181 7.46823 12.1335 7.46823Z" fill="#127AFF"/>
<path d="M28 16.801C19.1146 16.7604 11.4458 23.0206 9.70671 31.7343H8.43738C7.70366 31.7344 7.03676 32.1605 6.72844 32.8263C6.39469 33.5164 6.49232 34.3375 6.97858 34.93L10.6746 39.439C11.033 39.8757 11.5683 40.1289 12.1334 40.1289C12.6984 40.1289 13.2337 39.8757 13.5922 39.439L17.29 34.9282C17.775 34.336 17.8719 33.5161 17.5383 32.8272C17.2303 32.1611 16.5633 31.7345 15.8294 31.7343H15.4747C16.9205 26.8867 21.0345 23.309 26.0359 22.5501C31.0373 21.7911 36.0274 23.9872 38.8463 28.1876C39.3456 28.9406 40.1744 29.4099 41.077 29.4504C41.9481 29.4959 42.7885 29.1224 43.3384 28.4452L43.3431 28.4396L43.3478 28.4331C44.1339 27.4805 44.1996 26.1243 43.5092 25.1002C40.0565 19.91 34.2337 16.7942 28 16.801ZM41.9002 27.2543C41.7233 27.478 41.4485 27.6014 41.1638 27.5847C40.8511 27.5691 40.5647 27.4046 40.3938 27.1423C37.0375 22.145 31.0088 19.6515 25.1031 20.818C19.1974 21.9845 14.5696 26.5828 13.3654 32.481C13.3093 32.7556 13.3797 33.0409 13.557 33.258C13.7343 33.4751 13.9997 33.601 14.28 33.601H15.8312L15.8452 33.7484L12.1175 38.2564L8.42151 33.7484L7.70004 34.3402L8.43738 33.601H10.4907C10.9497 33.6012 11.3408 33.2675 11.4128 32.8142C12.5007 25.9916 17.6567 20.5319 24.406 19.0558C31.1552 17.5797 38.1197 20.3887 41.9562 26.1343C42.1839 26.477 42.1627 26.9279 41.9039 27.2478L42.6263 27.8395L41.9002 27.2543Z" fill="#127AFF"/>
<path d="M4.66673 15.8667H6.5334C7.04886 15.8667 7.46673 15.4488 7.46673 14.9333C7.46673 14.4179 7.04886 14 6.5334 14H4.66673C4.15127 14 3.7334 14.4179 3.7334 14.9333C3.7334 15.4488 4.15127 15.8667 4.66673 15.8667Z" fill="#127AFF"/>
<path d="M10.2663 15.8667H18.6663C19.1818 15.8667 19.5997 15.4488 19.5997 14.9333C19.5997 14.4179 19.1818 14 18.6663 14H10.2663C9.75088 14 9.33301 14.4179 9.33301 14.9333C9.33301 15.4488 9.75088 15.8667 10.2663 15.8667Z" fill="#127AFF"/>
<path d="M13.0667 18.6677C13.0667 18.1522 12.6489 17.7344 12.1334 17.7344H4.66673C4.15127 17.7344 3.7334 18.1522 3.7334 18.6677C3.7334 19.1832 4.15127 19.601 4.66673 19.601H12.1334C12.6489 19.601 13.0667 19.1832 13.0667 18.6677Z" fill="#127AFF"/>
<path d="M51.3332 14H49.4665C48.9511 14 48.5332 14.4179 48.5332 14.9333C48.5332 15.4488 48.9511 15.8667 49.4665 15.8667H51.3332C51.8487 15.8667 52.2665 15.4488 52.2665 14.9333C52.2665 14.4179 51.8487 14 51.3332 14Z" fill="#127AFF"/>
<path d="M37.3337 15.8667H45.7337C46.2492 15.8667 46.6671 15.4488 46.6671 14.9333C46.6671 14.4179 46.2492 14 45.7337 14H37.3337C36.8183 14 36.4004 14.4179 36.4004 14.9333C36.4004 15.4488 36.8183 15.8667 37.3337 15.8667Z" fill="#127AFF"/>
<path d="M51.3336 17.7344H43.8669C43.3515 17.7344 42.9336 18.1522 42.9336 18.6677C42.9336 19.1832 43.3515 19.601 43.8669 19.601H51.3336C51.8491 19.601 52.2669 19.1832 52.2669 18.6677C52.2669 18.1522 51.8491 17.7344 51.3336 17.7344Z" fill="#127AFF"/>
</svg>
