<svg width="56" height="56" viewBox="0 0 56 56" fill="none" xmlns="http://www.w3.org/2000/svg">
<path d="M25.7789 3.0813C25.1288 3.83283 24.4981 4.85832 23.9246 6.10449C22.7777 8.59684 21.8773 11.9816 21.8773 15.7466C21.8773 16.0396 21.8839 16.3337 21.8938 16.6267H11.387C7.52411 16.6267 4.38526 19.7656 4.38526 23.6284V45.4983H2.62159C2.13836 45.5002 1.74819 45.8935 1.75001 46.3767V47.2483C1.75001 51.1111 4.88886 54.25 8.75174 54.25H47.2483C51.1112 54.25 54.25 51.1111 54.25 47.2483V46.3767C54.2519 45.8908 53.8575 45.4964 53.3716 45.4983H51.6353V23.6284C51.6353 19.7656 48.5016 16.6267 44.6387 16.6267H34.1079C34.1179 16.3337 34.1245 16.0396 34.1245 15.7466C34.1245 11.9816 33.224 8.59684 32.0771 6.10449C31.5036 4.85832 30.8729 3.83283 30.2229 3.0813C29.5728 2.32976 28.9282 1.75 28.0008 1.75C27.0735 1.75 26.4289 2.32976 25.7789 3.0813ZM4.37501 2.63695V4.37499L2.63922 4.37328C2.15331 4.37138 1.7589 4.76577 1.76079 5.2517C1.76267 5.73495 2.15595 6.12517 2.63922 6.12328L4.37501 6.11134V7.875C4.37312 8.35825 4.76332 8.75153 5.24659 8.75342C5.7325 8.75532 6.1269 8.36092 6.12502 7.875V6.11134L7.89094 6.12328C8.37152 6.12141 8.76063 5.73228 8.76252 5.2517C8.7644 4.76845 8.37417 4.37516 7.89094 4.37328L6.12502 4.375V2.63696C6.12313 2.15371 5.72985 1.76349 5.24659 1.76537C4.766 1.76724 4.37689 2.15637 4.37501 2.63695ZM49.879 2.63524V4.37328H48.1153C47.6293 4.37138 47.235 4.76577 47.2369 5.2517C47.2388 5.73495 47.632 6.12517 48.1153 6.12328H49.879V7.88695C49.8771 8.3702 50.2673 8.76348 50.7505 8.76537C51.2365 8.76729 51.6309 8.37287 51.629 7.88695V6.12329H53.3653C53.8465 6.12235 54.2367 5.73296 54.2386 5.25171C54.2405 4.76779 53.8492 4.37423 53.3653 4.37329H51.629V2.63525C51.6271 2.152 51.2338 1.76178 50.7505 1.76366C50.27 1.76553 49.8808 2.15466 49.879 2.63524ZM28.0005 3.5017C27.9516 3.5017 28.4005 3.65465 28.8995 4.23143C29.3448 4.74623 29.8457 5.51646 30.3179 6.47875C29.873 7.32031 29.0054 7.85771 28.0399 7.87328C27.0461 7.88928 26.1413 7.35033 25.6814 6.48046C26.154 5.51723 26.6577 4.74659 27.1033 4.23143C27.6023 3.65465 28.0494 3.5017 28.0005 3.5017ZM14.8755 8.7517V9.62328H14.004C13.5174 9.62137 13.1227 10.0168 13.1256 10.5034C13.1274 10.9867 13.5207 11.3769 14.004 11.375H14.8755V12.2534C14.8774 12.734 15.2665 13.1231 15.7471 13.125C16.2304 13.1269 16.6237 12.7367 16.6255 12.2534V11.375H17.4971C17.9811 11.3778 18.3754 10.9873 18.3772 10.5034C18.3802 10.0162 17.9844 9.62043 17.4971 9.62329H16.6255V8.75171C16.6275 8.26579 16.2331 7.87139 15.7471 7.87328C15.2639 7.87516 14.8737 8.26844 14.8755 8.7517ZM39.3756 8.7517V9.62328H38.504C38.0174 9.62137 37.6227 10.0168 37.6255 10.5034C37.6274 10.9867 38.0207 11.3769 38.504 11.375H39.3756V12.2534C39.3774 12.734 39.7666 13.1231 40.2471 13.125C40.7304 13.1269 41.1236 12.7367 41.1255 12.2534V11.375H41.9971C42.481 11.3778 42.8754 10.9873 42.8773 10.5034C42.8801 10.0162 42.4844 9.62043 41.9971 9.62329H41.1255V8.75171C41.1275 8.26579 40.733 7.87139 40.2471 7.87328C39.7639 7.87516 39.3736 8.26844 39.3756 8.7517ZM31.0972 8.33812C31.8381 10.4103 32.3738 12.9787 32.3738 15.7466C32.3738 17.1798 32.2237 18.6365 31.9808 20.0481C30.9823 21.2108 29.5266 21.8801 27.9886 21.8767C26.4612 21.8733 25.0149 21.2056 24.022 20.0532C23.779 18.6401 23.629 17.1815 23.629 15.7466C23.629 12.9802 24.1637 10.4131 24.9039 8.34154C25.728 9.16481 26.8663 9.64272 28.0723 9.62328C29.2311 9.60459 30.3089 9.12876 31.0972 8.33812ZM27.9339 11.375C26.5251 11.4112 25.379 12.5797 25.379 13.9966C25.379 15.4359 26.5612 16.6267 28.0005 16.6267C29.4399 16.6267 30.6238 15.4359 30.6238 13.9966C30.6238 12.5572 29.4399 11.375 28.0005 11.375C27.9774 11.375 27.9564 11.3744 27.9339 11.375ZM28.0007 13.125C28.4943 13.125 28.8723 13.503 28.8723 13.9966C28.8723 14.4902 28.4943 14.875 28.0007 14.875C27.5071 14.875 27.1223 14.4902 27.1223 13.9966C27.1223 13.503 27.5071 13.125 28.0007 13.125ZM22.0158 18.3767C22.083 19.017 22.1587 19.5521 22.2516 20.1301C18.6567 20.1581 14.9931 20.1335 11.3756 20.1335C9.45181 20.1335 7.87394 21.7096 7.87394 23.6335V45.4983H6.13762V23.6284C6.13762 20.7048 8.46399 18.3767 11.3876 18.3767L22.0158 18.3767ZM44.6394 18.3767C47.563 18.3767 49.8911 20.7048 49.8911 23.6284V45.4983H48.1274V23.6335C48.1274 21.7097 46.5513 20.1335 44.6274 20.1335C41.0117 20.128 37.3412 20.1441 33.7497 20.1284C33.8562 19.5279 33.9234 18.8966 33.9855 18.3767L44.6394 18.3767ZM22.5884 21.8818C22.7861 22.7662 23.0159 23.6207 23.2702 24.4299C22.4931 24.8027 21.8052 25.3948 21.2929 26.209C21.0859 25.7572 20.9996 25.3238 20.9989 24.8161C20.9989 23.5816 21.6316 22.5038 22.5884 21.8818ZM20.1462 21.8835C19.5797 22.7222 19.249 23.7324 19.249 24.8161C19.2505 26.264 19.8528 27.6483 20.9084 28.6391C21.4105 29.1046 22.2296 28.8407 22.3628 28.1692C22.5384 27.2666 23.0979 26.5269 23.853 26.0996C24.3605 27.4111 24.9945 28.76 25.7209 29.8218C26.0374 30.2783 26.3571 30.6544 26.7087 30.9514C27.0603 31.2484 27.4646 31.5017 28.0007 31.5017C28.5369 31.5017 28.9411 31.2484 29.2927 30.9514C29.6443 30.6544 29.9638 30.2783 30.2805 29.8218C31.1006 28.6065 31.6704 27.3121 32.1484 26.1013C32.9006 26.5287 33.4581 27.2673 33.6335 28.1692C33.7638 28.8471 34.5908 29.1128 35.093 28.6391C36.1486 27.6483 36.7527 26.264 36.7541 24.8161C36.7541 23.7324 36.4213 22.7222 35.8535 21.8835H44.6274C45.612 21.8835 46.3774 22.6489 46.3774 23.6335V45.4983H9.62401V23.6335C9.62401 22.6489 10.3911 21.8835 11.3757 21.8835L20.1462 21.8835ZM33.4131 21.8852C34.3693 22.5077 35.0024 23.5834 35.0024 24.8161C35.0019 25.3238 34.9035 25.7538 34.6965 26.2055C34.2379 25.4242 33.5316 24.8198 32.7295 24.435C32.9841 23.6254 33.215 22.7703 33.4131 21.8852ZM24.6152 22.7517C25.6357 23.3163 26.795 23.6258 27.9888 23.6284C29.1924 23.631 30.3585 23.322 31.3862 22.7534C31.1134 23.7668 30.8033 24.7287 30.4685 25.5903C29.9406 26.9486 29.3572 28.0769 28.8415 28.8203C28.6223 29.1634 28.2038 29.6346 28.0007 29.7278C27.6405 29.5105 27.3522 29.0889 27.1616 28.8203C26.6459 28.0769 26.0608 26.9486 25.533 25.5903C25.1979 24.7282 24.8879 23.7657 24.6152 22.7517ZM17.8083 32.0195C17.6063 31.9126 17.3968 31.8208 17.1811 31.7461C16.2153 31.4114 15.1321 31.4089 14.1255 31.811C12.1122 32.6153 10.989 34.7927 11.497 36.9004C12.005 39.008 13.9954 40.4359 16.154 40.2346C16.639 40.1922 16.9962 39.7621 16.9487 39.2776C16.9027 38.7961 16.4749 38.4432 15.9934 38.4897C14.6879 38.6115 13.503 37.7632 13.1958 36.4885C12.8885 35.2139 13.5607 33.9261 14.7783 33.4397C15.9959 32.9533 17.3646 33.4271 18.0202 34.5625C18.261 34.9857 18.801 35.1309 19.2216 34.8855C19.643 34.6429 19.7857 34.1033 19.5395 33.6841C19.4505 33.5299 19.3519 33.384 19.2471 33.2449C19.2501 32.8475 19.5156 32.5088 19.8999 32.4058C20.2866 32.3022 20.6825 32.4659 20.8826 32.8125C21.1233 33.2316 21.6581 33.3762 22.0772 33.1355C22.4963 32.8949 22.641 32.36 22.4003 31.9409C21.9193 31.1079 21.0263 30.6158 20.0949 30.625C19.88 30.6271 19.6634 30.6564 19.4489 30.7139C18.7304 30.9064 18.1444 31.3915 17.8083 32.0195ZM33.6011 31.9409C33.3603 32.36 33.5051 32.8948 33.9242 33.1355C34.3432 33.3762 34.878 33.2316 35.1187 32.8125C35.3188 32.4658 35.7148 32.3021 36.1014 32.4057C36.4858 32.5088 36.7512 32.8475 36.7542 33.2449C36.6494 33.384 36.5508 33.5299 36.4619 33.6841C36.2155 34.1033 36.3584 34.6429 36.7797 34.8855C37.2003 35.1309 37.7403 34.9857 37.9811 34.5625C38.6367 33.427 40.0055 32.9533 41.2231 33.4397C42.4407 33.9261 43.1128 35.2138 42.8056 36.4885C42.4983 37.7632 41.3135 38.6114 40.008 38.4897C39.5265 38.4431 39.0986 38.796 39.0527 39.2776C39.005 39.7621 39.3622 40.1922 39.8473 40.2346C42.006 40.4359 43.9963 39.008 44.5043 36.9004C45.0123 34.7927 43.8892 32.6153 41.8759 31.811C40.8692 31.4089 39.786 31.4114 38.8202 31.7461C38.6046 31.8208 38.3949 31.9125 38.193 32.0195C37.8569 31.3915 37.271 30.9064 36.5524 30.7138C36.3202 30.6516 36.0859 30.6224 35.8534 30.625C34.9416 30.6349 34.0727 31.1239 33.6011 31.9409ZM26.2507 33.2654C25.7701 33.2672 25.381 33.6564 25.3791 34.1369C25.3791 38.4896 21.8636 41.9966 17.511 41.9966C17.027 41.9985 16.6366 42.3928 16.6394 42.8767C16.6412 43.3573 17.0304 43.7464 17.511 43.7483C22.8094 43.7483 27.1223 39.4354 27.1223 34.1369C27.1204 33.6564 26.7313 33.2672 26.2507 33.2654ZM29.7644 33.2654C29.2811 33.2634 28.8879 33.6537 28.886 34.1369C28.886 39.4354 33.2057 43.7483 38.5041 43.7483C38.9847 43.7464 39.3738 43.3573 39.3757 42.8767C39.3785 42.3928 38.988 41.9984 38.5041 41.9966C34.1514 41.9966 30.6359 38.4896 30.6359 34.1369C30.6341 33.6564 30.245 33.2672 29.7644 33.2654ZM3.50243 47.2483H20.999V48.1728C20.999 49.5877 22.1681 50.7568 23.583 50.7568H32.4184C33.8333 50.7568 35.0024 49.5877 35.0024 48.1728V47.2483H52.5007C52.5007 50.1719 50.1726 52.5 47.249 52.5H8.75243C5.8288 52.5 3.50243 50.1719 3.50243 47.2483ZM22.749 47.2483H33.2524V48.1728C33.2524 48.6485 32.8941 49.0051 32.4184 49.0051H23.583C23.1073 49.0051 22.749 48.6485 22.749 48.1728V47.2483Z" fill="#127AFF"/>
</svg>
