<svg width="56" height="56" viewBox="0 0 56 56" fill="none" xmlns="http://www.w3.org/2000/svg">
<g clip-path="url(#clip0_3426_2518)">
<path d="M43.8626 18.7971C44.5292 19.1893 45.3696 18.7086 45.3696 17.9352V14.9849C45.3696 14.8192 45.5039 14.6849 45.6696 14.6849H48.4246C48.9769 14.6849 49.4246 14.2372 49.4246 13.6849V1C49.4246 0.447716 48.9769 0 48.4246 0H26.9727C26.4204 0 25.9727 0.447715 25.9727 1V13.6849C25.9727 14.2372 26.4204 14.6849 26.9727 14.6849H36.8721L43.8626 18.7971ZM27.6163 1.94404C27.6163 1.77836 27.7506 1.64404 27.9163 1.64404H47.4806C47.6463 1.64404 47.7806 1.77836 47.7806 1.94404V12.7413C47.7806 12.9069 47.6463 13.0413 47.4806 13.0413H44.726C44.1737 13.0413 43.726 13.489 43.726 14.0413V16.2851C43.726 16.5171 43.4739 16.6613 43.2739 16.5436L37.3195 13.0413H27.9163C27.7506 13.0413 27.6163 12.9069 27.6163 12.7413V1.94404Z" fill="#127AFF"/>
<path d="M44.164 25.207C43.71 25.207 43.342 25.5751 43.342 26.0291V26.0291C43.342 26.483 43.71 26.8511 44.164 26.8511H54.0555C54.2212 26.8511 54.3555 26.9854 54.3555 27.1511V43.5371C54.3555 43.7028 54.2212 43.8371 54.0555 43.8371H50.2051C49.6528 43.8371 49.2051 44.2848 49.2051 44.8371V47.2067C49.2051 47.431 48.9678 47.576 48.7682 47.4736L41.6774 43.8371H39.4519C38.9979 43.8371 38.6299 44.2051 38.6299 44.6591V44.6591C38.6299 45.1131 38.9979 45.4811 39.4519 45.4811H41.2805L49.3924 49.6412C50.0578 49.9825 50.8487 49.4992 50.8487 48.7514V45.7811C50.8487 45.6155 50.983 45.4811 51.1487 45.4811H54.9996C55.5519 45.4811 55.9996 45.0334 55.9996 44.4811V26.207C55.9996 25.6547 55.5519 25.207 54.9996 25.207H44.164Z" fill="#127AFF"/>
<path d="M35.0684 47.9171C35.0684 48.0828 34.934 48.2171 34.7684 48.2171H15.9359L8.34519 52.7898C8.14524 52.9103 7.89038 52.7663 7.89038 52.5328V49.2171C7.89038 48.6648 7.44267 48.2171 6.89038 48.2171H1.94404C1.77836 48.2171 1.64404 48.0828 1.64404 47.9171V24.9558C1.64404 24.7901 1.77836 24.6558 1.94404 24.6558H2.8493C3.30329 24.6558 3.67133 24.2877 3.67133 23.8337V23.8337C3.67133 23.3798 3.30329 23.0117 2.8493 23.0117H1C0.447715 23.0117 0 23.4594 0 24.0117V48.8611C0 49.4134 0.447715 49.8611 1 49.8611H5.94676C6.11245 49.8611 6.24677 49.9955 6.24677 50.1611V54.2035C6.24677 54.9816 7.09628 55.4616 7.76278 55.0601L16.393 49.8611H35.7124C36.2647 49.8611 36.7124 49.4134 36.7124 48.8611V33.971C36.7124 33.517 36.3444 33.149 35.8904 33.149V33.149C35.4364 33.149 35.0684 33.517 35.0684 33.971V47.9171Z" fill="#127AFF"/>
<path d="M10.9585 35.6048C10.9585 36.343 11.731 36.8268 12.3952 36.5044L23.2572 31.2319H40.4241C40.9764 31.2319 41.4241 30.7842 41.4241 30.2319V19.925C41.4241 19.4711 41.0562 19.1032 40.6023 19.1032V19.1032C40.1485 19.1032 39.7805 19.4711 39.7805 19.925V29.0878C39.7805 29.364 39.5567 29.5878 39.2805 29.5878H22.994C22.9184 29.5878 22.8437 29.605 22.7757 29.638L13.0336 34.3675C12.8343 34.4643 12.6025 34.3191 12.6025 34.0977V30.5878C12.6025 30.0355 12.1548 29.5878 11.6025 29.5878H7.73248C7.45634 29.5878 7.23248 29.364 7.23248 29.0878V8.71826C7.23248 8.44212 7.45634 8.21826 7.73248 8.21826H23.2324C23.6864 8.21826 24.0544 7.85023 24.0544 7.39624V7.39624C24.0544 6.94225 23.6864 6.57422 23.2324 6.57422H6.58887C6.03658 6.57422 5.58887 7.02193 5.58887 7.57422V30.2319C5.58887 30.7842 6.03658 31.2319 6.58887 31.2319H10.4585C10.7346 31.2319 10.9585 31.4557 10.9585 31.7319V35.6048Z" fill="#127AFF"/>
<path d="M20.3834 11.957C20.3834 11.4047 19.9356 10.957 19.3834 10.957H10.9727C10.4204 10.957 9.97266 11.4047 9.97266 11.957V17.0805C9.97266 17.6328 10.4204 18.0805 10.9727 18.0805H19.3834C19.9356 18.0805 20.3834 17.6328 20.3834 17.0805V11.957ZM18.7397 16.1365C18.7397 16.3021 18.6054 16.4365 18.4397 16.4365H11.9163C11.7506 16.4365 11.6163 16.3021 11.6163 16.1365V12.9011C11.6163 12.7354 11.7506 12.6011 11.9163 12.6011H18.4397C18.6054 12.6011 18.7397 12.7354 18.7397 12.9011V16.1365Z" fill="#127AFF"/>
<path d="M40.4385 4.76733C40.4385 4.31334 40.8065 3.94531 41.2605 3.94531H44.5477C45.0017 3.94531 45.3698 4.31334 45.3698 4.76733V4.76733C45.3698 5.22132 45.0017 5.58936 44.5477 5.58936H41.2605C40.8065 5.58936 40.4385 5.22132 40.4385 4.76733V4.76733Z" fill="#127AFF"/>
<path d="M37.1504 4.76733C37.1504 4.31346 37.5183 3.94531 37.9722 3.94531V3.94531C38.4261 3.94531 38.794 4.31346 38.794 4.76733V4.76733C38.794 5.22121 38.4261 5.58936 37.9722 5.58936V5.58936C37.5183 5.58936 37.1504 5.22121 37.1504 4.76733V4.76733Z" fill="#127AFF"/>
<path d="M30.0273 4.76733C30.0273 4.31334 30.3954 3.94531 30.8494 3.94531H34.6848C35.1387 3.94531 35.5068 4.31334 35.5068 4.76733V4.76733C35.5068 5.22132 35.1387 5.58936 34.6848 5.58936H30.8494C30.3954 5.58936 30.0273 5.22132 30.0273 4.76733V4.76733Z" fill="#127AFF"/>
<path d="M30.0273 9.15015C30.0273 8.69616 30.3954 8.32812 30.8494 8.32812H37.9177C38.3717 8.32812 38.7397 8.69616 38.7397 9.15015V9.15015C38.7397 9.60414 38.3717 9.97217 37.9177 9.97217H30.8494C30.3954 9.97217 30.0273 9.60414 30.0273 9.15015V9.15015Z" fill="#127AFF"/>
<path d="M40.3838 9.15015C40.3838 8.69627 40.7517 8.32812 41.2056 8.32812V8.32812C41.6595 8.32812 42.0274 8.69627 42.0274 9.15015V9.15015C42.0274 9.60402 41.6595 9.97217 41.2056 9.97217V9.97217C40.7517 9.97217 40.3838 9.60402 40.3838 9.15015V9.15015Z" fill="#127AFF"/>
<path d="M47.8359 35.1226C47.8359 34.6687 48.2039 34.3008 48.6577 34.3008H50.8495C51.3034 34.3008 51.6713 34.6687 51.6713 35.1226V35.1226C51.6713 35.5765 51.3034 35.9444 50.8495 35.9444H48.6577C48.2039 35.9444 47.8359 35.5765 47.8359 35.1226V35.1226Z" fill="#127AFF"/>
<path d="M39.6162 35.1226C39.6162 34.6687 39.9841 34.3008 40.438 34.3008H45.3697C45.8236 34.3008 46.1915 34.6687 46.1915 35.1226V35.1226C46.1915 35.5765 45.8236 35.9444 45.3697 35.9444H40.438C39.9841 35.9444 39.6162 35.5765 39.6162 35.1226V35.1226Z" fill="#127AFF"/>
<path d="M45.6436 39.5054C45.6436 39.0515 46.0115 38.6836 46.4654 38.6836V38.6836C46.9192 38.6836 47.2872 39.0515 47.2872 39.5054V39.5054C47.2872 39.9593 46.9192 40.3272 46.4654 40.3272V40.3272C46.0115 40.3272 45.6436 39.9593 45.6436 39.5054V39.5054Z" fill="#127AFF"/>
<path d="M39.6162 39.5054C39.6162 39.0515 39.9841 38.6836 40.438 38.6836H43.1779C43.6318 38.6836 43.9998 39.0515 43.9998 39.5054V39.5054C43.9998 39.9593 43.6318 40.3272 43.1779 40.3272H40.438C39.9841 40.3272 39.6162 39.9593 39.6162 39.5054V39.5054Z" fill="#127AFF"/>
<path d="M5.20508 41.3689C5.20508 40.9149 5.57311 40.5469 6.0271 40.5469H13.1501C13.6041 40.5469 13.9722 40.9149 13.9722 41.3689V41.3689C13.9722 41.8229 13.6041 42.1909 13.1501 42.1909H6.0271C5.57311 42.1909 5.20508 41.8229 5.20508 41.3689V41.3689Z" fill="#127AFF"/>
<path d="M15.6162 41.3689C15.6162 40.9149 15.9842 40.5469 16.4382 40.5469H19.1777C19.6317 40.5469 19.9998 40.9149 19.9998 41.3689V41.3689C19.9998 41.8229 19.6317 42.1909 19.1777 42.1909H16.4382C15.9842 42.1909 15.6162 41.8229 15.6162 41.3689V41.3689Z" fill="#127AFF"/>
<path d="M21.6436 41.3689C21.6436 40.915 22.0115 40.5469 22.4654 40.5469V40.5469C22.9192 40.5469 23.2872 40.915 23.2872 41.3689V41.3689C23.2872 41.8228 22.9192 42.1909 22.4654 42.1909V42.1909C22.0115 42.1909 21.6436 41.8228 21.6436 41.3689V41.3689Z" fill="#127AFF"/>
<path d="M24.9316 41.3689C24.9316 40.9149 25.2997 40.5469 25.7537 40.5469H30.6849C31.1389 40.5469 31.507 40.9149 31.507 41.3689V41.3689C31.507 41.8229 31.1389 42.1909 30.6849 42.1909H25.7537C25.2997 42.1909 24.9316 41.8229 24.9316 41.3689V41.3689Z" fill="#127AFF"/>
<path d="M17.8076 44.658C17.8076 44.204 18.1756 43.8359 18.6296 43.8359V43.8359C19.0836 43.8359 19.4517 44.204 19.4517 44.658V44.658C19.4517 45.1119 19.0836 45.48 18.6296 45.48V45.48C18.1756 45.48 17.8076 45.1119 17.8076 44.658V44.658Z" fill="#127AFF"/>
<path d="M5.20508 44.658C5.20508 44.204 5.57311 43.8359 6.0271 43.8359H15.3419C15.7959 43.8359 16.1639 44.204 16.1639 44.658V44.658C16.1639 45.1119 15.7959 45.48 15.3419 45.48H6.0271C5.57311 45.48 5.20508 45.1119 5.20508 44.658V44.658Z" fill="#127AFF"/>
<path d="M21.0957 44.658C21.0957 44.204 21.4637 43.8359 21.9177 43.8359V43.8359C22.3717 43.8359 22.7397 44.204 22.7397 44.658V44.658C22.7397 45.1119 22.3717 45.48 21.9177 45.48V45.48C21.4637 45.48 21.0957 45.1119 21.0957 44.658V44.658Z" fill="#127AFF"/>
<path d="M22.6299 21.6423C22.6299 21.1883 22.9979 20.8203 23.4519 20.8203V20.8203C23.9059 20.8203 24.2739 21.1883 24.2739 21.6423V21.6423C24.2739 22.0963 23.9059 22.4644 23.4519 22.4644V22.4644C22.9979 22.4644 22.6299 22.0963 22.6299 21.6423V21.6423Z" fill="#127AFF"/>
<path d="M30.8496 21.6423C30.8496 21.1883 31.2176 20.8203 31.6716 20.8203H36.1646C36.6185 20.8203 36.9866 21.1883 36.9866 21.6423V21.6423C36.9866 22.0963 36.6185 22.4644 36.1646 22.4644H31.6716C31.2176 22.4644 30.8496 22.0963 30.8496 21.6423V21.6423Z" fill="#127AFF"/>
<path d="M25.918 21.6423C25.918 21.1883 26.286 20.8203 26.74 20.8203H28.384C28.838 20.8203 29.2061 21.1883 29.2061 21.6423V21.6423C29.2061 22.0963 28.838 22.4644 28.384 22.4644H26.74C26.286 22.4644 25.918 22.0963 25.918 21.6423V21.6423Z" fill="#127AFF"/>
<path d="M10.0273 21.6423C10.0273 21.1883 10.3954 20.8203 10.8494 20.8203H20.1642C20.6182 20.8203 20.9862 21.1883 20.9862 21.6423V21.6423C20.9862 22.0963 20.6182 22.4644 20.1642 22.4644H10.8494C10.3954 22.4644 10.0273 22.0963 10.0273 21.6423V21.6423Z" fill="#127AFF"/>
<path d="M20.5479 26.0291C20.5479 25.5751 20.9159 25.207 21.3699 25.207H29.5888C30.0428 25.207 30.4108 25.5751 30.4108 26.0291V26.0291C30.4108 26.483 30.0428 26.8511 29.5888 26.8511H21.3699C20.9159 26.8511 20.5479 26.483 20.5479 26.0291V26.0291Z" fill="#127AFF"/>
<path d="M17.2607 26.0291C17.2607 25.5752 17.6287 25.207 18.0826 25.207V25.207C18.5364 25.207 18.9044 25.5752 18.9044 26.0291V26.0291C18.9044 26.4829 18.5364 26.8511 18.0826 26.8511V26.8511C17.6287 26.8511 17.2607 26.4829 17.2607 26.0291V26.0291Z" fill="#127AFF"/>
<path d="M10.0273 26.0291C10.0273 25.5751 10.3954 25.207 10.8494 25.207H14.7941C15.2481 25.207 15.6161 25.5751 15.6161 26.0291V26.0291C15.6161 26.483 15.2481 26.8511 14.7941 26.8511H10.8494C10.3954 26.8511 10.0273 26.483 10.0273 26.0291V26.0291Z" fill="#127AFF"/>
</g>
<defs>
<clipPath id="clip0_3426_2518">
<rect width="56" height="56" fill="white"/>
</clipPath>
</defs>
</svg>
