<svg width="56" height="56" viewBox="0 0 56 56" fill="none" xmlns="http://www.w3.org/2000/svg">
<path fill-rule="evenodd" clip-rule="evenodd" d="M28.0006 8.70174C21.645 8.70174 16.4733 13.8734 16.4733 20.229C16.4734 26.5856 21.645 31.7562 28.0005 31.7562C34.3572 31.7562 39.5287 26.5856 39.5287 20.229C39.5288 13.8734 34.3571 8.7018 28.0006 8.70174ZM28.0006 32.9072C21.0105 32.9072 15.3223 27.2201 15.3223 20.229C15.3224 13.2379 21.0104 7.55078 28.0005 7.55078C34.9916 7.55072 40.6788 13.2379 40.6788 20.229C40.6788 27.2201 34.9916 32.9073 28.0006 32.9072Z" fill="#127AFF"/>
<path fill-rule="evenodd" clip-rule="evenodd" d="M24.0858 16.2213H16.7971C16.4793 16.2213 16.2214 15.9636 16.2214 15.6458C16.2215 15.3281 16.4792 15.0703 16.797 15.0703H24.0858C24.4036 15.0703 24.6613 15.3281 24.6613 15.6458C24.6613 15.9635 24.4035 16.2213 24.0858 16.2213ZM26.9923 29.0024C26.5348 29.0024 26.0781 28.8456 25.7214 28.5339L20.5867 24.0267H16.3323C16.0147 24.0267 15.7568 23.7689 15.7568 23.4512C15.7568 23.1335 16.0146 22.8757 16.3323 22.8757H20.8036C20.9435 22.8757 21.0783 22.9267 21.1832 23.0186L26.4808 27.6686C26.7536 27.9074 27.2311 27.9074 27.5029 27.6686C27.6139 27.5717 27.6747 27.4468 27.6747 27.3189C27.6748 27.191 27.6138 27.0671 27.5029 26.9702C27.3731 26.8563 27.307 26.6965 27.307 26.5366C27.3071 26.4017 27.354 26.2668 27.4499 26.1579C27.6598 25.9191 28.0234 25.8951 28.2622 26.105C28.5341 26.3437 29.0126 26.3438 29.2844 26.105C29.3953 26.008 29.4562 25.8842 29.4562 25.7553C29.4562 25.6273 29.3953 25.5034 29.2844 25.4066C29.1546 25.2927 29.0886 25.1338 29.0886 24.9729C29.0886 24.839 29.1355 24.7032 29.2314 24.5942C29.4413 24.3554 29.8049 24.3315 30.0437 24.5413C30.3156 24.78 30.7941 24.7801 31.0659 24.5413C31.1768 24.4443 31.2377 24.3205 31.2377 24.1926C31.2377 24.0637 31.1767 23.9398 31.0659 23.8429C30.9361 23.7289 30.87 23.5701 30.87 23.4102C30.8701 23.2753 30.917 23.1395 31.0129 23.0306C31.2228 22.7918 31.5864 22.7678 31.8252 22.9776C32.098 23.2164 32.5756 23.2174 32.8473 22.9776C32.9553 22.8827 33.0162 22.7618 33.0192 22.6359C33.0213 22.515 32.9682 22.3951 32.8693 22.3002L27.3061 17.3834C27.0683 17.1735 27.0453 16.8098 27.2561 16.5711C27.4659 16.3332 27.8296 16.3113 28.0684 16.5211L33.6397 21.4449C33.6447 21.4489 33.6497 21.4529 33.6546 21.4579C33.9944 21.7796 34.1782 22.2053 34.1692 22.6569C34.1613 23.1105 33.9614 23.5311 33.6067 23.8429C33.2631 24.1446 32.8253 24.3005 32.3837 24.3115C32.3518 24.7261 32.1519 25.1198 31.8252 25.4066C31.4815 25.7083 31.0439 25.8642 30.6022 25.8751C30.5703 26.2898 30.3704 26.6835 30.0437 26.9702C29.7001 27.2719 29.2624 27.4278 28.8208 27.4378C28.7888 27.8525 28.589 28.2471 28.2622 28.5339C27.9055 28.8456 27.4489 29.0025 26.9923 29.0024Z" fill="#127AFF"/>
<path fill-rule="evenodd" clip-rule="evenodd" d="M27.882 27.1133C27.7471 27.1133 27.6112 27.0664 27.5023 26.9705L24.8796 24.6684C24.6408 24.4586 24.6167 24.0949 24.8265 23.8561C25.0363 23.6173 25.3991 23.5933 25.6388 23.8032L28.2617 26.1052C28.5005 26.315 28.5244 26.6787 28.3146 26.9175C28.2007 27.0463 28.0418 27.1133 27.882 27.1133Z" fill="#127AFF"/>
<path fill-rule="evenodd" clip-rule="evenodd" d="M29.6643 25.5469C29.5294 25.5469 29.3935 25.5 29.2845 25.4041L26.6618 23.102C26.423 22.8922 26.399 22.5285 26.6088 22.2897C26.8186 22.0509 27.1813 22.0269 27.4211 22.2368L30.044 24.5388C30.2827 24.7486 30.3067 25.1123 30.0968 25.3511C29.9829 25.481 29.8241 25.5469 29.6643 25.5469Z" fill="#127AFF"/>
<path fill-rule="evenodd" clip-rule="evenodd" d="M31.4455 23.9844C31.3106 23.9844 31.1747 23.9375 31.0658 23.8416L28.4431 21.5395C28.2042 21.3297 28.1802 20.966 28.3901 20.7272C28.5999 20.4884 28.9626 20.4644 29.2024 20.6743L31.8252 22.9762C32.064 23.1861 32.0879 23.5498 31.8781 23.7886C31.7642 23.9185 31.6053 23.9844 31.4455 23.9844Z" fill="#127AFF"/>
<path fill-rule="evenodd" clip-rule="evenodd" d="M22.9972 20.3118C22.6585 20.3118 22.3657 20.2289 22.1209 20.063C21.5105 19.6493 21.3615 18.8131 21.7212 17.8259C22.1359 16.6898 23.13 15.5299 24.3819 14.7216C25.4671 14.0211 27.2755 13.2398 29.7284 13.4946C30.6787 13.5925 31.8906 13.8253 33.2944 14.0951C35.1669 14.4548 37.288 14.8624 39.2334 15.0253C39.5502 15.0523 39.7859 15.3301 39.7589 15.6468C39.733 15.9635 39.4531 16.1983 39.1374 16.1723C37.1312 16.0045 34.978 15.5908 33.0776 15.2261C31.6998 14.9614 30.5098 14.7325 29.6095 14.6396C25.9547 14.26 23.4288 16.505 22.8033 18.2206C22.6295 18.6972 22.6544 19.0349 22.7663 19.1108C23.0251 19.2856 24.344 19.1628 27.3035 16.5221C27.5403 16.3102 27.904 16.3312 28.1158 16.568C28.3276 16.8058 28.3066 17.1695 28.0698 17.3803C25.8978 19.3187 24.1722 20.3118 22.9972 20.3118ZM33.2585 22.451C32.9417 22.451 32.6839 22.1942 32.6829 21.8775C32.6819 21.5598 32.9377 21.301 33.2554 21.3L39.9927 21.269C39.9937 21.269 39.9947 21.269 39.9957 21.269C40.3125 21.269 40.5692 21.5258 40.5712 21.8425C40.5723 22.1602 40.3154 22.4191 39.9977 22.42L33.2615 22.451C33.2605 22.451 33.2594 22.451 33.2585 22.451Z" fill="#127AFF"/>
<path fill-rule="evenodd" clip-rule="evenodd" d="M25.8319 8.89454C25.818 8.89454 25.8039 8.89461 25.79 8.89361C25.4723 8.87061 25.2344 8.59487 25.2574 8.27711C25.4923 5.06481 27.2747 3.0945 30.1462 2.87273C30.3061 2.86068 30.464 2.91568 30.5819 3.02458C30.6999 3.13348 30.7667 3.28637 30.7667 3.4462L30.7667 5.99305C30.7667 6.31078 30.509 6.56856 30.1912 6.56856C29.8736 6.56856 29.6157 6.31081 29.6157 5.99305L29.6157 4.10365C27.2037 4.58124 26.5313 6.64449 26.4054 8.36105C26.3835 8.66379 26.1306 8.89461 25.8319 8.89454Z" fill="#127AFF"/>
<path fill-rule="evenodd" clip-rule="evenodd" d="M22.8225 9.8606C22.5517 9.8606 22.3108 9.66883 22.2579 9.39305C21.6534 6.22871 22.8643 3.86475 25.581 2.90753C25.7329 2.85454 25.8997 2.86658 26.0406 2.94151C26.1825 3.01543 26.2874 3.14633 26.3284 3.30119L26.9879 5.7611C27.0698 6.06888 26.8879 6.3836 26.5812 6.4665C26.2745 6.54844 25.9587 6.36658 25.8758 6.05886L25.3873 4.23444C23.1811 5.31945 23.0652 7.48666 23.3889 9.17722C23.4479 9.48994 23.244 9.79068 22.9313 9.85065C22.8954 9.85763 22.8583 9.86063 22.8225 9.8606Z" fill="#127AFF"/>
<path fill-rule="evenodd" clip-rule="evenodd" d="M20.1691 11.5746C19.9554 11.5746 19.7494 11.4548 19.6505 11.249C18.2468 8.34935 18.8053 5.7526 21.1812 4.12399C21.3141 4.03304 21.478 4.0021 21.6348 4.03808C21.7908 4.07306 21.9256 4.17195 22.0055 4.31085L23.2785 6.51695C23.4373 6.79172 23.3434 7.14446 23.0676 7.30332C22.7929 7.46215 22.4412 7.36727 22.2823 7.09246L21.3372 5.45584C19.4878 7.07547 19.9363 9.1987 20.6866 10.7483C20.8246 11.0341 20.7046 11.3788 20.4189 11.5167C20.338 11.5556 20.253 11.5747 20.1691 11.5746Z" fill="#127AFF"/>
<path fill-rule="evenodd" clip-rule="evenodd" d="M18.0473 13.9172C17.8854 13.9172 17.7255 13.8502 17.6116 13.7183C15.5054 11.2804 15.3725 8.62664 17.2469 6.4395C17.3508 6.31761 17.5007 6.24469 17.6615 6.23868C17.8215 6.23271 17.9773 6.29365 18.0902 6.40652L19.8918 8.20795C20.1165 8.4328 20.1164 8.79651 19.8917 9.02132C19.6669 9.2461 19.3021 9.24613 19.0773 9.02132L17.7415 7.68547C16.3737 9.7287 17.3568 11.6631 18.4828 12.966C18.6907 13.2058 18.6637 13.5694 18.4229 13.7773C18.314 13.8712 18.1801 13.9172 18.0473 13.9172Z" fill="#127AFF"/>
<path fill-rule="evenodd" clip-rule="evenodd" d="M16.6029 16.73C16.4911 16.73 16.3791 16.697 16.2802 16.6301C13.6145 14.8206 12.7991 12.2918 14.0431 9.69398C14.1131 9.54907 14.2389 9.4402 14.3918 9.39324C14.5457 9.34528 14.7115 9.36427 14.8504 9.44417L17.0556 10.717C17.3313 10.8759 17.4252 11.2287 17.2664 11.5034C17.1075 11.7792 16.7558 11.8731 16.48 11.7142L14.8445 10.77C14.0521 13.0971 15.5018 14.7107 16.9266 15.6779C17.1895 15.8567 17.2573 16.2144 17.0795 16.4772C16.9676 16.641 16.7868 16.73 16.6029 16.73Z" fill="#127AFF"/>
<path fill-rule="evenodd" clip-rule="evenodd" d="M15.9365 19.8179C15.8735 19.8179 15.8095 19.808 15.7475 19.786C12.7042 18.7279 11.2633 16.4968 11.7919 13.6652C11.8219 13.5073 11.9148 13.3694 12.0507 13.2835C12.1866 13.1986 12.3514 13.1736 12.5063 13.2146L14.9662 13.874C15.2739 13.956 15.4558 14.2717 15.3738 14.5785C15.2909 14.8861 14.9762 15.068 14.6685 14.9861L12.844 14.4965C12.6811 16.9494 14.4996 18.1334 16.1252 18.6989C16.426 18.8038 16.5848 19.1316 16.4799 19.4313C16.397 19.6691 16.1742 19.818 15.9365 19.8179Z" fill="#127AFF"/>
<path fill-rule="evenodd" clip-rule="evenodd" d="M16.0926 22.9712C16.0787 22.9712 16.0645 22.9703 16.0506 22.9693C12.8373 22.7345 10.867 20.953 10.6452 18.0804C10.6332 17.9206 10.6881 17.7627 10.797 17.6458C10.906 17.5279 11.0588 17.461 11.2197 17.461L13.7666 17.4609C14.0843 17.4609 14.342 17.7187 14.342 18.0365C14.3421 18.3542 14.0843 18.612 13.7665 18.612L11.8772 18.612C12.3548 21.0239 14.417 21.6964 16.1345 21.8213C16.4513 21.8452 16.689 22.121 16.6661 22.4377C16.6442 22.7405 16.3913 22.9713 16.0926 22.9712Z" fill="#127AFF"/>
<path fill-rule="evenodd" clip-rule="evenodd" d="M15.6347 26.1245C13.2438 26.1245 11.4773 24.9066 10.6809 22.6485C10.628 22.4976 10.64 22.3307 10.7149 22.1889C10.7899 22.047 10.9197 21.9431 11.0746 21.9011L13.5356 21.2426C13.8422 21.1597 14.158 21.3426 14.2399 21.6493C14.3219 21.956 14.14 22.2718 13.8332 22.3537L12.0078 22.8433C13.094 25.0494 15.26 25.1643 16.9516 24.8416C17.2634 24.7816 17.5651 24.9865 17.624 25.2992C17.684 25.6109 17.4791 25.9127 17.1674 25.9716C16.6329 26.0745 16.1203 26.1245 15.6347 26.1245Z" fill="#127AFF"/>
<path fill-rule="evenodd" clip-rule="evenodd" d="M16.0208 29.3364C14.3672 29.3364 12.9354 28.5611 11.8982 27.0453C11.8074 26.9134 11.7753 26.7496 11.8113 26.5927C11.8473 26.4368 11.9462 26.302 12.0851 26.2221L14.2903 24.9481C14.5661 24.7893 14.9177 24.8842 15.0766 25.159C15.2355 25.4347 15.1415 25.7864 14.8657 25.9453L13.2301 26.8895C14.8488 28.7399 16.9719 28.2903 18.5216 27.541C18.8074 27.402 19.1521 27.5219 19.29 27.8087C19.4289 28.0944 19.309 28.4382 19.0232 28.577C17.9721 29.0856 16.96 29.3364 16.0208 29.3364Z" fill="#127AFF"/>
<path fill-rule="evenodd" clip-rule="evenodd" d="M17.5242 32.2972C16.3642 32.2972 15.2371 31.8596 14.211 30.9814C14.0892 30.8774 14.0161 30.7266 14.0102 30.5667C14.0042 30.4058 14.0651 30.251 14.179 30.1371L15.9796 28.3366C16.2044 28.1117 16.569 28.1118 16.7938 28.3366C17.0176 28.5614 17.0176 28.9251 16.7938 29.1499L15.458 30.4857C17.5003 31.8546 19.4345 30.8705 20.7375 29.7454C20.9783 29.5376 21.3419 29.5645 21.5487 29.8043C21.7566 30.0451 21.7306 30.4088 21.4898 30.6167C20.195 31.7357 18.839 32.2972 17.5242 32.2972Z" fill="#127AFF"/>
<path fill-rule="evenodd" clip-rule="evenodd" d="M19.8186 34.7565C19.0532 34.7565 18.2618 34.5687 17.4645 34.187C17.3207 34.1181 17.2107 33.9912 17.1637 33.8383C17.1158 33.6854 17.1348 33.5196 17.2147 33.3807L18.4887 31.1746C18.6475 30.8998 18.9992 30.8049 19.275 30.9638C19.5498 31.1236 19.6436 31.4753 19.4848 31.7501L18.5406 33.3867C20.8687 34.179 22.4813 32.7283 23.4484 31.3045C23.6273 31.0417 23.985 30.9728 24.2487 31.1516C24.5116 31.3304 24.5794 31.6881 24.4006 31.9509C23.1468 33.7983 21.547 34.7565 19.8186 34.7565Z" fill="#127AFF"/>
<path fill-rule="evenodd" clip-rule="evenodd" d="M22.5564 36.546C22.1958 36.546 21.821 36.5111 21.4363 36.4391C21.2785 36.4091 21.1406 36.3152 21.0556 36.1793C20.9698 36.0444 20.9447 35.8786 20.9867 35.7237L21.6452 33.2638C21.7281 32.957 22.0438 32.7752 22.3505 32.8571C22.6573 32.939 22.8391 33.2548 22.7572 33.5615L22.2686 35.387C24.7235 35.5508 25.9045 33.7314 26.47 32.1048C26.575 31.805 26.9027 31.6462 27.2034 31.7511C27.5032 31.855 27.662 32.1827 27.5571 32.4835C26.643 35.1122 24.8534 36.546 22.5564 36.546Z" fill="#127AFF"/>
<path fill-rule="evenodd" clip-rule="evenodd" d="M25.8099 37.5866C25.6661 37.5866 25.5261 37.5327 25.4192 37.4338C25.3014 37.3249 25.2344 37.172 25.2344 37.0111V34.4643C25.2344 34.1465 25.4922 33.8888 25.8099 33.8888C26.1277 33.8888 26.3854 34.1466 26.3854 34.4643V36.3537C28.7974 35.8761 29.4698 33.8139 29.5957 32.0963C29.6187 31.7796 29.8934 31.5428 30.2112 31.5638C30.528 31.5878 30.7667 31.8635 30.7437 32.1803C30.509 35.3935 28.7264 37.3629 25.8549 37.5847C25.8399 37.5857 25.8249 37.5866 25.8099 37.5866Z" fill="#127AFF"/>
<path fill-rule="evenodd" clip-rule="evenodd" d="M30.2288 37.5802C30.1359 37.5802 30.0439 37.5583 29.96 37.5143C29.8182 37.4394 29.7142 37.3085 29.6732 37.1536L29.0138 34.6937C28.9318 34.387 29.1137 34.0712 29.4204 33.9893C29.7282 33.9063 30.0429 34.0893 30.1258 34.396L30.6144 36.2204C32.8206 35.1353 32.9364 32.9692 32.6127 31.2776C32.5539 30.9659 32.7576 30.6641 33.0703 30.6042C33.3822 30.5442 33.6838 30.7491 33.7437 31.0618C34.3483 34.2261 33.1373 36.5901 30.4206 37.5473C30.3577 37.5693 30.2937 37.5803 30.2288 37.5802Z" fill="#127AFF"/>
<path fill-rule="evenodd" clip-rule="evenodd" d="M34.4953 36.4338C34.4523 36.4338 34.4103 36.4288 34.3673 36.4198C34.2115 36.3839 34.0766 36.285 33.9966 36.1461L32.7238 33.9399C32.5649 33.6652 32.6588 33.3135 32.9336 33.1546C33.2094 32.9958 33.561 33.0897 33.7199 33.3645L34.6651 35.001C36.5145 33.3814 36.0659 31.2592 35.3155 29.7095C35.1777 29.4228 35.2965 29.0791 35.5833 28.9402C35.8691 28.8023 36.2138 28.9212 36.3517 29.208C37.7555 32.1075 37.1969 34.7053 34.82 36.3329C34.724 36.3988 34.6101 36.4339 34.4953 36.4338Z" fill="#127AFF"/>
<path fill-rule="evenodd" clip-rule="evenodd" d="M38.3191 34.2185C38.1662 34.2185 38.0204 34.1576 37.9124 34.0496L36.111 32.2492C35.8862 32.0244 35.8862 31.6597 36.111 31.4349C36.3358 31.21 36.7005 31.21 36.9253 31.4349L38.2612 32.7707C39.6291 30.7274 38.6458 28.7941 37.5198 27.4912C37.3121 27.2504 37.3389 26.8867 37.5797 26.6789C37.8196 26.4711 38.1832 26.4981 38.391 26.7389C40.4973 29.1767 40.6301 31.8295 38.7557 34.0167C38.6519 34.1386 38.5009 34.2115 38.3411 34.2175C38.3342 34.2185 38.3261 34.2185 38.3191 34.2185Z" fill="#127AFF"/>
<path fill-rule="evenodd" clip-rule="evenodd" d="M41.4391 31.0899C41.3393 31.0899 41.2403 31.0629 41.1514 31.0119L38.9463 29.739C38.6705 29.5801 38.5766 29.2285 38.7355 28.9527C38.8943 28.6779 39.246 28.583 39.5218 28.7419L41.1574 29.6871C41.9498 27.359 40.4999 25.7454 39.0751 24.7783C38.8124 24.5994 38.7444 24.2417 38.9223 23.9789C39.1012 23.7162 39.4588 23.6472 39.7216 23.8261C42.3874 25.6365 43.2027 28.1644 41.9587 30.7622C41.8888 30.907 41.7629 31.016 41.609 31.0639C41.5541 31.0809 41.4961 31.0899 41.4391 31.0899Z" fill="#127AFF"/>
<path fill-rule="evenodd" clip-rule="evenodd" d="M43.6441 27.2638C43.5942 27.2638 43.5441 27.2568 43.4952 27.2439L41.0344 26.5844C40.7277 26.5024 40.5457 26.1868 40.6277 25.88C40.7107 25.5733 41.0263 25.3905 41.333 25.4734L43.1575 25.962C43.3204 23.509 41.5019 22.325 39.8763 21.7595C39.5756 21.6556 39.4167 21.3269 39.5216 21.0272C39.6255 20.7274 39.9542 20.5685 40.254 20.6725C43.2974 21.7305 44.7381 23.9617 44.2096 26.7943C44.1797 26.9511 44.0857 27.09 43.9508 27.1749C43.858 27.2339 43.751 27.2639 43.6441 27.2638Z" fill="#127AFF"/>
<path fill-rule="evenodd" clip-rule="evenodd" d="M44.782 22.9941H42.2351C41.9173 22.9941 41.6596 22.7364 41.6596 22.4186C41.6596 22.1008 41.9173 21.8431 42.235 21.8431H44.1245C43.6469 19.4321 41.5846 18.7597 39.8671 18.6338C39.5504 18.6108 39.3125 18.3351 39.3355 18.0173C39.3585 17.7006 39.6343 17.4638 39.951 17.4858C43.1644 17.7205 45.1346 19.5031 45.3564 22.3746C45.3684 22.5345 45.3134 22.6924 45.2046 22.8103C45.0957 22.9271 44.9428 22.9941 44.782 22.9941Z" fill="#127AFF"/>
<path fill-rule="evenodd" clip-rule="evenodd" d="M42.3173 19.2334C42.0635 19.2334 41.8307 19.0646 41.7617 18.8068C41.6799 18.5 41.8616 18.1843 42.1684 18.1024L43.9938 17.6128C42.9078 15.4076 40.7416 15.2918 39.05 15.6145C38.7384 15.6754 38.4366 15.4696 38.3776 15.1579C38.3177 14.8452 38.5225 14.5444 38.8342 14.4845C41.9985 13.8799 44.3625 15.0909 45.3207 17.8076C45.3737 17.9585 45.3616 18.1254 45.2867 18.2672C45.2118 18.4091 45.0819 18.513 44.927 18.555L42.4661 19.2144C42.4162 19.2274 42.3662 19.2334 42.3173 19.2334Z" fill="#127AFF"/>
<path fill-rule="evenodd" clip-rule="evenodd" d="M41.4241 15.5823C41.2253 15.5823 41.0325 15.4793 40.9255 15.2945C40.7667 15.0197 40.8606 14.6671 41.1363 14.5082L42.772 13.564C41.1523 11.7145 39.0302 12.1632 37.4804 12.9125C37.1938 13.0514 36.85 12.9315 36.7121 12.6458C36.5733 12.359 36.6931 12.0153 36.9789 11.8764C39.8795 10.4736 42.4762 11.0321 44.1038 13.4081C44.1948 13.541 44.2257 13.7048 44.1907 13.8607C44.1549 14.0176 44.0559 14.1515 43.917 14.2324L41.7119 15.5053C41.6209 15.5573 41.522 15.5823 41.4241 15.5823Z" fill="#127AFF"/>
<path fill-rule="evenodd" clip-rule="evenodd" d="M39.6156 12.2853C39.4677 12.2853 39.3208 12.2294 39.2079 12.1175C38.9832 11.8926 38.9831 11.528 39.2079 11.3032L40.5438 9.96732C38.5016 8.59946 36.5671 9.58261 35.2642 10.7077C35.0235 10.9155 34.6598 10.8895 34.4519 10.6487C34.2451 10.4079 34.2711 10.0442 34.5119 9.83642C36.9499 7.73119 39.6026 7.59832 41.7907 9.47171C41.9127 9.57657 41.9845 9.72652 41.9915 9.88735C41.9975 10.0472 41.9366 10.2031 41.8227 10.316L40.0223 12.1174C39.9094 12.2294 39.7624 12.2854 39.6156 12.2853Z" fill="#127AFF"/>
<path fill-rule="evenodd" clip-rule="evenodd" d="M37.0144 9.57282C36.9165 9.57282 36.8176 9.54786 36.7267 9.49592C36.4519 9.337 36.357 8.98533 36.5168 8.70955L37.4611 7.07396C35.1341 6.28158 33.5204 7.73141 32.5522 9.15617C32.3744 9.41893 32.0157 9.48691 31.7529 9.30806C31.4902 9.13014 31.4222 8.7715 31.6 8.50874C33.4105 5.84398 35.9384 5.02867 38.5371 6.27264C38.6811 6.34159 38.7909 6.46848 38.8379 6.62134C38.8859 6.77516 38.8669 6.94107 38.7869 7.07994L37.513 9.28506C37.4072 9.46993 37.2133 9.57282 37.0144 9.57282Z" fill="#127AFF"/>
<path fill-rule="evenodd" clip-rule="evenodd" d="M28.9885 8.74134C28.9256 8.74134 28.8616 8.73136 28.7986 8.70936C28.4989 8.6044 28.34 8.27676 28.4439 7.97599C29.5031 4.93356 31.7342 3.49281 34.5658 4.02136C34.7236 4.0503 34.8615 4.14425 34.9464 4.28012C35.0324 4.41602 35.0573 4.58089 35.0154 4.73575L34.357 7.19566C34.274 7.50237 33.9593 7.68523 33.6515 7.60233C33.3449 7.52036 33.163 7.20467 33.2449 6.89789L33.7335 5.07347C31.2806 4.90856 30.0975 6.72805 29.532 8.35466C29.4491 8.59245 29.2263 8.74137 28.9885 8.74134Z" fill="#127AFF"/>
<path fill-rule="evenodd" clip-rule="evenodd" d="M14.3521 47.1199C14.2541 47.1199 14.1552 47.095 14.0642 47.043C13.7895 46.8841 13.6945 46.5315 13.8534 46.2567L17.3674 40.1708C17.5264 39.8951 17.878 39.8012 18.1538 39.9601C18.4285 40.1189 18.5235 40.4706 18.3646 40.7464L14.8506 46.8322C14.7437 47.017 14.5508 47.12 14.3521 47.1199Z" fill="#127AFF"/>
<path fill-rule="evenodd" clip-rule="evenodd" d="M21.6409 43.2156C21.5429 43.2156 21.444 43.1907 21.3531 43.1377L13.5097 38.6095C13.234 38.4507 13.14 38.098 13.2989 37.8232C13.4578 37.5474 13.8095 37.4535 14.0853 37.6124L21.9286 42.1415C22.2045 42.3004 22.2983 42.6521 22.1394 42.9269C22.0335 43.1117 21.8396 43.2156 21.6409 43.2156Z" fill="#127AFF"/>
<path fill-rule="evenodd" clip-rule="evenodd" d="M41.6502 47.1199C41.4513 47.1199 41.2585 47.0171 41.1515 46.8322L37.6376 40.7464C37.4787 40.4706 37.5736 40.1189 37.8484 39.9601C38.1242 39.8012 38.4758 39.8951 38.6347 40.1709L42.1478 46.2567C42.3076 46.5315 42.2127 46.8842 41.9379 47.043C41.847 47.095 41.748 47.12 41.6502 47.1199Z" fill="#127AFF"/>
<path fill-rule="evenodd" clip-rule="evenodd" d="M34.3611 43.2157C34.1622 43.2157 33.9683 43.1118 33.8624 42.9269C33.7036 42.6521 33.7974 42.3005 34.0722 42.1416L41.9166 37.6124C42.1924 37.4535 42.544 37.5475 42.7029 37.8233C42.8618 38.098 42.7679 38.4507 42.4921 38.6096L34.6478 43.1377C34.5579 43.1906 34.4589 43.2157 34.3611 43.2157Z" fill="#127AFF"/>
<path fill-rule="evenodd" clip-rule="evenodd" d="M16.0515 53.1338C16.0285 53.1338 16.0045 53.1318 15.9805 53.1289C15.7507 53.1009 15.5609 52.937 15.4979 52.7142L13.9473 47.2269L8.21817 48.5238C7.99539 48.5737 7.76347 48.4878 7.62761 48.303C7.49183 48.1191 7.47872 47.8723 7.59266 47.6745L16.9677 31.4363C17.1266 31.1615 17.4783 31.0666 17.754 31.2254C18.0288 31.3843 18.1237 31.737 17.9648 32.0118L9.24724 47.1099L14.2251 45.9839C14.5228 45.916 14.8225 46.0938 14.9064 46.3886L16.2343 51.0895L25.3117 35.3679C25.4705 35.0921 25.8232 34.9982 26.0979 35.1571C26.3738 35.316 26.4676 35.6677 26.3087 35.9434L16.55 52.8461C16.4462 53.0249 16.2553 53.1338 16.0515 53.1338Z" fill="#127AFF"/>
<path fill-rule="evenodd" clip-rule="evenodd" d="M39.9501 53.136C39.7463 53.136 39.5554 53.0271 39.4514 52.8483L30.3282 37.0466C30.1694 36.7709 30.2632 36.4192 30.539 36.2604C30.8138 36.1014 31.1665 36.1954 31.3253 36.4712L39.7672 51.0917L41.0951 46.3907C41.179 46.096 41.4777 45.9191 41.7764 45.9861L46.7542 47.1121L38.5362 32.8792C38.3774 32.6034 38.4713 32.2517 38.747 32.0929C39.0218 31.934 39.3745 32.0279 39.5334 32.3037L48.4088 47.6766C48.5228 47.8745 48.5087 48.1213 48.3738 48.3052C48.238 48.49 48.0061 48.5759 47.7833 48.5259L42.0543 47.229L40.5036 52.7164C40.4406 52.9392 40.2508 53.1031 40.0209 53.131C39.997 53.134 39.973 53.136 39.9501 53.136Z" fill="#127AFF"/>
<path fill-rule="evenodd" clip-rule="evenodd" d="M24.9801 35.8007C24.8002 35.8007 24.6223 35.7168 24.5104 35.5579C24.3266 35.2991 24.3875 34.9395 24.6473 34.7556C25.6334 34.0572 26.183 32.9262 26.4697 32.1009C26.5747 31.8011 26.9023 31.6423 27.2031 31.7472C27.5029 31.8511 27.6617 32.1788 27.5568 32.4796C27.2151 33.4637 26.5476 34.8206 25.3127 35.6948C25.2118 35.7667 25.0949 35.8007 24.9801 35.8007Z" fill="#127AFF"/>
<path fill-rule="evenodd" clip-rule="evenodd" d="M25.8099 36.0759C25.4922 36.0759 25.2344 35.8182 25.2344 35.5004V34.4643C25.2344 34.1465 25.4922 33.8888 25.8099 33.8888C26.1277 33.8888 26.3854 34.1466 26.3854 34.4643V35.5004C26.3854 35.8182 26.1276 36.0759 25.8099 36.0759ZM28.9633 36.0759C28.8344 36.0759 28.7035 36.033 28.5965 35.9431C28.3518 35.7402 28.3178 35.3775 28.5206 35.1327C29.294 34.2025 29.5317 32.9686 29.5957 32.0963C29.6187 31.7796 29.8924 31.5428 30.2112 31.5638C30.528 31.5878 30.7667 31.8635 30.7437 32.1803C30.6678 33.2194 30.374 34.7041 29.4068 35.8681C29.293 36.005 29.1291 36.0759 28.9633 36.0759Z" fill="#127AFF"/>
<path fill-rule="evenodd" clip-rule="evenodd" d="M29.8252 36.0739C29.5713 36.0739 29.3385 35.9051 29.2696 35.6473L29.0138 34.6931C28.9318 34.3864 29.1137 34.0707 29.4204 33.9888C29.7282 33.9058 30.0429 34.0887 30.1258 34.3954L30.3816 35.3495C30.4636 35.6563 30.2817 35.9721 29.974 36.055C29.9251 36.0679 29.874 36.074 29.8252 36.0739Z" fill="#127AFF"/>
</svg>
